<?xml version="1.0" ?><svg data-name="Filled Outline" id="Filled_Outline" viewBox="0 0 128 128" xmlns="http://www.w3.org/2000/svg"><title/><rect height="107.75" rx="3" ry="3" style="fill:#ffe3de" width="80" x="20.538" y="18.049"/><path d="M97.538,127.3h-74a4.5,4.5,0,0,1-4.5-4.5V21.049a4.5,4.5,0,0,1,4.5-4.5h74a4.5,4.5,0,0,1,4.5,4.5V122.8A4.505,4.505,0,0,1,97.538,127.3Zm-74-107.75a1.5,1.5,0,0,0-1.5,1.5V122.8a1.5,1.5,0,0,0,1.5,1.5h74a1.5,1.5,0,0,0,1.5-1.5V21.049a1.5,1.5,0,0,0-1.5-1.5Z" style="fill:#332c44"/><rect height="13.391" rx="3" ry="3" style="fill:#ff5581" width="13.391" x="78.618" y="53.309"/><rect height="13.391" rx="3" ry="3" style="fill:#ff5581" width="13.391" x="78.618" y="76.559"/><rect height="13.391" rx="3" ry="3" style="fill:#ff5581" width="13.391" x="78.618" y="99.809"/><path d="M72.3,57.516H30.282a1.5,1.5,0,0,1,0-3H72.3a1.5,1.5,0,0,1,0,3Z" style="fill:#332c44"/><path d="M72.3,65.493H30.282a1.5,1.5,0,0,1,0-3H72.3a1.5,1.5,0,1,1,0,3Z" style="fill:#332c44"/><path d="M72.3,80.766H30.282a1.5,1.5,0,1,1,0-3H72.3a1.5,1.5,0,0,1,0,3Z" style="fill:#332c44"/><path d="M72.3,88.743H30.282a1.5,1.5,0,1,1,0-3H72.3a1.5,1.5,0,0,1,0,3Z" style="fill:#332c44"/><path d="M72.3,104.016H30.282a1.5,1.5,0,1,1,0-3H72.3a1.5,1.5,0,0,1,0,3Z" style="fill:#332c44"/><path d="M72.3,111.993H30.282a1.5,1.5,0,0,1,0-3H72.3a1.5,1.5,0,0,1,0,3Z" style="fill:#332c44"/><path d="M84.908,62.653a2.946,2.946,0,0,1-1.793-.61l-.46-.35a1.5,1.5,0,0,1,1.82-2.385l.46.351,2.327-2.553a1.5,1.5,0,1,1,2.194,2.047l-2.389,2.559A2.947,2.947,0,0,1,84.908,62.653Z" style="fill:#332c44"/><path d="M84.908,85.9a2.946,2.946,0,0,1-1.793-.61l-.46-.35a1.5,1.5,0,0,1,1.82-2.385l.46.351,2.327-2.553A1.5,1.5,0,1,1,89.456,82.4l-2.389,2.559A2.947,2.947,0,0,1,84.908,85.9Z" style="fill:#332c44"/><path d="M84.908,109.153a2.946,2.946,0,0,1-1.793-.61l-.46-.35a1.5,1.5,0,0,1,1.82-2.385l.46.351,2.327-2.553a1.5,1.5,0,1,1,2.194,2.047l-2.389,2.559A2.947,2.947,0,0,1,84.908,109.153Z" style="fill:#332c44"/><path d="M80.485,15.266A3.867,3.867,0,0,0,76.8,13.3a4.082,4.082,0,0,0-.516.075A3.912,3.912,0,0,0,73.6,15.413a.383.383,0,0,1-.255.211l-1.616.291a1.525,1.525,0,0,1-1.45-.579A12.308,12.308,0,0,0,65.8,11.851a1.463,1.463,0,0,1-.823-1.326l-.028-2.6a.081.081,0,0,1,.027-.063,3.132,3.132,0,0,0-2.249-5.593,3.036,3.036,0,0,0-.335.051h0a3.058,3.058,0,0,0-2.249,1.931,3.136,3.136,0,0,0,.515,3.133.081.081,0,0,1,.017.07l-.542,2.313a1.459,1.459,0,0,1-1.112,1.1c-.03.006-.059.012-.089.016q-.373.054-.747.132c-.357.075-.713.167-1.06.274a12.092,12.092,0,0,0-3.517,1.752,1.4,1.4,0,0,1-.529.233,1.48,1.48,0,0,1-1.047-.173l-2.006-1.171a.154.154,0,0,1-.067-.115,3.283,3.283,0,0,0-6.239-.965,3.506,3.506,0,0,0,.568,3.591,3.3,3.3,0,0,0,2.919,1.02.136.136,0,0,1,.114.036l1.614,1.562a1.427,1.427,0,0,1,.371,1.532,12.176,12.176,0,0,0-.814,4.242,1.417,1.417,0,0,1-.82,1.31l-3.018,1.34-.026.007a.205.205,0,0,1-.153-.015,3.47,3.47,0,0,0-2.384-.356,3.551,3.551,0,0,0-.885.313,3.705,3.705,0,0,0-1.866,3.361,3.474,3.474,0,0,0,4.169,3.116c.1-.022.209-.048.312-.08A3.442,3.442,0,0,0,45.889,30.1a.223.223,0,0,1,.148-.121l3.194-.582a1.443,1.443,0,0,1,1.448.575,12.243,12.243,0,0,0,4.758,4.046,1.452,1.452,0,0,1,.812,1.36l-.072,2.281a.194.194,0,0,1-.088.15,3.41,3.41,0,0,0-.536,5.069A3.424,3.424,0,0,0,58.3,43.98a2.733,2.733,0,0,0,.395-.054,3.721,3.721,0,0,0,2.6-2.243,3.433,3.433,0,0,0-.5-3.154.209.209,0,0,1-.044-.174l.617-2.21a1.448,1.448,0,0,1,1.093-1.04c.028-.006.057-.011.086-.015.247-.036.495-.08.742-.132.354-.074.707-.165,1.049-.271a12.088,12.088,0,0,0,3.55-1.775,1.4,1.4,0,0,1,.535-.237,1.471,1.471,0,0,1,1.066.185l1.975,1.194a.082.082,0,0,1,.032.062,3.077,3.077,0,0,0,5.834,1,3.007,3.007,0,0,0-.319-3.185,3.079,3.079,0,0,0-2.882-1.191.061.061,0,0,1-.053-.017l-1.642-1.641a1.444,1.444,0,0,1-.338-1.556,12.114,12.114,0,0,0,.859-5.062,1.456,1.456,0,0,1,.871-1.374l1.046-.467a.4.4,0,0,1,.067-.022.392.392,0,0,1,.265.044,3.918,3.918,0,0,0,2.676.395c.118-.025.236-.055.354-.091a3.919,3.919,0,0,0,2.25-5.68Z" style="fill:#3abaae"/><circle cx="65.023" cy="19.612" r="2.062" style="fill:#332c44"/><circle cx="64.226" cy="28.74" r="1.668" style="fill:#332c44"/><circle cx="53.423" cy="24.719" r="1.46" style="fill:#332c44"/><circle cx="59.546" cy="24.22" r="1.188" style="fill:#332c44"/><circle cx="57.367" cy="17.355" r="1.159" style="fill:#332c44"/><path d="M82.45,14.514A6.122,6.122,0,0,0,76.622,11.4a6.577,6.577,0,0,0-.8.115A6.157,6.157,0,0,0,72.108,13.9l-.33.06a14.565,14.565,0,0,0-4.554-3.582l-.013-1.228A5.393,5.393,0,0,0,61.932.46h0a5.3,5.3,0,0,0-3.9,3.346,5.374,5.374,0,0,0,.239,4.373l-.213.909c-.112.021-.225.043-.338.067-.424.089-.848.2-1.261.326a14.318,14.318,0,0,0-3.724,1.768l-.8-.464a5.534,5.534,0,0,0-10.259-.55,5.768,5.768,0,0,0,.959,6.081,5.556,5.556,0,0,0,3.763,1.767l.6.585a14.392,14.392,0,0,0-.753,3.984l-1.708.758a5.72,5.72,0,0,0-2.919-.152,5.858,5.858,0,0,0-1.444.51A5.964,5.964,0,0,0,37.1,29.335a5.724,5.724,0,0,0,6.872,5.118q.257-.054.513-.132a5.678,5.678,0,0,0,2.829-1.949l1.836-.335a14.507,14.507,0,0,0,4.833,4.107l-.027.89a5.662,5.662,0,0,0,4.471,9.536,4.916,4.916,0,0,0,.727-.1,5.966,5.966,0,0,0,4.274-3.73,5.7,5.7,0,0,0-.27-4.3l.243-.872c.117-.022.233-.045.35-.069.421-.089.842-.2,1.25-.323a14.3,14.3,0,0,0,3.757-1.79l.753.455a5.328,5.328,0,1,0,9.28-4.951,7.593,7.593,0,0,0-4.411-2.708,14.306,14.306,0,0,0,.837-4.761,6.176,6.176,0,0,0,3.125.157q.278-.058.554-.143a6.169,6.169,0,0,0,3.553-8.926Zm-4.436,6.059c-.095.029-.191.054-.287.074a3.162,3.162,0,0,1-2.163-.32,1.138,1.138,0,0,0-.778-.119,1.118,1.118,0,0,0-.219.071l-1.045.466a2.2,2.2,0,0,0-1.315,2.092,11.44,11.44,0,0,1-.806,4.752,2.2,2.2,0,0,0,.5,2.365L73.547,31.6a.816.816,0,0,0,.686.229,2.338,2.338,0,0,1,2.186.907,2.261,2.261,0,0,1,.239,2.4,2.328,2.328,0,0,1-4.416-.75.824.824,0,0,0-.389-.622l-1.975-1.194a2.229,2.229,0,0,0-1.608-.277,2.148,2.148,0,0,0-.822.364,11.354,11.354,0,0,1-3.33,1.665q-.49.151-.982.254-.348.072-.7.123c-.044.007-.088.014-.132.024a2.2,2.2,0,0,0-1.661,1.572l-.618,2.21a.951.951,0,0,0,.167.826,2.663,2.663,0,0,1,.389,2.465,2.954,2.954,0,0,1-2.046,1.748,2.03,2.03,0,0,1-.285.039,2.66,2.66,0,0,1-1.728-4.817.944.944,0,0,0,.4-.736L57,35.741a2.2,2.2,0,0,0-1.238-2.06,11.489,11.489,0,0,1-4.466-3.8A2.194,2.194,0,0,0,49.1,29l-3.19.581-.024,0a.973.973,0,0,0-.661.513,2.717,2.717,0,0,1-1.62,1.358c-.081.025-.163.046-.245.063a2.723,2.723,0,0,1-3.268-2.449,2.974,2.974,0,0,1,1.459-2.626,2.812,2.812,0,0,1,.7-.248,2.717,2.717,0,0,1,1.868.28.958.958,0,0,0,.846.037l3.017-1.34a2.174,2.174,0,0,0,1.266-1.987,11.45,11.45,0,0,1,.764-3.982,2.187,2.187,0,0,0-.549-2.34L47.844,15.3a.88.88,0,0,0-.75-.238,2.535,2.535,0,0,1-2.255-.791A2.768,2.768,0,0,1,44.4,11.51a2.532,2.532,0,0,1,4.815.74.9.9,0,0,0,.434.669l2.006,1.171a2.23,2.23,0,0,0,1.579.26,2.145,2.145,0,0,0,.813-.359,11.356,11.356,0,0,1,3.3-1.643c.33-.1.662-.187.993-.257q.351-.073.7-.124c.046-.007.09-.015.135-.024a2.208,2.208,0,0,0,1.688-1.663l.542-2.314a.83.83,0,0,0-.17-.72,2.391,2.391,0,0,1-.389-2.39,2.3,2.3,0,0,1,1.7-1.46,2.355,2.355,0,0,1,.256-.039A2.382,2.382,0,0,1,64.52,7.611a.824.824,0,0,0-.319.664l.028,2.6a2.214,2.214,0,0,0,1.261,2,11.5,11.5,0,0,1,4.2,3.272,2.27,2.27,0,0,0,2.17.848l1.606-.29.03-.006a1.131,1.131,0,0,0,.768-.6,3.167,3.167,0,0,1,2.176-1.652,3.589,3.589,0,0,1,.423-.061,3.166,3.166,0,0,1,1.149,6.185Z" style="fill:#332c44"/><path d="M89.008,68.2h-7.39a4.5,4.5,0,0,1-4.5-4.5V56.309a4.5,4.5,0,0,1,4.5-4.5h7.39a4.5,4.5,0,0,1,4.5,4.5V63.7A4.5,4.5,0,0,1,89.008,68.2Zm-7.39-13.391a1.5,1.5,0,0,0-1.5,1.5V63.7a1.5,1.5,0,0,0,1.5,1.5h7.39a1.5,1.5,0,0,0,1.5-1.5V56.309a1.5,1.5,0,0,0-1.5-1.5Z" style="fill:#332c44"/><path d="M89.008,91.45h-7.39a4.5,4.5,0,0,1-4.5-4.5V79.559a4.5,4.5,0,0,1,4.5-4.5h7.39a4.5,4.5,0,0,1,4.5,4.5V86.95A4.5,4.5,0,0,1,89.008,91.45Zm-7.39-13.391a1.5,1.5,0,0,0-1.5,1.5V86.95a1.5,1.5,0,0,0,1.5,1.5h7.39a1.5,1.5,0,0,0,1.5-1.5V79.559a1.5,1.5,0,0,0-1.5-1.5Z" style="fill:#332c44"/><path d="M89.008,114.7h-7.39a4.5,4.5,0,0,1-4.5-4.5v-7.391a4.5,4.5,0,0,1,4.5-4.5h7.39a4.5,4.5,0,0,1,4.5,4.5V110.2A4.5,4.5,0,0,1,89.008,114.7Zm-7.39-13.391a1.5,1.5,0,0,0-1.5,1.5V110.2a1.5,1.5,0,0,0,1.5,1.5h7.39a1.5,1.5,0,0,0,1.5-1.5v-7.391a1.5,1.5,0,0,0-1.5-1.5Z" style="fill:#332c44"/></svg>