<?xml version="1.0" ?><svg viewBox="0 0 48 48" xmlns="http://www.w3.org/2000/svg"><defs><style>.cls-1{fill:#dad7e5;}.cls-2{fill:#edebf2;}.cls-3{fill:#f6ccaf;}.cls-4{fill:#ffdec7;}.cls-5{fill:#82bcf4;}.cls-6{fill:#6fabe6;}.cls-7{fill:#edb996;}.cls-8{fill:#5b9ad8;}.cls-9{fill:#db5669;}.cls-10{fill:#374f68;}.cls-11{fill:#c6c3d8;}</style></defs><title/><g id="Doctor"><path class="cls-1" d="M34,13H14l1.47-8.11a4,4,0,0,1,3.44-3.25c6.11-.77,3.77-.81,10.18,0a4,4,0,0,1,3.44,3.25C33.84,12.08,33.52,10.33,34,13Z"/><path class="cls-2" d="M33.64,11h-9.4a6.88,6.88,0,0,1-6.77-8.11c.24-1.35-.21-1,6.53-1.89l5.09.64a4,4,0,0,1,3.44,3.25Z"/><path class="cls-3" d="M33,13v7a9,9,0,0,1-4,7.47c0-7.41.9-6.47-8-6.47a2,2,0,0,0-2,2v4.47A9,9,0,0,1,15,20V13Z"/><path class="cls-4" d="M33,13c0,6.58.67,10.05-2.62,13.34A9,9,0,0,1,18,18V13Z"/><path class="cls-5" d="M33,13v2.59l-4,9.6c-.68,1.61-2.4.52-1.92-.57L31.92,13Z"/><path class="cls-3" d="M27.08,24.62,31.92,13h-1c-4.27,10.24-3.13,7.51-4.84,11.62a1,1,0,0,0,1.44,1.23A1,1,0,0,1,27.08,24.62Z"/><path class="cls-6" d="M20,26c-.87,0-.59.19-5-10.41V13h1.08c4,9.6,2.54,6.09,4.84,11.62A1,1,0,0,1,20,26Z"/><path class="cls-7" d="M19,27.19c-4.63-11.08-4-8.91-4-11.6C19.72,26.93,19,24.66,19,27.19Z"/><path class="cls-5" d="M20.49,25.86c-.38-.23-.31-.22-2-4.21C17.05,18.1,16,16.17,16,13c.12,0-.28-.9,4.92,11.62A1,1,0,0,1,20.49,25.86Z"/><path class="cls-1" d="M29,23v4.48a9,9,0,0,1-10,0V23a2,2,0,0,1,2-2h6A2,2,0,0,1,29,23Z"/><path class="cls-7" d="M19,27.47l-1-.78c0-3,0-3.77,0-3.87C19.2,25.67,19,24.6,19,27.47Z"/><path class="cls-7" d="M21,21a1.9,1.9,0,0,0-1.06.31c-.41.26-.24.38-.49-.23A5.35,5.35,0,0,1,21,21Z"/><path class="cls-8" d="M19,25.19l-1-2.37a2,2,0,0,1,.52-1.17C19.14,23.12,19,22.27,19,25.19Z"/><path class="cls-6" d="M19.64,21.54c-1.06,1-.25,2.2-1.11.11a2,2,0,0,1,.92-.57Z"/><path class="cls-2" d="M29,23v4.05a8.94,8.94,0,0,1-9-.57c0-4.78-.06-4.79.18-5.3.53-.25.47-.18,6.82-.18A2,2,0,0,1,29,23Z"/><path class="cls-3" d="M15,13v6H14a3,3,0,0,1,0-6Z"/><path class="cls-3" d="M37,16a3,3,0,0,1-3,3H33V13h1A3,3,0,0,1,37,16Z"/><path class="cls-4" d="M37,15.5A3,3,0,0,1,34,18H33V13h1A3,3,0,0,1,37,15.5Z"/><path class="cls-1" d="M24,47H4l1-5.47A10,10,0,0,1,11.24,34L19,31C24,47.11,23.14,44.23,24,47Z"/><path class="cls-2" d="M23.38,45H12.56A4.64,4.64,0,0,1,8,39.53a9.94,9.94,0,0,1,2.67-5.18c.79-.51-.4,0,8.33-3.35Z"/><path class="cls-1" d="M44,47H24c.84-2.68,0,.15,5-16l7.76,3A10,10,0,0,1,43,41.53C43.76,45.71,43.53,44.48,44,47Z"/><path class="cls-2" d="M43.63,45h-19L29,31l7.76,3A10,10,0,0,1,43,41.53Z"/><path class="cls-3" d="M28.33,31a4.34,4.34,0,0,1-8.67-.32A19.86,19.86,0,0,1,20,28.05a8.92,8.92,0,0,0,8,0A14.6,14.6,0,0,1,28.33,31Z"/><path class="cls-4" d="M27.27,33.53a4.35,4.35,0,0,1-7.6-3.17,9,9,0,0,0,5.57.36,1.64,1.64,0,0,1,2.05,1.33A4.58,4.58,0,0,1,27.27,33.53Z"/><path class="cls-9" d="M26,6H25V5a1,1,0,0,0-2,0V6H22a1,1,0,0,0,0,2h1V9a1,1,0,0,0,2,0V8h1A1,1,0,0,0,26,6Z"/><path class="cls-1" d="M25,26H23a1,1,0,0,1,0-2h2A1,1,0,0,1,25,26Z"/><path class="cls-10" d="M22,18c-.79,0-.76-.78-1.31-.28a1,1,0,0,1-1.4-1.43c1.85-1.85,4.64.19,3.42,1.42A1,1,0,0,1,22,18Z"/><path class="cls-10" d="M28,18c-.79,0-.76-.78-1.31-.28a1,1,0,0,1-1.4-1.43c1.85-1.85,4.64.19,3.42,1.42A1,1,0,0,1,28,18Z"/><rect class="cls-11" height="4" width="6" x="31" y="43"/><path class="cls-1" d="M37,43v3H35a3,3,0,0,1-3-3Z"/><path class="cls-10" d="M35,41v2H33V41A1,1,0,0,1,35,41Z"/><path class="cls-6" d="M29,31,24,47c-.7-2.22.25.82-5-16h.67a4.34,4.34,0,0,0,8.66,0Z"/><path class="cls-5" d="M29,31c-4.27,13.66-3.92,12.53-4.35,13.94-.73-2.32-.11-.36-3.42-10.94a4.34,4.34,0,0,0,6.68-1.45C28.8,30.77,27.72,31,29,31Z"/><path class="cls-8" d="M24.65,44.94,24,47l-.5-1.59c.17-.52,0-.07.63-2.13Z"/><path class="cls-6" d="M29,31c-4.27,13.66-3.92,12.53-4.35,13.94l-.52-1.66c3.49-12,2.39-8.62,3.24-9.89a4.24,4.24,0,0,0,1-2.39Z"/></g></svg>