<?xml version="1.0" encoding="UTF-8"?>
<svg version="1.1" xmlns="http://www.w3.org/2000/svg" width="512" height="512">
<path d="M0 0 C1.57998779 -0.01051392 1.57998779 -0.01051392 3.19189453 -0.02124023 C6.65196606 -0.03875257 10.1112101 -0.02721745 13.57128906 -0.01367188 C15.99351151 -0.01636952 18.4157329 -0.0202542 20.83795166 -0.02526855 C25.90834896 -0.03115518 30.97846376 -0.02263019 36.04882812 -0.00390625 C42.51906833 0.01883339 48.98864292 0.00578579 55.45885849 -0.01819611 C60.46060102 -0.03271817 65.46218839 -0.0280179 70.46393585 -0.01768494 C72.84794444 -0.01503281 75.23196752 -0.01823358 77.61595917 -0.02760315 C101.48193265 -0.10080051 101.48193265 -0.10080051 112.08691406 4.51757812 C113.45888947 5.09965027 113.45888947 5.09965027 114.85858154 5.69348145 C129.85183719 12.35959177 139.23058899 24.57676151 145.89550781 39.21679688 C148.70746857 47.00731111 149.37938294 54.34181244 149.3581543 62.5859375 C149.36599442 64.19019341 149.36599442 64.19019341 149.37399292 65.82685852 C149.38418571 68.13482711 149.39000503 70.44281838 149.39187431 72.75080872 C149.39555543 76.40864669 149.41232911 80.06621777 149.43263245 83.72399902 C149.48788445 94.11884597 149.51873559 104.51373119 149.54321289 114.90869141 C149.55911549 121.27986685 149.58935818 127.65085081 149.62797737 134.02192688 C149.63959802 136.44271305 149.64555746 138.86353348 149.64565849 141.28434753 C149.64585124 144.67284074 149.66416817 148.0608076 149.6862793 151.44921875 C149.68170212 152.44065384 149.67712494 153.43208893 149.67240906 154.4535675 C149.73651018 160.65474915 150.74941676 165.7676928 153.08691406 171.51757812 C154.00534088 171.27457977 154.00534088 171.27457977 154.94232178 171.02667236 C165.54850763 168.29474421 176.26312504 166.07509798 186.97753906 163.81445312 C188.01567497 163.59530495 189.05381088 163.37615677 190.12340546 163.15036774 C195.60440122 161.99424498 201.08612741 160.84165173 206.56835938 159.69140625 C211.08941356 158.74207309 215.60881382 157.78537435 220.12695312 156.82226562 C225.61084658 155.65331943 231.09724756 154.49693746 236.58568573 153.34952545 C238.66773581 152.91210731 240.74887733 152.47034028 242.82904816 152.02407074 C245.73586312 151.40144334 248.64563394 150.79506189 251.55664062 150.19238281 C252.40669678 150.0064859 253.25675293 149.82058899 254.13256836 149.62905884 C260.71772845 148.29320924 266.20157104 148.10212683 272.39941406 151.14257812 C278.95186593 156.93311699 279.64780086 166.72579778 281.33691406 174.89257812 C281.61792969 176.16875 281.89894531 177.44492188 282.18847656 178.75976562 C285.471703 194.49324679 285.471703 194.49324679 281.08691406 201.89257812 C274.65624247 207.51941577 265.3276211 208.4688738 257.16064453 210.16894531 C255.41989655 210.53777077 255.41989655 210.53777077 253.64398193 210.91404724 C250.48798791 211.58122253 247.33103335 212.24355951 244.17339849 212.90291882 C242.1966034 213.31602005 240.22012537 213.73060508 238.24374771 214.14569855 C231.33796914 215.59602196 224.43102026 217.04061722 217.52294922 218.47998047 C211.09899957 219.81863587 204.67783825 221.17011632 198.25782096 222.52749324 C192.72811276 223.69602313 187.19654311 224.85543427 181.66345513 226.00785375 C178.36625864 226.69475438 175.0699291 227.38528771 171.77544785 228.0851059 C168.1039932 228.86252107 164.4297319 229.62497454 160.75439453 230.38378906 C159.67161224 230.61643967 158.58882996 230.84909027 157.47323608 231.08879089 C149.02693089 232.80642774 143.39875666 232.09146596 135.14941406 229.45507812 C134.00601562 229.09285156 132.86261719 228.730625 131.68457031 228.35742188 C130.82734375 228.08027344 129.97011719 227.803125 129.08691406 227.51757812 C128.55904297 228.91556641 128.55904297 228.91556641 128.02050781 230.34179688 C123.24576486 242.76498585 117.77959286 254.30983549 109.08691406 264.51757812 C108.50554687 265.24332031 107.92417969 265.9690625 107.32519531 266.71679688 C101.63801172 273.54857087 94.11725702 280.50240665 86.08691406 284.51757812 C85.99939993 288.39243447 85.94634971 292.26703455 85.89941406 296.14257812 C85.87427734 297.23699219 85.84914063 298.33140625 85.82324219 299.45898438 C85.71695329 307.42197049 85.71695329 307.42197049 89.08691406 314.51757812 C94.86164209 319.06364061 98.9041469 319.63957503 106.11181641 319.65942383 C106.81167664 319.66289825 107.51153687 319.66637268 108.23260498 319.66995239 C109.75053492 319.67729276 111.26847548 319.68264729 112.78641891 319.68624306 C115.2018256 319.69344578 117.61703347 319.709145 120.03237915 319.72758484 C126.89964903 319.77984298 133.76681336 319.8279039 140.63427734 319.84350586 C144.8407227 319.85368636 149.04667088 319.88326856 153.25291824 319.92482567 C154.84339226 319.93700674 156.43393696 319.94228094 158.02445602 319.94002724 C177.31711218 319.91943655 193.21264394 324.81173147 207.29003906 338.59570312 C222.38150884 354.01480318 226.22299884 372.29220752 226.24804688 393.13623047 C226.25301178 394.1456369 226.25797668 395.15504333 226.26309204 396.19503784 C226.27757044 399.49787092 226.28448726 402.80065618 226.29003906 406.10351562 C226.29286644 407.23673878 226.29569382 408.36996193 226.29860687 409.53752518 C226.31353197 415.52029907 226.32280685 421.5030492 226.32714844 427.48583984 C226.33266047 433.66646374 226.35676464 439.84687038 226.38512039 446.02742577 C226.40371056 450.78513235 226.40895017 455.54278582 226.41048431 460.30052567 C226.41351349 462.58034086 226.42155089 464.86015507 226.43466949 467.13993454 C226.4516732 470.31855918 226.44986493 473.49664165 226.44335938 476.67529297 C226.45257416 477.61767822 226.46178894 478.56006348 226.47128296 479.53100586 C226.46292923 480.83018448 226.46292923 480.83018448 226.45440674 482.15560913 C226.4558733 482.90586554 226.45733986 483.65612194 226.45885086 484.42911339 C225.95738575 487.24489341 225.09319844 488.47281867 223.08691406 490.51757812 C220.3132596 491.02012545 220.3132596 491.02012545 216.86963654 491.023736 C214.90404195 491.04030753 214.90404195 491.04030753 212.89873838 491.05721384 C211.43578612 491.04925572 209.97283588 491.04091799 208.5098877 491.03224182 C206.96262972 491.03756336 205.4153769 491.04462677 203.86813402 491.05328888 C199.60500352 491.0719953 195.3422185 491.06558395 191.07907319 491.05513585 C186.48594737 491.04816643 181.89289415 491.06412449 177.29978943 491.07713318 C168.2974154 491.09881608 159.29516757 491.09863538 150.29277599 491.09050763 C142.97878667 491.08421733 135.66483425 491.08533574 128.35084534 491.09177971 C127.31135751 491.09268136 126.27186968 491.09358302 125.20088223 491.094512 C123.08942901 491.09636313 120.97797581 491.09822569 118.86652261 491.10009956 C99.05005833 491.11669284 79.23366517 491.10794569 59.41720515 491.09111398 C41.27105379 491.07641409 23.12506796 491.0910468 4.97893792 491.11988414 C-13.63588392 491.14924694 -32.25062928 491.16025964 -50.86547327 491.15070194 C-52.96932124 491.14967935 -55.07316922 491.14868474 -57.17701721 491.14771843 C-58.21225146 491.14724204 -59.24748571 491.14676565 -60.3140907 491.14627482 C-67.62246332 491.14410665 -74.93076386 491.15393609 -82.23912048 491.16848946 C-91.14108457 491.18596833 -100.04283749 491.18595955 -108.94479311 491.1631378 C-113.49001308 491.15195524 -118.03486041 491.14892326 -122.58006477 491.16743851 C-126.73640067 491.18415234 -130.89203632 491.17801735 -135.04832608 491.15322172 C-136.55635203 491.14830786 -138.06443351 491.15193655 -139.57241338 491.16470916 C-141.61349366 491.18075705 -143.65475676 491.16333888 -145.69580841 491.14399052 C-146.83220402 491.14372083 -147.96859963 491.14345114 -149.13943148 491.14317328 C-151.91308594 490.51757812 -151.91308594 490.51757812 -153.77824515 488.11479789 C-154.90800755 485.52920064 -155.28794503 483.90116782 -155.28730774 481.10696411 C-155.29432205 480.25511032 -155.30133636 479.40325653 -155.30856323 478.52558899 C-155.30091949 477.60400497 -155.29327576 476.68242096 -155.28540039 475.73291016 C-155.28905106 474.75165665 -155.29270172 473.77040314 -155.29646301 472.75941467 C-155.30456853 469.51456387 -155.29094822 466.27021286 -155.27636719 463.02539062 C-155.27584817 460.75918579 -155.27636749 458.49298051 -155.27787781 456.22677612 C-155.27778806 451.47045184 -155.26736026 446.71429693 -155.24926758 441.95800781 C-155.22670992 435.89829362 -155.22601266 429.83882966 -155.23278522 423.77908516 C-155.23615012 419.09296497 -155.22944587 414.40690044 -155.21965599 409.72079086 C-155.21583723 407.48915779 -155.21464179 405.25751848 -155.21624184 403.02588272 C-155.2191535 378.7129058 -153.88396635 356.88714027 -136.16308594 338.26757812 C-124.66286236 327.32241813 -110.39541763 320.384039 -94.40405273 320.35986328 C-93.66514801 320.35478256 -92.92624329 320.34970184 -92.16494751 320.34446716 C-90.56626745 320.33379941 -88.9675728 320.32516526 -87.36887169 320.31834793 C-84.83322374 320.3065048 -82.29774199 320.28703811 -79.76216125 320.26522827 C-72.55479507 320.20379529 -65.34744759 320.14962409 -58.13989258 320.11621094 C-53.72490949 320.09519716 -49.310233 320.05984271 -44.8954258 320.01545334 C-43.21904942 320.00134895 -41.54261883 319.99258354 -39.86618614 319.98939896 C-37.51390135 319.98445744 -35.16242213 319.96121832 -32.81030273 319.93408203 C-32.1269133 319.93708817 -31.44352386 319.9400943 -30.73942566 319.94319153 C-24.47908995 319.83662418 -18.89322971 318.54849482 -14.47558594 314.01757812 C-12.17697336 310.339798 -11.76109055 307.44455448 -11.59667969 303.19335938 C-11.55478516 302.16533203 -11.51289063 301.13730469 -11.46972656 300.078125 C-11.43041016 299.00626953 -11.39109375 297.93441406 -11.35058594 296.83007812 C-11.30740234 295.74662109 -11.26421875 294.66316406 -11.21972656 293.546875 C-11.11361756 290.87057021 -11.01156233 288.19417286 -10.91308594 285.51757812 C-11.6870874 285.21899902 -12.46108887 284.92041992 -13.25854492 284.61279297 C-30.89805517 277.33505518 -44.64587874 258.37382845 -52.28808594 241.58007812 C-56.13753921 231.95644495 -58.58458565 222.07809959 -59.60058594 211.76757812 C-60.13617876 207.79860396 -60.13617876 207.79860396 -62.82324219 205.06835938 C-65.15280602 204.04423725 -65.15280602 204.04423725 -67.59667969 203.29492188 C-73.3888249 201.35118343 -76.95506198 196.69412006 -79.91308594 191.51757812 C-81.65209846 187.11083314 -82.2097849 183.37235454 -82.22558594 178.64257812 C-82.24234375 177.49015625 -82.25910156 176.33773437 -82.27636719 175.15039062 C-81.91308594 171.51757812 -81.91308594 171.51757812 -80.41343689 167.97994995 C-78.43171383 162.83498208 -78.50218218 157.943981 -78.54418945 152.48681641 C-78.54042297 151.40931122 -78.53665649 150.33180603 -78.53277588 149.22164917 C-78.52636348 146.89292392 -78.52665449 144.56417247 -78.53296089 142.23544693 C-78.5421015 138.54374046 -78.53181248 134.85253859 -78.51634216 131.16085815 C-78.47632634 120.66860705 -78.47503816 110.17639677 -78.47729492 99.68408203 C-78.47734613 93.25568125 -78.4581256 86.82755313 -78.42796135 80.39922714 C-78.41717147 76.77314129 -78.42924591 73.14758353 -78.44178772 69.52151489 C-78.43287896 67.283381 -78.42280307 65.04525136 -78.41137695 62.80712891 C-78.4259922 61.30898651 -78.4259922 61.30898651 -78.44090271 59.78057861 C-78.35803114 51.60731556 -76.26219285 45.11032988 -71.78808594 38.26757812 C-60.69481824 27.65662641 -49.33705242 27.20249148 -34.91308594 27.51757812 C-34.83832031 26.96070312 -34.76355469 26.40382813 -34.68652344 25.83007812 C-33.06753312 16.4335853 -27.58600827 9.9543129 -19.91308594 4.51757812 C-13.31791515 0.70205581 -7.5228345 -0.06242243 0 0 Z " fill="#2A4268" transform="translate(201.9130859375,10.482421875)"/>
<path d="M0 0 C1.55618448 1.03190843 3.07432503 2.12222325 4.5625 3.25 C21.34956516 15.26185894 41.9199552 17.9760125 62.0625 15.4375 C72.90506062 13.31969586 83.347191 8.25794834 91.7890625 1.1875 C94.86763086 -0.46600668 96.67423698 0.16201247 100 1 C100.86142357 1.26631477 100.86142357 1.26631477 101.74024963 1.53800964 C104.89087773 2.1821338 107.91721666 2.1331344 111.13256836 2.1418457 C111.84378845 2.14532013 112.55500854 2.14879456 113.28778076 2.15237427 C114.83026795 2.15971485 116.37276558 2.16506926 117.91526604 2.16866493 C120.36820244 2.17586448 122.82094271 2.19156073 125.27381897 2.21000671 C132.24770269 2.26228466 139.22148157 2.31034393 146.19555664 2.32592773 C150.46683316 2.33609552 154.73761836 2.36564542 159.00869942 2.40724754 C160.62512023 2.41944482 162.24161083 2.42469974 163.8580761 2.42244911 C181.47775259 2.40396826 195.63512256 6.39718559 208.7109375 18.68359375 C218.33217707 28.4197628 224.20689972 40.84523484 224.24884033 54.59783936 C224.24164978 55.56385071 224.23445923 56.52986206 224.22705078 57.52514648 C224.22734283 58.56004715 224.22763489 59.59494781 224.22793579 60.66120911 C224.22654811 64.06459078 224.21101321 67.46775055 224.1953125 70.87109375 C224.19158038 73.23763408 224.18873435 75.60417596 224.18673706 77.97071838 C224.17911632 84.18659767 224.15948114 90.40238287 224.1373291 96.6182251 C224.11323155 104.08309739 224.10408228 111.54800122 224.09242249 119.01290131 C224.07305593 130.34199956 224.03472228 141.67089153 224 153 C208.16 153 192.32 153 176 153 C175.95101563 148.40320313 175.90203125 143.80640625 175.8515625 139.0703125 C175.81618795 136.16273803 175.78023483 133.25519396 175.7421875 130.34765625 C175.68181772 125.73002411 175.62362243 121.11243465 175.578125 116.49462891 C175.54132093 112.7727441 175.49497485 109.05109056 175.44193649 105.32940292 C175.42336646 103.90764283 175.40826817 102.48583312 175.39665604 101.06399918 C175.37983885 99.07658496 175.34966773 97.08929717 175.31884766 95.10205078 C175.29886215 93.40328293 175.29886215 93.40328293 175.2784729 91.67019653 C175.2674951 88.84753067 175.2674951 88.84753067 173 87 C170.45809998 86.7499227 170.45809998 86.7499227 168 87 C152.43650996 102.56349004 166.33857684 130.99250559 166 153 C86.47 153 6.94 153 -75 153 C-75.33 131.55 -75.66 110.1 -76 88 C-77.05310277 86.72996677 -77.05310277 86.72996677 -79.4375 86.8125 C-82.16734675 86.73160017 -82.16734675 86.73160017 -84 89 C-84.33254247 91.79171088 -84.33254247 91.79171088 -84.31884766 95.10205078 C-84.33871735 96.38322784 -84.35858704 97.66440491 -84.37905884 98.98440552 C-84.39093617 100.38803942 -84.40259898 101.79167516 -84.4140625 103.1953125 C-84.43276692 104.62736131 -84.45233978 106.05939902 -84.4727478 107.49142456 C-84.52415206 111.26264917 -84.56373311 115.03390955 -84.60089111 118.80529785 C-84.64790819 123.3291742 -84.70954136 127.85287195 -84.76873779 132.37660217 C-84.85705118 139.25099636 -84.92674242 146.12535457 -85 153 C-101.5 153 -118 153 -135 153 C-135.16043524 127.02731769 -135.16043524 127.02731769 -135.1953125 115.90625 C-135.2191695 108.33517155 -135.24731011 100.76428769 -135.30175781 93.19335938 C-135.34540584 87.08549118 -135.36917724 80.97783184 -135.37950897 74.86981964 C-135.38686636 72.54635585 -135.40123317 70.22290273 -135.42292023 67.8995285 C-135.63192982 44.56764018 -135.63192982 44.56764018 -131 35 C-130.62176086 34.18295593 -130.24352173 33.36591187 -129.8538208 32.52410889 C-123.48723099 19.38455119 -111.54584678 9.86170834 -98 5 C-90.05385833 2.68507151 -82.2358371 2.70473416 -74.03286552 2.69503975 C-71.51362314 2.69134021 -68.99476197 2.67451889 -66.4756012 2.65428162 C-59.31949973 2.59919739 -52.16334498 2.56818245 -45.00708008 2.54370117 C-40.61344207 2.52777286 -36.22008019 2.49750834 -31.82658577 2.45893669 C-30.16136683 2.44734332 -28.49609845 2.44135684 -26.83083916 2.44125557 C-24.49818121 2.44106216 -22.16627979 2.42270084 -19.83374023 2.40063477 C-19.15663498 2.40521194 -18.47952972 2.40978912 -17.78190613 2.414505 C-13.28058438 2.34726663 -9.89488003 1.39001452 -5.86522007 -0.45549107 C-3.52963301 -1.13731304 -2.27037346 -0.81065112 0 0 Z " fill="#FE5980" transform="translate(193,338)"/>
<path d="M0 0 C2.47265625 1.94140625 2.47265625 1.94140625 4.83203125 4.1484375 C25.80937984 22.9128577 59.1632518 30.77760656 86.34765625 30.81640625 C87.45756927 30.81991089 87.45756927 30.81991089 88.58990479 30.82348633 C99.55939587 30.83659953 109.82280219 30.03171513 120.53515625 27.56640625 C121.52515625 27.56640625 122.51515625 27.56640625 123.53515625 27.56640625 C123.83749856 38.57139201 124.06791173 49.57537716 124.20871449 60.58368301 C124.27632612 65.69661244 124.36787798 70.80668419 124.51586914 75.91796875 C124.65802155 80.85900266 124.73502833 85.7973047 124.76856041 90.74022675 C124.79242594 92.61752065 124.83903641 94.4946789 124.90964699 96.3707962 C125.46741176 111.81697923 125.46741176 111.81697923 120.69735718 117.32971191 C117.55604519 120.43321088 114.10425459 122.97639313 110.53515625 125.56640625 C109.15519514 126.8942775 107.79285563 128.24160372 106.47265625 129.62890625 C101.79314058 133.65523952 96.4782896 134.48261674 90.53515625 135.56640625 C88.36831269 136.0030293 86.20165923 136.4405964 84.03515625 136.87890625 C82.78089844 137.12253906 81.52664063 137.36617187 80.234375 137.6171875 C76.49657494 138.35738733 72.77577872 139.16441915 69.0546875 139.984375 C66.65238849 140.51192251 64.25004341 141.03926028 61.84765625 141.56640625 C60.63174805 141.83445068 59.41583984 142.10249512 58.16308594 142.37866211 C51.0489961 143.91485316 44.00799431 145.08451988 36.78515625 145.94140625 C25.92392326 147.30195928 16.1100669 151.70647773 7.53515625 158.56640625 C8.03015625 161.04140625 8.03015625 161.04140625 8.53515625 163.56640625 C11.03805186 164.49885756 12.84734662 164.80672528 15.39941406 163.91503906 C17.52279648 162.8990617 19.59294994 161.81726178 21.66015625 160.69140625 C23.07865295 159.94254222 24.49789556 159.19508897 25.91796875 158.44921875 C26.54074707 158.11293457 27.16352539 157.77665039 27.80517578 157.43017578 C33.7869614 154.44350382 40.74066409 154.78737837 47.03515625 156.69140625 C51.45736404 158.3144506 55.27706828 160.74112168 59.17578125 163.359375 C61.86664739 164.7359936 63.55234067 164.88011616 66.53515625 164.56640625 C67.81872333 163.46652635 67.81872333 163.46652635 68.09765625 160.81640625 C67.88870028 157.53737381 67.88870028 157.53737381 65.75 156.05859375 C63.7147736 154.80228116 61.67016784 153.64344335 59.53515625 152.56640625 C59.86515625 151.90640625 60.19515625 151.24640625 60.53515625 150.56640625 C62.27490234 150.03564453 62.27490234 150.03564453 64.55859375 149.63671875 C65.82956909 149.40601685 65.82956909 149.40601685 67.1262207 149.1706543 C68.04491943 149.01250244 68.96361816 148.85435059 69.91015625 148.69140625 C71.82849896 148.34843931 73.74646141 148.0033395 75.6640625 147.65625 C77.12996826 147.39110596 77.12996826 147.39110596 78.62548828 147.12060547 C81.39010054 146.59403475 84.13088027 146.00668579 86.875 145.3828125 C87.71305176 145.19380371 88.55110352 145.00479492 89.41455078 144.81005859 C90.99210645 144.44946539 92.56751018 144.07927076 94.14013672 143.69775391 C101.65435693 142.005091 107.7394112 143.05881424 115.03515625 145.62890625 C116.07671875 145.99113281 117.11828125 146.35335937 118.19140625 146.7265625 C118.96484375 147.00371094 119.73828125 147.28085938 120.53515625 147.56640625 C117.90867024 166.25916306 105.50197752 183.81075318 90.84765625 195.37890625 C77.96789157 204.45480261 61.59199024 212.67763312 45.55078125 212.69921875 C44.14699219 212.70115234 44.14699219 212.70115234 42.71484375 212.703125 C41.74804688 212.69925781 40.78125 212.69539062 39.78515625 212.69140625 C38.35816406 212.69720703 38.35816406 212.69720703 36.90234375 212.703125 C14.15008531 212.67195752 -5.55383296 204.44691527 -21.69921875 188.3984375 C-22.611875 187.46386719 -23.52453125 186.52929688 -24.46484375 185.56640625 C-25.150625 184.88964844 -25.83640625 184.21289062 -26.54296875 183.515625 C-41.32105199 167.97201042 -46.74478522 146.82992001 -46.78710938 125.96411133 C-46.79703918 124.76737289 -46.80696899 123.57063446 -46.81719971 122.33763123 C-46.84118121 119.09401573 -46.85626647 115.85054323 -46.86522102 112.60685563 C-46.87112899 110.57381204 -46.87934601 108.54078982 -46.88822937 106.50775719 C-46.91547059 100.12671213 -46.93486486 93.74571721 -46.94263315 87.36461812 C-46.95161241 80.03329001 -46.98683517 72.70270432 -47.04463434 65.37160188 C-47.08796213 59.67613444 -47.10804613 53.98087549 -47.11071539 48.28524512 C-47.11280194 44.89503325 -47.12441232 41.50552448 -47.16035461 38.11548805 C-47.19454267 34.33659183 -47.19070254 30.55950654 -47.17773438 26.78051758 C-47.19616394 25.67223602 -47.21459351 24.56395447 -47.23358154 23.42208862 C-47.15317844 15.92638899 -45.41355305 11.23896788 -40.46484375 5.56640625 C-38.015625 3.41015625 -38.015625 3.41015625 -35.77734375 2.06640625 C-35.03097656 1.60234375 -34.28460938 1.13828125 -33.515625 0.66015625 C-24.95025936 -3.90803876 -8.79874959 -3.64051984 0 0 Z " fill="#FDD29E" transform="translate(199.46484375,85.43359375)"/>
<path d="M0 0 C5.14043119 4.1510595 7.70553636 9.58143438 9 16 C9.41335917 21.96674798 9.35578759 27.91501418 9.30541992 33.89306641 C9.30133482 35.7056706 9.29868765 37.51827852 9.29736328 39.33088684 C9.2921643 43.22028267 9.27824056 47.10951396 9.257864 50.99885941 C9.22709116 57.1512478 9.22454303 63.30344899 9.22737122 69.4559021 C9.23168252 86.94598874 9.20815969 104.43584341 9.1340332 121.92578125 C9.09328844 131.59606749 9.08105931 141.26595905 9.10027009 150.93631685 C9.11082607 157.0507179 9.08629474 163.16364939 9.03589761 169.27783608 C9.01299381 173.08164574 9.02355673 176.88481662 9.04361725 180.68861961 C9.04624234 182.44985972 9.03519988 184.21118229 9.00935555 185.97223473 C8.57574208 195.18082414 8.57574208 195.18082414 11.73046303 203.50715256 C13.7342208 205.26083678 15.75138691 206.58763161 18 208 C26.07677166 216.60208083 28.59317907 226.25838646 28.40014648 237.79492188 C27.90460647 250.12958919 23.25042889 259.33664343 14.1875 267.8125 C4.83947118 275.47896851 -5.98498925 279.09385213 -18 278 C-30.16016803 276.08589948 -40.28105395 270.71315037 -48 261 C-54.91193545 249.79668477 -56.89528217 237.44410492 -54.3125 224.57421875 C-52.20687787 217.66953285 -49.13868342 210.78484196 -42.96777344 206.6325531 C-39.30147716 204.14309823 -37.29842734 202.26201293 -36.25878906 197.86550903 C-35.97808277 193.93135073 -35.94244518 190.03739192 -36 186.09765625 C-35.99247313 184.65032272 -35.9814318 183.2030036 -35.96704102 181.75572205 C-35.93871732 177.96583247 -35.9578214 174.17764107 -35.98712158 170.38781738 C-36.00858172 166.51299189 -35.9847536 162.63846657 -35.96484375 158.76367188 C-35.93247348 151.17535855 -35.95025123 143.58826673 -36 136 C-36.59014893 136.01047363 -37.18029785 136.02094727 -37.78833008 136.03173828 C-40.46301004 136.07332044 -43.13762197 136.0993329 -45.8125 136.125 C-46.74126953 136.14175781 -47.67003906 136.15851563 -48.62695312 136.17578125 C-49.51962891 136.18222656 -50.41230469 136.18867188 -51.33203125 136.1953125 C-52.15421143 136.20578613 -52.9763916 136.21625977 -53.82348633 136.22705078 C-56 136 -56 136 -59 134 C-59.3125 130.5 -59.3125 130.5 -59 127 C-57 125 -57 125 -54.84521484 124.77294922 C-53.97590332 124.78342285 -53.1065918 124.79389648 -52.2109375 124.8046875 C-51.26992188 124.81113281 -50.32890625 124.81757813 -49.359375 124.82421875 C-48.37453125 124.84097656 -47.3896875 124.85773438 -46.375 124.875 C-45.38242187 124.88402344 -44.38984375 124.89304688 -43.3671875 124.90234375 C-40.91135612 124.92595751 -38.45564826 124.9618293 -36 125 C-36 120.71 -36 116.42 -36 112 C-39.10535156 112.05220703 -39.10535156 112.05220703 -42.2734375 112.10546875 C-44.27570517 112.1263257 -46.27797552 112.14707756 -48.28027344 112.16479492 C-49.67324622 112.17989358 -51.06617138 112.20037444 -52.45898438 112.22631836 C-54.45942885 112.26265122 -56.46021827 112.27811192 -58.4609375 112.29296875 C-59.66540527 112.3086792 -60.86987305 112.32438965 -62.11083984 112.34057617 C-63.0642627 112.22818604 -64.01768555 112.1157959 -65 112 C-67 109 -67 109 -66.875 105.9375 C-66 103 -66 103 -64.32519531 101.82861328 C-61.40859866 100.78924652 -59.01752015 100.77433804 -55.921875 100.8046875 C-54.76171875 100.81113281 -53.6015625 100.81757813 -52.40625 100.82421875 C-50.59640625 100.84935547 -50.59640625 100.84935547 -48.75 100.875 C-47.52796875 100.88402344 -46.3059375 100.89304687 -45.046875 100.90234375 C-42.03116634 100.92590397 -39.01555842 100.96177461 -36 101 C-36 97.04 -36 93.08 -36 89 C-37.49273437 89.02320312 -38.98546875 89.04640625 -40.5234375 89.0703125 C-42.47395335 89.08906746 -44.42447458 89.10726795 -46.375 89.125 C-47.35984375 89.14175781 -48.3446875 89.15851563 -49.359375 89.17578125 C-50.30039062 89.18222656 -51.24140625 89.18867187 -52.2109375 89.1953125 C-53.51490479 89.21102295 -53.51490479 89.21102295 -54.84521484 89.22705078 C-57 89 -57 89 -59 87 C-59.3125 83.5 -59.3125 83.5 -59 80 C-55.79593538 77.86395692 -55.00399253 77.75791092 -51.33203125 77.8046875 C-50.43935547 77.81113281 -49.54667969 77.81757812 -48.62695312 77.82421875 C-47.23379883 77.84935547 -47.23379883 77.84935547 -45.8125 77.875 C-44.87212891 77.88402344 -43.93175781 77.89304687 -42.96289062 77.90234375 C-40.64181843 77.92590793 -38.32087711 77.96177879 -36 78 C-36 74.04 -36 70.08 -36 66 C-37.24873901 66.02356567 -37.24873901 66.02356567 -38.52270508 66.04760742 C-41.61447856 66.09876642 -44.70603618 66.1363648 -47.7980957 66.16479492 C-49.79327701 66.18728333 -51.78826213 66.22540198 -53.78320312 66.26367188 C-55.03681641 66.27333984 -56.29042969 66.28300781 -57.58203125 66.29296875 C-58.73936768 66.3086792 -59.8967041 66.32438965 -61.08911133 66.34057617 C-64 66 -64 66 -65.9128418 64.6730957 C-67 63 -67 63 -66.8125 59.9375 C-66 57 -66 57 -64 55 C-61.20263672 54.77294922 -61.20263672 54.77294922 -57.6796875 54.8046875 C-55.79443359 54.81435547 -55.79443359 54.81435547 -53.87109375 54.82421875 C-52.55238281 54.84097656 -51.23367187 54.85773438 -49.875 54.875 C-48.53516279 54.88503017 -47.19531848 54.89415596 -45.85546875 54.90234375 C-42.57013427 54.92597925 -39.28515535 54.95892766 -36 55 C-36 51.04 -36 47.08 -36 43 C-38.11341797 43.03480469 -38.11341797 43.03480469 -40.26953125 43.0703125 C-42.11718221 43.08907038 -43.96483889 43.10727056 -45.8125 43.125 C-46.74126953 43.14175781 -47.67003906 43.15851563 -48.62695312 43.17578125 C-49.51962891 43.18222656 -50.41230469 43.18867187 -51.33203125 43.1953125 C-52.15421143 43.20578613 -52.9763916 43.21625977 -53.82348633 43.22705078 C-56 43 -56 43 -59 41 C-59.3125 37.5 -59.3125 37.5 -59 34 C-57 32 -57 32 -54.84521484 31.77294922 C-53.97590332 31.78342285 -53.1065918 31.79389648 -52.2109375 31.8046875 C-51.26992188 31.81113281 -50.32890625 31.81757812 -49.359375 31.82421875 C-47.88210937 31.84935547 -47.88210937 31.84935547 -46.375 31.875 C-45.38242187 31.88402344 -44.38984375 31.89304688 -43.3671875 31.90234375 C-40.91121866 31.92595884 -38.45572832 31.95889201 -36 32 C-36.03480469 30.94941406 -36.06960937 29.89882812 -36.10546875 28.81640625 C-36.34866228 18.5077027 -36.31319454 9.47244689 -28.8671875 1.5078125 C-19.93749721 -5.70319263 -9.68785587 -5.40345756 0 0 Z " fill="#294367" transform="translate(93,36)"/>
<path d="M0 0 C1.48651062 -0.01248528 1.48651062 -0.01248528 3.00305176 -0.02522278 C6.28023214 -0.04931806 9.55721306 -0.05809762 12.83447266 -0.06469727 C15.12309832 -0.07366912 17.4117234 -0.08279106 19.7003479 -0.09205627 C24.50369692 -0.10855119 29.30697624 -0.11624641 34.11035156 -0.11914062 C40.2308114 -0.12450235 46.3506043 -0.16208922 52.47087669 -0.20788479 C57.20332144 -0.23781333 61.93560931 -0.24486772 66.66814041 -0.24586678 C68.92213598 -0.25004345 71.17613313 -0.26237364 73.43003464 -0.28338432 C93.42055322 -0.454785 108.25310424 1.99510414 123.37353516 16.11889648 C133.96496269 27.20245096 137.29705454 40.05219724 137.23706055 54.98364258 C137.23720657 55.94036865 137.2373526 56.89709473 137.23750305 57.8828125 C137.23680873 61.03184306 137.22903885 64.18081381 137.22119141 67.32983398 C137.21932552 69.51844246 137.21790242 71.70705136 137.21690369 73.8956604 C137.21309195 79.64627238 137.20327314 85.39685897 137.19219971 91.14746094 C137.18195669 97.01944638 137.17739987 102.89143593 137.17236328 108.76342773 C137.16164966 120.27776179 137.14458938 131.79207702 137.12353516 143.30639648 C133.16353516 142.31639648 133.16353516 142.31639648 129.12353516 141.30639648 C129.1154483 140.58420929 129.10736145 139.86202209 129.09902954 139.11795044 C129.02116223 132.31956638 128.93389562 125.52136135 128.83600807 118.72323799 C128.78601342 115.22804882 128.73968402 111.73289035 128.70166016 108.23754883 C128.65780971 104.22123941 128.59814556 100.20530162 128.53759766 96.18920898 C128.52027084 94.30167404 128.52027084 94.30167404 128.50259399 92.37600708 C128.47278946 90.63442825 128.47278946 90.63442825 128.44238281 88.85766602 C128.42239731 87.3187822 128.42239731 87.3187822 128.40200806 85.74880981 C128.35983975 83.12773246 128.35983975 83.12773246 126.12353516 81.30639648 C120.09623196 81.59341092 114.66354817 82.85594213 108.89697266 84.58764648 C75.67336746 93.19770755 40.65661678 82.54759655 12.0637207 65.83105469 C3.77939748 60.92217359 3.77939748 60.92217359 1.43383789 58.7199707 C-4.41786424 53.40453679 -10.11607209 53.44061648 -17.80297852 53.6340332 C-19.80545575 53.68119608 -21.80900307 53.67165033 -23.81201172 53.66186523 C-31.37646285 53.74511582 -37.32789189 54.4087212 -43.87646484 58.30639648 C-44.67439453 58.76401367 -45.47232422 59.22163086 -46.29443359 59.69311523 C-54.10989887 65.43825858 -58.65104703 72.91453894 -60.87646484 82.30639648 C-61.32606874 86.90138509 -61.36448193 91.4769003 -61.38818359 96.09155273 C-61.4061348 97.38838486 -61.424086 98.68521698 -61.44258118 100.02134705 C-61.48972952 103.43902625 -61.51976447 106.85664111 -61.54602051 110.27453613 C-61.57600554 113.77421779 -61.62247328 117.27367836 -61.66748047 120.77319336 C-61.75311212 127.61746765 -61.82063395 134.46181589 -61.87646484 141.30639648 C-65.83646484 142.29639648 -65.83646484 142.29639648 -69.87646484 143.30639648 C-69.99254944 130.57120507 -70.08127729 117.83614048 -70.1355257 105.10052681 C-70.16156833 99.1862119 -70.1968695 93.27226021 -70.25366211 87.3581543 C-70.30817121 81.64579597 -70.33792547 75.93378602 -70.35085106 70.22118759 C-70.36005698 68.04676712 -70.37803395 65.87236473 -70.40511513 63.69809341 C-70.44165604 60.6414971 -70.44639967 57.5863222 -70.4440918 54.52954102 C-70.46206818 53.63977066 -70.48004456 52.75000031 -70.49856567 51.83326721 C-70.4441862 45.1340741 -68.60905651 39.89116616 -64.87646484 34.30639648 C-59.86505992 29.40961768 -55.08871148 28.22730821 -48.30615234 28.06030273 C-47.24525391 28.02743164 -46.18435547 27.99456055 -45.09130859 27.96069336 C-42.85704298 27.89928372 -40.62265972 27.84202017 -38.38818359 27.78881836 C-37.32986328 27.7546582 -36.27154297 27.72049805 -35.18115234 27.68530273 C-34.21161621 27.66024658 -33.24208008 27.63519043 -32.24316406 27.609375 C-29.69007068 27.52773145 -29.69007068 27.52773145 -27.87646484 25.30639648 C-27.51870452 23.56870348 -27.23688575 21.8148465 -27.00146484 20.05639648 C-25.71909989 12.54819864 -22.39299991 8.46915993 -16.75537109 3.60327148 C-11.39187386 -0.09876819 -6.29552189 0.0044949 0 0 Z " fill="#7E3D32" transform="translate(203.87646484375,20.693603515625)"/>
<path d="M0 0 C3.72362851 1.65494601 5.95216929 3.48939538 8 7 C8.27513743 9.65571131 8.37804818 12.0706788 8.33816528 14.72297668 C8.33861039 15.89675787 8.33861039 15.89675787 8.33906448 17.09425181 C8.33664039 19.71908225 8.31293561 22.34329651 8.28955078 24.96801758 C8.28383374 26.84884777 8.27956099 28.72968282 8.27662659 30.61051941 C8.26801639 34.66261282 8.25074973 38.71454636 8.22729874 42.76658058 C8.19187576 49.1747963 8.18549677 55.58283288 8.18502808 61.99113464 C8.18006479 80.21438968 8.15086376 98.43736312 8.05859375 116.66040039 C8.00788363 126.72362886 7.98920377 136.78638641 8.0061816 146.84973449 C8.01371096 152.17513347 8.0042563 157.49933302 7.95492935 162.82453346 C7.90852889 167.8343225 7.90366218 172.84242703 7.93050957 177.85234261 C7.93286058 179.68938135 7.91982235 181.52651498 7.89015007 183.36331558 C7.40756607 193.00145172 7.40756607 193.00145172 10.9585228 201.5666256 C13.22866054 203.3380652 15.46954061 204.64272169 18 206 C23.8078743 211.3328622 27.36061658 217.90648492 28.34765625 225.76953125 C28.62831674 234.49441163 26.53498665 242.15409545 21 249 C13.15600785 257.23855916 6.87260335 260.04532248 -4.4375 260.5 C-13.74042089 260.2767299 -19.62929346 257.4628637 -26.375 251.1875 C-33.32979712 243.75499965 -35.41137088 236.16413405 -35.265625 226.15625 C-34.44033547 216.34986854 -29.0724829 209.52316384 -22 203 C-20.97518052 202.45350233 -19.95036104 201.90700466 -18.89448643 201.34394646 C-15.66926322 199.23458593 -15.66926322 199.23458593 -15.26006222 195.5260334 C-15.23404553 194.10768448 -15.2411939 192.68849873 -15.27415466 191.27029419 C-15.26847239 190.48706783 -15.26279012 189.70384147 -15.25693566 188.89688098 C-15.24503789 186.26915545 -15.27589251 183.64366327 -15.30639648 181.01611328 C-15.30641194 179.13365499 -15.30372127 177.25119501 -15.29852295 175.3687439 C-15.29288636 171.31320499 -15.30593843 167.25830375 -15.33325005 163.20285416 C-15.37581061 156.79061708 -15.37397422 150.37886665 -15.36549377 143.96652222 C-15.35497569 131.5106015 -15.38770351 119.05498569 -15.42678833 106.59913635 C-15.47565086 90.75145972 -15.51175199 74.90393496 -15.49545342 59.05617702 C-15.49047771 52.68169733 -15.51048896 46.30792893 -15.54979122 39.93357491 C-15.56942018 35.9671801 -15.56853569 32.0009798 -15.56217957 28.03454971 C-15.56351638 26.19549856 -15.57345919 24.35643042 -15.59265327 22.51747894 C-15.61772447 20.00560976 -15.61202998 17.49559085 -15.59886169 14.9836731 C-15.61362767 14.25681655 -15.62839365 13.52996001 -15.64360708 12.7810775 C-15.56242533 7.1266956 -13.86394756 4.8280333 -10 1 C-6.80657621 -0.59671189 -3.47454369 -0.37418163 0 0 Z " fill="#F6D238" transform="translate(83,43)"/>
<path d="M0 0 C1.13598633 0.00483398 1.13598633 0.00483398 2.29492188 0.00976562 C3.47344727 0.02233398 3.47344727 0.02233398 4.67578125 0.03515625 C5.47306641 0.03966797 6.27035156 0.04417969 7.09179688 0.04882812 C9.05732382 0.06059775 11.0228121 0.07853277 12.98828125 0.09765625 C12.35877563 0.79592529 12.35877563 0.79592529 11.71655273 1.50830078 C5.54328145 8.4064599 1.85426526 14.45030108 1.87475586 23.87597656 C1.87486916 25.6173288 1.87486916 25.6173288 1.87498474 27.39385986 C1.88014603 28.64189392 1.88530731 29.88992798 1.890625 31.17578125 C1.89274742 33.09834747 1.89274742 33.09834747 1.89491272 35.05975342 C1.89872224 38.45949265 1.90853911 41.85918885 1.9196167 45.25891113 C1.92986451 48.73119525 1.93441755 52.20348635 1.93945312 55.67578125 C1.95016284 62.48309054 1.96722041 69.29037133 1.98828125 76.09765625 C2.8066748 75.15901733 2.8066748 75.15901733 3.64160156 74.20141602 C4.35928711 73.38471436 5.07697266 72.5680127 5.81640625 71.7265625 C6.52700195 70.91517822 7.23759766 70.10379395 7.96972656 69.26782227 C12.18995388 64.73061852 15.84590964 63.91653549 21.86328125 63.66015625 C28.62196756 63.86901553 33.04114236 65.30225124 37.9609375 69.96875 C42.80043102 75.22561257 45.2780878 79.49060603 45.23828125 86.78515625 C45.24601562 88.21408203 45.24601562 88.21408203 45.25390625 89.671875 C44.98828125 92.09765625 44.98828125 92.09765625 42.98828125 94.09765625 C40.55078125 94.47265625 40.55078125 94.47265625 37.98828125 94.09765625 C35.18537597 91.7099962 34.72201731 89.13206691 34.05078125 85.66015625 C33.24690644 81.55971922 32.00019824 79.10957324 28.98828125 76.09765625 C25.5178241 74.36242768 21.78284546 74.6373105 17.98828125 75.09765625 C12.6482526 77.99984574 11.08563086 82.42771219 9.3984375 88.0703125 C8.92711675 89.74573737 8.45756063 91.42165845 7.98828125 93.09765625 C6.98828125 94.09765625 6.98828125 94.09765625 3.92578125 94.16015625 C2.95640625 94.13953125 1.98703125 94.11890625 0.98828125 94.09765625 C1.05601513 100.39277941 1.1460929 106.6873168 1.25073242 112.98193359 C1.28371011 115.11727912 1.31182374 117.25270614 1.3347168 119.38818359 C1.46571766 131.28975104 1.6533108 142.58861961 4.98828125 154.09765625 C5.31614624 155.25418701 5.31614624 155.25418701 5.65063477 156.43408203 C10.14522456 171.05419296 18.20584598 183.2957229 28.98828125 194.09765625 C29.58769531 194.70867187 30.18710938 195.3196875 30.8046875 195.94921875 C38.73678757 203.45301968 48.92570195 209.00528166 58.98828125 213.09765625 C58.98828125 213.42765625 58.98828125 213.75765625 58.98828125 214.09765625 C35.25688966 213.72737922 16.33318046 203.83501773 -0.01171875 187.09765625 C-0.6975 186.42089844 -1.38328125 185.74414062 -2.08984375 185.046875 C-16.86792699 169.50326042 -22.29166022 148.36117001 -22.33398438 127.49536133 C-22.34391418 126.29862289 -22.35384399 125.10188446 -22.36407471 123.86888123 C-22.38805621 120.62526573 -22.40314147 117.38179323 -22.41209602 114.13810563 C-22.41800399 112.10506204 -22.42622101 110.07203982 -22.43510437 108.03900719 C-22.46234559 101.65796213 -22.48173986 95.27696721 -22.48950815 88.89586812 C-22.49848741 81.56454001 -22.53371017 74.23395432 -22.59150934 66.90285188 C-22.63483713 61.20738444 -22.65492113 55.51212549 -22.65759039 49.81649512 C-22.65967694 46.42628325 -22.67128732 43.03677448 -22.70722961 39.64673805 C-22.74141767 35.86784183 -22.73757754 32.09075654 -22.72460938 28.31176758 C-22.74303894 27.20348602 -22.76146851 26.09520447 -22.78045654 24.95333862 C-22.70005344 17.45763899 -20.96042805 12.77021788 -16.01171875 7.09765625 C-13.5625 4.94140625 -13.5625 4.94140625 -11.32421875 3.59765625 C-10.57785156 3.13359375 -9.83148438 2.66953125 -9.0625 2.19140625 C-5.95682988 0.53504885 -3.46490781 -0.02605194 0 0 Z " fill="#DAB083" transform="translate(175.01171875,83.90234375)"/>
<path d="M0 0 C2.07803596 7.6037225 3.70043428 15.26207082 5.1875 23 C5.36635742 23.91998779 5.54521484 24.83997559 5.72949219 25.7878418 C5.89481445 26.662229 6.06013672 27.53661621 6.23046875 28.4375 C6.45319458 29.61119141 6.45319458 29.61119141 6.68041992 30.80859375 C7 33 7 33 7 37 C5.98615234 37.20568604 4.97230469 37.41137207 3.92773438 37.62329102 C-16.41612415 41.75476231 -36.7345525 45.97344367 -57.00390625 50.45703125 C-58.15648926 50.71049316 -59.30907227 50.96395508 -60.49658203 51.22509766 C-62.93162356 51.76369151 -65.36477565 52.31087044 -67.79638672 52.86474609 C-69.02760254 53.14012207 -70.25881836 53.41549805 -71.52734375 53.69921875 C-72.6268335 53.94889404 -73.72632324 54.19856934 -74.85913086 54.45581055 C-81.12250026 55.54100685 -85.86002902 54.66412478 -91.8046875 52.59375 C-92.8906572 52.22751526 -92.8906572 52.22751526 -93.99856567 51.85388184 C-96.29368546 51.07771214 -98.5842928 50.28908556 -100.875 49.5 C-102.43721805 48.96922152 -103.99971557 48.4392648 -105.5625 47.91015625 C-109.37829974 46.61625837 -113.19010492 45.31117707 -117 44 C-111.80639499 37.73426879 -106.08115918 32.40451094 -100 27 C-99.27167969 26.31035156 -98.54335938 25.62070313 -97.79296875 24.91015625 C-97.13941406 24.30042969 -96.48585938 23.69070312 -95.8125 23.0625 C-95.26207031 22.53785156 -94.71164062 22.01320312 -94.14453125 21.47265625 C-88.59070114 17.65882391 -81.79611935 16.35921614 -75.28515625 15.09765625 C-74.06414467 14.85190102 -74.06414467 14.85190102 -72.81846619 14.60118103 C-70.23435291 14.08200008 -67.64860181 13.57167439 -65.0625 13.0625 C-61.67760919 12.39056378 -58.29357548 11.71446249 -54.91015625 11.03515625 C-54.07760315 10.86837875 -53.24505005 10.70160126 -52.38726807 10.5297699 C-46.17237847 9.27121116 -40.00486703 7.85514956 -33.83970642 6.37420654 C-28.12983807 5.00910468 -22.40109757 3.85589567 -16.625 2.8125 C-14.84601256 2.48754169 -13.06734944 2.16080136 -11.2890625 1.83203125 C-10.53318848 1.69514893 -9.77731445 1.5582666 -8.99853516 1.41723633 C-2.21006437 0 -2.21006437 0 0 0 Z " fill="#5EA6EB" transform="translate(431,177)"/>
<path d="M0 0 C-2.13977082 1.62982544 -4.29749637 3.20418229 -6.515625 4.7265625 C-20.36127256 14.3393978 -28.64913255 26.27133263 -32.35298157 42.77749634 C-33.97109194 51.96250844 -33.48584342 61.50963459 -33.51171875 70.80078125 C-33.52858967 73.09149625 -33.54674311 75.38220213 -33.56611633 77.67289734 C-33.61336033 83.66174468 -33.64333477 89.65055501 -33.66955566 95.63952637 C-33.69949108 101.76691999 -33.74597646 107.89418645 -33.79101562 114.02148438 C-33.87675724 126.01427055 -33.94269923 138.00704418 -34 150 C-41.59 150 -49.18 150 -57 150 C-57.09057965 136.38657549 -57.1638768 122.77335306 -57.20724869 109.15969467 C-57.22807114 102.83746847 -57.25629128 96.51546019 -57.30175781 90.19335938 C-57.34540584 84.08549118 -57.36917724 77.97783184 -57.37950897 71.86981964 C-57.38686636 69.54635585 -57.40123317 67.22290273 -57.42292023 64.8995285 C-57.63192982 41.56764018 -57.63192982 41.56764018 -53 32 C-52.4326413 30.7744339 -52.4326413 30.7744339 -51.8538208 29.52410889 C-45.39836389 16.20114463 -33.55262639 7.15272022 -20 2 C-13.36553723 -0.15927709 -6.93042791 -0.23317328 0 0 Z " fill="#D2426C" transform="translate(115,341)"/>
<path d="M0 0 C2.4375 0.8125 2.4375 0.8125 4.4375 2.8125 C4.6307389 5.45834909 4.69797205 7.99910315 4.67800903 10.64578247 C4.67971788 11.46420179 4.68142673 12.28262111 4.68318737 13.12584102 C4.68649634 15.88362345 4.67545553 18.64116556 4.66455078 21.39892578 C4.66398697 23.36963902 4.66430264 25.34035268 4.66543579 27.31106567 C4.66601148 32.67444907 4.65422223 38.03774367 4.64028788 43.40110636 C4.62781649 49.00119487 4.62661286 54.60128524 4.62423706 60.2013855 C4.6180117 70.81196241 4.60158664 81.42249828 4.58153808 92.03305709 C4.55921188 104.11025611 4.54819391 116.18745706 4.53814721 128.26467156 C4.5172213 153.11397049 4.48202486 177.96323295 4.4375 202.8125 C5.37207031 203.10511719 6.30664062 203.39773437 7.26953125 203.69921875 C12.74202359 205.62235108 15.86097776 208.65945552 18.4375 213.8125 C20.16254575 219.65111638 20.37091249 225.45734733 17.8125 231.0625 C14.97369367 236.11597793 10.81338465 239.59833168 5.4375 241.8125 C-1.37612823 242.73720669 -7.22476773 242.5106386 -12.875 238.37890625 C-16.93823417 234.60724675 -20.18832516 230.26594977 -20.80078125 224.61328125 C-20.98361972 218.48338112 -20.37872082 213.75984445 -16.5625 208.8125 C-10.19070513 202.8125 -10.19070513 202.8125 -5.5625 202.8125 C-5.56526538 201.78451892 -5.56803076 200.75653784 -5.57087994 199.69740582 C-5.63741078 174.71084028 -5.686745 149.7242862 -5.71793652 124.73765087 C-5.73342053 112.65441431 -5.75453933 100.57123617 -5.78881836 88.48803711 C-5.81867377 77.95914319 -5.83806383 67.43029158 -5.84476548 56.90135652 C-5.84868429 51.32380934 -5.85792581 45.74638321 -5.87969017 40.16887474 C-5.89999439 34.92324181 -5.90634611 29.67778024 -5.90182304 24.43211174 C-5.90265097 22.50313131 -5.90865258 20.57414537 -5.92011642 18.64519882 C-5.93496575 16.01859841 -5.93148148 13.39265142 -5.92326355 10.76603699 C-5.93200207 9.99658585 -5.9407406 9.22713472 -5.94974393 8.43436688 C-5.90626207 3.31936925 -5.90626207 3.31936925 -4.20010853 0.80368519 C-2.5625 -0.1875 -2.5625 -0.1875 0 0 Z " fill="#294367" transform="translate(79.5625,49.1875)"/>
<path d="M0 0 C0.01458252 0.66531738 0.02916504 1.33063477 0.04418945 2.01611328 C0.11901365 5.05297114 0.21556016 8.08877091 0.3125 11.125 C0.33505859 12.17171875 0.35761719 13.2184375 0.38085938 14.296875 C0.58296654 20.1028627 1.24317973 23.80974014 4 29 C3.31897368 31.98894883 2.15946268 32.87667852 -0.2578125 34.74609375 C-16.9342241 44.5838134 -34.43672386 48.03604697 -53.5625 43.875 C-62.99682272 41.00836556 -71.43114328 36.27769881 -79 30 C-78.68289062 29.08089844 -78.36578125 28.16179687 -78.0390625 27.21484375 C-76.57054997 22.07504989 -76.54092083 16.87542319 -76.375 11.5625 C-76.33632812 10.54478516 -76.29765625 9.52707031 -76.2578125 8.47851562 C-76.16419128 5.98585064 -76.07846007 3.4931805 -76 1 C-65.80829016 3.72020725 -65.80829016 3.72020725 -61.75 5.125 C-38.9816234 12.36948346 -21.04773231 0 0 0 Z " fill="#ECC396" transform="translate(277,300)"/>
<path d="M0 0 C2.42327189 3.38787158 3.55209356 6.47359869 4.38671875 10.52734375 C4.60263672 11.56697266 4.81855469 12.60660156 5.04101562 13.67773438 C5.36102539 15.29131836 5.36102539 15.29131836 5.6875 16.9375 C6.02491211 18.5452832 6.02491211 18.5452832 6.36914062 20.18554688 C8.42485459 30.27666558 8.42485459 30.27666558 8 35 C5.23071995 36.8461867 3.86301194 37.41196197 0.7265625 38.0703125 C-0.0984375 38.24433594 -0.9234375 38.41835937 -1.7734375 38.59765625 C-2.63195312 38.77167969 -3.49046875 38.94570312 -4.375 39.125 C-5.22578125 39.30675781 -6.0765625 39.48851562 -6.953125 39.67578125 C-11.01806019 40.51789399 -14.8238433 41.25778745 -19 41 C-26.29459137 12.82140085 -26.29459137 12.82140085 -26 5 C-23.62592408 4.35060264 -21.2508361 3.70539947 -18.875 3.0625 C-18.20984375 2.88009766 -17.5446875 2.69769531 -16.859375 2.50976562 C-4.71467235 -0.76454146 -4.71467235 -0.76454146 0 0 Z " fill="#4587D1" transform="translate(467,170)"/>
<path d="M0 0 C1.7325 0.1546875 1.7325 0.1546875 3.5 0.3125 C5.88864438 3.89546657 5.78287233 6.44671867 5.75878906 10.58203125 C5.7622937 11.31892181 5.76579834 12.05581238 5.76940918 12.81503296 C5.77821446 15.25178436 5.77238167 17.68824563 5.765625 20.125 C5.766972 21.81746476 5.76891282 23.50992914 5.77142334 25.20239258 C5.77437297 28.74987471 5.77008215 32.29725614 5.76074219 35.84472656 C5.74934772 40.39457718 5.75590806 44.94419185 5.76788712 49.49403381 C5.77511007 52.9889911 5.77281578 56.48389235 5.76763153 59.97885132 C5.76629624 61.65660632 5.76793855 63.33436639 5.77259064 65.01211548 C5.77766304 67.35587059 5.76993578 69.69924223 5.75878906 72.04296875 C5.76283752 72.73812592 5.76688599 73.43328308 5.77105713 74.14950562 C5.73911274 77.77045943 5.57034969 79.20697546 3.5 82.3125 C0 82.625 0 82.625 -3.5 82.3125 C-5.9570586 79.8554414 -5.74223338 78.48948591 -5.77105713 75.13589478 C-5.76498444 74.05735733 -5.76498444 74.05735733 -5.75878906 72.95703125 C-5.7622937 72.19917328 -5.76579834 71.44131531 -5.76940918 70.66049194 C-5.7782313 68.14856886 -5.77237574 65.63692608 -5.765625 63.125 C-5.76697151 61.38386989 -5.76891193 59.64274015 -5.77142334 57.90161133 C-5.77437525 54.24980088 -5.77007483 50.59808817 -5.76074219 46.94628906 C-5.74934759 42.25843019 -5.75590671 37.5708003 -5.76788712 32.88294983 C-5.77510392 29.2868069 -5.77281862 25.69071852 -5.76763153 22.09457397 C-5.76629454 20.3657529 -5.76794449 18.63692692 -5.77259064 16.90811157 C-5.77765297 14.49459659 -5.76994999 12.08145577 -5.75878906 9.66796875 C-5.76283752 8.94894379 -5.76688599 8.22991882 -5.77105713 7.48910522 C-5.72696359 2.35890059 -5.54094513 0.49472724 0 0 Z " fill="#284168" transform="translate(33.5,415.6875)"/>
<path d="M0 0 C6.25970043 3.68075229 11.37177284 9.15810252 13.58203125 16.125 C13.8125 19.203125 13.8125 19.203125 13.76953125 22.375 C13.76308594 23.43203125 13.75664062 24.4890625 13.75 25.578125 C13.58203125 28.125 13.58203125 28.125 12.58203125 29.125 C9.64453125 29.3125 9.64453125 29.3125 6.58203125 29.125 C4.29137166 26.83434041 4.2240831 25.97731111 3.70703125 22.875 C2.55110541 17.22279567 0.45901743 13.37632412 -4.41796875 10.125 C-8.80444428 9.41856387 -12.36999007 9.55544637 -16.29296875 11.6875 C-20.43208201 16.43530639 -21.75843115 22.19808 -23.41796875 28.125 C-24.41796875 29.125 -24.41796875 29.125 -27.35546875 29.375 C-28.36609375 29.2925 -29.37671875 29.21 -30.41796875 29.125 C-32.99411254 25.26078431 -32.58268293 23.29159689 -32.015625 18.8203125 C-30.31530451 11.15220048 -25.83093612 5.50073836 -19.41796875 1.125 C-13.89203435 -2.30652244 -6.00418431 -2.17275814 0 0 Z " fill="#2D4569" transform="translate(286.41796875,150.875)"/>
<path d="M0 0 C6.13299896 2.71244181 10.92051753 7.79828005 13.86328125 13.78125 C14.77376657 16.66878915 14.95008893 19.04757111 14.93359375 22.0703125 C14.94132812 23.49923828 14.94132812 23.49923828 14.94921875 24.95703125 C14.68359375 27.3828125 14.68359375 27.3828125 12.68359375 29.3828125 C10.24609375 29.7578125 10.24609375 29.7578125 7.68359375 29.3828125 C4.88068847 26.99515245 4.41732981 24.41722316 3.74609375 20.9453125 C2.94221894 16.84487547 1.69551074 14.39472949 -1.31640625 11.3828125 C-4.7868634 9.64758393 -8.52184204 9.92246675 -12.31640625 10.3828125 C-17.6564349 13.28500199 -19.21905664 17.71286844 -20.90625 23.35546875 C-21.37757075 25.03089362 -21.84712687 26.7068147 -22.31640625 28.3828125 C-22.64640625 28.7128125 -22.97640625 29.0428125 -23.31640625 29.3828125 C-25.65585361 29.09551195 -27.99032055 28.76344471 -30.31640625 28.3828125 C-30.76492214 20.90754763 -31.06032477 14.51037392 -26.31640625 8.3828125 C-18.61124038 0.40922896 -11.22076338 -2.98968063 0 0 Z " fill="#2C4569" transform="translate(205.31640625,148.6171875)"/>
<path d="M0 0 C0.66 0.66 1.32 1.32 2 2 C1.625 5.625 1.625 5.625 1 9 C-28.20340014 16.55988151 -28.20340014 16.55988151 -37 16 C-39 14 -39 14 -39.3125 11 C-39.209375 10.01 -39.10625 9.02 -39 8 C-34.37310091 4.9154006 -29.16896039 4.38058059 -23.76806641 3.28564453 C-21.76892923 2.8788518 -19.77318244 2.45779864 -17.77734375 2.03515625 C-16.50503906 1.77347656 -15.23273438 1.51179687 -13.921875 1.2421875 C-12.76268555 1.0035498 -11.60349609 0.76491211 -10.40917969 0.51904297 C-6.85462971 -0.02213243 -3.58900662 -0.22781244 0 0 Z " fill="#29446B" transform="translate(416,195)"/>
<path d="M0 0 C0 11.22 0 22.44 0 34 C-6.02614944 31.58954022 -8.74899267 29.32946193 -11.8125 23.625 C-13.6030963 18.15896918 -13.72837872 14.12332994 -11.375 8.875 C-8.86779127 4.28886019 -5.56733063 0 0 0 Z " fill="#E1BC93" transform="translate(143,172)"/>
<path d="M0 0 C3.67123639 0.01977327 4.15668193 0.29756585 7.1875 2.8125 C8.2084375 4.0809375 8.2084375 4.0809375 9.25 5.375 C9.58 5.705 9.91 6.035 10.25 6.375 C10.66927653 10.65162057 10.49122639 12.92581983 8.4375 16.75 C5.66774569 20.07370517 4.11596637 20.27878151 -0.125 20.75 C-3.75 20.375 -3.75 20.375 -6.625 18 C-9.89890672 13.95576228 -10.28202646 11.60659355 -9.75 6.375 C-7.3125 3.5 -7.3125 3.5 -4.75 1.375 C-3.75 0.375 -3.75 0.375 0 0 Z " fill="#E6B341" transform="translate(78.75,260.625)"/>
<path d="M0 0 C1.57255046 3.14510093 1.22572668 6.48765445 1.25 9.9375 C1.270625 10.66646484 1.29125 11.39542969 1.3125 12.14648438 C1.35139323 17.45054877 1.35139323 17.45054877 -0.2890625 20.015625 C-3.24321218 21.71527276 -5.8280232 20.76362404 -9 20 C-10.57255046 16.85489907 -10.22572668 13.51234555 -10.25 10.0625 C-10.270625 9.33353516 -10.29125 8.60457031 -10.3125 7.85351562 C-10.35139323 2.54945123 -10.35139323 2.54945123 -8.7109375 -0.015625 C-5.75678782 -1.71527276 -3.1719768 -0.76362404 0 0 Z " fill="#274167" transform="translate(38,389)"/>
<path d="M0 0 C4.86539012 1.94615605 6.72283954 3.10283621 10 7 C11.3125 10.3125 11.3125 10.3125 12 13 C8 14.33333333 4 15.66666667 0 17 C0 11.39 0 5.78 0 0 Z " fill="#E7C095" transform="translate(333,172)"/>
</svg>
