<?xml version="1.0" encoding="UTF-8"?>
<svg version="1.1" xmlns="http://www.w3.org/2000/svg" width="512" height="512">
<path d="M0 0 C1.86634378 1.32287797 3.15393079 2.80507543 4.63525391 4.54223633 C6.03031126 6.11866702 6.03031126 6.11866702 7.67431641 7.18676758 C10.79346425 6.97861089 12.69201502 6.62296245 15.54931641 5.62426758 C16.89940209 5.20155289 18.25097811 4.78356863 19.60400391 4.37036133 C20.61237305 4.05844849 20.61237305 4.05844849 21.64111328 3.74023438 C38.82445759 -0.93731624 58.72696972 1.94467447 74.07666016 10.53051758 C95.80301656 24.27654272 106.08956109 45.89105225 112.38525391 69.89770508 C118.45217994 97.77039424 113.6615687 129.11558566 103.37841797 155.37915039 C102.10842627 158.80536359 101.59739762 160.84832491 102.41650391 164.45239258 C102.83158203 165.35473633 103.24666016 166.25708008 103.67431641 167.18676758 C103.94373047 167.84161133 104.21314453 168.49645508 104.49072266 169.17114258 C104.73693359 169.75379883 104.98314453 170.33645508 105.23681641 170.93676758 C108.68246925 180.20135457 108.20170025 189.68778056 104.63525391 198.85864258 C99.53620226 209.71468802 92.65375984 215.62148434 81.73681641 220.49926758 C74.18212676 222.19521832 67.29610237 222.27209684 59.67431641 221.18676758 C59.34560547 222.16774414 59.01689453 223.1487207 58.67822266 224.15942383 C52.28174104 242.58442234 42.06044933 258.92344978 26.67431641 271.18676758 C28.38081149 274.59975775 32.40957264 275.33569579 35.79931641 276.74926758 C51.01931626 283.32672459 67.79500592 292.36400752 78.67431641 305.18676758 C78.88134766 307.54614258 78.88134766 307.54614258 78.48681641 309.93676758 C78.26017172 313.45766646 78.414001 314.8058182 80.43603516 317.76489258 C81.89157516 319.33982242 83.38670066 320.87936338 84.92431641 322.37426758 C86.67431641 324.18676758 86.67431641 324.18676758 86.67431641 326.18676758 C87.72619141 325.95989258 88.77806641 325.73301758 89.86181641 325.49926758 C94.23879635 325.14049873 95.22395281 325.65358924 98.67431641 328.18676758 C115.86345813 349.31589235 124.7712109 380.39768487 124.85131836 407.21118164 C124.85788956 408.18128174 124.86446075 409.15138184 124.87123108 410.15087891 C124.89081328 413.33471773 124.90258602 416.51850999 124.91259766 419.70239258 C124.91667318 420.79331963 124.92074871 421.88424667 124.92494774 423.00823212 C124.94573306 428.77054145 124.96007336 434.53282741 124.96948242 440.29516602 C124.9805973 446.24947605 125.01507679 452.20341757 125.05465412 458.15759659 C125.0807413 462.73859368 125.08916668 467.31950126 125.0927639 471.9005661 C125.0976417 474.09666209 125.10928941 476.29275378 125.1278019 478.48877716 C125.15204931 481.55279945 125.1512559 484.61584358 125.14428711 487.67993164 C125.1635022 489.04211823 125.1635022 489.04211823 125.18310547 490.43182373 C125.17268974 491.68485291 125.17268974 491.68485291 125.1620636 492.9631958 C125.16445195 493.68655247 125.16684031 494.40990913 125.16930103 495.1551857 C124.44753602 498.11754986 123.00595611 499.26566651 120.67431641 501.18676758 C118.13027573 501.68816423 118.13027573 501.68816423 115.19573975 501.69013214 C114.07555576 501.70056313 112.95537178 501.71099412 111.80124283 501.7217412 C110.57051922 501.71281831 109.33979561 501.70389543 108.07177734 501.69470215 C106.76444515 501.70094211 105.45711296 501.70718207 104.11016464 501.71361113 C100.47828169 501.73034125 96.84681804 501.72204169 93.2149334 501.70966625 C89.29938765 501.70063301 85.38391509 501.71457688 81.46838379 501.72558594 C73.79664089 501.74339428 66.12505432 501.73952092 58.45330524 501.72793537 C52.2196302 501.7189104 45.98599904 501.71767299 39.75231934 501.72203064 C38.42269122 501.72295004 38.42269122 501.72295004 37.06620193 501.72388801 C35.26559097 501.72516688 33.46498003 501.72646373 31.66436911 501.72777838 C14.7707388 501.73919095 -2.12280476 501.72605986 -19.01642084 501.70457691 C-33.51929146 501.68670531 -48.02203403 501.68980922 -62.52490234 501.70825195 C-79.35711146 501.72964672 -96.18924449 501.73809225 -113.0214653 501.7258029 C-114.81553903 501.72452867 -116.60961277 501.72327119 -118.40368652 501.72203064 C-119.28645901 501.72141354 -120.1692315 501.72079644 -121.07875466 501.72016063 C-127.30663135 501.71670354 -133.53445987 501.72254379 -139.7623291 501.73194885 C-147.34963562 501.74315475 -154.93677657 501.74015859 -162.52406406 501.71882588 C-166.39698973 501.70829635 -170.2696391 501.70422572 -174.14256287 501.71742249 C-178.33633179 501.73149664 -182.52940003 501.7147191 -186.72314453 501.69470215 C-187.95386814 501.70362504 -189.18459175 501.71254792 -190.45261002 501.7217412 C-191.572794 501.71131021 -192.69297798 501.70087922 -193.84710693 501.69013214 C-194.81550381 501.68948273 -195.78390068 501.68883332 -196.78164291 501.68816423 C-200.05978169 501.04208659 -201.25618464 499.75241101 -203.32568359 497.18676758 C-203.82625484 495.18311882 -203.82625484 495.18311882 -203.82688904 493.03048706 C-203.83672318 492.20958588 -203.84655731 491.38868469 -203.85668945 490.54290771 C-203.8421875 489.2042868 -203.8421875 489.2042868 -203.82739258 487.83862305 C-203.83549706 486.41808121 -203.83549706 486.41808121 -203.84376526 484.96884155 C-203.85629256 481.83022993 -203.83971715 478.69252965 -203.82177734 475.55395508 C-203.82193242 473.36076815 -203.82342279 471.16758094 -203.82618713 468.97439575 C-203.82757353 464.36586458 -203.81498674 459.75764364 -203.79223633 455.14916992 C-203.76408514 449.29029308 -203.76652185 443.43194085 -203.77932644 437.57302666 C-203.78634817 433.03430854 -203.77841716 428.49570768 -203.76606941 423.95700455 C-203.761601 421.80042092 -203.76117703 419.64382446 -203.76513481 417.48723984 C-203.80697725 374.56036008 -189.35465253 337.36145372 -159.20068359 306.56176758 C-143.6693276 291.13220563 -125.29197855 280.84826905 -105.32568359 272.18676758 C-106.05271484 271.46360352 -106.77974609 270.74043945 -107.52880859 269.99536133 C-121.51794393 255.94761229 -132.56266163 240.39684079 -138.32568359 221.18676758 C-139.32535156 221.32985352 -139.32535156 221.32985352 -140.34521484 221.47583008 C-153.04517731 223.00337801 -163.87441626 220.39630128 -174.07568359 212.49926758 C-181.34171314 205.85162352 -185.40739377 196.42533141 -186.28662109 186.73754883 C-186.44307534 176.52108625 -183.46678392 167.1996785 -176.95068359 159.31176758 C-176.41443359 158.61051758 -175.87818359 157.90926758 -175.32568359 157.18676758 C-175.7705081 154.00209419 -177.12849057 151.37932674 -178.58349609 148.53833008 C-191.48547002 122.83661657 -199.05800429 96.19858976 -199.63818359 67.31176758 C-199.67556641 66.0768457 -199.71294922 64.84192383 -199.75146484 63.56958008 C-199.2333693 59.45333471 -198.29723995 58.04767283 -195.32568359 55.18676758 C-192.18457031 54.68261719 -192.18457031 54.68261719 -188.50537109 54.83911133 C-187.51731979 54.86395348 -187.51731979 54.86395348 -186.50930786 54.88929749 C-184.40485171 54.94360814 -182.30372202 55.03040779 -180.20068359 55.12426758 C-168.46485722 55.62602064 -158.69295412 55.47817479 -149.32568359 47.49926758 C-148.50970703 46.8109082 -147.69373047 46.12254883 -146.85302734 45.41333008 C-146.01900391 44.67856445 -145.18498047 43.94379883 -144.32568359 43.18676758 C-143.41947266 42.39012695 -142.51326172 41.59348633 -141.57958984 40.77270508 C-137.02563249 36.78285992 -137.02563249 36.78285992 -132.78662109 32.47192383 C-130.96598121 30.8703449 -129.78141646 30.67563151 -127.38818359 30.43676758 C-126.71916016 30.35942383 -126.05013672 30.28208008 -125.36083984 30.20239258 C-123.32568359 30.18676758 -123.32568359 30.18676758 -121.29833984 30.88598633 C-120.64736328 30.98524414 -119.99638672 31.08450195 -119.32568359 31.18676758 C-117.38012724 29.7723987 -117.38012724 29.7723987 -115.70068359 27.74926758 C-114.60890807 26.53115122 -113.48949997 25.33625124 -112.32568359 24.18676758 C-111.66568359 24.18676758 -111.00568359 24.18676758 -110.32568359 24.18676758 C-110.67630859 23.65051758 -111.02693359 23.11426758 -111.38818359 22.56176758 C-112.67974222 19.28981906 -112.35161002 17.53812724 -111.32568359 14.18676758 C-86.55273118 -16.97920481 -32.20452259 -18.25924826 0 0 Z " fill="#020101" transform="translate(295.32568359375,10.813232421875)"/>
<path d="M0 0 C3.30089675 2.85004256 6.03589194 5.54609703 8.52734375 9.13671875 C10.31533688 11.43957999 10.31533688 11.43957999 13.52734375 11.13671875 C17.38748056 10.27891057 20.97998148 8.71503448 24.58203125 7.109375 C37.8191582 2.25087273 54.44554242 1.95408751 67.67578125 6.80859375 C71.9626104 8.7984686 75.68291946 11.1707156 79.40234375 14.07421875 C80.28792969 14.69876953 80.28792969 14.69876953 81.19140625 15.3359375 C95.92177919 26.53505665 101.88888536 45.77719282 105.40234375 63.07421875 C105.6660376 64.24706421 105.6660376 64.24706421 105.93505859 65.44360352 C110.20951723 89.50697436 104.23925001 114.45168268 96.40234375 137.07421875 C93.11326625 136.55537836 89.99262495 135.96119287 86.77734375 135.07421875 C81.41016394 133.67499289 75.91958187 133.42364383 70.40234375 133.07421875 C70.27279297 131.82318359 70.27279297 131.82318359 70.140625 130.546875 C68.26920028 115.55830822 60.96668525 107.46910864 50.40234375 97.13671875 C37.07208308 83.91080454 26.0627098 67.65365403 15.45922852 52.21166992 C13.15228368 48.9035692 11.34846891 46.46482646 7.203125 45.6328125 C2.13877012 45.38635253 -0.88978276 45.74348325 -4.78515625 49.13671875 C-6.08085673 50.424676 -7.35260668 51.73723514 -8.59765625 53.07421875 C-37.59853465 82.82394612 -76.98497039 101.5816527 -117.35546875 110.08984375 C-123.17014521 111.85526359 -127.24571278 115.04630355 -130.59765625 120.07421875 C-132.3586087 124.33757731 -133.04948116 128.50609303 -133.59765625 133.07421875 C-134.55027344 133.13480469 -135.50289062 133.19539062 -136.484375 133.2578125 C-137.73863281 133.34160156 -138.99289063 133.42539063 -140.28515625 133.51171875 C-141.52652344 133.59292969 -142.76789063 133.67414063 -144.046875 133.7578125 C-146.97945962 134.01913192 -149.73207242 134.42220254 -152.59765625 135.07421875 C-159.17361195 123.42836524 -164.31456952 111.7386475 -168.59765625 99.07421875 C-168.86271973 98.30327881 -169.1277832 97.53233887 -169.40087891 96.73803711 C-173.77292848 83.88518352 -175.15436922 71.55625869 -175.59765625 58.07421875 C-174.40011719 58.06003906 -173.20257813 58.04585938 -171.96875 58.03125 C-147.87119307 57.45163497 -131.55954188 47.56002389 -115.0847168 30.50830078 C-113.48453921 28.79440632 -113.48453921 28.79440632 -111.59765625 26.07421875 C-111.94749703 24.10238892 -112.29991519 22.13021073 -112.71875 20.171875 C-112.49298977 16.26112522 -109.41735715 14.16031077 -106.67578125 11.640625 C-104.59765625 10.07421875 -104.59765625 10.07421875 -101.59765625 9.07421875 C-100.93765625 9.40421875 -100.27765625 9.73421875 -99.59765625 10.07421875 C-93.80734872 10.63031071 -91.20562829 9.61024956 -86.66015625 6.07421875 C-63.06922254 -11.40132087 -25.48566806 -18.89388624 0 0 Z " fill="#E38F7A" transform="translate(287.59765625,24.92578125)"/>
<path d="M0 0 C4.8704973 1.45062651 9.09403454 3.46251745 13.5 5.9375 C14.19125977 6.32502441 14.88251953 6.71254883 15.59472656 7.11181641 C23.72647926 11.8086366 31.11466186 17.61502237 38.09765625 23.8828125 C39.96390554 25.24302809 39.96390554 25.24302809 42.26171875 24.6875 C43.46248047 24.3471875 43.46248047 24.3471875 44.6875 24 C47.31640625 23.59765625 47.31640625 23.59765625 50 24 C53.62813321 27.24341216 56.32023485 30.95446082 59 35 C58.67 35.53625 58.34 36.0725 58 36.625 C56.66875412 39.78670896 56.54379784 41.57033732 57 45 C58.42200012 48.02861613 60.21089968 50.80190494 62 53.625 C76.64129103 77.79591528 81.39136606 102.45370814 81.125 130.375 C81.08375 136.52125 81.0425 142.6675 81 149 C62.19 149 43.38 149 24 149 C23.75 130.25 23.75 130.25 23.70214844 124.34863281 C23.6727759 122.80009999 23.6419496 121.25159377 23.609375 119.703125 C23.60768311 118.50308838 23.60768311 118.50308838 23.60595703 117.27880859 C23.51325612 113.67251697 23.3055535 111.42975152 21.18847656 108.45214844 C18.93417779 106.65836231 18.93417779 106.65836231 15.375 107.0625 C11.74483076 107.6750845 11.74483076 107.6750845 10 111 C9.78689913 113.71642304 9.68875943 116.33336075 9.68115234 119.05151367 C9.67099909 119.88449887 9.66084583 120.71748407 9.6503849 121.57571125 C9.6197394 124.27312598 9.60258978 126.97043509 9.5859375 129.66796875 C9.56900484 131.33289503 9.55118842 132.99781256 9.5324707 134.66271973 C9.46926125 140.83754606 9.42317322 147.01253805 9.375 153.1875 C9.25125 166.985625 9.1275 180.78375 9 195 C-36.54 195 -82.08 195 -129 195 C-119.8794807 176.7589614 -119.8794807 176.7589614 -115.375 169.0625 C-114.33881094 167.27012793 -113.30370172 165.47713127 -112.26953125 163.68359375 C-111.73666504 162.76046387 -111.20379883 161.83733398 -110.65478516 160.88623047 C-107.75095315 155.82144706 -104.90831588 150.72253713 -102.0625 145.625 C-96.77035276 136.1504206 -91.44615764 126.69468992 -86.08618164 117.25830078 C-85.57821045 116.36224121 -85.07023926 115.46618164 -84.546875 114.54296875 C-84.10182617 113.75946045 -83.65677734 112.97595215 -83.19824219 112.16870117 C-82.07556795 110.1367706 -81.02130259 108.08441809 -80 106 C-79.43192627 106.02094727 -78.86385254 106.04189453 -78.27856445 106.06347656 C-58.54298409 106.69386607 -45.74223698 103.8946931 -30.62890625 90.61328125 C-28.78498975 88.89506075 -28.78498975 88.89506075 -27 86 C-24.27734375 85.078125 -24.27734375 85.078125 -20.9375 84.25 C-9.84972707 80.99823859 -3.95061759 74.68746375 2 65 C3.81339142 61.37321715 3.19048102 57.11725019 3.1875 53.125 C3.18741943 52.11719482 3.18733887 51.10938965 3.18725586 50.07104492 C3.09522802 37.34311019 2.05507301 24.67804726 1 12 C0.90444824 10.8454834 0.80889648 9.6909668 0.71044922 8.50146484 C0.4750827 5.66751908 0.23830662 2.83369981 0 0 Z " fill="#FEA5D4" transform="translate(324,302)"/>
<path d="M0 0 C3.82418727 3.49125802 6.53680837 7.50353294 9.4375 11.75 C19.84428887 26.72885644 31.41822346 41.13306863 44.859375 53.50390625 C51.73572842 61.52213588 52.72167805 68.3532876 52.55859375 78.765625 C52.55626236 80.07601746 52.55393097 81.38640991 52.55152893 82.73651123 C52.54539525 85.50030871 52.52286568 88.2632857 52.48706055 91.02685547 C52.44196994 94.53085166 52.42704079 98.03410479 52.42332363 101.53836441 C52.41776853 104.92672221 52.39437071 108.31484029 52.37109375 111.703125 C52.36573105 112.94209534 52.36036835 114.18106567 52.35484314 115.45758057 C52.03724749 139.12190725 45.059836 158.69843499 28.8828125 176.171875 C27 178 27 178 25 179 C24.69147095 178.17761841 24.69147095 178.17761841 24.37670898 177.33862305 C17.27744785 158.57980467 8.11672715 138.30852762 -11.31640625 129.49609375 C-24.13706908 124.46810196 -39.77493074 121.98736705 -53.1875 126.5625 C-55.64925237 127.65020074 -55.64925237 127.65020074 -58 129 C-58.91652344 129.49757812 -59.83304688 129.99515625 -60.77734375 130.5078125 C-79.6462638 141.63762817 -87.75860317 159.2453021 -95 179 C-95.66 179 -96.32 179 -97 179 C-115.25991995 160.09605798 -122.32019966 137.76439972 -122.30078125 111.96484375 C-122.30506638 110.68315811 -122.3093515 109.40147247 -122.31376648 108.08094788 C-122.3211456 105.39775388 -122.32099427 102.71469175 -122.31567383 100.03149414 C-122.30982235 96.59842416 -122.32698474 93.1658838 -122.3500185 89.73290157 C-122.36826978 86.43521933 -122.36457256 83.13756743 -122.36328125 79.83984375 C-122.372491 78.61071762 -122.38170074 77.38159149 -122.39118958 76.11521912 C-122.38184639 74.40677574 -122.38184639 74.40677574 -122.37231445 72.66381836 C-122.37294388 71.66378281 -122.3735733 70.66374725 -122.3742218 69.63340759 C-121.93769559 66.56156243 -121.15511799 65.2061522 -119 63 C-116.0078125 62.0859375 -116.0078125 62.0859375 -112.125 61.375 C-76.5023317 53.88314936 -41.26478385 37.19523865 -14 13 C-13.09765625 12.2059375 -12.1953125 11.411875 -11.265625 10.59375 C-7.4054786 7.15755031 -3.6299982 3.67961093 0 0 Z " fill="#FBD2B9" transform="translate(291,86)"/>
<path d="M0 0 C18.05798915 11.43316473 25.64716269 30.78266073 30.640625 50.671875 C30.87185059 51.52031982 31.10307617 52.36876465 31.34130859 53.24291992 C33.46781927 61.25982501 34.71649564 69.26339735 35.765625 77.484375 C36.01892578 79.36092773 36.01892578 79.36092773 36.27734375 81.27539062 C37.98669914 94.33782687 38.83927606 107.43973881 39.078125 120.609375 C39.12388672 121.66705078 39.16964844 122.72472656 39.21679688 123.81445312 C39.31030201 130.33948538 38.48329763 134.13952917 34.20629883 139.15063477 C31.65141258 141.63301372 29.29937478 143.671875 25.640625 143.671875 C25.55736969 142.92098602 25.47411438 142.17009705 25.38833618 141.39645386 C24.60082105 134.30439382 23.80700698 127.21308017 23.00618935 120.12251091 C22.59474671 116.47755721 22.18570589 112.83236793 21.78222656 109.18652344 C21.39242615 105.66510176 20.99622211 102.14445332 20.59565353 98.62424088 C20.37085252 96.63401006 20.15261087 94.64304187 19.93447876 92.65206909 C19.79448456 91.43125641 19.65449036 90.21044373 19.51025391 88.95263672 C19.39034088 87.88230194 19.27042786 86.81196716 19.1468811 85.709198 C18.61187685 82.49939822 17.88782794 79.67935689 16.640625 76.671875 C13.17019797 74.35825698 11.72228327 74.16166772 7.640625 74.671875 C5.46749347 76.82340669 4.68410995 78.08505892 4.45654297 81.15600586 C4.55596191 82.16026611 4.65538086 83.16452637 4.7578125 84.19921875 C4.87608398 85.44300293 4.99435547 86.68678711 5.11621094 87.96826172 C5.28872507 89.5363865 5.46380024 91.10423045 5.640625 92.671875 C5.74652954 93.63700012 5.85243408 94.60212524 5.96154785 95.59649658 C7.0040064 105.06630863 8.09494339 114.53061693 9.20751953 123.99243164 C9.63217564 127.61529393 10.04724744 131.23915273 10.4609375 134.86328125 C10.59420441 135.97474014 10.72747131 137.08619904 10.86477661 138.2313385 C10.98174896 139.26689377 11.09872131 140.30244904 11.21923828 141.36938477 C11.37792892 142.72834618 11.37792892 142.72834618 11.53982544 144.11476135 C11.69962318 148.16855869 11.17539425 150.87214089 8.9140625 154.25390625 C6.52811839 156.7915341 4.21753411 158.51959972 1.265625 160.359375 C0.35039062 160.94074219 -0.56484375 161.52210938 -1.5078125 162.12109375 C-9.53310787 166.4855352 -18.42488775 166.900367 -27.359375 165.671875 C-35.69075965 162.9991963 -43.46746807 158.0097354 -48.359375 150.671875 C-48.44448853 148.67675781 -48.44448853 148.67675781 -48.20947266 146.375 C-48.12635834 145.51060303 -48.04324402 144.64620605 -47.95761108 143.75561523 C-47.8555838 142.82048096 -47.75355652 141.88534668 -47.6484375 140.921875 C-47.5505191 139.94613525 -47.45260071 138.97039551 -47.35171509 137.96508789 C-47.03549443 134.86561147 -46.70056061 131.76869698 -46.359375 128.671875 C-46.25282593 127.69911621 -46.14627686 126.72635742 -46.03649902 125.72412109 C-45.18849478 118.05018613 -44.28973804 110.38234916 -43.38574219 102.71484375 C-43.04859024 99.84667789 -42.71553451 96.97805759 -42.3828125 94.109375 C-42.27971771 93.24691162 -42.17662292 92.38444824 -42.07040405 91.49584961 C-40.71337274 83.55278891 -40.71337274 83.55278891 -42.984375 76.296875 C-46.03723421 74.20807659 -47.72905724 74.13118938 -51.359375 74.671875 C-54.66773682 77.27984012 -54.92730261 79.8259118 -55.4362793 83.93334961 C-55.53465088 84.83706299 -55.63302246 85.74077637 -55.734375 86.671875 C-55.84885986 87.62779541 -55.96334473 88.58371582 -56.08129883 89.56860352 C-56.43226499 92.52623625 -56.76994331 95.48516329 -57.10491943 98.44464111 C-57.61221389 102.88495825 -58.13817859 107.32310841 -58.66015625 111.76171875 C-59.90822952 122.3967202 -61.13773372 133.0338082 -62.359375 143.671875 C-67.18416485 141.84039123 -70.61500792 139.72997717 -73.98828125 135.75 C-76.10834266 130.99043193 -75.75717425 126.38387889 -75.671875 121.234375 C-75.6613208 120.12344482 -75.6507666 119.01251465 -75.63989258 117.86791992 C-75.46999573 107.06601676 -74.61337541 96.39667484 -73.359375 85.671875 C-73.25753906 84.7634082 -73.15570313 83.85494141 -73.05078125 82.91894531 C-69.85833747 54.96535582 -64.3732115 21.41347697 -40.99609375 2.7890625 C-29.32288274 -5.3331381 -12.83361976 -6.38096178 0 0 Z " fill="#E9F0F6" transform="translate(274.359375,228.328125)"/>
<path d="M0 0 C-0.31208968 3.2917057 -0.62474956 6.58335702 -0.9375 9.875 C-1.02451172 10.7928125 -1.11152344 11.710625 -1.20117188 12.65625 C-1.37900496 14.52679063 -1.56556409 16.39651951 -1.76025391 18.26538086 C-2.03156314 20.93978359 -2.03156314 20.93978359 -2.01708984 23.39282227 C-2.25421508 31.98549204 -6.68076338 38.87146203 -10.75 46.1875 C-11.52385275 47.60760375 -12.29638204 49.02842944 -13.06762695 50.44995117 C-15.35308825 54.6475236 -17.671083 58.82641293 -20 63 C-20.33521667 63.60154907 -20.67043335 64.20309814 -21.01580811 64.82287598 C-24.03638443 70.23914773 -27.08399496 75.63912426 -30.16796875 81.01953125 C-31.11202578 82.679661 -32.05603464 84.33981813 -33 86 C-33.55896973 86.96784424 -34.11793945 87.93568848 -34.69384766 88.93286133 C-35.52021729 90.39308716 -35.52021729 90.39308716 -36.36328125 91.8828125 C-37.11992065 93.20563232 -37.11992065 93.20563232 -37.8918457 94.55517578 C-39.56382779 98.2439241 -39.29020585 100.21002031 -38 104 C-36.06268472 106.36410488 -36.06268472 106.36410488 -32.5625 106.3125 C-29.15203587 106.33513412 -29.15203587 106.33513412 -27.46948242 104.82348633 C-25.61489027 102.52211587 -24.30659857 100.12634867 -22.92578125 97.51171875 C-22.34393066 96.41843262 -21.76208008 95.32514648 -21.16259766 94.19873047 C-20.55206543 93.04002441 -19.9415332 91.88131836 -19.3125 90.6875 C-18.05886887 88.32788132 -16.80085697 85.97063759 -15.54296875 83.61328125 C-14.93630371 82.47584473 -14.32963867 81.3384082 -13.70458984 80.16650391 C-10.58744237 74.37598504 -7.32239907 68.67490524 -4 63 C-1.63617571 65.91437311 0.60870294 68.85781099 2.75 71.9375 C8.516853 79.61697762 15.80988799 83.61038302 25.0625 85.6875 C28.8445064 87.37733265 30.60155119 89.78808951 33.1875 92.95703125 C35.80027638 95.90203566 38.71318112 97.85350604 42 100 C41.35078871 103.12532438 40.26980131 105.60195228 38.734375 108.39453125 C38.26338379 109.2553833 37.79239258 110.11623535 37.30712891 111.00317383 C36.79327637 111.93025146 36.27942383 112.8573291 35.75 113.8125 C35.2142334 114.78662842 34.6784668 115.76075684 34.12646484 116.7644043 C29.26890405 125.57164311 24.32009193 134.32702552 19.35546875 143.07421875 C15.32739438 150.17569612 11.34604186 157.30321824 7.37158203 164.43481445 C1.6560342 174.66765821 -4.18363119 184.82135459 -10 195 C-31.45 195 -52.9 195 -75 195 C-73.63228815 190.89686446 -72.6449964 188.07604642 -70.55859375 184.5078125 C-70.06536621 183.65300293 -69.57213867 182.79819336 -69.06396484 181.91748047 C-68.52723145 180.99596191 -67.99049805 180.07444336 -67.4375 179.125 C-60.91189326 167.76950534 -54.7540842 156.23865443 -48.65014648 144.65283203 C-48.29686783 143.9831842 -47.94358917 143.31353638 -47.5796051 142.62359619 C-46.61635487 140.79664884 -45.65550704 138.96843542 -44.69482422 137.14013672 C-43.62240386 135.15317754 -42.49662344 133.19335317 -41.30126953 131.27783203 C-39.60427909 128.3073028 -39.56077364 126.36740207 -40 123 C-40.93597315 120.98048938 -40.93597315 120.98048938 -43 120 C-46.45749949 119.33323122 -46.45749949 119.33323122 -50 120 C-52.94109228 123.17311649 -55.0126448 126.59352297 -57.03125 130.40234375 C-57.86825439 131.97072998 -57.86825439 131.97072998 -58.72216797 133.57080078 C-59.30885254 134.68181152 -59.89553711 135.79282227 -60.5 136.9375 C-61.74162306 139.26722799 -62.98382155 141.59664938 -64.2265625 143.92578125 C-64.53941193 144.51365417 -64.85226135 145.1015271 -65.17459106 145.70721436 C-68.36656427 151.70253518 -71.61603652 157.66590805 -74.875 163.625 C-75.65133789 165.04607056 -75.65133789 165.04607056 -76.44335938 166.49584961 C-77.62823776 168.66426644 -78.81374557 170.83233574 -80 173 C-80.33 173 -80.66 173 -81 173 C-81.07021166 165.07945618 -81.12316573 157.15904727 -81.15543652 149.23826694 C-81.17094252 145.55838922 -81.19189626 141.87872786 -81.22631836 138.19897461 C-81.50890626 107.16508185 -81.50890626 107.16508185 -78 93 C-77.69487073 91.67225596 -77.39143002 90.34412284 -77.08959961 89.015625 C-69.42789766 56.36371926 -47.32076521 26.74786003 -19 9 C-3.68363636 0 -3.68363636 0 0 0 Z " fill="#FBD2BA" transform="translate(188,302)"/>
<path d="M0 0 C-0.31208968 3.2917057 -0.62474956 6.58335702 -0.9375 9.875 C-1.02451172 10.7928125 -1.11152344 11.710625 -1.20117188 12.65625 C-1.37900496 14.52679063 -1.56556409 16.39651951 -1.76025391 18.26538086 C-2.03156314 20.93978359 -2.03156314 20.93978359 -2.01708984 23.39282227 C-2.25421508 31.98549204 -6.68076338 38.87146203 -10.75 46.1875 C-11.52385275 47.60760375 -12.29638204 49.02842944 -13.06762695 50.44995117 C-15.35308825 54.6475236 -17.671083 58.82641293 -20 63 C-20.33521667 63.60154907 -20.67043335 64.20309814 -21.01580811 64.82287598 C-24.03638443 70.23914773 -27.08399496 75.63912426 -30.16796875 81.01953125 C-31.11216808 82.67958006 -32.05617216 84.33973994 -33 86 C-33.55896973 86.96929443 -34.11793945 87.93858887 -34.69384766 88.93725586 C-35.24476074 89.91186768 -35.79567383 90.88647949 -36.36328125 91.890625 C-37.11992065 93.21562012 -37.11992065 93.21562012 -37.8918457 94.56738281 C-39.48310908 98.0605197 -39.17444262 100.40326948 -38 104 C-37.60039062 104.60585938 -37.20078125 105.21171875 -36.7890625 105.8359375 C-36 108 -36 108 -36.8359375 110.76171875 C-40.96742553 118.61574042 -40.96742553 118.61574042 -44.046875 119.76171875 C-46.02989488 119.8698157 -48.01506853 119.93596995 -50 120 C-52.97253992 123.14259127 -55.01399348 126.59606774 -57.03125 130.40234375 C-57.86825439 131.97072998 -57.86825439 131.97072998 -58.72216797 133.57080078 C-59.30885254 134.68181152 -59.89553711 135.79282227 -60.5 136.9375 C-61.74162306 139.26722799 -62.98382155 141.59664938 -64.2265625 143.92578125 C-64.53941193 144.51365417 -64.85226135 145.1015271 -65.17459106 145.70721436 C-68.36656427 151.70253518 -71.61603652 157.66590805 -74.875 163.625 C-75.65133789 165.04607056 -75.65133789 165.04607056 -76.44335938 166.49584961 C-77.62823776 168.66426644 -78.81374557 170.83233574 -80 173 C-80.33 173 -80.66 173 -81 173 C-81.07021166 165.07945618 -81.12316573 157.15904727 -81.15543652 149.23826694 C-81.17094252 145.55838922 -81.19189626 141.87872786 -81.22631836 138.19897461 C-81.50890626 107.16508185 -81.50890626 107.16508185 -78 93 C-77.69487073 91.67225596 -77.39143002 90.34412284 -77.08959961 89.015625 C-69.42789766 56.36371926 -47.32076521 26.74786003 -19 9 C-3.68363636 0 -3.68363636 0 0 0 Z " fill="#FCA4D2" transform="translate(188,302)"/>
<path d="M0 0 C0.89686523 0.00491455 1.79373047 0.0098291 2.71777344 0.01489258 C13.47296393 0.20562213 22.21146565 2.71375964 30.2578125 10.09765625 C35.5684445 15.68604097 38.30383527 21.57781895 38.6875 29.3125 C38.30369463 37.37241275 35.04418251 44.64258131 29.3125 50.3125 C21.99905772 55.42937021 15.18825008 57.22805015 6.3125 56.3125 C-1.75464777 54.13602611 -8.03286303 50.42184556 -12.375 43.125 C-16.88576864 35.01801719 -18.18110519 26.65236693 -18.0625 17.5 C-18.07410156 16.58541016 -18.08570313 15.67082031 -18.09765625 14.72851562 C-18.05983154 6.06035318 -18.05983154 6.06035318 -14.6875 2.3125 C-10.23695018 -0.45134989 -5.07800898 -0.03235894 0 0 Z " fill="#000101" transform="translate(377.6875,249.6875)"/>
<path d="M0 0 C0.88945312 -0.01224609 1.77890625 -0.02449219 2.6953125 -0.03710938 C10.9702271 -0.0556353 10.9702271 -0.0556353 15 2.1875 C19.54501322 6.73251322 18.30981769 14.31651474 18.31469727 20.33520508 C18.15362235 30.92135369 16.00346007 40.10154681 9 48.3125 C2.53912067 54.36957437 -4.58945642 56.57121585 -13.2734375 56.46875 C-20.51739354 55.72152244 -26.99123399 52.42923187 -32 47.1875 C-36.63672458 40.27021251 -38.98643468 33.62223135 -38 25.1875 C-36.13854007 17.05398717 -32.77167203 11.14814347 -26 6.1875 C-17.27016579 1.28460992 -9.85787543 0.00714339 0 0 Z " fill="#000101" transform="translate(134,249.8125)"/>
<path d="M0 0 C18.81 0 37.62 0 57 0 C57 10.23 57 20.46 57 31 C38.19 31 19.38 31 0 31 C0 20.77 0 10.54 0 0 Z " fill="#FCD3BA" transform="translate(348,466)"/>
<path d="M0 0 C43.56 0.33 87.12 0.66 132 1 C132 4.63 132 8.26 132 12 C86.46 12 40.92 12 -6 12 C-4.02 8.04 -2.04 4.08 0 0 Z " fill="#FD8ECF" transform="translate(201,485)"/>
<path d="M0 0 C6.37299031 2.8310544 10.68478682 7.87782035 14.24609375 13.76171875 C15.85158179 21.25399628 15.22339514 27.35674345 11.5078125 34.1171875 C8.03544182 38.75499753 3.24644621 41.57410126 -2.19140625 43.38671875 C-4.06454289 43.48010093 -5.94094987 43.51666718 -7.81640625 43.51171875 C-8.79867188 43.51429688 -9.7809375 43.516875 -10.79296875 43.51953125 C-13.19140625 43.38671875 -13.19140625 43.38671875 -14.19140625 42.38671875 C-14.2801476 39.28420674 -14.3065908 36.20403755 -14.2890625 33.1015625 C-14.28764755 32.17074356 -14.2862326 31.23992462 -14.28477478 30.28089905 C-14.27915797 27.29530684 -14.26660265 24.30978846 -14.25390625 21.32421875 C-14.24889341 19.30533962 -14.24433013 17.28645932 -14.24023438 15.26757812 C-14.22918308 10.30726303 -14.2119072 5.34700343 -14.19140625 0.38671875 C-9.96023605 -1.72886635 -4.46886949 -1.25064618 0 0 Z " fill="#E9B89F" transform="translate(372.19140625,173.61328125)"/>
<path d="M0 0 C0 13.86 0 27.72 0 42 C-4.03417199 44.01708599 -8.62448071 43.58227195 -13 43 C-19.44780688 40.53893568 -23.78072347 36.91886018 -27.16015625 30.9296875 C-29.4999608 25.55357845 -30.12667171 19.42900085 -28.28125 13.8125 C-25.18831682 7.22754549 -20.77339067 2.81615443 -14.19140625 -0.28125 C-9.42352202 -1.84504804 -4.70965606 -1.56988535 0 0 Z " fill="#E9B89F" transform="translate(154,174)"/>
<path d="M0 0 C2 1.625 2 1.625 3 4 C3 8.2963 2.71658357 10.26404931 -0.3125 13.375 C-2.6541947 14.79090842 -4.32107145 15.6031217 -7 16 C-7 16.66 -7 17.32 -7 18 C-6.278125 18.226875 -5.55625 18.45375 -4.8125 18.6875 C-1.2955751 20.32873162 0.65463317 21.89583801 3 25 C3.06641554 28.85210127 2.87229157 30.99848005 0.3125 33.9375 C-2.84268613 35.38718011 -4.50621982 35.3987252 -8 35 C-11.36959148 33.51481045 -14.47698769 31.65333667 -17.625 29.75 C-18.470625 29.25886719 -19.31625 28.76773438 -20.1875 28.26171875 C-28.30120773 23.4626014 -28.30120773 23.4626014 -31 20 C-31.5625 16.5 -31.5625 16.5 -31 13 C-26.84983569 8.98290709 -21.67427817 6.40363648 -16.625 3.6875 C-15.8 3.22021484 -14.975 2.75292969 -14.125 2.27148438 C-9.03544037 -0.46314409 -5.81095368 -1.71926149 0 0 Z " fill="#040403" transform="translate(313,163)"/>
<path d="M0 0 C3.36224597 1.42536971 6.54596472 3.1268942 9.75 4.875 C10.59949219 5.32230469 11.44898438 5.76960937 12.32421875 6.23046875 C19.73050716 10.19686965 19.73050716 10.19686965 22 13 C22.4375 16.4375 22.4375 16.4375 22 20 C18.16421414 24.50750515 13.23990158 26.93791125 8.125 29.75 C7.23941406 30.25660156 6.35382813 30.76320312 5.44140625 31.28515625 C-2.95067178 35.92518747 -2.95067178 35.92518747 -8 35 C-10.88629588 32.41752474 -11.86270511 30.74749439 -12.5625 26.9375 C-12 24 -12 24 -9.8125 21.75 C-7.24402306 20.15183657 -4.85531211 18.97896415 -2 18 C-2 17.34 -2 16.68 -2 16 C-2.9075 15.773125 -3.815 15.54625 -4.75 15.3125 C-8.58418636 13.76407859 -9.99560868 12.60790437 -12 9 C-12 5.19715329 -11.7968187 2.98069994 -9.375 0 C-6.04847408 -1.40064249 -3.38995114 -0.91234351 0 0 Z " fill="#040303" transform="translate(208,163)"/>
<path d="M0 0 C1.72208427 0.01665459 1.72208427 0.01665459 3.47895813 0.03364563 C4.78008041 0.03402328 6.0812027 0.03440094 7.42175293 0.03479004 C8.84227959 0.0603235 10.26279652 0.08640348 11.68330383 0.11299133 C13.13631983 0.12231794 14.58935157 0.12943478 16.04238892 0.13442993 C19.86507145 0.15351241 23.68680263 0.20262198 27.5091095 0.25794983 C31.4101423 0.30911656 35.311329 0.33193834 39.21260071 0.35713196 C46.86602903 0.41074122 54.51867371 0.49606694 62.17158508 0.60127258 C59.82596159 8.35987336 59.82596159 8.35987336 57.17158508 11.60127258 C54.34317017 12.20254517 54.34317017 12.20254517 50.86421204 12.16889954 C49.56308975 12.16852188 48.26196747 12.16814423 46.92141724 12.16775513 C45.50089058 12.14222167 44.08037365 12.11614168 42.65986633 12.08955383 C41.20685033 12.08022723 39.7538186 12.07311039 38.30078125 12.06811523 C34.47809871 12.04903276 30.65636754 11.99992318 26.83406067 11.94459534 C22.93302786 11.8934286 19.03184117 11.87060683 15.13056946 11.84541321 C7.47714114 11.79180395 -0.17550354 11.70647823 -7.82841492 11.60127258 C-4.61783841 0.98167338 -4.61783841 0.98167338 0 0 Z " fill="#F4C2A6" transform="translate(120.82841491699219,485.3987274169922)"/>
<path d="M0 0 C18.81 0 37.62 0 57 0 C57 10.23 57 20.46 57 31 C38.19 31 19.38 31 0 31 C0 27.37 0 23.74 0 20 C18.48 20 36.96 20 56 20 C56 13.73 56 7.46 56 1 C37.52 1 19.04 1 0 1 C0 0.67 0 0.34 0 0 Z " fill="#EFBEA3" transform="translate(348,466)"/>
<path d="M0 0 C0.71285156 0.39832031 1.42570313 0.79664063 2.16015625 1.20703125 C14.26024945 7.90035333 25.74816075 12.79031391 39.7890625 8.8359375 C44.71623211 6.97301472 49.34422147 4.44760929 54 2 C55.33156501 1.32980834 56.66413187 0.66157279 58 0 C58.8125 2.625 58.8125 2.625 59 6 C54.48585005 13.57732313 45.38676315 18.80223265 37 21 C24.80030872 22.27642645 15.89390131 20.79534656 5.78125 13.37109375 C2.95731962 11.06218346 1.04038985 9.06058478 -1 6 C-0.625 2.8125 -0.625 2.8125 0 0 Z " fill="#D1DDE7" transform="translate(227,373)"/>
<path d="M0 0 C0.51843657 7.90615772 -0.58584572 15.19527833 -5.28515625 21.80859375 C-8.01572407 24.49352534 -10.80086994 25.40806361 -14.5 25.75 C-18.16270449 25.5268911 -20.0095518 24.6314076 -22.5625 22 C-24.48326583 19.34419249 -25.44760095 17.21401598 -25.6875 13.9375 C-24.89120009 9.37687326 -23.64274078 6.76684581 -20 4 C-13.45768695 0.27146053 -7.43248241 -0.56929652 0 0 Z " fill="#A6E8F6" transform="translate(137,265)"/>
<path d="M0 0 C8.0433437 -0.38301637 15.04597645 0.35615165 21.5 5.5625 C24.68014071 8.66313719 24.92849224 9.28492242 25.375 13.75 C25.35058775 17.10058068 24.75601354 18.84894532 22.625 21.4375 C19.3783483 24.60685046 18.7855819 24.92144181 14.25 25.375 C10.53599654 25.28753253 8.08451833 24.47461741 5.3203125 21.80859375 C0.54308087 15.26463445 -0.51651229 7.87681247 0 0 Z " fill="#A7E8F7" transform="translate(375,265)"/>
<path d="M0 0 C0.33 0 0.66 0 1 0 C1 13.86 1 27.72 1 42 C-3.03417199 44.01708599 -7.62448071 43.58227195 -12 43 C-18.44780688 40.53893568 -22.78072347 36.91886018 -26.16015625 30.9296875 C-27.73475035 27.31178292 -28.12032896 24.18236948 -28.0625 20.25 C-28.05347656 19.45078125 -28.04445313 18.6515625 -28.03515625 17.828125 C-28.02355469 17.22484375 -28.01195313 16.6215625 -28 16 C-27.67 16 -27.34 16 -27 16 C-27.020625 17.19625 -27.04125 18.3925 -27.0625 19.625 C-26.70506177 22.54666905 -26.29660593 23.70783998 -24.17578125 25.796875 C-16.00213261 31.4032486 -10.12728645 32 0 32 C0 21.44 0 10.88 0 0 Z " fill="#DBA189" transform="translate(153,174)"/>
<path d="M0 0 C0.33 0 0.66 0 1 0 C1 10.56 1 21.12 1 32 C12.67260701 32 19.97321299 30.22142961 29 23 C28.6875876 29.09204183 26.0115024 33.56451768 22 38 C15.55938179 42.86424312 8.92960603 44.00739097 1 43 C0 42 0 42 -0.11352539 38.03100586 C-0.1133662 36.25894393 -0.10766785 34.4868774 -0.09765625 32.71484375 C-0.0962413 31.78402481 -0.09482635 30.85320587 -0.09336853 29.8941803 C-0.08775172 26.90858809 -0.0751964 23.92306971 -0.0625 20.9375 C-0.05748716 18.91862087 -0.05292388 16.89974057 -0.04882812 14.88085938 C-0.03777683 9.92054428 -0.02050095 4.96028468 0 0 Z " fill="#DBA189" transform="translate(358,174)"/>
<path d="M0 0 C0.598125 0.474375 1.19625 0.94875 1.8125 1.4375 C6.18430553 4.56021824 10.81754276 4.64155821 16 4 C18.89321877 2.90668796 21.31106843 1.56446928 24 0 C23.4383315 5.89751928 21.23399743 9.51778063 17.3125 13.875 C13.54545898 15.70761455 10.076444 15.97158769 6 15 C3.18912753 13.11081891 1.48240765 11.0386517 0 8 C-0.46420095 5.12994039 -0.30847074 2.93047199 0 0 Z " fill="#8BE6F1" transform="translate(112,275)"/>
<path d="M0 0 C1.134375 0.66 2.26875 1.32 3.4375 2 C8.9812277 4.77186385 14.0385592 4.8821313 19.9375 3.125 C22.13696824 2.05114265 22.13696824 2.05114265 24 0 C24.66964286 7.76785714 24.66964286 7.76785714 21.625 11.4375 C18.3783483 14.60685046 17.7855819 14.92144181 13.25 15.375 C9.74456664 15.31774247 8.85734159 14.91117495 5.6875 12.9375 C2.09730697 9.01333553 0 5.47714457 0 0 Z " fill="#8BE7F2" transform="translate(376,275)"/>
<path d="M0 0 C0.33 0 0.66 0 1 0 C1.33 6.6 1.66 13.2 2 20 C5.96 21.98 9.92 23.96 14 26 C13.67 29.3 13.34 32.6 13 36 C6.88756322 33.90430739 2.90597725 30.80315009 0 25 C-0.34057617 22.13745117 -0.34057617 22.13745117 -0.29296875 19.04296875 C-0.28330078 17.93115234 -0.27363281 16.81933594 -0.26367188 15.67382812 C-0.23853516 14.52333984 -0.21339844 13.37285156 -0.1875 12.1875 C-0.17396484 11.01767578 -0.16042969 9.84785156 -0.14648438 8.64257812 C-0.11120278 5.761248 -0.0619028 2.88086096 0 0 Z " fill="#C3CED7" transform="translate(199,336)"/>
<path d="M0 0 C0.33 0 0.66 0 1 0 C1.17565094 3.99943677 1.28130466 7.99787064 1.375 12 C1.45041016 13.68802734 1.45041016 13.68802734 1.52734375 15.41015625 C1.64631041 22.19125596 1.07208346 26.31315915 -3.43212891 31.51171875 C-6.01033735 33.95904959 -8.34726832 36 -12 36 C-12.33 32.7 -12.66 29.4 -13 26 C-9.04 24.02 -5.08 22.04 -1 20 C-0.67 13.4 -0.34 6.8 0 0 Z " fill="#C2CDD6" transform="translate(312,336)"/>
<path d="M0 0 C1 3 1 3 -0.3359375 5.78515625 C-11.51903114 23.75951557 -11.51903114 23.75951557 -18 27 C-18.66 24.69 -19.32 22.38 -20 20 C-19.26652344 19.59136719 -18.53304688 19.18273437 -17.77734375 18.76171875 C-10.46868669 14.12570703 -4.89395436 7.04345588 0 0 Z " fill="#EFBEA3" transform="translate(334,238)"/>
<path d="M0 0 C3.78083039 1.52951775 5.85198638 3.81890209 8.5 6.875 C13.76039085 12.97630585 13.76039085 12.97630585 20 18 C19.34 19.98 18.68 21.96 18 24 C17.34 24 16.68 24 16 24 C0 7.15274949 0 7.15274949 0 0 Z " fill="#EDBDA2" transform="translate(178,241)"/>
</svg>
