<?xml version="1.0" ?><svg xmlns="http://www.w3.org/2000/svg" viewBox="0 0 32 32"><g id="_111_log-out-04" data-name="111 log-out-04"><path d="M18,27H14.88A2.79,2.79,0,0,1,12,24.31V19h2v5.31a.81.81,0,0,0,.88.69H18Z"/><path d="M29,22H27V5.69A.81.81,0,0,0,26.13,5H14.88a.81.81,0,0,0-.88.69V11H12V5.69A2.79,2.79,0,0,1,14.88,3H26.13A2.79,2.79,0,0,1,29,5.69Z"/><path d="M8.46,20.71l-4.29-4.3a2,2,0,0,1,0-2.82l4.29-4.3,1.42,1.42L5.59,15l4.29,4.29Z"/><rect x="5" y="14" width="9.17" height="2"/><path d="M19.55,29A2.49,2.49,0,0,1,17,26.42v-18A3.7,3.7,0,0,1,19.79,5l6-1.46A2.64,2.64,0,0,1,28.05,4,2.55,2.55,0,0,1,29,6V24a3.72,3.72,0,0,1-2.76,3.46h0l-6,1.45A2.88,2.88,0,0,1,19.55,29ZM26.48,5.43l-.24,0-6,1.45A1.7,1.7,0,0,0,19,8.42v18a.61.61,0,0,0,.18.48.72.72,0,0,0,.58.07l6-1.46h0A1.71,1.71,0,0,0,27,24V6a.59.59,0,0,0-.18-.47A.55.55,0,0,0,26.48,5.43Z"/></g></svg>