<?xml version="1.0" encoding="UTF-8"?>
<svg version="1.1" xmlns="http://www.w3.org/2000/svg" width="512" height="512">
<path d="M0 0 C9.51181178 6.08033538 15.19299232 18.21956186 20.67108154 27.72769165 C22.52252887 30.9393259 24.39012313 34.14154184 26.2578125 37.34375 C26.64045258 38.00015976 27.02309265 38.65656952 27.41732788 39.33287048 C31.27507848 45.93574102 35.24127962 52.46948464 39.2265625 58.99609375 C46.33307965 70.63666426 53.3204938 82.3447099 60.25732422 94.0871582 C60.82033234 95.03896217 60.82033234 95.03896217 61.39471436 96.00999451 C62.13327317 97.25862542 62.87095926 98.50777299 63.60772705 99.75746155 C65.40176615 102.78880992 67.22539778 105.79433013 69.11669922 108.76611328 C69.48129745 109.3426918 69.84589569 109.91927032 70.22154236 110.51332092 C71.21395478 112.07542548 72.21681288 113.63088022 73.22045898 115.18579102 C77.11015898 122.33466487 78.11934462 129.87977109 76.234375 137.765625 C73.5715676 145.43592418 69.00363541 151.10497757 61.70800781 154.75732422 C55.02121508 157.17875028 47.77777119 156.66663068 40.7578125 156.6953125 C39.19981489 156.71217953 37.64183071 156.73033247 36.0838623 156.74971008 C32.00691936 156.79699683 27.93003094 156.82694346 23.85290527 156.85314941 C19.68307738 156.88306326 15.51343693 156.9295561 11.34375 156.97460938 C3.17978007 157.06039949 -4.98420734 157.12785199 -13.1484375 157.18359375 C-12.2730835 157.78324951 -11.39772949 158.38290527 -10.49584961 159.00073242 C-9.3265906 159.80507467 -8.15740506 160.60952374 -6.98828125 161.4140625 C-6.12656311 162.00374817 -6.12656311 162.00374817 -5.24743652 162.60534668 C0.38576967 166.48777233 5.63055256 170.76471428 10.8515625 175.18359375 C11.89388658 176.03984786 12.93688155 176.89528581 13.98046875 177.75 C28.19676156 189.51953456 41.54443882 202.58335665 52.8515625 217.18359375 C53.63917969 218.10398437 54.42679687 219.024375 55.23828125 219.97265625 C63.50607236 229.63838306 67.81424703 238.35397113 66.8515625 251.18359375 C65.5171304 259.68392625 61.17563444 265.61252157 55.8515625 272.18359375 C54.62566406 273.69759766 54.62566406 273.69759766 53.375 275.2421875 C38.05918384 293.83832288 21.10984196 310.69723016 1.8515625 325.18359375 C0.97081055 325.85769287 0.97081055 325.85769287 0.07226562 326.54541016 C-41.79942043 358.5856607 -91.87662706 378.15604134 -144.1484375 384.18359375 C-144.93613525 384.27930664 -145.72383301 384.37501953 -146.53540039 384.47363281 C-155.73480606 385.46241609 -164.9690068 385.42725159 -174.2109375 385.43359375 C-175.096604 385.43426849 -175.98227051 385.43494324 -176.89477539 385.43563843 C-223.35058057 385.37963605 -269.13581785 374.22037955 -310.1484375 352.18359375 C-310.84420898 351.81830566 -311.53998047 351.45301758 -312.25683594 351.07666016 C-332.78268531 340.28438942 -351.86627193 326.92673807 -368.93359375 311.21484375 C-370.90682994 309.40517387 -372.91951563 307.66519484 -374.9609375 305.93359375 C-383.61947787 298.38376892 -391.84582217 290.04997078 -399.1484375 281.18359375 C-399.82737061 280.37535156 -399.82737061 280.37535156 -400.52001953 279.55078125 C-410.89344363 267.17246496 -418.46059193 256.97506991 -417.1484375 240.18359375 C-415.35221829 229.22986412 -407.21167197 221.2277749 -400.1484375 213.18359375 C-399.69581543 212.6618457 -399.24319336 212.14009766 -398.77685547 211.60253906 C-392.58716121 204.50181796 -385.91507307 197.85729933 -379.2734375 191.18359375 C-378.45214355 190.35754639 -377.63084961 189.53149902 -376.78466797 188.68041992 C-375.99979004 187.89771729 -375.21491211 187.11501465 -374.40625 186.30859375 C-373.7064502 185.60992187 -373.00665039 184.91125 -372.28564453 184.19140625 C-366.01381202 178.29929401 -366.01381202 178.29929401 -363.015625 177.8984375 C-362.35820312 177.97191406 -361.70078125 178.04539063 -361.0234375 178.12109375 C-357.25267098 178.59354903 -357.25267098 178.59354903 -355.2734375 176.68359375 C-354.7165625 175.94109375 -354.7165625 175.94109375 -354.1484375 175.18359375 C-353.4884375 175.18359375 -352.8284375 175.18359375 -352.1484375 175.18359375 C-352.2309375 174.09046875 -352.3134375 172.99734375 -352.3984375 171.87109375 C-352.1484375 168.18359375 -352.1484375 168.18359375 -350.5234375 166.18359375 C-348.1484375 165.18359375 -348.1484375 165.18359375 -345.2734375 165.74609375 C-342.00401028 166.49830147 -342.00401028 166.49830147 -338.7734375 164.55859375 C-337.9071875 163.77484375 -337.0409375 162.99109375 -336.1484375 162.18359375 C-336.1690625 161.39984375 -336.1896875 160.61609375 -336.2109375 159.80859375 C-336.1484375 157.18359375 -336.1484375 157.18359375 -333.3671875 154.44140625 C-328.49586856 150.45272755 -323.08451774 147.46560405 -317.5859375 144.43359375 C-316.47822998 143.82161133 -315.37052246 143.20962891 -314.22924805 142.57910156 C-279.67198805 123.72385059 -242.3374596 112.12921932 -203.1484375 108.18359375 C-201.87742188 108.05210937 -200.60640625 107.920625 -199.296875 107.78515625 C-166.20753988 105.02148718 -132.019475 107.71794596 -100.1484375 117.18359375 C-99.88828857 116.48137695 -99.62813965 115.77916016 -99.36010742 115.05566406 C-98.04626499 111.94141011 -96.47678012 109.14322414 -94.76171875 106.23046875 C-94.42831985 105.6623497 -94.09492096 105.09423065 -93.75141907 104.50889587 C-92.6581313 102.64835271 -91.55968319 100.79091812 -90.4609375 98.93359375 C-89.68845926 97.62225774 -88.91616362 96.31081416 -88.14404297 94.99926758 C-82.79677076 85.92693167 -77.39716901 76.88621442 -71.96289062 67.86572266 C-68.00510727 61.29334688 -64.08187877 54.70161438 -60.17927551 48.09640503 C-56.20321443 41.36813895 -52.2101097 34.65017657 -48.19970703 27.94232178 C-47.22052683 26.30419605 -46.24300962 24.6650766 -45.265625 23.02587891 C-43.67995373 20.3808308 -42.07552848 17.74855818 -40.4609375 15.12109375 C-39.81282104 14.03465576 -39.81282104 14.03465576 -39.15161133 12.92626953 C-30.57977738 -0.81579818 -15.32273608 -8.05140132 0 0 Z " fill="#030202" transform="translate(426.1484375,64.81640625)"/>
<path d="M0 0 C0.9088797 0.00149048 1.8177594 0.00298096 2.75418091 0.0045166 C26.76442169 0.07492555 50.27372013 2.50019598 73.375 9.3125 C73.38917969 9.92996094 73.40335937 10.54742187 73.41796875 11.18359375 C73.89199709 19.6007997 76.46084297 25.93660416 82.75 31.6875 C89.42666116 37.31168256 95.85665107 37.68452257 104.21484375 37.47265625 C106.35220299 37.4608044 108.48957507 37.45110948 110.62695312 37.44335938 C113.95827427 37.41675567 117.28694053 37.37561364 120.61743164 37.2956543 C136.19695635 36.95770113 146.12957416 38.47608294 158.375 48.3125 C159.90581735 49.39030368 161.44010275 50.46323139 162.98046875 51.52734375 C164.18024679 52.42725725 165.37451624 53.33457319 166.5625 54.25 C167.53340576 54.98633667 167.53340576 54.98633667 168.52392578 55.73754883 C173.61687775 59.63732695 178.54591874 63.7210326 183.39135742 67.92358398 C186.19950326 70.38198552 186.19950326 70.38198552 189.375 72.3125 C189.375 72.9725 189.375 73.6325 189.375 74.3125 C189.94774658 74.5607251 190.52049316 74.8089502 191.1105957 75.06469727 C193.72204822 76.50374135 195.49407661 78.17258748 197.60546875 80.27734375 C198.4042041 81.07205078 199.20293945 81.86675781 200.02587891 82.68554688 C201.28150635 83.95495117 201.28150635 83.95495117 202.5625 85.25 C203.42020996 86.11302734 204.27791992 86.97605469 205.16162109 87.86523438 C210.97186451 93.76299147 216.3081461 99.76567255 221.375 106.3125 C223.75402077 109.11513019 226.13385714 111.91674086 228.52734375 114.70703125 C232.95336593 120.94837753 233.30604162 127.90336877 232.375 135.3125 C231.19120587 138.41789484 229.45785531 140.74195174 227.375 143.3125 C226.80523437 144.06789063 226.23546875 144.82328125 225.6484375 145.6015625 C221.13986778 151.44600473 216.21165037 156.86367152 211.18359375 162.2578125 C209.07309303 164.52482907 207.04754048 166.85207037 205.03125 169.203125 C201.39567047 173.37377076 197.48730412 177.17278334 193.4375 180.9375 C192.77298828 181.5665625 192.10847656 182.195625 191.42382812 182.84375 C186.96918397 187.0089071 182.32784682 190.75555291 177.375 194.3125 C176.51777344 193.83039063 175.66054688 193.34828125 174.77734375 192.8515625 C173.63394531 192.21992188 172.49054688 191.58828125 171.3125 190.9375 C170.18714844 190.31101562 169.06179688 189.68453125 167.90234375 189.0390625 C158.35621642 184.36642874 147.69146567 183.51843986 137.5625 186.9375 C130.92189617 189.70685608 125.25560463 193.48215197 120.0625 198.4375 C114.15736569 203.64388291 105.41624522 206.10096339 97.6015625 205.703125 C91.06994737 204.55722761 85.23165336 201.84537647 80.375 197.3125 C81.80965781 194.10235408 83.72050131 191.35234283 85.75146484 188.49267578 C95.28161746 174.91620139 100.20375093 160.49269014 103.375 144.3125 C103.56578125 143.37921875 103.7565625 142.4459375 103.953125 141.484375 C107.52614296 114.62057333 100.53121754 87.99931815 84.375 66.3125 C81.51197953 62.83466424 78.52628182 59.53006117 75.375 56.3125 C74.69566406 55.56742188 74.01632812 54.82234375 73.31640625 54.0546875 C71.404137 51.98300213 71.404137 51.98300213 68.125 52.0625 C67.2175 52.145 66.31 52.2275 65.375 52.3125 C64.5985806 54.62226302 64.5985806 54.62226302 64.375 57.3125 C65.52016179 59.36619922 65.52016179 59.36619922 67.375 61.125 C68.02726562 61.82238281 68.67953125 62.51976562 69.3515625 63.23828125 C70.59245997 64.51032094 71.83652403 65.77929257 73.0859375 67.04296875 C89.45311 84.44749725 96.29727863 108.99029053 95.65625 132.38671875 C94.6507539 153.98393699 86.37235651 173.93488236 72.375 190.3125 C71.12009766 189.77109375 71.12009766 189.77109375 69.83984375 189.21875 C57.50877037 184.30270746 46.05738265 183.17019159 33.5078125 188.55078125 C28.85658178 191.16637359 25.08566994 194.46671704 21.10546875 198 C14.77122617 203.36462319 8.08734433 205.66776359 -0.1328125 205.51953125 C-9.15881596 204.76972219 -14.83326148 200.982335 -21.625 195.3125 C-30.73949922 188.17647278 -41.04379044 184.52344922 -52.69140625 184.91015625 C-57.6458706 185.58966334 -62.05132568 187.35907821 -66.625 189.3125 C-67.615 189.6425 -68.605 189.9725 -69.625 190.3125 C-87.19798954 172.1519637 -93.05576358 148.90478682 -92.77880859 124.32202148 C-92.73787162 121.98509891 -92.68799804 119.64891952 -92.625 117.3125 C-91.965 117.3125 -91.305 117.3125 -90.625 117.3125 C-89.60116089 118.46170716 -88.63115653 119.65909048 -87.6875 120.875 C-80.51553719 129.28196886 -69.83613011 134.98800671 -58.98828125 136.98046875 C-55.625 138.3125 -55.625 138.3125 -54.05859375 141.4375 C-53.70184629 142.72255984 -53.37098141 144.01500752 -53.0625 145.3125 C-48.92399794 159.8076294 -40.59405988 170.54999701 -27.625 178.3125 C-13.0747612 186.06989107 3.35452068 187.93101656 19.375 183.3125 C34.81194487 177.25474683 46.419258 166.81430224 53.6875 151.875 C59.52392341 138.41231667 60.77569809 123.18072117 55.375 109.3125 C49.15104943 94.25399736 39.83950015 82.91880356 24.69140625 76.10546875 C20.79168535 74.59425615 17.25226981 73.40386064 13.07421875 72.96875 C4.67289492 71.96097874 4.67289492 71.96097874 2.16748047 68.77880859 C0.23941413 65.44946522 -1.22512889 61.94328188 -2.734375 58.41015625 C-6.51894544 49.69084201 -13.86728511 43.51249418 -21.625 38.3125 C-21.295 37.6525 -20.965 36.9925 -20.625 36.3125 C-5.00993708 32.34754672 15.01581849 32.31889131 30.08203125 38.40625 C32.93921272 39.53549378 35.33159835 39.45405357 38.375 39.3125 C38.375 37.0025 38.375 34.6925 38.375 32.3125 C34.11777973 29.99626162 30.24455608 28.64909154 25.5 27.6875 C24.34757813 27.44773438 23.19515625 27.20796875 22.0078125 26.9609375 C5.06638911 23.93698451 -16.07436846 22.8995593 -32.03515625 30.453125 C-36.31422268 31.87302638 -40.65906144 31.33575005 -45.125 31.1875 C-61.32449483 30.94110978 -75.44485402 35.60968788 -87.48828125 46.91796875 C-97.63079713 58.28426169 -101.79840033 71.31045549 -101.8125 86.3125 C-101.82474609 86.99828125 -101.83699219 87.6840625 -101.84960938 88.390625 C-101.86219825 92.7883402 -101.07544745 96.19510078 -99.625 100.3125 C-99.61328125 102.4375 -99.61328125 102.4375 -99.9375 104.3125 C-100.03675781 104.93125 -100.13601562 105.55 -100.23828125 106.1875 C-100.53401605 107.81254777 -100.83334824 109.43694126 -101.13427734 111.06103516 C-103.47640805 126.57969026 -102.8331537 143.47813034 -97.625 158.3125 C-97.40537598 158.97636719 -97.18575195 159.64023437 -96.95947266 160.32421875 C-92.62434124 173.40631382 -86.46683116 184.67005277 -77.625 195.3125 C-79.00409662 198.72094088 -80.23063494 199.97987535 -83.5625 201.5 C-84.59697266 201.98533203 -84.59697266 201.98533203 -85.65234375 202.48046875 C-89.85373485 204.25254064 -93.26468154 204.50776196 -97.8125 204.5625 C-99.72095703 204.60117187 -99.72095703 204.60117187 -101.66796875 204.640625 C-109.51723701 203.98974787 -114.4838763 201.01206203 -120.3125 195.9375 C-130.03984354 187.97424351 -139.2920704 184.41754076 -152.0390625 184.890625 C-160.48843257 185.88466854 -167.04125788 189.0455063 -173.625 194.3125 C-177.36422129 192.7311938 -179.92149737 190.38019602 -182.875 187.625 C-186.08033804 184.6529417 -189.29591708 181.70884744 -192.625 178.875 C-200.58313394 171.92587282 -207.7875504 164.41655815 -214.35546875 156.14453125 C-215.97401312 154.12483303 -217.60777886 152.1538945 -219.30078125 150.19921875 C-219.97548462 149.41405884 -219.97548462 149.41405884 -220.66381836 148.61303711 C-221.92498035 147.1495546 -223.19275514 145.69177822 -224.4609375 144.234375 C-229.09054301 137.98357189 -230.36603868 132.28824183 -230.15625 124.6484375 C-228.69371775 115.46459527 -221.41173773 108.62972428 -215.25 102.11328125 C-213.24479976 99.9738042 -211.32316672 97.81222547 -209.4140625 95.58984375 C-205.15627841 90.69984673 -200.59383822 86.1348046 -196 81.5625 C-195.16726562 80.72589844 -194.33453125 79.88929688 -193.4765625 79.02734375 C-192.66703125 78.21910156 -191.8575 77.41085937 -191.0234375 76.578125 C-190.29817871 75.85399414 -189.57291992 75.12986328 -188.82568359 74.38378906 C-186.625 72.3125 -186.625 72.3125 -183.85400391 70.26464844 C-182.75064697 69.29833496 -182.75064697 69.29833496 -181.625 68.3125 C-181.58333998 65.9795386 -181.58333998 63.6454614 -181.625 61.3125 C-179.75 58.875 -179.75 58.875 -177.625 57.3125 C-176.965 57.3125 -176.305 57.3125 -175.625 57.3125 C-175.7075 56.219375 -175.79 55.12625 -175.875 54 C-175.625 50.3125 -175.625 50.3125 -174 48.3125 C-171.625 47.3125 -171.625 47.3125 -168.75 47.875 C-165.47865683 48.69375956 -165.47865683 48.69375956 -162.75 46.3125 C-159.625 44.3125 -159.625 44.3125 -156.05078125 45.04296875 C-150.20253846 45.93233901 -146.40660833 42.72469278 -141.6875 39.625 C-124.68743321 29.04210031 -106.71226307 20.39165716 -87.71728516 14.01660156 C-85.77672044 13.36355738 -83.8467828 12.67916237 -81.91796875 11.9921875 C-73.21717181 9.04559173 -64.35588319 7.03734785 -55.375 5.125 C-54.22209473 4.87484131 -53.06918945 4.62468262 -51.88134766 4.36694336 C-34.71470033 0.84579339 -17.48688038 -0.07166672 0 0 Z " fill="#FDC9C1" transform="translate(249.625,182.6875)"/>
<path d="M0 0 C7.11253904 3.62600029 11.11814796 9.88560168 15.046875 16.6015625 C15.41504333 17.22678802 15.78321167 17.85201355 16.16253662 18.4961853 C16.95189633 19.83773367 17.73888337 21.18068048 18.52368164 22.52490234 C20.6348594 26.14034154 22.76397373 29.74521113 24.890625 33.3515625 C25.32205811 34.08425354 25.75349121 34.81694458 26.19799805 35.57183838 C30.23525469 42.42030777 34.35759994 49.21478016 38.5 56 C45.52622118 67.5251621 52.44288238 79.11284851 59.31835938 90.72851562 C59.69127609 91.35812698 60.06419281 91.98773834 60.44841003 92.63642883 C61.18620304 93.8834913 61.92264211 95.13135586 62.65766907 96.38005066 C64.57796443 99.63517798 66.53042854 102.86489453 68.53393555 106.06958008 C68.94848999 106.73958542 69.36304443 107.40959076 69.79016113 108.09989929 C70.58024626 109.37433297 71.37856173 110.64371667 72.18664551 111.90681458 C75.03108273 116.5188331 76.07387668 120.30987683 75.5625 125.6953125 C74.17976266 131.36069467 70.71982906 134.81411539 66 138 C62.79190288 139.05778855 59.79807703 139.13256279 56.43423462 139.14717102 C55.30149612 139.15432632 54.16875763 139.16148163 53.00169373 139.16885376 C51.7631514 139.17154266 50.52460907 139.17423157 49.24853516 139.17700195 C47.94085678 139.18357315 46.63317841 139.19014435 45.28587341 139.19691467 C40.95361549 139.21790967 36.6213574 139.22831071 32.2890625 139.23828125 C30.79589189 139.24233009 29.30272147 139.24644705 27.80955124 139.25063133 C20.79577304 139.2696706 13.7820053 139.28390597 6.76820624 139.2922433 C-1.32258943 139.30202049 -9.41311186 139.32835763 -17.50381124 139.36874419 C-23.76211032 139.3989103 -30.02033106 139.41371251 -36.27870142 139.41702431 C-40.01473481 139.41937365 -43.75047585 139.42831892 -47.48643112 139.45348549 C-51.6543778 139.48111037 -55.82171368 139.47693362 -59.98974609 139.4699707 C-61.22423996 139.48278076 -62.45873383 139.49559082 -63.7306366 139.50878906 C-70.11143764 139.4698678 -74.19868942 139.38817601 -79 135 C-83.25695004 130.28283915 -84.63051341 126.3038998 -84.54541016 120.02441406 C-83.36406082 113.47358345 -79.1924985 107.92328542 -75.6875 102.375 C-74.82075555 100.96659677 -73.95637724 99.55673495 -73.09423828 98.14550781 C-71.30178693 95.21537733 -69.49934307 92.29176098 -67.68994141 89.37207031 C-63.88736852 83.21649869 -60.22386343 76.97947874 -56.5519104 70.7454834 C-48.75343856 57.52296358 -40.82350548 44.38067219 -32.8203125 31.28125 C-30.42749888 27.36249817 -28.06505806 23.42933825 -25.7421875 19.46875 C-25.25105469 18.63972168 -24.75992188 17.81069336 -24.25390625 16.95654297 C-23.37902316 15.47723462 -22.51329081 13.99244506 -21.66015625 12.50048828 C-16.63614158 4.06342017 -10.33693342 -1.39528949 0 0 Z " fill="#EDBE1F" transform="translate(417,72)"/>
<path d="M0 0 C2.85718147 1.12924378 5.2495671 1.04780357 8.29296875 0.90625 C8.29296875 0.24625 8.29296875 -0.41375 8.29296875 -1.09375 C11.05584946 -0.62011331 13.35222389 -0.0669441 15.91796875 1.09375 C16.70171875 1.361875 17.48546875 1.63 18.29296875 1.90625 C19.28296875 1.24625 20.27296875 0.58625 21.29296875 -0.09375 C24.25373166 0.26513035 25.13954896 0.75283021 27.29296875 2.90625 C27.37546875 3.855 27.45796875 4.80375 27.54296875 5.78125 C27.9867759 9.20616364 27.9867759 9.20616364 31.35546875 10.90625 C32.32484375 11.56625 33.29421875 12.22625 34.29296875 12.90625 C34.27234375 13.81375 34.25171875 14.72125 34.23046875 15.65625 C34.34048078 21.37687575 39.14567702 24.73438972 43 28.6328125 C59.36976011 46.03766283 66.21530294 70.58201265 65.57421875 93.98046875 C64.56872265 115.57768699 56.29032526 135.52863236 42.29296875 151.90625 C41.03806641 151.36484375 41.03806641 151.36484375 39.7578125 150.8125 C27.42673912 145.89645746 15.9753514 144.76394159 3.42578125 150.14453125 C-1.22544947 152.76012359 -4.99636131 156.06046704 -8.9765625 159.59375 C-15.31080508 164.95837319 -21.99468692 167.26151359 -30.21484375 167.11328125 C-39.24084721 166.36347219 -44.91529273 162.576085 -51.70703125 156.90625 C-60.82153047 149.77022278 -71.12582169 146.11719922 -82.7734375 146.50390625 C-87.72790185 147.18341334 -92.13335693 148.95282821 -96.70703125 150.90625 C-97.69703125 151.23625 -98.68703125 151.56625 -99.70703125 151.90625 C-117.28002079 133.7457137 -123.13779483 110.49853682 -122.86083984 85.91577148 C-122.81990287 83.57884891 -122.77002929 81.24266952 -122.70703125 78.90625 C-122.04703125 78.90625 -121.38703125 78.90625 -120.70703125 78.90625 C-119.68319214 80.05545716 -118.71318778 81.25284048 -117.76953125 82.46875 C-110.59756844 90.87571886 -99.91816136 96.58175671 -89.0703125 98.57421875 C-85.70703125 99.90625 -85.70703125 99.90625 -84.140625 103.03125 C-83.78387754 104.31630984 -83.45301266 105.60875752 -83.14453125 106.90625 C-79.00602919 121.4013794 -70.67609113 132.14374701 -57.70703125 139.90625 C-43.15679245 147.66364107 -26.72751057 149.52476656 -10.70703125 144.90625 C4.72991362 138.84849683 16.33722675 128.40805224 23.60546875 113.46875 C29.44189216 100.00606667 30.69366684 84.77447117 25.29296875 70.90625 C19.06901818 55.84774736 9.7574689 44.51255356 -5.390625 37.69921875 C-9.2903459 36.18800615 -12.82976144 34.99761064 -17.0078125 34.5625 C-25.40913633 33.55472874 -25.40913633 33.55472874 -27.91455078 30.37255859 C-29.84261712 27.04321522 -31.30716014 23.53703188 -32.81640625 20.00390625 C-36.60097669 11.28459201 -43.94931636 5.10624418 -51.70703125 -0.09375 C-51.37703125 -0.75375 -51.04703125 -1.41375 -50.70703125 -2.09375 C-35.09196833 -6.05870328 -15.06621276 -6.08735869 0 0 Z " fill="#F95C3C" transform="translate(279.70703125,221.09375)"/>
<path d="M0 0 C3.30055299 1.86031168 6.14828562 4.11754017 9.06640625 6.5234375 C20.6940689 15.67923309 30.90150242 17.60186112 45.36328125 16.33203125 C52.38345941 14.8595449 57.80598222 11.77787048 63.36328125 7.33203125 C66.52067829 8.73019734 69.16911406 10.59821418 71.93017578 12.65771484 C95.46910246 30.17857747 122.52138497 37.62606276 151.79296875 33.828125 C171.25540966 30.77140432 188.48045367 23.11708885 203.36328125 10.33203125 C204.68863414 9.32147819 206.01946583 8.31790035 207.36328125 7.33203125 C210.54036597 8.87965097 213.60050411 10.59212905 216.67578125 12.33203125 C226.85948867 17.84764557 235.82046475 18.83819476 246.98828125 15.70703125 C253.83805767 13.39948246 259.05358039 10.00941404 264.6328125 5.49609375 C272.39250554 -0.76982533 278.19896005 -3.28413172 288.31640625 -3.02734375 C293.01269979 -2.47342195 297.29278066 -1.09243026 301.36328125 1.33203125 C302.02328125 2.32203125 302.68328125 3.31203125 303.36328125 4.33203125 C291.99741154 13.20125063 280.03339156 20.4741742 267.36328125 27.33203125 C266.67153809 27.70956543 265.97979492 28.08709961 265.26708984 28.47607422 C238.6818279 42.8452092 209.07953169 52.65861478 179.19042969 56.92626953 C176.3396767 57.33541905 173.49691903 57.78449239 170.65234375 58.234375 C102.2215853 68.50646565 30.2264905 48.23870724 -25.63671875 8.33203125 C-28.640625 6.109375 -28.640625 6.109375 -30.63671875 4.33203125 C-30.63671875 3.67203125 -30.63671875 3.01203125 -30.63671875 2.33203125 C-20.32815832 -3.34985245 -10.97815582 -4.95505279 0 0 Z " fill="#70BFE6" transform="translate(114.63671875,379.66796875)"/>
<path d="M0 0 C10.06578405 7.15098172 17.64176157 17.37835854 19.8984375 29.6875 C21.00641372 43.30708459 18.09953299 53.81262269 9.8984375 64.6875 C9.3003125 65.574375 8.7021875 66.46125 8.0859375 67.375 C0.83855246 75.03652132 -10.08519059 80.21035542 -20.60546875 80.92578125 C-34.87734978 81.31860148 -45.373697 77.70536057 -56.0703125 67.87890625 C-65.89141164 57.51936966 -68.71403217 45.72648831 -68.453125 31.8125 C-68.00019076 23.59117267 -63.99391901 16.15803603 -59.1015625 9.6875 C-58.2971875 8.4809375 -58.2971875 8.4809375 -57.4765625 7.25 C-42.15956693 -9.27623206 -18.81889248 -11.75306296 0 0 Z " fill="#ECECEC" transform="translate(225.1015625,230.3125)"/>
<path d="M0 0 C9.36869932 -1.06462492 18.45232202 3.97552419 25.91015625 9.2890625 C35.51943766 17.15610037 42.70576524 28.47514744 44 41 C44.88049226 55.24100517 41.5234644 67.44158681 32.80859375 78.875 C23.77194816 88.64112769 11.76290677 94.30579783 -1.4609375 95.24609375 C-14.24816735 95.67406392 -23.82889507 92.66518052 -34 85 C-34.86625 84.4225 -35.7325 83.845 -36.625 83.25 C-43.96913984 76.29239383 -49.2275907 66.9567699 -51 57 C-49.44152344 56.65388672 -49.44152344 56.65388672 -47.8515625 56.30078125 C-32.10445862 52.67701821 -18.713869 46.77031481 -9.53125 32.71484375 C-3.65350613 22.29384377 -0.81468739 11.85584551 0 0 Z " fill="#858585" transform="translate(255,264)"/>
<path d="M0 0 C2.00720923 0.28674418 4.0085944 0.61866701 6 1 C7.33204366 6.12147822 6.65154685 8.59430768 4.125 13.1875 C-0.73486514 22.17259951 -1.48919087 32.08218892 0.671875 42.12109375 C1.52894758 44.76064782 1.52894758 44.76064782 3 48 C6.58587887 47.42751758 9.22629062 46.47176865 12.375 44.6875 C23.90566297 38.81982535 36.184893 36.6410614 49 38 C51 40 51 40 51.3125 42.4375 C50.93844899 45.50471831 50.38439127 46.12141879 48 48 C45.9152832 48.52416992 45.9152832 48.52416992 43.55078125 48.73046875 C42.70322266 48.81103516 41.85566406 48.89160156 40.98242188 48.97460938 C40.10134766 49.04486328 39.22027344 49.11511719 38.3125 49.1875 C36.97348633 49.3102832 36.97348633 49.3102832 35.60742188 49.43554688 C33.40572602 49.63570104 31.20368662 49.82336258 29 50 C32.34403944 57.46697005 36.97097994 60.324703 44.41015625 63.41796875 C46.68952436 64.27872681 48.97828347 65.11518718 51.27734375 65.921875 C54 67 54 67 56 69 C55.43181818 74.56818182 55.43181818 74.56818182 54 76 C44.61953351 77.0619396 36.39557604 73.06800371 29 67.5 C24.667532 63.88830426 21.3088737 60.19496583 19 55 C6.77913051 56.82986281 -2.52287547 67.77038276 -11 76 C-14.76488042 74.27845212 -17.15063897 72.00765886 -20 69 C-15.38465781 64.93521893 -10.74414188 60.91391705 -6 57 C-6.64993372 53.24406722 -7.75862076 49.88765275 -9.0625 46.3125 C-12.4272419 35.45412047 -12.8455057 22.98559029 -8.28515625 12.41015625 C-5.98349011 8.09365774 -3.48715736 3.48715736 0 0 Z " fill="#FB5F40" transform="translate(76,291)"/>
<path d="M0 0 C4.89991119 2.7403207 7.70313801 5.89843036 9.921875 11.1171875 C10.4591087 13.96278723 10.48440532 16.72317769 10.453125 19.61328125 C10.4569519 20.40565689 10.46077881 21.19803253 10.46472168 22.01441956 C10.46742894 23.68093139 10.46015122 25.34748658 10.44335938 27.01391602 C10.42195894 29.54476098 10.44318432 32.07275865 10.46875 34.60351562 C10.46610595 36.23177702 10.46097938 37.86003666 10.453125 39.48828125 C10.46122192 40.23436142 10.46931885 40.98044159 10.47766113 41.74913025 C10.36763152 48.01101936 8.55220592 53.51397339 4.02734375 57.9921875 C-0.48976127 60.64173179 -3.70973779 61.99565086 -9.078125 61.1171875 C-13.32199928 59.38624913 -16.74092847 57.14235931 -19.078125 53.1171875 C-19.96862348 50.44569206 -20.2167453 48.85143159 -20.25512695 46.1081543 C-20.26796219 45.30689621 -20.28079742 44.50563812 -20.29402161 43.68009949 C-20.30140854 42.81758072 -20.30879547 41.95506195 -20.31640625 41.06640625 C-20.324478 40.17484329 -20.33254974 39.28328033 -20.34086609 38.36470032 C-20.35469406 36.47760964 -20.36542197 34.59049408 -20.37329102 32.70336914 C-20.39049845 29.8258495 -20.43439488 26.94948069 -20.47851562 24.07226562 C-20.48864355 22.2369876 -20.49715934 20.40169982 -20.50390625 18.56640625 C-20.52141434 17.70996017 -20.53892242 16.8535141 -20.55696106 15.97111511 C-20.53729151 10.520415 -19.68489782 7.45743351 -16.078125 3.1171875 C-11.4155524 -0.94761938 -5.88811461 -2.50134192 0 0 Z " fill="#070602" transform="translate(418.078125,98.8828125)"/>
<path d="M0 0 C2.87603891 2.16207133 5.58308222 4.45535162 8.30078125 6.8125 C16.51811595 13.47198977 26.16097847 16.59497918 36.68359375 16.37109375 C46.50952137 15.27160833 54.37511682 11.35129406 61.75390625 4.9296875 C69.21836112 -1.48325286 76.12439786 -4.40343835 85.97265625 -4.26953125 C90.11936695 -3.90034023 93.23403841 -2.73813612 97 -1 C93.38374581 3.75713744 89.77166203 6.8920799 84.6875 10 C83.99035889 10.42933838 83.29321777 10.85867676 82.57495117 11.30102539 C75.37787265 15.58859511 67.97270125 18.49924588 60 21 C58.47246094 21.50853516 58.47246094 21.50853516 56.9140625 22.02734375 C34.76740588 28.33420003 8.40044248 24.16455943 -11.54296875 13.078125 C-17.91797444 9.29273612 -23.66699856 5.15577179 -29 0 C-28 -2 -28 -2 -25.625 -3.125 C-16.59870372 -5.30376117 -8.21936139 -4.38365941 0 0 Z " fill="#AE4E33" transform="translate(217,381)"/>
<path d="M0 0 C4.39309313 1.58003686 6.82418312 3.55197024 10 7 C9.34 7.350625 8.68 7.70125 8 8.0625 C3.98035647 10.65851978 0.54034586 13.79348328 -3 17 C-2.46971974 19.81860681 -1.86360706 22.40115572 -0.9375 25.125 C1.27088965 34.25301057 0.48651406 43.54794524 -4.01953125 51.88671875 C-5.48826575 54.15858149 -7.08741606 56.08741606 -9 58 C-12.29714793 57.67028521 -13.6226839 57.3773161 -16 55 C-15.80006019 51.00120383 -14.51774936 47.80351544 -12.9375 44.1875 C-10.17026043 37.53008307 -10.51039651 31.93937235 -12 25 C-12.845625 25.33773438 -13.69125 25.67546875 -14.5625 26.0234375 C-25.96426872 30.50640566 -35.60630117 33.3278963 -48 32 C-50.4296875 30.640625 -50.4296875 30.640625 -52 29 C-52.375 26.4375 -52.375 26.4375 -52 24 C-49.14329657 21.14329657 -46.20666686 21.62648472 -42.375 21.5 C-23.96550544 20.56409605 -12.71459286 12.67697572 0 0 Z " fill="#FB5F40" transform="translate(429,249)"/>
<path d="M0 0 C4.214963 0.08530282 6.45863975 0.59026168 9.84375 3.15234375 C27.79700956 21.97686444 37.65523314 42.52260687 37.40942383 68.74511719 C37.21811856 75.58614747 36.96979331 82.7059936 34 89 C31 91 31 91 28.375 90.75 C27.199375 90.37875 27.199375 90.37875 26 90 C24.68500326 87.37000653 25.11209029 85.85815256 25.4375 82.9375 C27.73159735 58.20891814 24.39506287 36.95870617 8.06640625 17.2109375 C6.00474992 15.00508215 3.84651323 13.14541986 1.5 11.25 C-1.92236842 8.41144737 -1.92236842 8.41144737 -2.625 4.6875 C-2 2 -2 2 0 0 Z " fill="#FEC7BE" transform="translate(298,245)"/>
<path d="M0 0 C4.455 0.99 4.455 0.99 9 2 C9.061875 3.464375 9.12375 4.92875 9.1875 6.4375 C10.03358962 14.63182005 13.72673658 20.45946776 19.9609375 25.7109375 C26.72078414 29.98440377 32.0947955 30.37807668 39.9453125 30.23046875 C42.09635324 30.22836843 44.24739587 30.2277653 46.3984375 30.22851562 C49.75581026 30.21408215 53.11176392 30.18771165 56.46875 30.1340332 C81.03184147 29.79187339 81.03184147 29.79187339 91 39 C91 39.33 91 39.66 91 40 C82.99316197 40.1165721 74.98668674 40.20505422 66.97920609 40.25906086 C63.25975521 40.28499995 59.54089081 40.32010358 55.82177734 40.37719727 C52.22312527 40.43208711 48.62503218 40.46153803 45.02599335 40.47438622 C43.00544267 40.48793055 40.98511253 40.52687017 38.96490479 40.56648254 C26.56347205 40.5701984 17.11110424 37.09789668 8.1328125 28.48046875 C2.52316217 21.95642487 -0.14691086 14.83799656 -0.0625 6.3125 C-0.05347656 5.13300781 -0.04445313 3.95351562 -0.03515625 2.73828125 C-0.02355469 1.83464844 -0.01195312 0.93101562 0 0 Z " fill="#F95D3E" transform="translate(314,190)"/>
<path d="M0 0 C4.52659945 2.11687553 8.48403079 4.58561767 11 9 C11.3984375 12.27734375 11.3984375 12.27734375 11.375 15.9375 C11.38273437 17.14277344 11.39046875 18.34804687 11.3984375 19.58984375 C10.75881497 25.06426007 8.07896777 28.4309032 4 32 C-1.02858199 33.676194 -5.34030411 33.60642735 -10.25 31.8125 C-13.8177811 29.46100791 -16.09221079 26.81557843 -18 23 C-18.4896025 17.18898021 -18.80365453 11.83233232 -16.4375 6.4375 C-11.56337114 1.56337114 -7.10880062 -1.1224422 0 0 Z " fill="#040301" transform="translate(416,167)"/>
<path d="M0 0 C2.4375 0.8125 2.4375 0.8125 4.4375 3.8125 C4.64496234 6.37931626 4.74155072 8.8350178 4.73828125 11.40234375 C4.74256638 12.14327774 4.7468515 12.88421173 4.75126648 13.64759827 C4.75700518 15.21354145 4.75751341 16.7795113 4.75317383 18.34545898 C4.75001593 20.73793159 4.77346959 23.12916483 4.79882812 25.52148438 C4.80110143 27.04426928 4.80180447 28.5670575 4.80078125 30.08984375 C4.809991 30.80349594 4.81920074 31.51714813 4.82868958 32.25242615 C4.79025345 36.3912537 4.36488268 38.80577659 1.4375 41.8125 C-4.4375 40.9375 -4.4375 40.9375 -5.5625 39.8125 C-5.68834451 37.02428142 -5.75116347 34.26217289 -5.765625 31.47265625 C-5.77417511 30.21671913 -5.77417511 30.21671913 -5.78289795 28.93540955 C-5.79236154 27.16081003 -5.79888731 25.38619284 -5.80273438 23.61157227 C-5.81244709 20.88982677 -5.84345987 18.1688339 -5.875 15.44726562 C-5.88152899 13.726567 -5.88677987 12.00586296 -5.890625 10.28515625 C-5.9029718 9.46741226 -5.9153186 8.64966827 -5.92803955 7.80714417 C-5.91894531 5.51196289 -5.91894531 5.51196289 -5.5625 1.8125 C-2.5625 -0.1875 -2.5625 -0.1875 0 0 Z " fill="#7F7F7F" transform="translate(413.5625,108.1875)"/>
<path d="M0 0 C2.00720923 0.28674418 4.0085944 0.61866701 6 1 C6.8639853 4.25655999 7.4844494 6.82736079 6.1640625 10.0234375 C4.91359765 11.97479985 3.75774145 13.48762855 2 15 C-1.1875 15.625 -1.1875 15.625 -4 15 C-6 12 -6 12 -5.875 9.6875 C-4.68240143 6.02451869 -2.74303977 2.74303977 0 0 Z " fill="#FEC5BC" transform="translate(318,344)"/>
<path d="M0 0 C2.4375 0.8125 2.4375 0.8125 4.4375 3.8125 C4.76605599 6.96663751 4.97251881 8.96773346 3.25 11.6875 C0.81991919 13.19582602 -0.75265752 13.17273622 -3.5625 12.8125 C-5.98772207 10.38727793 -5.85879254 9.6404321 -5.875 6.3125 C-5.89175781 5.5184375 -5.90851563 4.724375 -5.92578125 3.90625 C-5.74595703 2.86984375 -5.74595703 2.86984375 -5.5625 1.8125 C-2.5625 -0.1875 -2.5625 -0.1875 0 0 Z " fill="#7E7E7E" transform="translate(413.5625,177.1875)"/>
<path d="M0 0 C1 1 1 1 1.25 4.4375 C1.1675 5.613125 1.085 6.78875 1 8 C-2 10 -2 10 -4.5625 9.6875 C-7 9 -7 9 -9 8 C-9.25 5.1875 -9.25 5.1875 -9 2 C-6.11353359 -1.31409106 -4.06037509 -1.31687841 0 0 Z " fill="#070606" transform="translate(83,231)"/>
<path d="M0 0 C1.9375 0.75 1.9375 0.75 3.9375 2.75 C4.1875 5.25 4.1875 5.25 3.9375 7.75 C1.9375 9.75 1.9375 9.75 -1.0625 10.0625 C-2.0525 9.959375 -3.0425 9.85625 -4.0625 9.75 C-6.0625 6.75 -6.0625 6.75 -5.875 4.1875 C-4.82466493 1.0364948 -3.46422443 -0.41990599 0 0 Z " fill="#110908" transform="translate(303.0625,221.25)"/>
</svg>
