<?xml version="1.0" ?><svg viewBox="0 0 64 64" xmlns="http://www.w3.org/2000/svg"><g id="Capsule-drug-medicine-pill-tablet"><path d="M27,41v4a2.006,2.006,0,0,1-2,2H5a2.006,2.006,0,0,1-2-2V41Z" style="fill:#2488ff"/><rect height="18" style="fill:#ffda44" width="24" x="3" y="23"/><path d="M14,55a3,3,0,0,1,0,6H10V55Z" style="fill:#e9e9ea"/><circle cx="27" cy="55" r="6" style="fill:#ff5023"/><path d="M10,55v6H6a3,3,0,0,1,0-6Z" style="fill:#ff9811"/><polygon points="20 30 20 34 17 34 17 37 13 37 13 34 10 34 10 30 13 30 13 27 17 27 17 30 20 30" style="fill:#d80027"/><path d="M27,21.02V23H3V21.02a4,4,0,0,1,2.9-3.85l1.2-.34A4,4,0,0,0,10,12.98V9H20v3.98a4,4,0,0,0,2.9,3.85l1.2.34A4,4,0,0,1,27,21.02Z" style="fill:#2488ff"/><rect height="6" style="fill:#e9e9ea" width="14" x="8" y="3"/><path d="M59.03,60.03a1,1,0,0,1-1,.97H36.97a1,1,0,0,1-1-.97l-.62-21.91c2.5.58,3.26,2,6.98,2,4.67,0,4.67-2.24,9.33-2.24,4.15,0,4.61,1.77,7.94,2.16Z" style="fill:#2488ff"/><path d="M35,26H60l-.4,14.04c-3.33-.39-3.79-2.16-7.94-2.16-4.66,0-4.66,2.24-9.33,2.24-3.72,0-4.48-1.42-6.98-2Z" style="fill:#bdfdff"/><rect height="9" rx="1.5" style="fill:#fff" width="3" x="38" y="28"/><circle cx="14" cy="49" r="6" style="fill:#46f8ff"/><path d="M60.72,25.3A1.022,1.022,0,0,0,60,25H35a1.022,1.022,0,0,0-.72.3,1,1,0,0,0-.28.73l.97,34.03a1.987,1.987,0,0,0,2,1.94H58.03a1.987,1.987,0,0,0,2-1.94L61,26.03A1,1,0,0,0,60.72,25.3ZM58.11,57H55v2h3.06l-.03,1H36.97l-.03-1H53V57H36.89l-.5-17.48c.28.12.55.24.83.38a10.376,10.376,0,0,0,5.11,1.22,10.363,10.363,0,0,0,5.1-1.22,9.281,9.281,0,0,1,8.46,0,11.519,11.519,0,0,0,2.69.97Zm.52-18.16a10.712,10.712,0,0,1-1.87-.74,11.249,11.249,0,0,0-10.19,0,8.309,8.309,0,0,1-4.24,1.02,8.309,8.309,0,0,1-4.24-1.02,13.46,13.46,0,0,0-1.77-.75L36.03,27H58.97Z"/><rect height="4" width="2" x="38" y="29"/><rect height="2" width="2" x="38" y="35"/><path d="M20,29H18V27a1,1,0,0,0-1-1H13a1,1,0,0,0-1,1v2H10a1,1,0,0,0-1,1v4a1,1,0,0,0,1,1h2v2a1,1,0,0,0,1,1h4a1,1,0,0,0,1-1V35h2a1,1,0,0,0,1-1V30A1,1,0,0,0,20,29Zm-1,4H17a1,1,0,0,0-1,1v2H14V34a1,1,0,0,0-1-1H11V31h2a1,1,0,0,0,1-1V28h2v2a1,1,0,0,0,1,1h2Z"/><path d="M27,48a7,7,0,1,0,7,7A7.008,7.008,0,0,0,27,48Zm0,12a5,5,0,1,1,5-5A5.006,5.006,0,0,1,27,60Z"/><rect height="2" width="8" x="23" y="54"/><path d="M24.37,16.21l-1.19-.34A3.009,3.009,0,0,1,21,12.98V10h1a1,1,0,0,0,1-1V3a1,1,0,0,0-1-1H8A1,1,0,0,0,7,3V9a1,1,0,0,0,1,1H9v2.98a3.009,3.009,0,0,1-2.18,2.89l-1.19.34A5.022,5.022,0,0,0,2,21.02V45a3.009,3.009,0,0,0,3,3H7.08a6.993,6.993,0,0,0,1.97,5.95c.02.02.04.03.06.05H6a4,4,0,0,0,0,8h8a3.985,3.985,0,0,0,2.96-6.67,6.847,6.847,0,0,0,1.99-1.38A6.993,6.993,0,0,0,20.92,48H25a3.009,3.009,0,0,0,3-3V21.02A5.022,5.022,0,0,0,24.37,16.21ZM9,60H6a2,2,0,0,1,0-4H9ZM9,4H21V8H9Zm5,56H11V56h3a2,2,0,0,1,0,4Zm4.17-8.24L14,47.58,12.58,49l4.18,4.17a5,5,0,0,1-6.93-6.93l1.34,1.35,1.42-1.42-1.35-1.34a5,5,0,0,1,6.93,6.93ZM26,45a1,1,0,0,1-1,1H20.32a7.183,7.183,0,0,0-1.37-1.95,7,7,0,0,0-9.9,0A7.183,7.183,0,0,0,7.68,46H5a1,1,0,0,1-1-1V42H26Zm0-5H4V24H26Zm0-18H4v-.98a3.009,3.009,0,0,1,2.18-2.89l1.19-.34A5.022,5.022,0,0,0,11,12.98V10h8v2.98a5.022,5.022,0,0,0,3.63,4.81l1.19.34A3.009,3.009,0,0,1,26,21.02Z"/></g></svg>