<?xml version="1.0" ?><svg viewBox="0 0 64 64" xmlns="http://www.w3.org/2000/svg"><defs><style>.cls-1{fill:#a3daf4;}.cls-2{fill:#f9f9f9;}.cls-3{fill:#e6e5e1;}.cls-4{fill:#fcc667;}.cls-5{fill:#fbae36;}.cls-6{fill:#cac7c1;}.cls-7{fill:#fe8657;}.cls-8{fill:#ffa883;}.cls-9{fill:#fe4a13;}.cls-10{fill:#fa8e1b;}.cls-11{fill:#16244d;}</style></defs><g id="Data"><path class="cls-1" d="M22.05,7.68H11.47V60H52.53V7.68H22.05Z" id="rect2290-1"/><path class="cls-2" d="M16.58,60H47.42V13H16.58Z" id="rect2298-7"/><path class="cls-3" d="M44.36,60h3.06V13H44.36Z" id="rect5350"/><path class="cls-4" d="M22.05,7.68H16.58V15H47.42V7.68H22.05Z" id="rect2288-3"/><path class="cls-5" d="M34.57,7.87V15H47.42V7.68Z" id="path5359"/><circle class="cls-3" cx="25.27" cy="23.26" id="path1566-3-5-5" r="4.9"/><path class="cls-6" d="M27.74,19a3.18,3.18,0,0,0-1,1.58.11.11,0,0,0,0,0A3.18,3.18,0,0,0,29,24.49a3.37,3.37,0,0,0,1,.1l0-.06A4.92,4.92,0,0,0,27.74,19Z" id="path1575-1-0-9"/><path class="cls-7" d="M29.39,39.83a7.12,7.12,0,1,0,7.12-7.12v7.12Z" id="path2424-6"/><path class="cls-4" d="M27.25,39.83h9.26V30.57A9.26,9.26,0,0,0,27.25,39.83Z" id="path2432-2"/><path class="cls-8" d="M22.05,4H42v7.36H22.05Z" id="rect2286-6"/><path class="cls-7" d="M34.57,4v7.36H42V4Z" id="path5354"/><path class="cls-7" d="M26.08,4V7.87H37.92V4Z" id="path2493-1"/><path class="cls-9" d="M34.57,4V7.87h3.35V4Z" id="path5352"/><path class="cls-10" d="M44.36,15h3.06V7.68H44.36Z" id="rect5363"/><path class="cls-11" d="M53.53,60V7.68a1,1,0,0,0-1-1H43V4a1,1,0,0,0-1-1H22.05a1,1,0,0,0-1,1V6.68H11.47a1,1,0,0,0-1,1V60a1,1,0,0,0,1,1H52.53A1,1,0,0,0,53.53,60ZM46.42,16V59H17.58V16ZM27.08,5h9.84V6.87H27.08Zm-4,0h2V7.87a1,1,0,0,0,1,1H37.92a1,1,0,0,0,1-1V5h2v5.36H23.05Zm-2,3.68v2.68a1,1,0,0,0,1,1H42a1,1,0,0,0,1-1V8.68h3.47V14H17.58V8.68Zm-8.58,0h3.11V59H12.47ZM51.53,59H48.42V8.68h3.11Z"/><path class="cls-11" d="M23.75,29a6.12,6.12,0,0,0,1.53.2,5.9,5.9,0,0,0,5.1-8.85,6.18,6.18,0,0,0-3.58-2.75,5.91,5.91,0,0,0-7.23,4.17A5.92,5.92,0,0,0,23.75,29Zm4-8.1a2.25,2.25,0,0,1,.19-.45,3.76,3.76,0,0,1,1.25,3.08A2.18,2.18,0,0,1,27.72,20.86Zm-6.21,1.39a3.86,3.86,0,0,1,4.63-2.78,3.83,3.83,0,0,0-.35.84s0,.09,0,.1a4.17,4.17,0,0,0,2.76,5,3.89,3.89,0,0,1-7-3.12Z"/><path class="cls-11" d="M22.88,24.71a1.28,1.28,0,0,0,1.33-2.18,1.27,1.27,0,0,0-1.75.42A1.28,1.28,0,0,0,22.88,24.71Z"/><path class="cls-11" d="M34.28,19.88h9a1,1,0,0,0,0-2h-9a1,1,0,0,0,0,2Z"/><path class="cls-11" d="M34.28,23.57h5.44a1,1,0,0,0,0-2H34.28a1,1,0,0,0,0,2Z"/><path class="cls-11" d="M34.28,27.26h9a1,1,0,0,0,0-2h-9a1,1,0,0,0,0,2Z"/><path class="cls-11" d="M37.51,31.78V30.57a1,1,0,0,0-1-1A10.27,10.27,0,0,0,26.25,39.83a1,1,0,0,0,1,1h1.21a8.12,8.12,0,1,0,9-9Zm-2-.15v7.2h-7.2A8.27,8.27,0,0,1,35.51,31.63Zm1,14.32a6.13,6.13,0,0,1-6-5.12h6a1,1,0,0,0,1-1v-6a6.12,6.12,0,0,1-1,12.16Z"/><path class="cls-11" d="M20.59,35.48h3.06a1,1,0,0,0,0-2H20.59a1,1,0,1,0,0,2Z"/><path class="cls-11" d="M20.59,39.05h3.06a1,1,0,0,0,0-2H20.59a1,1,0,0,0,0,2Z"/><path class="cls-11" d="M20.59,42.62h3.06a1,1,0,0,0,0-2H20.59a1,1,0,1,0,0,2Z"/><path class="cls-11" d="M24.65,45.18a1,1,0,0,0-1-1H20.59a1,1,0,1,0,0,2h3.06A1,1,0,0,0,24.65,45.18Z"/><path class="cls-11" d="M39.71,50.08H24.34a1,1,0,0,0,0,2H39.71a1,1,0,0,0,0-2Z"/><path class="cls-11" d="M37.29,53.93H26.75a1,1,0,0,0,0,2H37.29a1,1,0,0,0,0-2Z"/></g></svg>