<?xml version="1.0" encoding="UTF-8"?>
<svg version="1.1" xmlns="http://www.w3.org/2000/svg" width="512" height="512">
<path d="M0 0 C5.20447435 4.46201787 10.21526068 9.08934649 15 14 C15.81791016 14.73283203 15.81791016 14.73283203 16.65234375 15.48046875 C45.83967123 42.51903592 58.39282781 85.41085932 60.1796875 123.8671875 C60.65819509 148.59007972 55.43924723 172.11345702 45.81640625 194.7890625 C44.73731843 197.71137689 45.015763 199.04728901 46 202 C46.64609941 203.17818127 47.31456223 204.34426187 48 205.5 C51.94519036 212.17537644 51.90163675 219.74942675 50.31640625 227.22265625 C46.74883592 239.87938918 41.23269233 247.11393896 30 254 C23.03056168 257.71560194 17.11743044 259.14260031 9.1875 259.0625 C8.02605469 259.05347656 6.86460937 259.04445313 5.66796875 259.03515625 C4.34732422 259.01775391 4.34732422 259.01775391 3 259 C2.52949219 260.09699219 2.05898438 261.19398438 1.57421875 262.32421875 C0.94549652 263.77872539 0.31658 265.23314806 -0.3125 266.6875 C-0.62123047 267.40873047 -0.92996094 268.12996094 -1.24804688 268.87304688 C-2.93441749 272.76057492 -4.70580366 276.42105371 -7 280 C-6.00742187 279.96519531 -5.01484375 279.93039062 -3.9921875 279.89453125 C12.00181923 279.50201596 27.64064475 281.9072233 40 293 C41.765625 295.4375 41.765625 295.4375 43.25 298 C43.75015625 298.845625 44.2503125 299.69125 44.765625 300.5625 C47.98976181 306.9291499 48.04542634 314.67180179 46.38671875 321.5390625 C43.5547552 328.79986771 38.32900503 332.97648714 31.8125 336.9375 C23.64425149 339.21389713 15.21139653 339.04474604 7.46484375 335.44140625 C-4.37568223 328.51723179 -12.70541868 318.04180774 -19 306 C-19.49628906 306.64066406 -19.99257813 307.28132813 -20.50390625 307.94140625 C-21.18324219 308.80636719 -21.86257813 309.67132813 -22.5625 310.5625 C-23.55443359 311.83287109 -23.55443359 311.83287109 -24.56640625 313.12890625 C-38.55391692 329.63102558 -59.12660665 344.001092 -80 350 C-78.46093374 359.54221082 -74.6708181 367.60365549 -66.9453125 373.68359375 C-63.44129894 376.05478365 -59.762513 378.07181873 -56 380 C-55.12021484 379.26136719 -55.12021484 379.26136719 -54.22265625 378.5078125 C-52 377 -52 377 -48.4375 376.875 C-47.303125 377.24625 -46.16875 377.6175 -45 378 C-44.66355469 379.09699219 -44.32710937 380.19398438 -43.98046875 381.32421875 C-42.95037126 383.96715652 -42.32096263 384.82656035 -39.78979492 386.19433594 C-36.8424335 387.22668854 -33.88420373 388.10239015 -30.875 388.9375 C-28.68127563 389.61098465 -26.4898595 390.29203243 -24.30078125 390.98046875 C-22.68550537 391.48586182 -22.68550537 391.48586182 -21.03759766 392.00146484 C8.86131075 401.82999204 30.47020054 424.05739807 47 450 C48.38125018 452.76250036 48.19079306 454.94731099 48 458 C45.43310712 460.56689288 44.48398559 460.25045034 40.91810608 460.25168228 C39.29420409 460.25950552 39.29420409 460.25950552 37.63749599 460.26748681 C36.43849195 460.26302537 35.2394879 460.25856392 34.00415039 460.25396729 C32.73795144 460.25708727 31.47175249 460.26020725 30.16718388 460.26342177 C26.64104022 460.2718066 23.11500418 460.26762789 19.58886003 460.26144934 C15.79058619 460.25694084 11.99233139 460.26390061 8.19406128 460.26940918 C0.74868178 460.27832203 -6.69665748 460.27637278 -14.14203858 460.2705839 C-20.19079561 460.26607483 -26.23954133 460.26545122 -32.28829956 460.26763153 C-33.14781312 460.267938 -34.00732668 460.26824446 -34.8928861 460.26856022 C-36.63874158 460.26919964 -38.38459705 460.26984807 -40.13045251 460.2705054 C-56.51752802 460.27621423 -72.90458119 460.26964213 -89.29165304 460.25890467 C-103.36534499 460.24996865 -117.43900396 460.25152054 -131.51269531 460.26074219 C-147.8394516 460.27143506 -164.16618828 460.27566486 -180.49294758 460.26951766 C-182.23253186 460.26888053 -183.97211615 460.26825179 -185.71170044 460.26763153 C-186.56770322 460.26732298 -187.42370601 460.26701443 -188.30564827 460.26669653 C-194.35008172 460.26496663 -200.39450279 460.26789101 -206.43893433 460.27259064 C-213.80085839 460.27818857 -221.16273977 460.27670603 -228.52465892 460.26602915 C-232.28383913 460.26075771 -236.04294809 460.25874057 -239.80212784 460.26532745 C-243.86953126 460.27234684 -247.93675335 460.26398957 -252.00415039 460.25396729 C-253.20315444 460.25842873 -254.40215849 460.26289017 -255.63749599 460.26748681 C-256.72009732 460.26227132 -257.80269865 460.25705582 -258.91810608 460.25168228 C-259.85796891 460.25135758 -260.79783175 460.25103287 -261.76617527 460.25069833 C-264 460 -264 460 -266 458 C-266.87337072 452.26797469 -264.58299297 448.85399356 -261.5625 444.25 C-261.11165039 443.54625244 -260.66080078 442.84250488 -260.19628906 442.11743164 C-256.32604916 436.21253972 -251.88225903 431.09122731 -247 426 C-246.03397599 424.81874785 -245.0749471 423.63171921 -244.125 422.4375 C-231.50338438 407.71801366 -212.10062933 396.78603887 -193.82421875 391.00390625 C-192.74068115 390.6598877 -191.65714355 390.31586914 -190.54077148 389.96142578 C-188.37954765 389.28895952 -186.21103942 388.63939162 -184.03540039 388.01513672 C-178.03184575 386.33620745 -178.03184575 386.33620745 -173.984375 381.87890625 C-173.65953125 380.92886719 -173.3346875 379.97882813 -173 379 C-170 377 -170 377 -167.0625 377.3125 C-164 378 -164 378 -162.14453125 378.73046875 C-157.28179089 379.34163284 -152.70577689 374.77394637 -149 372 C-143.15439519 366.99470088 -140.37885969 360.19973465 -138 353 C-138 352.01 -138 351.02 -138 350 C-138.969375 349.59910156 -139.93875 349.19820313 -140.9375 348.78515625 C-165.65606538 338.38815887 -186.56665682 324.32909226 -202 302 C-202.38929688 302.87140625 -202.77859375 303.7428125 -203.1796875 304.640625 C-209.72131694 318.56796511 -218.40124523 330.35122423 -232.8125 336.9375 C-240.1727376 339.30169753 -248.32393982 339.18157594 -255.375 336 C-261.19594923 332.65342821 -265.33623163 328.18286124 -268.4375 322.25 C-270.30814603 311.44182296 -268.87623328 302.92835678 -262.875 293.75 C-251.90961468 283.26137057 -236.86856242 279.7395845 -222.05859375 279.83203125 C-217.85029278 280.06313846 -214.06732524 280.91537994 -210 282 C-210.54269531 280.92621094 -211.08539063 279.85242188 -211.64453125 278.74609375 C-212.36729615 277.30995051 -213.08994628 275.8737495 -213.8125 274.4375 C-214.16892578 273.73302734 -214.52535156 273.02855469 -214.89257812 272.30273438 C-217.09092409 267.92621075 -219.11663926 263.52125402 -221 259 C-221.82242188 259.03480469 -222.64484375 259.06960938 -223.4921875 259.10546875 C-237.31626763 259.44069471 -246.03675853 255.51301333 -257.25 247.75 C-265.0520336 239.9479664 -268.96756358 229.84183041 -269.375 218.875 C-269.17165099 212.78421306 -267.51827334 207.38585811 -264.25 202.25 C-262.58040223 199.24472401 -263.10485793 198.31202567 -264 195 C-264.73879273 192.94247856 -265.52590537 190.90801205 -266.32348633 188.87255859 C-282.60973202 147.16775341 -282.09370618 100.94411077 -264.19921875 59.72265625 C-256.94915909 43.81198111 -247.86562049 30.01713967 -235.9765625 17.16796875 C-233.86446966 14.90906755 -233.86446966 14.90906755 -231.625 11.9375 C-227.5538175 7.38165292 -222.80064671 3.75946749 -218 0 C-216.60394531 -1.11955078 -216.60394531 -1.11955078 -215.1796875 -2.26171875 C-197.36156253 -16.1715084 -175.99391177 -25.88545286 -154 -31 C-153.16484863 -31.19609863 -152.32969727 -31.39219727 -151.46923828 -31.59423828 C-100.11765719 -43.01919438 -41.30777381 -33.65183787 0 0 Z " fill="#FC9DA7" transform="translate(365,45)"/>
<path d="M0 0 C5.20447435 4.46201787 10.21526068 9.08934649 15 14 C15.81791016 14.73283203 15.81791016 14.73283203 16.65234375 15.48046875 C45.83967123 42.51903592 58.39282781 85.41085932 60.1796875 123.8671875 C60.69267361 150.37146999 54.44778692 174.82790126 44 199 C41.0527615 198.2985977 38.19538749 197.42846618 35.3125 196.5 C31.86581258 195.43595617 28.72082571 194.80618406 25.125 194.5625 C21.89021634 194.29436097 21.18810935 194.15434613 18.5625 192 C18.046875 191.34 17.53125 190.68 17 190 C16.34 189.67 15.68 189.34 15 189 C14.89522488 183.21408489 15.00749455 177.70690634 16 172 C14.93458984 172.23396484 14.93458984 172.23396484 13.84765625 172.47265625 C3.50251495 174.38842316 -4.1888219 172.78472997 -13 167 C-18.13790747 162.9630727 -22.08267012 157.84810367 -25 152 C-25 151.34 -25 150.68 -25 150 C-25.65226563 150.27714844 -26.30453125 150.55429688 -26.9765625 150.83984375 C-27.85054687 151.20207031 -28.72453125 151.56429687 -29.625 151.9375 C-30.48351562 152.29714844 -31.34203125 152.65679687 -32.2265625 153.02734375 C-43.72206862 157.05886632 -59.77382134 156.47250958 -71 152 C-73.87575829 150.53802232 -74.92231557 149.61194615 -77 147 C-77.0625 143.3125 -77.0625 143.3125 -76 140 C-72.2734395 137.51562633 -70.41865018 137.73815406 -66 138 C-63.96717626 138.44877055 -61.94574075 138.95160556 -59.9375 139.5 C-50.06911874 141.77731875 -40.0689106 141.26669894 -30 141 C-31.84014913 136.05750839 -33.68790777 131.11794505 -35.54199219 126.18066406 C-36.16830786 124.5098505 -36.79273689 122.83832818 -37.41503906 121.16601562 C-40.80303477 112.06557408 -44.30986903 103.03956979 -48.21875 94.1484375 C-48.53767212 93.41613922 -48.85659424 92.68384094 -49.18518066 91.92935181 C-51.09166792 87.66891236 -53.10082391 83.69340297 -56 80 C-59.6365731 79.02649222 -59.6365731 79.02649222 -63 79 C-63.21914063 79.969375 -63.43828125 80.93875 -63.6640625 81.9375 C-70.1550962 109.75571515 -82.52791138 136.02372068 -107.20703125 152.28515625 C-128.2415698 165.20006873 -151.80134601 172.63615938 -176.58984375 167.73828125 C-179.17662725 166.94589538 -181.2233727 165.78402372 -183.5625 164.4375 C-185.70009687 163.27273441 -185.70009687 163.27273441 -188 163 C-190.80577552 164.3594051 -192.99561037 166.09593588 -195.43359375 168.03515625 C-204.69305511 175.12421114 -216.79031834 175.27567806 -228 174 C-231.0703125 172.9765625 -231.0703125 172.9765625 -233 172 C-232.94199219 173.16917969 -232.88398438 174.33835938 -232.82421875 175.54296875 C-232.77730551 177.0911058 -232.73180702 178.63928617 -232.6875 180.1875 C-232.64560547 180.95642578 -232.60371094 181.72535156 -232.56054688 182.51757812 C-232.47100366 186.69029217 -232.65164729 188.50564652 -235.125 192.015625 C-238.49401308 194.34097642 -240.25920952 194.56735424 -244.3125 194.5625 C-250.35625429 194.7815262 -253.80481536 196.01757919 -259 199 C-259.99 199 -260.98 199 -262 199 C-280.78569633 156.5932358 -283.55554126 110.83173047 -267.22924805 67.04052734 C-259.82512458 48.30408924 -249.6621451 31.95874444 -235.9765625 17.16796875 C-233.86446966 14.90906755 -233.86446966 14.90906755 -231.625 11.9375 C-227.5538175 7.38165292 -222.80064671 3.75946749 -218 0 C-216.60394531 -1.11955078 -216.60394531 -1.11955078 -215.1796875 -2.26171875 C-197.36156253 -16.1715084 -175.99391177 -25.88545286 -154 -31 C-153.16484863 -31.19609863 -152.32969727 -31.39219727 -151.46923828 -31.59423828 C-100.11765719 -43.01919438 -41.30777381 -33.65183787 0 0 Z " fill="#3D5FAB" transform="translate(365,45)"/>
<path d="M0 0 C6.2672522 0.83563363 6.2672522 0.83563363 9.28125 1.51171875 C22.4419199 4.37538303 35.85415506 3.46720012 49 1 C50.4362021 0.78289968 51.87351132 0.57278928 53.3125 0.375 C54.6428125 0.189375 54.6428125 0.189375 56 0 C56.29132813 0.845625 56.58265625 1.69125 56.8828125 2.5625 C61.71493267 15.93440488 67.95788433 23.8095027 81 30 C81.515625 29.484375 82.03125 28.96875 82.5625 28.4375 C85 27 85 27 88.5625 26.875 C89.696875 27.24625 90.83125 27.6175 92 28 C92.33644531 29.09699219 92.67289063 30.19398438 93.01953125 31.32421875 C94.04962874 33.96715652 94.67903737 34.82656035 97.21020508 36.19433594 C100.1575665 37.22668854 103.11579627 38.10239015 106.125 38.9375 C108.31872437 39.61098465 110.5101405 40.29203243 112.69921875 40.98046875 C113.77606934 41.31739746 114.85291992 41.65432617 115.96240234 42.00146484 C145.86131075 51.82999204 167.47020054 74.05739807 184 100 C185.38125018 102.76250036 185.19079306 104.94731099 185 108 C182.43310712 110.56689288 181.48398559 110.25045034 177.91810608 110.25168228 C176.29420409 110.25950552 176.29420409 110.25950552 174.63749599 110.26748681 C173.43849195 110.26302537 172.2394879 110.25856392 171.00415039 110.25396729 C169.73795144 110.25708727 168.47175249 110.26020725 167.16718388 110.26342177 C163.64104022 110.2718066 160.11500418 110.26762789 156.58886003 110.26144934 C152.79058619 110.25694084 148.99233139 110.26390061 145.19406128 110.26940918 C137.74868178 110.27832203 130.30334252 110.27637278 122.85796142 110.2705839 C116.80920439 110.26607483 110.76045867 110.26545122 104.71170044 110.26763153 C103.85218688 110.267938 102.99267332 110.26824446 102.1071139 110.26856022 C100.36125842 110.26919964 98.61540295 110.26984807 96.86954749 110.2705054 C80.48247198 110.27621423 64.09541881 110.26964213 47.70834696 110.25890467 C33.63465501 110.24996865 19.56099604 110.25152054 5.48730469 110.26074219 C-10.8394516 110.27143506 -27.16618828 110.27566486 -43.49294758 110.26951766 C-45.23253186 110.26888053 -46.97211615 110.26825179 -48.71170044 110.26763153 C-49.56770322 110.26732298 -50.42370601 110.26701443 -51.30564827 110.26669653 C-57.35008172 110.26496663 -63.39450279 110.26789101 -69.43893433 110.27259064 C-76.80085839 110.27818857 -84.16273977 110.27670603 -91.52465892 110.26602915 C-95.28383913 110.26075771 -99.04294809 110.25874057 -102.80212784 110.26532745 C-106.86953126 110.27234684 -110.93675335 110.26398957 -115.00415039 110.25396729 C-116.20315444 110.25842873 -117.40215849 110.26289017 -118.63749599 110.26748681 C-119.72009732 110.26227132 -120.80269865 110.25705582 -121.91810608 110.25168228 C-122.85796891 110.25135758 -123.79783175 110.25103287 -124.76617527 110.25069833 C-127 110 -127 110 -129 108 C-129.87337072 102.26797469 -127.58299297 98.85399356 -124.5625 94.25 C-123.88622559 93.19437866 -123.88622559 93.19437866 -123.19628906 92.11743164 C-119.32604916 86.21253972 -114.88225903 81.09122731 -110 76 C-109.03397599 74.81874785 -108.0749471 73.63171921 -107.125 72.4375 C-94.50338438 57.71801366 -75.10062933 46.78603887 -56.82421875 41.00390625 C-55.74068115 40.6598877 -54.65714355 40.31586914 -53.54077148 39.96142578 C-51.37954765 39.28895952 -49.21103942 38.63939162 -47.03540039 38.01513672 C-41.03184575 36.33620745 -41.03184575 36.33620745 -36.984375 31.87890625 C-36.65953125 30.92886719 -36.3346875 29.97882813 -36 29 C-33 27 -33 27 -30.0625 27.3125 C-27 28 -27 28 -25.14453125 28.73046875 C-20.28179089 29.34163284 -15.70577689 24.77394637 -12 22 C-5.3462179 16.30269908 -2.70345972 8.11037915 0 0 Z " fill="#FFB84A" transform="translate(228,395)"/>
<path d="M0 0 C1.13977295 0.00418945 2.2795459 0.00837891 3.45385742 0.01269531 C12.41889489 0.1321529 20.63636483 1.030342 29.3125 3.3125 C30.38757813 3.5909375 31.46265625 3.869375 32.5703125 4.15625 C50.85663868 9.36807761 71.66320498 17.29533109 82.09375 34.19921875 C87.40456278 44.36525989 89.88540904 53.72346449 89.8125 65.1875 C89.80283203 66.77630981 89.80283203 66.77630981 89.79296875 68.3972168 C89.60854112 76.27239781 88.61117011 82.56641187 84.3125 89.3125 C83.44044922 90.69888672 83.44044922 90.69888672 82.55078125 92.11328125 C67.45910289 114.24570205 42.17752958 130.00508461 16.3125 136.3125 C-8.20593924 140.682725 -31.92817057 132.89625641 -52.08203125 119.046875 C-66.5787971 108.40226645 -82.05181267 95.47768204 -86.6875 77.3125 C-88.23550099 60.98301658 -87.41289727 44.88822511 -77.328125 31.2890625 C-59.35749892 9.63873679 -27.3889646 -0.13829729 0 0 Z " fill="#FEFEFE" transform="translate(254.6875,249.6875)"/>
<path d="M0 0 C1.6484375 1.55078125 1.6484375 1.55078125 2.1484375 5.05078125 C1.6484375 8.55078125 1.6484375 8.55078125 -0.0390625 10.55078125 C-2.90795785 11.79138465 -4.40797926 11.45020946 -7.3515625 10.55078125 C-7.3103125 11.45828125 -7.2690625 12.36578125 -7.2265625 13.30078125 C-7.34949397 16.49699936 -7.85191799 17.83488961 -9.3515625 20.55078125 C-8.74860352 20.29393555 -8.14564453 20.03708984 -7.52441406 19.77246094 C17.06558303 9.57799627 46.14029721 7.49788073 71.6484375 15.55078125 C72.37208496 15.77523926 73.09573242 15.99969727 73.84130859 16.23095703 C78.14343656 17.58192151 82.40505579 19.02366453 86.6484375 20.55078125 C85.6584375 15.60078125 85.6584375 15.60078125 84.6484375 10.55078125 C82.9984375 10.88078125 81.3484375 11.21078125 79.6484375 11.55078125 C77.3359375 10.55078125 77.3359375 10.55078125 75.6484375 8.55078125 C74.8984375 5.17578125 74.8984375 5.17578125 75.6484375 1.55078125 C81.21730043 -4.0782856 90.50958862 -6.48420923 98.2109375 -6.88671875 C103.25803414 -6.70806046 107.24358099 -4.77115862 111.6484375 -2.44921875 C112.6384375 -2.01609375 113.6284375 -1.58296875 114.6484375 -1.13671875 C116.6484375 0.55078125 116.6484375 0.55078125 117.6484375 4.05078125 C117.6484375 7.55078125 117.6484375 7.55078125 116.5859375 9.48828125 C113.88631262 10.9687207 111.67273731 10.75240124 108.6484375 10.55078125 C108.51888672 11.43830078 108.51888672 11.43830078 108.38671875 12.34375 C107.40012262 17.8922218 106.21407223 20.89827347 101.6484375 24.55078125 C100.9884375 24.88078125 100.3284375 25.21078125 99.6484375 25.55078125 C100.47085938 26.02386719 101.29328125 26.49695313 102.140625 26.984375 C109.75320355 31.49390479 116.33975796 36.27663827 122.6484375 42.55078125 C123.21046875 43.07800781 123.7725 43.60523438 124.3515625 44.1484375 C135.20480019 55.31584786 139.03229052 72.7537013 139.3359375 87.67578125 C139.37009766 88.82304687 139.40425781 89.9703125 139.43945312 91.15234375 C139.52110174 93.95172499 139.59051842 96.75082574 139.6484375 99.55078125 C140.80484741 99.30956543 140.80484741 99.30956543 141.98461914 99.06347656 C156.0519063 96.35599759 170.60753204 100.21139178 182.6484375 107.55078125 C186.33928238 110.18084997 188.62953813 112.63394444 190.8984375 116.55078125 C191.39859375 117.39640625 191.89875 118.24203125 192.4140625 119.11328125 C195.63819931 125.47993115 195.69386384 133.22258304 194.03515625 140.08984375 C191.2031927 147.35064896 185.97744253 151.52726839 179.4609375 155.48828125 C171.29268899 157.76467838 162.85983403 157.59552729 155.11328125 153.9921875 C143.27275527 147.06801304 134.94301882 136.59258899 128.6484375 124.55078125 C128.15214844 125.19144531 127.65585937 125.83210937 127.14453125 126.4921875 C126.46519531 127.35714844 125.78585937 128.22210938 125.0859375 129.11328125 C124.42464844 129.96019531 123.76335937 130.80710937 123.08203125 131.6796875 C104.15810225 154.00567115 75.90695188 169.89677719 46.6484375 172.55078125 C27.70327688 173.87060824 10.52375445 170.12565459 -6.3515625 161.55078125 C-7.00721191 161.22480957 -7.66286133 160.89883789 -8.33837891 160.56298828 C-26.96884629 151.17730515 -42.50630264 137.68860403 -54.3515625 120.55078125 C-54.74085938 121.4221875 -55.13015625 122.29359375 -55.53125 123.19140625 C-62.07287944 137.11874636 -70.75280773 148.90200548 -85.1640625 155.48828125 C-92.5243001 157.85247878 -100.67550232 157.73235719 -107.7265625 154.55078125 C-113.54751173 151.20420946 -117.68779413 146.73364249 -120.7890625 140.80078125 C-122.65970853 129.99260421 -121.22779578 121.47913803 -115.2265625 112.30078125 C-105.25739564 102.76505643 -91.23055404 98.52179192 -77.6015625 98.30078125 C-76.65796875 98.275 -75.714375 98.24921875 -74.7421875 98.22265625 C-70.06612844 98.67517809 -65.80037675 100.08697785 -61.3515625 101.55078125 C-61.37774658 100.81142334 -61.40393066 100.07206543 -61.4309082 99.31030273 C-62.27210305 71.93420195 -62.27210305 71.93420195 -56.3515625 59.55078125 C-55.60712891 57.86855469 -55.60712891 57.86855469 -54.84765625 56.15234375 C-48.31831717 42.65313188 -38.04270465 34.74363028 -25.3515625 27.55078125 C-24.3615625 26.89078125 -23.3715625 26.23078125 -22.3515625 25.55078125 C-23.1146875 25.17953125 -23.8778125 24.80828125 -24.6640625 24.42578125 C-28.86505394 21.49485699 -30.03648623 18.09751928 -31.0390625 13.17578125 C-31.1421875 12.30953125 -31.2453125 11.44328125 -31.3515625 10.55078125 C-32.2796875 10.61265625 -33.2078125 10.67453125 -34.1640625 10.73828125 C-37.3515625 10.55078125 -37.3515625 10.55078125 -39.2890625 9.48828125 C-40.3515625 7.55078125 -40.3515625 7.55078125 -40.5390625 4.17578125 C-39.0693389 -0.31074342 -37.4885879 -1.28002721 -33.45703125 -3.44921875 C-21.82959011 -8.97171398 -10.82342156 -6.67024817 0 0 Z M-33.3515625 47.55078125 C-34.28742188 48.33001953 -34.28742188 48.33001953 -35.2421875 49.125 C-43.48861127 56.52885438 -48.5116759 68.49426773 -49.65283203 79.44067383 C-49.78770619 82.48330553 -49.81031833 85.50540034 -49.7890625 88.55078125 C-49.80904297 89.5665625 -49.82902344 90.58234375 -49.84960938 91.62890625 C-49.84048329 105.8656008 -42.65306237 117.57399614 -32.8515625 127.55078125 C-13.71852126 146.26454254 11.54916611 160.32685721 38.7109375 160.80078125 C66.63815433 160.28134724 91.05693509 145.47928866 110.6484375 126.55078125 C111.71384766 125.52404297 111.71384766 125.52404297 112.80078125 124.4765625 C124.46152181 112.36819274 127.2083839 99.03396174 126.9921875 82.75 C126.47157506 68.43966558 120.35687365 56.3676011 110.0234375 46.5234375 C100.99091932 39.02109921 90.62434151 34.39685157 79.6484375 30.55078125 C78.98376465 30.3172998 78.3190918 30.08381836 77.63427734 29.84326172 C41.84638742 17.49639679 -3.98352824 21.53070289 -33.3515625 47.55078125 Z " fill="#5FC7EB" transform="translate(217.3515625,226.44921875)"/>
<path d="M0 0 C2 1.4375 2 1.4375 3 4 C1.73703601 11.37098282 -0.69879236 18.19823691 -3.3125 25.1875 C-3.74183838 26.34209717 -4.17117676 27.49669434 -4.61352539 28.6862793 C-10.66287626 44.70040116 -17.25172883 60.73315231 -25 76 C-24.01 75.67 -23.02 75.34 -22 75 C-20.29452496 74.82386077 -18.58538509 74.68188585 -16.875 74.5625 C-13.21510717 74.26797037 -9.80552892 73.78526428 -6.25 72.875 C-2.24501715 71.9186935 0.96319746 71.92901157 5 73 C7.16551116 76.24826674 7.55156953 77.23094157 7 81 C3.84249535 85.15123708 0.14056232 86.11030365 -4.75 87.1875 C-5.76707031 87.4340332 -5.76707031 87.4340332 -6.8046875 87.68554688 C-11.51319318 88.79106104 -16.19431769 89.46663391 -21 90 C3.18424715 90.54619379 24.72100254 84.4576027 43 68 C44.02480469 67.11441406 44.02480469 67.11441406 45.0703125 66.2109375 C59.31845931 53.0802924 66.03124911 34.45651466 71.02734375 16.2578125 C73.02472714 9.18274361 74.32865395 4.69278006 80.890625 0.91015625 C85.15838635 -0.93130374 89.74682592 -0.68290394 94.15234375 0.65234375 C102.63044147 4.44389225 106.8246068 11.747064 110.4375 19.9375 C110.84653564 20.84556396 111.25557129 21.75362793 111.67700195 22.68920898 C116.84955289 34.48617222 121.19320777 46.63404157 125.55834961 58.74780273 C132.21174644 78.309532 132.21174644 78.309532 146 93 C151.54885563 94.84961854 156.9415324 94.79897602 162.3125 92.375 C166.74067899 89.83958141 169.02983951 86.87145202 170.6796875 81.98828125 C175.18985639 63.79314785 170.97213718 44.23028163 164.01904297 27.24975586 C162.48755791 23.50684628 161.33369988 20.04537925 161 16 C162.93386608 13.17358035 164.15509857 12.19010282 167.5 11.4375 C171.06253942 12.23907137 171.91553701 14.06298757 174 17 C177.64910615 24.33089086 179.73545365 32.28473298 181.75 40.1875 C182.06602173 41.41545288 182.06602173 41.41545288 182.38842773 42.66821289 C186.3245699 58.76592172 187.86173026 78.50255468 179.64453125 93.46875 C174.56323835 100.77055427 167.69700486 105.21183078 159 107 C149.66144416 108.29342879 142.83014651 106.14066141 135 101 C129.86209253 96.9630727 125.91732988 91.84810367 123 86 C123 85.34 123 84.68 123 84 C122.34773437 84.27714844 121.69546875 84.55429688 121.0234375 84.83984375 C120.14945313 85.20207031 119.27546875 85.56429687 118.375 85.9375 C117.51648438 86.29714844 116.65796875 86.65679687 115.7734375 87.02734375 C104.27793138 91.05886632 88.22617866 90.47250958 77 86 C74.12424171 84.53802232 73.07768443 83.61194615 71 81 C70.9375 77.3125 70.9375 77.3125 72 74 C75.7265605 71.51562633 77.58134982 71.73815406 82 72 C84.03282374 72.44877055 86.05425925 72.95160556 88.0625 73.5 C97.93088126 75.77731875 107.9310894 75.26669894 118 75 C116.15985087 70.05750839 114.31209223 65.11794505 112.45800781 60.18066406 C111.83169214 58.5098505 111.20726311 56.83832818 110.58496094 55.16601562 C107.19696523 46.06557408 103.69013097 37.03956979 99.78125 28.1484375 C99.46232788 27.41613922 99.14340576 26.68384094 98.81481934 25.92935181 C96.90833208 21.66891236 94.89917609 17.69340297 92 14 C88.3634269 13.02649222 88.3634269 13.02649222 85 13 C84.78085937 13.969375 84.56171875 14.93875 84.3359375 15.9375 C77.8449038 43.75571515 65.47208862 70.02372068 40.79296875 86.28515625 C19.7584302 99.20006873 -3.80134601 106.63615938 -28.58984375 101.73828125 C-31.17662725 100.94589538 -33.2233727 99.78402372 -35.5625 98.4375 C-37.70009687 97.27273441 -37.70009687 97.27273441 -40 97 C-42.80577552 98.3594051 -44.99561037 100.09593588 -47.43359375 102.03515625 C-56.73057878 109.15293931 -68.76613066 109.40326812 -80 108 C-87.45727631 106.02414047 -92.81257108 101.39839139 -97 95 C-101.6799197 85.77219595 -103.35364743 76.68072513 -103.25 66.4375 C-103.24323242 65.46876953 -103.23646484 64.50003906 -103.22949219 63.50195312 C-103.0439524 50.49690821 -101.13155181 38.3794659 -97 26 C-96.690625 25.06285156 -96.38125 24.12570313 -96.0625 23.16015625 C-95.20444732 20.8970423 -94.40121754 18.97136813 -93 17 C-90 15.6875 -90 15.6875 -87 16 C-84.5625 17.5 -84.5625 17.5 -83 20 C-83.41015608 24.73388474 -84.52277794 29.04072799 -85.9375 33.5625 C-90.58126038 49.62146773 -93.6710141 71.01074399 -87 87 C-84.76363033 90.7869193 -82.13939339 93.41708476 -78 95 C-67.4670939 96.2335836 -58.94538495 95.21049019 -50 89 C-47.00650531 86.42226846 -45.52672304 84.6336152 -44.75 80.75 C-44.5025 79.5125 -44.255 78.275 -44 77 C-43.21625 76.938125 -42.4325 76.87625 -41.625 76.8125 C-40.325625 76.4103125 -40.325625 76.4103125 -39 76 C-38.26738326 74.36125202 -37.62116822 72.68415328 -37 71 C-36.35999969 69.65099337 -35.70466483 68.30921632 -35.0390625 66.97265625 C-29.82801023 56.40592201 -25.10976824 45.69166807 -20.75 34.75 C-20.36477676 33.7833844 -20.36477676 33.7833844 -19.97177124 32.79724121 C-16.6918863 24.53713696 -13.50208862 16.247702 -10.78613281 7.78222656 C-8.74467291 1.59829049 -6.82515977 -0.9953358 0 0 Z " fill="#364C8E" transform="translate(217,111)"/>
<path d="M0 0 C6.2672522 0.83563363 6.2672522 0.83563363 9.28125 1.51171875 C22.4419199 4.37538303 35.85415506 3.46720012 49 1 C50.4362021 0.78289968 51.87351132 0.57278928 53.3125 0.375 C54.6428125 0.189375 54.6428125 0.189375 56 0 C56.29132813 0.845625 56.58265625 1.69125 56.8828125 2.5625 C61.71493267 15.93440488 67.95788433 23.8095027 81 30 C81.515625 29.484375 82.03125 28.96875 82.5625 28.4375 C85 27 85 27 88.625 27.125 C92 28 92 28 94 31 C93.24143315 43.40168591 83.39097952 55.40915095 74.65478516 63.56152344 C57.45878129 78.50971683 38.0051327 81.09056274 16 80 C-0.2017043 78.00854051 -15.26057237 67.99616902 -25.8125 55.8125 C-29.1534657 51.46738506 -31.97133979 46.91022196 -34.625 42.125 C-35.15830933 41.17911011 -35.15830933 41.17911011 -35.70239258 40.21411133 C-37.19748213 37.3670266 -38.02679421 35.41274483 -37.81640625 32.171875 C-36.73175555 29.28639275 -35.77289832 28.34897756 -33 27 C-30.17442044 27.23546496 -27.78462635 27.68879799 -25.1484375 28.734375 C-20.28025575 29.33625929 -15.71023978 24.77728705 -12 22 C-5.3462179 16.30269908 -2.70345972 8.11037915 0 0 Z " fill="#FE9EA7" transform="translate(228,395)"/>
<path d="M0 0 C2.31356476 3.82217956 3.68430389 7.74693582 5 12 C5.495 12.99 5.495 12.99 6 14 C7.28866751 22.46838652 2.47908228 29.51565412 -2.2734375 36.1953125 C-9.74868942 45.6042258 -18.69530302 53.93421103 -31.03515625 55.34765625 C-39.87440711 55.75085015 -46.47071287 54.09993091 -53.1015625 48.09765625 C-59.1579887 41.60506767 -60.47968554 35.87510309 -60.31640625 27.1015625 C-59.55450027 19.63300263 -56.42560721 13.18971125 -51 8 C-39.1180065 -0.85586782 -13.74620557 -9.39072285 0 0 Z " fill="#3C5FAC" transform="translate(156,328)"/>
<path d="M0 0 C2.46946765 2.21639824 3.95523928 4.25878971 5.61328125 7.12109375 C6.1134375 7.96671875 6.61359375 8.81234375 7.12890625 9.68359375 C10.35304306 16.05024365 10.40870759 23.79289554 8.75 30.66015625 C5.91803645 37.92096146 0.69228628 42.09758089 -5.82421875 46.05859375 C-13.99246726 48.33499088 -22.42532222 48.16583979 -30.171875 44.5625 C-41.29444036 38.05817889 -50.58079326 28.04991795 -55.63671875 16.12109375 C-56.26598357 11.77037032 -54.87505676 9.11586723 -52.82421875 5.30859375 C-50.93188528 1.7312454 -49.30485567 -1.63135536 -48.13671875 -5.50390625 C-46.63671875 -8.87890625 -46.63671875 -8.87890625 -44.19921875 -10.37890625 C-28.41951836 -12.59360104 -13.04624793 -9.29665964 0 0 Z " fill="#3C5FAC" transform="translate(402.63671875,335.87890625)"/>
<path d="M0 0 C0.68359375 1.72526042 1.3671875 3.45052083 2.05078125 5.17578125 C2.89948448 7.0676708 2.89948448 7.0676708 4.49291992 8.34155273 C6.32938725 10.36247004 6.6006529 11.68581839 7.0625 14.359375 C7.21775146 15.22006592 7.37300293 16.08075684 7.53295898 16.9675293 C7.68708252 17.88574463 7.84120605 18.80395996 8 19.75 C8.3447135 21.66802963 8.68976716 23.58599816 9.03515625 25.50390625 C9.20031738 26.44508301 9.36547852 27.38625977 9.53564453 28.35595703 C11.66135271 40.4597528 14.58177061 52.20508197 18 64 C12.57971556 66.71014222 4.54812407 65.405843 -1.125 63.875 C-11.87409067 60.21132279 -21.06979476 53.65933946 -26.67578125 43.7421875 C-31.04594898 34.69245963 -32.70854913 24.97094714 -29.75 15.25 C-27.35524144 9.06716882 -25.08032044 5.25182107 -19.0625 2.125 C-12.72667623 -0.55488222 -6.77399362 -0.48462593 0 0 Z " fill="#FA7B90" transform="translate(127,239)"/>
<path d="M0 0 C8.15522496 -0.39460766 17.54135631 0.4640197 24 6 C29.19267492 13.63367595 30.88321257 20.83200469 30 30 C27.31413586 42.66193095 22.52251059 50.96124107 11.81640625 58.2734375 C4.24219895 62.91671021 -2.38745417 65.16057743 -11.3125 65.0625 C-12.38113281 65.05347656 -13.44976562 65.04445313 -14.55078125 65.03515625 C-15.35902344 65.02355469 -16.16726563 65.01195312 -17 65 C-18.38343895 60.48247405 -17.3733457 57.35896116 -15.875 53.0625 C-12.70846467 43.33750989 -11.2631659 33.33492246 -9.78857422 23.24633789 C-9.5979541 21.99457764 -9.40733398 20.74281738 -9.2109375 19.453125 C-8.96802979 17.76944824 -8.96802979 17.76944824 -8.72021484 16.05175781 C-7.69089073 11.69021494 -5.66575729 8.82240606 -2.875 5.375 C-0.83289928 3.06477194 -0.83289928 3.06477194 0 0 Z " fill="#FA7B90" transform="translate(386,239)"/>
<path d="M0 0 C2.20004076 2.20004076 2.63085428 3.53403702 3.625 6.4375 C9.1855396 20.60461009 19.6884442 29.23319155 33.04296875 35.7734375 C45.79132012 41.06139302 62.83020717 41.4749135 75.8125 36.5 C92.27572873 29.58030896 102.22083169 17.9031631 108.953125 1.70703125 C110 0 110 0 113.375 -1 C117 -1 117 -1 119.5 0.5625 C121 3 121 3 120.80078125 5.7109375 C116.96368964 21.47108938 104.7817047 34.73853623 91.2980957 43.09326172 C75.07237259 52.56816926 54.69590744 55.03082349 36.3125 50.875 C16.80308094 44.75716194 2.19341903 31.83009811 -7.625 14.125 C-7.98053955 13.49440674 -8.3360791 12.86381348 -8.70239258 12.21411133 C-10.19748213 9.3670266 -11.02679421 7.41274483 -10.81640625 4.171875 C-8.75590432 -1.30965167 -5.18616256 -1.46565464 0 0 Z " fill="#FFFDFC" transform="translate(201,423)"/>
<path d="M0 0 C1.05960937 0.50660156 2.11921875 1.01320313 3.2109375 1.53515625 C11.00689138 5.54482307 18.78292643 10.78292643 25 17 C24.8125 20.5 24.8125 20.5 24 24 C21 26 21 26 18.13671875 25.875 C14.49941686 24.86036037 12.67927846 23.43909069 9.8125 21 C-9.12130015 5.92364932 -34.15494764 -0.29209643 -58 1 C-77.07226959 3.48428537 -95.18864735 10.92274184 -110.29492188 22.79956055 C-112.81944326 24.73001084 -114.60819172 25.94512489 -117.7890625 26.390625 C-120 26 -120 26 -121.8125 24.3125 C-123.22411317 21.56356908 -123.32632429 20.05812482 -123 17 C-111.37697183 1.37387451 -83.6014199 -7.59575673 -65.25 -11.3125 C-42.08382602 -14.53698097 -20.88990327 -10.02897979 0 0 Z " fill="#60C8EC" transform="translate(305,270)"/>
<path d="M0 0 C3.4375 0.875 3.4375 0.875 5.4375 3.875 C5.33893937 7.52174349 4.54214942 8.76446194 2.0078125 11.44140625 C-1.34306759 15.37551866 -1.86137293 19.50464461 -2.625 24.5 C-2.95107198 26.38554668 -3.27791374 28.27096038 -3.60546875 30.15625 C-3.76450684 31.11015625 -3.92354492 32.0640625 -4.08740234 33.046875 C-12.03313706 80.34563706 -12.03313706 80.34563706 -24.5625 92.875 C-24.56660889 92.16593506 -24.57071777 91.45687012 -24.57495117 90.72631836 C-24.76885967 71.59142798 -25.95444488 50.21745412 -40.5625 35.875 C-40.5625 35.215 -40.5625 34.555 -40.5625 33.875 C-38.71879164 32.36511923 -36.86459728 30.95908261 -34.9375 29.5625 C-25.09615129 22.21090034 -15.74112152 13.94309672 -7.89453125 4.4609375 C-4.02904634 -0.14137005 -4.02904634 -0.14137005 0 0 Z " fill="#FD9EA8" transform="translate(380.5625,234.125)"/>
<path d="M0 0 C2.2109375 1.6875 2.2109375 1.6875 4.375 4 C5.54869141 5.2375 5.54869141 5.2375 6.74609375 6.5 C8.67662284 8.64131477 10.56686551 10.80653734 12.4375 13 C19.56830071 21.26189324 28.08516181 27.7799513 37 34 C35.57584263 36.96980684 33.94555009 39.71680724 32.1875 42.5 C24.73167582 54.84130311 21.74804581 66.19181312 21.375 80.4375 C21.33632812 81.64599609 21.29765625 82.85449219 21.2578125 84.09960938 C21.16400542 87.06625817 21.07830754 90.03290836 21 93 C14.74926027 84.87611719 10.69431002 75.27973124 7.96679688 65.453125 C7.34856559 63.24497769 6.70775899 61.04294778 6.03808594 58.84985352 C3.2054661 49.46662587 1.56131533 40.11054238 0.14282227 30.42553711 C-0.14709499 28.46853605 -0.45033351 26.5135231 -0.75390625 24.55859375 C-0.92220947 23.41704834 -1.0905127 22.27550293 -1.26391602 21.09936523 C-2.23271308 17.02013515 -3.95431985 14.20059572 -6.6875 11.0625 C-8.49960769 8.2149022 -8.42251902 6.30973234 -8 3 C-5.87455737 -0.35596204 -3.79353331 -0.45678375 0 0 Z " fill="#FD9EA7" transform="translate(135,234)"/>
<path d="M0 0 C1.6484375 1.55078125 1.6484375 1.55078125 2.1484375 5.05078125 C1.6484375 8.55078125 1.6484375 8.55078125 -0.0390625 10.55078125 C-2.90795785 11.79138465 -4.40797926 11.45020946 -7.3515625 10.55078125 C-7.2896875 11.43765625 -7.2278125 12.32453125 -7.1640625 13.23828125 C-7.38077718 17.0669073 -7.89574365 18.61964262 -10.3515625 21.55078125 C-15.06427904 24.17902701 -18.97528056 25.34726746 -24.3515625 24.55078125 C-28.32156103 21.81589337 -29.62692265 19.30457754 -30.6640625 14.73828125 C-30.91169967 13.34560617 -31.14725083 11.95046864 -31.3515625 10.55078125 C-32.2796875 10.61265625 -33.2078125 10.67453125 -34.1640625 10.73828125 C-37.3515625 10.55078125 -37.3515625 10.55078125 -39.2890625 9.48828125 C-40.3515625 7.55078125 -40.3515625 7.55078125 -40.5390625 4.17578125 C-39.0693389 -0.31074342 -37.4885879 -1.28002721 -33.45703125 -3.44921875 C-21.82959011 -8.97171398 -10.82342156 -6.67024817 0 0 Z " fill="#394D8E" transform="translate(217.3515625,226.44921875)"/>
<path d="M0 0 C0.99 0.433125 1.98 0.86625 3 1.3125 C5 3 5 3 6 6.5 C6 10 6 10 4.9375 11.9375 C2.23787512 13.41793945 0.02429981 13.20161999 -3 13 C-3.08636719 13.59167969 -3.17273438 14.18335938 -3.26171875 14.79296875 C-3.99436586 18.91326855 -4.71988954 21.60784536 -7.1875 25.0625 C-10.86404701 27.59523238 -12.59988626 27.67120379 -17 27 C-20.15960448 26.18147927 -22.59315452 25.2433829 -25 23 C-26.25567701 19.70320191 -26.73229563 16.50692721 -27 13 C-27.77730469 13.185625 -28.55460937 13.37125 -29.35546875 13.5625 C-32 14 -32 14 -34.3125 13 C-36 11 -36 11 -36.75 7.625 C-35.93566328 3.68903917 -35.75930319 3.34376529 -32.625 1.25 C-21.3066371 -4.79843732 -11.41455834 -6.01697649 0 0 Z " fill="#384D8E" transform="translate(329,224)"/>
<path d="M0 0 C6.2672522 0.83563363 6.2672522 0.83563363 9.28125 1.51171875 C22.4419199 4.37538303 35.85415506 3.46720012 49 1 C50.4362021 0.78289968 51.87351132 0.57278928 53.3125 0.375 C54.199375 0.25125 55.08625 0.1275 56 0 C56.50559908 1.43554025 57.0042749 2.8735202 57.5 4.3125 C57.7784375 5.11300781 58.056875 5.91351563 58.34375 6.73828125 C59 9 59 9 59 12 C56.9170757 12.64715133 54.83364461 13.29267166 52.75 13.9375 C51.58984375 14.29714844 50.4296875 14.65679687 49.234375 15.02734375 C33.53691458 19.74795685 11.91728103 19.45864051 -3 12 C-2.68950274 10.56206608 -2.3765224 9.1246682 -2.0625 7.6875 C-1.88847656 6.88699219 -1.71445313 6.08648437 -1.53515625 5.26171875 C-1 3 -1 3 0 0 Z " fill="#F5607C" transform="translate(228,395)"/>
<path d="M0 0 C3.4375 0.875 3.4375 0.875 5.4375 3.875 C4.92692235 13.51215308 -6.84543722 22.70761503 -13.5625 28.875 C-17.15920035 31.96744193 -20.83219586 34.9456141 -24.5625 37.875 C-25.3565625 38.50148438 -26.150625 39.12796875 -26.96875 39.7734375 C-32.2834507 43.875 -32.2834507 43.875 -34.5625 43.875 C-36.0703125 42.1953125 -36.0703125 42.1953125 -37.6875 40 C-38.22632813 39.28070313 -38.76515625 38.56140625 -39.3203125 37.8203125 C-40.5625 35.875 -40.5625 35.875 -40.5625 33.875 C-38.71879164 32.36511923 -36.86459728 30.95908261 -34.9375 29.5625 C-25.09615129 22.21090034 -15.74112152 13.94309672 -7.89453125 4.4609375 C-4.02904634 -0.14137005 -4.02904634 -0.14137005 0 0 Z " fill="#FEFCFC" transform="translate(380.5625,234.125)"/>
<path d="M0 0 C2.2109375 1.6875 2.2109375 1.6875 4.375 4 C5.54869141 5.2375 5.54869141 5.2375 6.74609375 6.5 C8.67662284 8.64131477 10.56686551 10.80653734 12.4375 13 C19.56830071 21.26189324 28.08516181 27.7799513 37 34 C35.28564986 37.55225704 33.22257977 40.74021634 31 44 C17.89339711 39.42901394 -1.46309259 21.19665792 -8 9 C-8.44475043 3.70223752 -8.44475043 3.70223752 -6.8125 1.125 C-4.32677497 -0.41786381 -2.89511108 -0.34860368 0 0 Z " fill="#FEFCFD" transform="translate(135,234)"/>
<path d="M0 0 C1.23105469 -0.00515625 2.46210938 -0.0103125 3.73046875 -0.015625 C6.8125 0.25 6.8125 0.25 8.8125 2.25 C9.1875 5.6875 9.1875 5.6875 8.8125 9.25 C5.9652853 12.05830061 3.80122285 12.6048084 -0.125 12.75 C-4.26805867 13.0367802 -6.75734693 13.78457748 -10.1875 16.25 C-10.8475 16.25 -11.5075 16.25 -12.1875 16.25 C-12.5175 17.24 -12.8475 18.23 -13.1875 19.25 C-13.5175 19.25 -13.8475 19.25 -14.1875 19.25 C-14.04536703 17.35388566 -13.89863093 15.45811606 -13.75 13.5625 C-13.66878906 12.50675781 -13.58757812 11.45101563 -13.50390625 10.36328125 C-13.39949219 9.33589844 -13.29507812 8.30851562 -13.1875 7.25 C-13.11402344 6.33605469 -13.04054688 5.42210937 -12.96484375 4.48046875 C-12.1875 2.25 -12.1875 2.25 -10.07421875 0.953125 C-6.63546785 0.11554021 -3.53890809 -0.01491637 0 0 Z " fill="#F65F7C" transform="translate(389.1875,256.75)"/>
<path d="M0 0 C1.12921875 0.00515625 2.2584375 0.0103125 3.421875 0.015625 C4.54078125 0.01046875 5.6596875 0.0053125 6.8125 0 C10.23290839 0.2704509 12.97766347 1.04601696 16.171875 2.265625 C17.49473746 7.22635922 17.26080697 12.17674012 17.171875 17.265625 C16.63820312 16.98847656 16.10453125 16.71132813 15.5546875 16.42578125 C10.37795423 13.9090649 6.09650341 12.79216259 0.3359375 12.63671875 C-2.35608662 12.17509007 -3.23531227 11.46016698 -4.828125 9.265625 C-5.140625 5.703125 -5.140625 5.703125 -4.828125 2.265625 C-2.828125 0.265625 -2.828125 0.265625 0 0 Z " fill="#F65F7C" transform="translate(118.828125,256.734375)"/>
</svg>
