<?xml version="1.0" encoding="UTF-8"?>
<svg version="1.1" xmlns="http://www.w3.org/2000/svg" width="512" height="512">
<path d="M0 0 C5.61 0 11.22 0 17 0 C17 16.17 17 32.34 17 49 C22.28 49 27.56 49 33 49 C33 38.11 33 27.22 33 16 C38.61 16 44.22 16 50 16 C50 26.89 50 37.78 50 49 C53.96 49 57.92 49 62 49 C65.10644531 50.74414063 65.10644531 50.74414063 67.328125 53.15625 C68.14667969 54.01347656 68.96523437 54.87070312 69.80859375 55.75390625 C70.61425781 56.66011719 71.41992188 57.56632812 72.25 58.5 C73.10207031 59.40621094 73.95414062 60.31242187 74.83203125 61.24609375 C76.91794525 63.47263117 78.97068983 65.7219686 81 68 C82.08998018 66.44410598 83.17978985 64.88809252 84.26953125 63.33203125 C84.91100098 62.41631348 85.5524707 61.5005957 86.21337891 60.55712891 C87.48677604 58.73455969 88.75202135 56.90628351 90.01171875 55.07421875 C110.73405804 25.560584 142.0267654 6.89599134 177.36955261 0.65664673 C185.47830919 -0.61539357 193.66872754 -0.45139645 201.85546875 -0.43359375 C203.73285609 -0.43817283 205.61024177 -0.44348341 207.48762512 -0.44947815 C211.39977883 -0.45834584 215.31172774 -0.45606098 219.22387695 -0.44604492 C224.17420881 -0.43459004 229.12382354 -0.45474636 234.07406139 -0.48396206 C237.94633793 -0.50254033 241.81844962 -0.50198877 245.69075966 -0.49632454 C247.5127392 -0.49617381 249.33473179 -0.5020062 251.15666771 -0.51461601 C292.15837351 -0.75843033 327.9834674 15.40955452 357 44 C357.76441406 44.75152344 358.52882813 45.50304688 359.31640625 46.27734375 C385.58120865 73.76376486 397.68448376 111.94663985 397.2109375 149.36328125 C396.08422618 189.73710339 378.46709963 222.42583089 351.45019531 251.44091797 C349.48140143 253.55753711 347.52281829 255.68349163 345.5637207 257.80908203 C344.05527725 259.44533473 342.54544708 261.08029618 341.03515625 262.71484375 C338.02235525 265.97556409 335.01104915 269.23766199 332 272.5 C331.00000676 273.58333957 330.00000676 274.66667291 329 275.75 C328.2575 276.554375 328.2575 276.554375 327.5 277.375 C326 279 324.5 280.625 323 282.25 C322.5042749 282.78705566 322.0085498 283.32411133 321.49780273 283.87744141 C320.50520819 284.95271171 319.51253338 286.02790794 318.51977539 287.10302734 C315.90578371 289.9340994 313.29350335 292.76672642 310.68359375 295.6015625 C310.14025391 296.19130859 309.59691406 296.78105469 309.03710938 297.38867188 C307.99753101 298.51710309 306.95844094 299.64598443 305.91992188 300.77539062 C302.14864356 304.86740866 302.14864356 304.86740866 300.19140625 306.61328125 C298.11718453 309.02753932 298.47427491 311.40436635 298.59375 314.4609375 C299.58491779 320.65573616 302.42463407 326.14976535 307.375 330.0625 C311.85685685 333.07295479 316.57380079 335.7313054 321.22143555 338.47729492 C332.25138854 345.05644522 341.74773891 353.16829623 351 362 C351.7425 362.70125 352.485 363.4025 353.25 364.125 C358.32419121 369.04062273 362.674462 374.42388575 367 380 C367.39745894 379.49371346 367.79491789 378.98742693 368.20442104 378.46579838 C381.26756813 362.36803655 381.26756813 362.36803655 391.89444828 361.1800375 C396.76271288 360.98579851 401.57647886 361.12094196 406.44140625 361.33984375 C408.54693284 361.37163604 410.65258706 361.39579464 412.75828552 361.41273499 C418.24441935 361.47699788 423.7226383 361.6433378 429.20568848 361.83270264 C434.82288537 362.00806769 440.44138934 362.08455429 446.06054688 362.16992188 C457.04436497 362.35109317 468.02027994 362.64949904 479 363 C479 368.61 479 374.22 479 380 C476.43782715 379.95697754 473.8756543 379.91395508 471.23583984 379.86962891 C462.72236601 379.73705302 454.20964493 379.68272303 445.69519615 379.66578102 C440.53771858 379.65315966 435.38317176 379.61508971 430.2265625 379.51660156 C425.23938602 379.42232327 420.25608799 379.39784548 415.268116 379.41953659 C413.37595756 379.41592718 411.48366948 379.38815352 409.59226608 379.33458328 C400.10349978 379.08123388 392.87070012 379.2773763 385.5622654 385.87515831 C381.32180981 390.07844044 381.32180981 390.07844044 378 395 C378.1041744 398.87423552 379.67944061 401.47225023 381.5625 404.8125 C399.09842387 439.07955896 397 473.63002106 397 512 C287.77 512 178.54 512 66 512 C66 447.76911482 66 447.76911482 71.6875 428.5 C71.94313721 427.62819092 72.19877441 426.75638184 72.4621582 425.8581543 C78.98059379 404.44931921 90.02081814 385.55120994 105 369 C106.08861328 367.71416016 106.08861328 367.71416016 107.19921875 366.40234375 C118.09956765 353.68862812 131.20319231 344.31203148 145.55859375 335.9140625 C153.53127703 331.2189262 159.77039198 327.38560918 162.6484375 318.27734375 C162.90544434 317.47417725 163.16245117 316.67101074 163.42724609 315.84350586 C163.61625488 315.23514893 163.80526367 314.62679199 164 314 C163.21010178 314.00888245 162.42020355 314.01776489 161.60636902 314.0269165 C154.11931251 314.10745755 146.63246955 314.16816327 139.14509106 314.20724869 C135.29681425 314.2280193 131.44889892 314.25614072 127.60083008 314.30175781 C123.87901123 314.34559623 120.15753746 314.369216 116.43548012 314.37950897 C115.02385345 314.38683294 113.61224313 314.40113267 112.20076561 314.42292023 C98.43811257 314.62668335 87.35297418 311.66250656 77.0625 302.22265625 C70.9881842 295.8210605 66.0591706 286.94063917 65.96963501 277.95140076 C66.01139862 276.75628372 66.05316223 275.56116669 66.09619141 274.32983398 C66.13893809 272.95628222 66.18068988 271.58269923 66.22158813 270.20909119 C66.25535994 269.12000112 66.25535994 269.12000112 66.289814 268.00890923 C66.41826651 263.30168041 66.45977155 258.59275015 66.51114845 253.88415432 C66.56077398 249.7690434 66.64401774 245.66044414 66.80566406 241.5480957 C68.16478381 221.41859785 68.16478381 221.41859785 60.65917969 203.48486328 C56.23323263 198.72122553 51.37722194 194.64846423 46 191 C47.53019636 187.77576216 49.1707736 185.66644867 51.6875 183.125 C63.87947588 169.60056774 65.1825048 154.66527865 65.34906006 137.27709961 C65.53149637 121.26219637 67.35003525 106.70045164 71.57080078 91.23632812 C71.83901642 90.25345825 72.10723206 89.27058838 72.38357544 88.25793457 C72.58699554 87.51281616 72.79041565 86.76769775 73 86 C68.70509653 78.53841193 63.06926223 71.49770134 55 68 C41.67234732 64.42546206 26.61723926 65.9203033 12.97058105 66.30047607 C7.78171828 66.42539428 2.59246869 66.4462424 -2.59765625 66.4765625 C-12.73540475 66.55077155 -22.86511434 66.7478821 -33 67 C-33 55.78 -33 44.56 -33 33 C-27.39 33 -21.78 33 -16 33 C-16 38.28 -16 43.56 -16 49 C-10.72 49 -5.44 49 0 49 C0 32.83 0 16.66 0 0 Z " fill="#F3DECB" transform="translate(33,0)"/>
<path d="M0 0 C3.56617872 2.79172898 6.82153797 5.77782631 10 9 C10.58394531 9.58265625 11.16789063 10.1653125 11.76953125 10.765625 C12.17558594 11.17296875 12.58164062 11.5803125 13 12 C14.22396484 11.45859375 14.22396484 11.45859375 15.47265625 10.90625 C32.96836384 4.05265399 52.19018366 5.12484114 69.37890625 12.4375 C84.42517085 19.82740092 97.0438573 33.0145502 103.2265625 48.7265625 C103.48179687 49.47679687 103.73703125 50.22703125 104 51 C104.29648437 51.85335937 104.59296875 52.70671875 104.8984375 53.5859375 C108.98079723 67.25622465 107.67145648 81.40686945 104 95 C104.65226563 95.54527344 105.30453125 96.09054688 105.9765625 96.65234375 C114.27638938 103.81369881 121.63131352 111.87507333 123.31811523 123.12084961 C124.22979614 136.07794825 122.38754557 147.25699532 113.75 157.4375 C104.27370661 167.05406747 93.62755507 172.01083749 80 172.5625 C60.11932447 171.87276228 41.97499173 163.79591368 24 156 C24.01667725 156.95986816 24.03335449 157.91973633 24.05053711 158.90869141 C24.0635083 160.16858887 24.07647949 161.42848633 24.08984375 162.7265625 C24.106521 163.97518066 24.12319824 165.22379883 24.14038086 166.51025391 C23.84742898 173.79278292 20.75818658 177.52569253 15.5625 182.375 C10.60894469 186.69966916 6.54380984 188.23563616 -0.03515625 188.2734375 C-1.74348633 188.304375 -1.74348633 188.304375 -3.48632812 188.3359375 C-5.87427608 188.36202104 -8.26232286 188.38022514 -10.65039062 188.390625 C-11.78798828 188.41382813 -12.92558594 188.43703125 -14.09765625 188.4609375 C-15.65238647 188.47326416 -15.65238647 188.47326416 -17.23852539 188.48583984 C-20.70234945 189.13077075 -21.88729546 190.22298346 -24 193 C-24.53854663 196.76982639 -24.67913142 198.96545685 -22.5612793 202.19165039 C-18.68921472 204.92545864 -15.14765016 204.50862737 -10.51953125 204.43359375 C-8.61393151 204.4432055 -6.70833257 204.45297621 -4.80273438 204.46289062 C-1.81199681 204.45431977 1.17852342 204.43756689 4.16918945 204.4152832 C7.06503631 204.40066377 9.95966374 204.41609044 12.85546875 204.43359375 C14.17782784 204.40887245 14.17782784 204.40887245 15.52690125 204.38365173 C22.83538793 204.44172212 28.48861321 206.70346105 33.85441589 211.74095154 C39.42966612 217.73222096 41.66774204 224.00309977 41.41015625 232.15625 C40.35026573 239.50482424 36.64890591 245.13883499 30.94140625 249.74609375 C30.30074219 250.15988281 29.66007813 250.57367188 29 251 C28.2059375 251.54011719 27.411875 252.08023437 26.59375 252.63671875 C20.15412696 255.07957575 13.20668785 254.39659067 6.38867188 254.3515625 C-0.32431283 254.36232028 -0.32431283 254.36232028 -6.25390625 257.16796875 C-8.81586731 261.32327471 -8.93718632 264.34397554 -8.75 269.140625 C-7.83377924 272.63371665 -6.9245608 273.35364249 -3.875 275.1875 C-3.05773437 275.620625 -2.24046875 276.05375 -1.3984375 276.5 C3.39679704 279.49897405 6.24206072 284.72618216 8 290 C8.99316255 299.01986972 6.74677459 305.81819348 1.125 312.875 C-1.56132408 315.81359309 -4.25259694 317.55213973 -8 319 C-8.66 319 -9.32 319 -10 319 C-8.515 320.98 -8.515 320.98 -7 323 C-2.49928212 322.43261929 -2.49928212 322.43261929 1.9284668 321.48193359 C17.58489814 317.83952989 34.37616887 321.24600563 47.9375 329.3125 C61.3291045 338.53782754 69.6370197 351.6970716 73.6171875 367.44140625 C75.98322866 383.25525276 72.22615985 397.43795267 64 411 C61.24155926 414.61618909 58.25990695 417.83390332 55 421 C54.44828125 421.57234375 53.8965625 422.1446875 53.328125 422.734375 C43.15342658 432.50611507 27.72287516 436.50636909 13.98217773 436.3515625 C-0.84080473 435.8447337 -13.29000209 430.29579795 -23.84375 419.953125 C-26.58702739 417.34513461 -26.58702739 417.34513461 -30 416 C-31.8824733 416.72241745 -33.76251556 417.45260453 -35.62255859 418.23095703 C-40.23984084 419.72453262 -45.00339578 419.47066624 -49.8125 419.4375 C-50.82892578 419.45748047 -51.84535156 419.47746094 -52.89257812 419.49804688 C-60.31107722 419.4933187 -66.21832564 417.9431881 -73 415 C-73.73395996 414.68893311 -74.46791992 414.37786621 -75.22412109 414.05737305 C-90.94789396 407.15185952 -99.94533203 393.57415638 -106.10546875 378.25 C-110.59514504 364.42264015 -108.56635518 350.11371898 -103 337 C-100.93308308 333.10157811 -98.62560119 329.54179458 -96 326 C-94.9171875 324.453125 -94.9171875 324.453125 -93.8125 322.875 C-85.2295019 313.16636281 -72.02195259 305.33460715 -59 304 C-44.9688979 303.3437007 -44.9688979 303.3437007 -40 305 C-40.33 304.38125 -40.66 303.7625 -41 303.125 C-43.06684222 296.66611807 -42.77035642 290.9282362 -39.9375 284.75 C-37.17970928 279.76717358 -33.42892186 275.06732094 -27.81640625 273.3203125 C-27.21699219 272.88460938 -26.61757812 272.44890625 -26 272 C-25.63666391 269.35370213 -25.49701536 267.02267216 -25.5 264.375 C-25.18702611 254.76968217 -22.84645669 249.44638805 -16.07421875 242.54296875 C-9.21348513 237.43940985 -2.60288573 237.5380766 5.6875 237.4375 C7.92072019 237.4030249 10.15383333 237.36039775 12.38671875 237.30859375 C13.85951294 237.29010376 13.85951294 237.29010376 15.36206055 237.27124023 C18.07722459 236.99205955 19.71815844 236.47403515 22 235 C23.52491998 231.95016004 23.23562548 229.3576631 23 226 C21.45737187 223.89641619 20.31891683 223.15945841 18 222 C15.1056873 221.87898214 12.23137574 221.81424385 9.3359375 221.7890625 C7.55598069 221.7609748 5.7760329 221.73231023 3.99609375 221.703125 C1.19189897 221.66200921 -1.61213076 221.62512156 -4.41650391 221.59863281 C-7.12437837 221.57084008 -9.83148776 221.52494947 -12.5390625 221.4765625 C-13.36644928 221.47330963 -14.19383606 221.47005676 -15.04629517 221.46670532 C-22.99880291 221.3007317 -29.50857975 219.18594315 -35.4609375 213.75 C-40.43774021 208.09109743 -42.43720519 201.17200632 -42.33984375 193.76171875 C-41.4438267 186.48029286 -37.55592626 180.78610915 -31.94140625 176.25390625 C-31.30074219 175.84011719 -30.66007812 175.42632812 -30 175 C-29.2059375 174.45988281 -28.411875 173.91976562 -27.59375 173.36328125 C-21.15412696 170.92042425 -14.20668785 171.60340933 -7.38867188 171.6484375 C-6.25880859 171.63296875 -5.12894531 171.6175 -3.96484375 171.6015625 C-2.9399585 171.60494629 -1.91507324 171.60833008 -0.85913086 171.61181641 C3.19611186 170.74404779 4.60258965 169.36504476 7 166 C7.57714991 163.02898892 7.47659744 160.19931918 7.3125 157.1875 C7.28994141 156.39923828 7.26738281 155.61097656 7.24414062 154.79882812 C7.18554161 152.86506071 7.09586827 150.93227833 7 149 C1.52120044 146.74910544 -3.95807423 144.49936969 -9.4375 142.25 C-10.28890564 141.90041229 -11.14031128 141.55082458 -12.01751709 141.19064331 C-22.92609602 136.71218905 -33.8399418 132.24695854 -44.76171875 127.80078125 C-46.92195721 126.92090048 -49.08219484 126.04101767 -51.24243164 125.16113281 C-54.39290843 123.87802041 -57.54363793 122.59555044 -60.69528198 121.31530762 C-66.52444606 118.94739628 -72.34781725 116.56619802 -78.16369629 114.16583252 C-80.07711036 113.37934399 -81.99278471 112.59833504 -83.91052246 111.82244873 C-86.74541133 110.67471537 -89.57237904 109.50912296 -92.3984375 108.33984375 C-93.23460602 108.00610245 -94.07077454 107.67236115 -94.93228149 107.32850647 C-108.78033559 101.52795625 -117.28065729 91.67425911 -123 78 C-125.81109923 67.82893186 -125.31292965 55.11073297 -120.67578125 45.6796875 C-114.32443836 35.52346088 -105.70980693 27.98283311 -94.140625 24.640625 C-93.43421875 24.42921875 -92.7278125 24.2178125 -92 24 C-90.77603516 23.65388672 -90.77603516 23.65388672 -89.52734375 23.30078125 C-86.1411023 21.55793982 -84.43967965 18.98231196 -82.3125 15.9375 C-61.98826302 -11.4854703 -29.21659913 -17.79587485 0 0 Z " fill="#030202" transform="translate(273,43)"/>
<path d="M0 0 C5.61 0 11.22 0 17 0 C17 16.17 17 32.34 17 49 C22.28 49 27.56 49 33 49 C33 38.11 33 27.22 33 16 C38.61 16 44.22 16 50 16 C50 26.89 50 37.78 50 49 C53.96 49 57.92 49 62 49 C65.10644531 50.74414063 65.10644531 50.74414063 67.328125 53.15625 C68.14667969 54.01347656 68.96523437 54.87070312 69.80859375 55.75390625 C70.61425781 56.66011719 71.41992188 57.56632812 72.25 58.5 C73.10207031 59.40621094 73.95414062 60.31242187 74.83203125 61.24609375 C76.91794525 63.47263117 78.97068983 65.7219686 81 68 C82.08998018 66.44410598 83.17978985 64.88809252 84.26953125 63.33203125 C84.91100098 62.41631348 85.5524707 61.5005957 86.21337891 60.55712891 C87.48677604 58.73455969 88.75202135 56.90628351 90.01171875 55.07421875 C110.73405804 25.560584 142.0267654 6.89599134 177.36955261 0.65664673 C185.47830919 -0.61539357 193.66872754 -0.45139645 201.85546875 -0.43359375 C203.73285609 -0.43817283 205.61024177 -0.44348341 207.48762512 -0.44947815 C211.39977883 -0.45834584 215.31172774 -0.45606098 219.22387695 -0.44604492 C224.17420881 -0.43459004 229.12382354 -0.45474636 234.07406139 -0.48396206 C237.94633793 -0.50254033 241.81844962 -0.50198877 245.69075966 -0.49632454 C247.5127392 -0.49617381 249.33473179 -0.5020062 251.15666771 -0.51461601 C292.15837351 -0.75843033 327.9834674 15.40955452 357 44 C357.76441406 44.75152344 358.52882813 45.50304688 359.31640625 46.27734375 C385.58120865 73.76376486 397.68448376 111.94663985 397.2109375 149.36328125 C396.08422618 189.73710339 378.46709963 222.42583089 351.45019531 251.44091797 C349.48140143 253.55753711 347.52281829 255.68349163 345.5637207 257.80908203 C344.05527725 259.44533473 342.54544708 261.08029618 341.03515625 262.71484375 C338.02235525 265.97556409 335.01104915 269.23766199 332 272.5 C331.00000676 273.58333957 330.00000676 274.66667291 329 275.75 C328.2575 276.554375 328.2575 276.554375 327.5 277.375 C326 279 324.5 280.625 323 282.25 C322.5042749 282.78705566 322.0085498 283.32411133 321.49780273 283.87744141 C320.50520819 284.95271171 319.51253338 286.02790794 318.51977539 287.10302734 C315.90578371 289.9340994 313.29350335 292.76672642 310.68359375 295.6015625 C310.14025391 296.19130859 309.59691406 296.78105469 309.03710938 297.38867188 C307.99753101 298.51710309 306.95844094 299.64598443 305.91992188 300.77539062 C302.14864356 304.86740866 302.14864356 304.86740866 300.19140625 306.61328125 C298.11718453 309.02753932 298.47427491 311.40436635 298.59375 314.4609375 C299.58491779 320.65573616 302.42463407 326.14976535 307.375 330.0625 C311.85685685 333.07295479 316.57380079 335.7313054 321.22143555 338.47729492 C332.25138854 345.05644522 341.74773891 353.16829623 351 362 C351.7425 362.70125 352.485 363.4025 353.25 364.125 C358.32419121 369.04062273 362.674462 374.42388575 367 380 C367.39745894 379.49371346 367.79491789 378.98742693 368.20442104 378.46579838 C381.26756813 362.36803655 381.26756813 362.36803655 391.89444828 361.1800375 C396.76271288 360.98579851 401.57647886 361.12094196 406.44140625 361.33984375 C408.54693284 361.37163604 410.65258706 361.39579464 412.75828552 361.41273499 C418.24441935 361.47699788 423.7226383 361.6433378 429.20568848 361.83270264 C434.82288537 362.00806769 440.44138934 362.08455429 446.06054688 362.16992188 C457.04436497 362.35109317 468.02027994 362.64949904 479 363 C479 368.61 479 374.22 479 380 C476.43782715 379.95697754 473.8756543 379.91395508 471.23583984 379.86962891 C462.72236601 379.73705302 454.20964493 379.68272303 445.69519615 379.66578102 C440.53771858 379.65315966 435.38317176 379.61508971 430.2265625 379.51660156 C425.23938602 379.42232327 420.25608799 379.39784548 415.268116 379.41953659 C413.37595756 379.41592718 411.48366948 379.38815352 409.59226608 379.33458328 C400.10349978 379.08123388 392.87070012 379.2773763 385.5622654 385.87515831 C381.32180981 390.07844044 381.32180981 390.07844044 378 395 C378.1041744 398.87423552 379.67944061 401.47225023 381.5625 404.8125 C399.09842387 439.07955896 397 473.63002106 397 512 C287.77 512 178.54 512 66 512 C66 447.76911482 66 447.76911482 71.6875 428.5 C71.94313721 427.62819092 72.19877441 426.75638184 72.4621582 425.8581543 C78.98059379 404.44931921 90.02081814 385.55120994 105 369 C106.08861328 367.71416016 106.08861328 367.71416016 107.19921875 366.40234375 C118.09956765 353.68862812 131.20319231 344.31203148 145.55859375 335.9140625 C153.53127703 331.2189262 159.77039198 327.38560918 162.6484375 318.27734375 C162.90544434 317.47417725 163.16245117 316.67101074 163.42724609 315.84350586 C163.61625488 315.23514893 163.80526367 314.62679199 164 314 C163.21010178 314.00888245 162.42020355 314.01776489 161.60636902 314.0269165 C154.11931251 314.10745755 146.63246955 314.16816327 139.14509106 314.20724869 C135.29681425 314.2280193 131.44889892 314.25614072 127.60083008 314.30175781 C123.87901123 314.34559623 120.15753746 314.369216 116.43548012 314.37950897 C115.02385345 314.38683294 113.61224313 314.40113267 112.20076561 314.42292023 C98.43811257 314.62668335 87.35297418 311.66250656 77.0625 302.22265625 C70.9881842 295.8210605 66.0591706 286.94063917 65.96963501 277.95140076 C66.01139862 276.75628372 66.05316223 275.56116669 66.09619141 274.32983398 C66.13893809 272.95628222 66.18068988 271.58269923 66.22158813 270.20909119 C66.25535994 269.12000112 66.25535994 269.12000112 66.289814 268.00890923 C66.41826651 263.30168041 66.45977155 258.59275015 66.51114845 253.88415432 C66.56077398 249.7690434 66.64401774 245.66044414 66.80566406 241.5480957 C68.16478381 221.41859785 68.16478381 221.41859785 60.65917969 203.48486328 C56.23323263 198.72122553 51.37722194 194.64846423 46 191 C47.53019636 187.77576216 49.1707736 185.66644867 51.6875 183.125 C63.87947588 169.60056774 65.1825048 154.66527865 65.34906006 137.27709961 C65.53149637 121.26219637 67.35003525 106.70045164 71.57080078 91.23632812 C71.83901642 90.25345825 72.10723206 89.27058838 72.38357544 88.25793457 C72.58699554 87.51281616 72.79041565 86.76769775 73 86 C68.70509653 78.53841193 63.06926223 71.49770134 55 68 C41.67234732 64.42546206 26.61723926 65.9203033 12.97058105 66.30047607 C7.78171828 66.42539428 2.59246869 66.4462424 -2.59765625 66.4765625 C-12.73540475 66.55077155 -22.86511434 66.7478821 -33 67 C-33 55.78 -33 44.56 -33 33 C-27.39 33 -21.78 33 -16 33 C-16 38.28 -16 43.56 -16 49 C-10.72 49 -5.44 49 0 49 C0 32.83 0 16.66 0 0 Z M121.38671875 45.7890625 C119 48 119 48 116.1015625 50.2890625 C101.23607098 62.59788778 90.58769036 83.52142036 86 102 C85.74178467 103.02843018 85.48356934 104.05686035 85.2175293 105.11645508 C82.65796346 116.40481618 82.55637777 127.42120541 82.56420898 138.9543457 C82.54252205 153.80989767 81.21006278 167.61924082 73.75 180.8125 C70.93410216 185.61658162 70.93410216 185.61658162 70 191 C71.38937932 192.13074344 72.78373395 193.25604014 74.20513916 194.34625244 C79.07632677 198.2850095 82.17453114 201.85849643 83.08398438 208.19726562 C83.54724621 214.21709718 83.40954658 220.22027207 83.25 226.25 C83.23800575 228.36325724 83.2314494 230.4765527 83.23046875 232.58984375 C83.21636873 237.7291473 83.1286007 242.86233851 83 248 C88.10444606 248.149376 93.20759444 248.25769283 98.3137207 248.32958984 C100.04701932 248.35958831 101.78016838 248.40040227 103.51293945 248.45263672 C116.29410433 249.08830094 116.29410433 249.08830094 127.5 243.65332031 C131.00564669 239.78934906 132 236.24905912 132 231 C137.61 231 143.22 231 149 231 C146.60259042 242.45429021 143.06296253 252.28243077 133 259 C123.70765295 264.61510851 112.8426502 263.67096419 102.375 263.75 C100.49346256 263.77819875 98.61195026 263.80813155 96.73046875 263.83984375 C92.15369131 263.91324514 87.57721134 263.9631024 83 264 C82.93382978 266.5499101 82.8856735 269.09807888 82.84765625 271.6484375 C82.82723267 272.36443115 82.80680908 273.0804248 82.7857666 273.81811523 C82.71177645 280.44687364 84.415568 285.07943856 89 290 C95.80248806 295.72160913 101.02462117 297.15651725 109.79785156 297.11352539 C110.96915619 297.11374443 110.96915619 297.11374443 112.16412354 297.1139679 C114.73965249 297.11327242 117.31510871 297.10549712 119.890625 297.09765625 C121.67852743 297.09579077 123.46643037 297.09436748 125.2543335 297.09336853 C129.95610978 297.08955357 134.65785508 297.07973198 139.35961914 297.06866455 C144.15901266 297.05842849 148.9584112 297.0538662 153.7578125 297.04882812 C163.1718886 297.03810881 172.58594172 297.02104463 182 297 C181.86746187 300.21523009 181.72377036 303.42987033 181.578125 306.64453125 C181.54090332 307.55078247 181.50368164 308.45703369 181.46533203 309.39074707 C180.91817559 321.16265692 177.420134 332.35229481 169 341 C163.74671468 345.17568834 158.12183768 348.52378806 152.25 351.75 C120.36682432 369.56528695 97.06110099 401.16623256 87 436 C81.59084199 455.64828543 83 474.12743592 83 495 C181.01 495 279.02 495 380 495 C380.68078528 465.85638154 380.68078528 465.85638154 376 438 C375.80164551 437.25266602 375.60329102 436.50533203 375.39892578 435.73535156 C365.54774404 399.48112184 340.32569908 369.31533955 308.19775391 350.57470703 C296.07897223 343.49908845 287.54441822 336.43634253 282.875 322.6875 C281.89802966 318.57026787 281.52476968 314.77800498 281.4375 310.5625 C281.38787109 309.85029297 281.33824219 309.13808594 281.28710938 308.40429688 C281.20020236 303.84788604 282.08157381 301.41141466 285.08203125 297.94921875 C286.37346843 296.61853313 287.67975259 295.30210636 289 294 C290.1969773 292.71751275 291.38974187 291.43107986 292.578125 290.140625 C293.80092963 288.84266214 295.02491739 287.54581301 296.25 286.25 C301.65236904 280.51185663 307.01259914 274.74064591 312.328125 268.921875 C315.18877668 265.79356 318.0611165 262.6763405 320.9375 259.5625 C321.43588379 259.02286621 321.93426758 258.48323242 322.44775391 257.92724609 C324.47173051 255.73607426 326.49612975 253.54529311 328.52050781 251.35449219 C329.02163086 250.81211914 329.52275391 250.26974609 330.0390625 249.7109375 C330.53873535 249.17025635 331.0384082 248.6295752 331.55322266 248.07250977 C332.55913342 246.98280022 333.56401769 245.89214221 334.56787109 244.80053711 C336.96384392 242.19596358 339.37016401 239.60417193 341.8125 237.04296875 C368.09429866 209.30261852 381.15261688 175.91987517 380.3515625 137.68359375 C379.98819687 128.51187931 378.39391677 119.8413985 376 111 C375.67257812 109.73800781 375.34515625 108.47601563 375.0078125 107.17578125 C370.10332835 90.61867235 361.25164783 75.03762367 350 62 C349.18789063 61.03835937 348.37578125 60.07671875 347.5390625 59.0859375 C329.900394 38.88771458 305.93453678 25.38020565 280 19 C279.29803497 18.8266362 278.59606995 18.6532724 277.87283325 18.47465515 C268.66589556 16.51587809 259.47812884 16.69084679 250.11328125 16.69921875 C248.28403122 16.69532167 246.45478207 16.69098495 244.62553406 16.68623352 C240.80379292 16.67880576 236.98214422 16.67903662 233.16040039 16.68432617 C228.30708067 16.69010405 223.45414468 16.67321356 218.60088825 16.6499815 C214.82490393 16.63511401 211.04900914 16.63439018 207.27300072 16.63749123 C205.48596629 16.63698412 203.69892602 16.63186384 201.91192055 16.62167931 C172.12258302 16.47275701 143.45024032 25.03661607 121.38671875 45.7890625 Z " fill="#020202" transform="translate(33,0)"/>
<path d="M0 0 C8.90023131 6.6783476 15.73215246 14.28872197 19 25 C19 25.99 19 26.98 19 28 C17.76636719 28.20302734 17.76636719 28.20302734 16.5078125 28.41015625 C6.2437742 30.38948003 -1.38759422 33.82838764 -7.5 42.5625 C-11.23060885 48.78368434 -12.0811497 53.64919762 -13 61 C-7.39 61 -1.78 61 4 61 C4 58.69 4 56.38 4 54 C5.390625 51.63671875 5.390625 51.63671875 7.25 49.6875 C7.85328125 49.03136719 8.4565625 48.37523437 9.078125 47.69921875 C12.77705769 44.42882094 15.8530489 43.54392861 20.84375 43.68359375 C26.03207401 44.4449239 29.91276368 46.82913012 33.4375 50.625 C36.23792429 54.88164491 36 55.13719635 36 61 C41.61 61 47.22 61 53 61 C51.41100336 50.8882032 49.1161259 43.24919696 40.875 36.75 C34.69120224 31.61523936 33.77681404 25.74822205 33 18 C33 17.01 33 16.02 33 15 C34.41601714 14.51891725 35.83284437 14.04021859 37.25 13.5625 C38.03890625 13.29566406 38.8278125 13.02882813 39.640625 12.75390625 C52.30759474 8.70634804 64.41313459 11.23168839 76.1875 16.75 C88.39990547 23.18754707 96.42581472 33.1716591 101.125 46.15625 C103.39904996 56.1458266 103.26603997 67.26746324 100 77 C99.20078125 77.02578125 98.4015625 77.0515625 97.578125 77.078125 C83.42582401 77.808995 71.38881686 81.74612054 61.625 92.4375 C57.925273 97.09098098 55.29992232 102.19539637 54 108 C55.74816858 108.50636607 57.49862263 109.00484619 59.25 109.5 C60.22453125 109.7784375 61.1990625 110.056875 62.203125 110.34375 C65.17023413 111.15228866 65.17023413 111.15228866 69 111 C69.268125 110.41992188 69.53625 109.83984375 69.8125 109.2421875 C73.27566354 102.33864438 77.39433204 98.21895592 84.359375 94.86328125 C90.82350913 92.75000663 98.54083823 93.04034268 104.875 95.5 C110.90088241 98.63478809 114.61348946 103.5847881 117.9375 109.375 C120.09282402 116.72845843 119.73351082 123.03622081 116.25390625 129.8984375 C112.78495008 135.71245127 109.08911746 139.82119344 102.6875 142.3515625 C97.17068554 143.68265436 91.62548731 143.30996237 86 143 C85.24074219 142.99097656 84.48148438 142.98195312 83.69921875 142.97265625 C78.67296152 142.72866318 74.11505118 141.1169366 69.41015625 139.44140625 C68.66666931 139.17742538 67.92318237 138.91344452 67.15716553 138.64146423 C59.10017535 135.73768468 51.20598872 132.46142112 43.31365967 129.14083862 C38.82535427 127.25294643 34.3302617 125.38132022 29.8359375 123.5078125 C28.92385529 123.12719162 28.01177307 122.74657074 27.072052 122.35441589 C18.19725548 118.65522538 9.29046886 115.03732219 0.375 111.4375 C-2.65254388 110.21403629 -5.67987189 108.99003977 -8.70703125 107.765625 C-9.45953659 107.46125519 -10.21204193 107.15688538 -10.98735046 106.84329224 C-24.14238869 101.517888 -37.26843448 96.12145852 -50.3896637 90.71339417 C-55.08684063 88.779692 -59.79339285 86.87174082 -64.5078125 84.98046875 C-65.61213623 84.53292236 -66.71645996 84.08537598 -67.85424805 83.62426758 C-69.81549719 82.82961148 -71.78017585 82.04332946 -73.74926758 81.26831055 C-81.38648277 78.15109455 -88.29460927 74.34306387 -92.4375 66.9375 C-92.91058594 66.12152344 -93.38367188 65.30554688 -93.87109375 64.46484375 C-96.69949029 58.28934818 -97.2263607 50.85100182 -95.1640625 44.375 C-91.90714764 37.20541562 -87.23216451 32.21226781 -80.25 28.5625 C-71.67244009 27.07792232 -63.39705625 26.93138372 -56 32 C-51.30158448 36.22216288 -47.70975152 40.86500926 -46 47 C-45.77445741 51.36732467 -45.86454617 55.62032613 -46 60 C-40.72 60 -35.44 60 -30 60 C-30.70751897 44.43458264 -32.52659731 32.66500998 -44.4375 21.6875 C-48.08674834 18.58873149 -51.74191395 16.17434181 -56 14 C-52.79896639 6.14291751 -44.09658784 0.27791265 -36.6875 -3.375 C-25.18064968 -7.59002864 -10.31429036 -6.55117408 0 0 Z " fill="#CD9C75" transform="translate(261,55)"/>
<path d="M0 0 C16.5 0 33 0 50 0 C50 5.61 50 11.22 50 17 C44.72 17 39.44 17 34 17 C34 22.94 34 28.88 34 35 C35.2375 33.845 36.475 32.69 37.75 31.5 C41.5 28 41.5 28 46 28 C48.578125 30.1875 48.578125 30.1875 51.25 33 C52.14203125 33.928125 53.0340625 34.85625 53.953125 35.8125 C54.62859375 36.534375 55.3040625 37.25625 56 38 C54.23760158 42.16566899 52.15395214 44.21525743 49 48 C54.61 48.33 60.22 48.66 66 49 C66 43.72 66 38.44 66 33 C71.61 33 77.22 33 83 33 C83 49.5 83 66 83 83 C77.39 83 71.78 83 66 83 C66 77.72 66 72.44 66 67 C57.585 67.495 57.585 67.495 49 68 C49.99 69.0725 50.98 70.145 52 71.25 C54.77237852 74.25341007 55 74.63204596 55 79 C52.8125 81.578125 52.8125 81.578125 50 84.25 C49.071875 85.14203125 48.14375 86.0340625 47.1875 86.953125 C46.465625 87.62859375 45.74375 88.3040625 45 89 C40.83433101 87.23760158 38.78474257 85.15395214 35 82 C34.67 87.61 34.34 93.22 34 99 C39.28 99 44.56 99 50 99 C50 104.61 50 110.22 50 116 C33.5 116 17 116 0 116 C0 110.39 0 104.78 0 99 C5.28 99 10.56 99 16 99 C16 93.06 16 87.12 16 81 C14.7625 82.155 13.525 83.31 12.25 84.5 C8.5 88 8.5 88 4 88 C1.421875 85.8125 1.421875 85.8125 -1.25 83 C-2.14203125 82.071875 -3.0340625 81.14375 -3.953125 80.1875 C-4.62859375 79.465625 -5.3040625 78.74375 -6 78 C-4.01266924 73.63944901 -1.16176183 70.57416555 2 67 C-3.94 67 -9.88 67 -16 67 C-16 72.28 -16 77.56 -16 83 C-21.61 83 -27.22 83 -33 83 C-33 66.5 -33 50 -33 33 C-27.39 33 -21.78 33 -16 33 C-16 38.28 -16 43.56 -16 49 C-10.06 49 -4.12 49 2 49 C0.845 47.7625 -0.31 46.525 -1.5 45.25 C-5 41.5 -5 41.5 -5 37 C-2.8125 34.421875 -2.8125 34.421875 0 31.75 C0.928125 30.85796875 1.85625 29.9659375 2.8125 29.046875 C3.534375 28.37140625 4.25625 27.6959375 5 27 C9.36055099 28.98733076 12.42583445 31.83823817 16 35 C16 29.06 16 23.12 16 17 C10.72 17 5.44 17 0 17 C0 11.39 0 5.78 0 0 Z " fill="#000000" transform="translate(429,231)"/>
<path d="M0 0 C9.84947007 6.34638901 16.84918153 14.64725404 20.6171875 25.83203125 C22.57030043 36.89302797 21.45228437 48.5453106 15.64453125 58.26953125 C14.19743777 60.29856581 12.66258157 62.14465535 11 64 C10.48695313 64.61617188 9.97390625 65.23234375 9.4453125 65.8671875 C3.21215315 72.81611634 -6.72071238 77.29038274 -15.97265625 78.3359375 C-27.77826963 78.48518672 -38.14359478 76.09365261 -47 68 C-48.299375 66.8553125 -48.299375 66.8553125 -49.625 65.6875 C-59.62083186 54.37642711 -62.10032972 43.85251515 -61.20703125 29.05566406 C-60.19075339 18.96479195 -53.370227 11.04361248 -46.3125 4.25 C-33.81839034 -5.94006282 -14.26726751 -8.04456211 0 0 Z " fill="#EB7183" transform="translate(243,368)"/>
<path d="M0 0 C10.24259066 5.1280785 17.71525224 12.3185909 22 23 C22.53560547 24.33417969 22.53560547 24.33417969 23.08203125 25.6953125 C25.59304549 34.73496375 25.41899634 46.36807388 21.2578125 54.8359375 C20.84273438 55.55007813 20.42765625 56.26421875 20 57 C19.34644531 58.16402344 19.34644531 58.16402344 18.6796875 59.3515625 C13.65861726 67.55538765 6.93474669 73.4159096 -2 77 C-2.87914062 77.35707031 -3.75828125 77.71414063 -4.6640625 78.08203125 C-13.83776013 80.6064094 -26.23935179 80.58535475 -34.84375 76.34375 C-38.7978891 73.87957636 -42.75936885 71.37370054 -46 68 C-46 67.01 -46 66.02 -46 65 C-44.55644851 63.75329644 -43.1058151 62.51259044 -41.6015625 61.33984375 C-39.3863909 59.4866636 -37.71622815 57.31030713 -36 55 C-33.39406936 56.25084671 -30.8805129 57.62405314 -28.375 59.0625 C-22.67944113 62.33217269 -18.55365701 62.6233333 -12 62 C-4.05792634 59.76211094 0.7928125 55.46731981 4.8125 48.3125 C7.7015395 42.12170107 8.30343453 36.88159358 6.11328125 30.359375 C3.14346229 23.76854753 -0.78065679 19.20335152 -7.19921875 15.8515625 C-10.91759615 14.72100982 -14.46931399 14.78570345 -18.3125 14.875 C-19.42334961 14.88853516 -19.42334961 14.88853516 -20.55664062 14.90234375 C-22.37123467 14.92575787 -24.18566071 14.96162385 -26 15 C-26.20496094 14.09636719 -26.40992188 13.19273437 -26.62109375 12.26171875 C-26.89050781 11.08222656 -27.15992188 9.90273438 -27.4375 8.6875 C-27.70433594 7.51574219 -27.97117187 6.34398437 -28.24609375 5.13671875 C-28.95313969 1.99763029 -28.95313969 1.99763029 -30 -1 C-20.75109851 -5.27527491 -9.2831889 -3.50449702 0 0 Z " fill="#EA7182" transform="translate(306,383)"/>
<path d="M0 0 C7.00073461 4.01165691 10.95342229 8.98765475 13.15625 16.75 C14.55450462 23.27518824 13.49060148 29.00233964 10.625 34.9375 C6.62985707 41.06555121 1.80291951 45.20527206 -5.375 46.9375 C-13.00939982 47.83676673 -20.13815487 47.83102464 -26.375 42.9375 C-32.57483415 37.16351305 -36.40255504 31.25014908 -36.875 22.625 C-36.65803798 15.75768049 -34.2917757 10.22147074 -29.73046875 5.0859375 C-21.32509822 -2.61740434 -10.50936015 -4.80292025 0 0 Z " fill="#030102" transform="translate(234.375,382.0625)"/>
<path d="M0 0 C33 0 66 0 100 0 C100 5.94 100 11.88 100 18 C67 18 34 18 0 18 C0 12.06 0 6.12 0 0 Z " fill="#000000" transform="translate(0,379)"/>
<path d="M0 0 C33 0 66 0 100 0 C100 5.94 100 11.88 100 18 C67 18 34 18 0 18 C0 12.06 0 6.12 0 0 Z " fill="#000000" transform="translate(0,346)"/>
<path d="M0 0 C33 0 66 0 100 0 C100 5.94 100 11.88 100 18 C67 18 34 18 0 18 C0 12.06 0 6.12 0 0 Z " fill="#000000" transform="translate(0,313)"/>
<path d="M0 0 C27.39 0 54.78 0 83 0 C83 5.94 83 11.88 83 18 C55.61 18 28.22 18 0 18 C0 12.06 0 6.12 0 0 Z " fill="#000000" transform="translate(0,280)"/>
<path d="M0 0 C27.39 0 54.78 0 83 0 C83 5.94 83 11.88 83 18 C55.61 18 28.22 18 0 18 C0 12.06 0 6.12 0 0 Z " fill="#000000" transform="translate(0,247)"/>
<path d="M0 0 C22.11 0 44.22 0 67 0 C67 5.61 67 11.22 67 17 C44.89 17 22.78 17 0 17 C0 11.39 0 5.78 0 0 Z " fill="#000000" transform="translate(445,429)"/>
<path d="M0 0 C22.11 0 44.22 0 67 0 C67 5.61 67 11.22 67 17 C44.89 17 22.78 17 0 17 C0 11.39 0 5.78 0 0 Z " fill="#000000" transform="translate(445,396)"/>
<path d="M0 0 C5.94 0 11.88 0 18 0 C18 5.61 18 11.22 18 17 C12.06 17 6.12 17 0 17 C0 11.39 0 5.78 0 0 Z " fill="#000000" transform="translate(478,462)"/>
<path d="M0 0 C5.94 0 11.88 0 18 0 C18 5.61 18 11.22 18 17 C12.06 17 6.12 17 0 17 C0 11.39 0 5.78 0 0 Z " fill="#000000" transform="translate(445,462)"/>
<path d="M0 0 C5.61 0 11.22 0 17 0 C17 5.94 17 11.88 17 18 C11.39 18 5.78 18 0 18 C0 12.06 0 6.12 0 0 Z " fill="#000000" transform="translate(66,412)"/>
<path d="M0 0 C5.61 0 11.22 0 17 0 C17 5.94 17 11.88 17 18 C11.39 18 5.78 18 0 18 C0 12.06 0 6.12 0 0 Z " fill="#000000" transform="translate(33,412)"/>
<path d="M0 0 C5.61 0 11.22 0 17 0 C17 5.94 17 11.88 17 18 C11.39 18 5.78 18 0 18 C0 12.06 0 6.12 0 0 Z " fill="#000000" transform="translate(0,412)"/>
<path d="M0 0 C5.61 0 11.22 0 17 0 C17 5.94 17 11.88 17 18 C11.39 18 5.78 18 0 18 C0 12.06 0 6.12 0 0 Z " fill="#000000" transform="translate(66,115)"/>
<path d="M0 0 C5.61 0 11.22 0 17 0 C17 5.94 17 11.88 17 18 C11.39 18 5.78 18 0 18 C0 12.06 0 6.12 0 0 Z " fill="#000000" transform="translate(33,115)"/>
<path d="M0 0 C5.61 0 11.22 0 17 0 C17 5.94 17 11.88 17 18 C11.39 18 5.78 18 0 18 C0 12.06 0 6.12 0 0 Z " fill="#000000" transform="translate(0,115)"/>
<path d="M0 0 C2.375 1.625 2.375 1.625 4 4 C4.5625 7.4375 4.5625 7.4375 4 11 C1.55401113 14.38121991 0.10703441 15.76936783 -4 16.625 C-8.10703441 15.76936783 -9.55401113 14.38121991 -12 11 C-12.5625 7.4375 -12.5625 7.4375 -12 4 C-8.27771943 -0.71488872 -5.77958862 -1.50269304 0 0 Z " fill="#E46E7F" transform="translate(227,397)"/>
<path d="M0 0 C2.375 1.625 2.375 1.625 4 4 C4.55921637 7.91451456 4.63274809 10.0382229 2.4375 13.375 C-0.85492184 15.5699479 -3.04169355 16.06944397 -7 16 C-9.9375 14 -9.9375 14 -12 11 C-12.5625 7.4375 -12.5625 7.4375 -12 4 C-8.27771943 -0.71488872 -5.77958862 -1.50269304 0 0 Z " fill="#E56E7F" transform="translate(260,331)"/>
<path d="M0 0 C4.10703441 0.85563217 5.55401113 2.24378009 8 5.625 C8.62491523 9.58279649 8.61006839 11.63363886 6.5 15.0625 C3.46813683 16.95741448 1.43919544 17.26536692 -2.09375 17.07421875 C-4 16.625 -4 16.625 -6.5 14.5 C-8.27801176 11.09214413 -8.70960213 9.40954468 -8 5.625 C-5.54405875 2.30225596 -4.0743356 0.84881992 0 0 Z " fill="#E97082" transform="translate(289,412.375)"/>
<path d="M0 0 C3.8425303 0.72047443 5.45767292 1.57152696 8 4.5625 C8.66017005 7.36391726 8.60984064 9.75493175 8 12.5625 C6.4375 15.0625 6.4375 15.0625 4 16.5625 C0.5625 17.125 0.5625 17.125 -3 16.5625 C-6.38121991 14.11651113 -7.76936783 12.66953441 -8.625 8.5625 C-7.58351809 3.56338683 -5.03644185 0.94433285 0 0 Z " fill="#5AD1AF" transform="translate(454,280.4375)"/>
</svg>
