<?xml version="1.0" encoding="UTF-8"?>
<svg version="1.1" xmlns="http://www.w3.org/2000/svg" width="512" height="512">
<path d="M0 0 C0.97299042 -0.00671722 1.94598083 -0.01343445 2.94845581 -0.02035522 C6.16189699 -0.03933756 9.3751293 -0.04325965 12.58862305 -0.04541016 C14.82675766 -0.05183821 17.06489144 -0.05856658 19.30302429 -0.06558228 C23.99451648 -0.07755585 28.68593502 -0.08126304 33.37744141 -0.08007812 C39.3796754 -0.079875 45.38143556 -0.10717021 51.38355732 -0.14162254 C56.00677139 -0.16389575 60.62987154 -0.16791552 65.25313377 -0.16685867 C67.46545226 -0.16921425 69.67777391 -0.17803531 71.89003944 -0.19352341 C74.98952721 -0.21319006 78.08799467 -0.20734204 81.1875 -0.1953125 C82.09530716 -0.20655151 83.00311432 -0.21779053 83.93843079 -0.22937012 C89.3305612 -0.17637761 92.98993354 0.69428624 97.63048077 3.49364281 C99.40376169 4.55922765 99.40376169 4.55922765 101.9753418 3.66552734 C103.1200293 2.98490234 103.1200293 2.98490234 104.2878418 2.29052734 C108.26355195 0.39009259 111.46826886 0.02906907 115.85961914 0 C117.17223724 -0.0127597 118.48485535 -0.02551941 119.83724976 -0.03866577 C121.26609143 -0.04172613 122.69493509 -0.04395244 124.1237793 -0.04541016 C125.60527675 -0.05184736 127.08677295 -0.05857639 128.56826782 -0.06558228 C131.67680802 -0.07754914 134.78523723 -0.08126435 137.89379883 -0.08007812 C141.83504605 -0.07987642 145.77556005 -0.10702478 149.71663475 -0.14162254 C152.78145459 -0.16412166 155.84610542 -0.16790853 158.9109993 -0.16685867 C160.3611564 -0.16918616 161.81132029 -0.17784429 163.2613945 -0.19352341 C176.48884578 -0.32300738 188.87014253 1.81748232 200.6628418 8.10302734 C201.32711182 8.4463208 201.99138184 8.78961426 202.67578125 9.14331055 C210.15959136 13.11694223 216.51414231 18.08380039 222.2878418 24.29052734 C222.95428711 24.95181641 223.62073242 25.61310547 224.30737305 26.29443359 C234.51983438 36.85484931 240.03862197 49.08207453 243.2878418 63.29052734 C243.55234383 64.38210144 243.55234383 64.38210144 243.82218933 65.49572754 C244.40870284 69.01592331 244.43232579 72.47352364 244.4296875 76.03076172 C244.43489914 77.17560783 244.43489914 77.17560783 244.44021606 78.34358215 C244.44754607 79.99465717 244.45290607 81.64574186 244.45650673 83.29682922 C244.46369783 85.91146762 244.4793823 88.52592114 244.49784851 91.14050293 C244.55020669 98.57215917 244.59831839 106.00370995 244.61376953 113.43554688 C244.62385058 117.98673583 244.65317104 122.53745275 244.69508934 127.0884552 C244.70739545 128.82034231 244.7125213 130.55229607 244.71029091 132.28422546 C244.70793781 134.70676124 244.73010071 137.12794058 244.7578125 139.55029297 C244.75121109 140.26316971 244.74460968 140.97604645 244.73780823 141.71052551 C244.82871607 146.55474596 246.02459905 148.79007602 249.2878418 152.29052734 C253.39606591 160.21353099 253.85812497 169.76624286 251.4206543 178.34130859 C250.74945768 179.99480391 250.03515642 181.63212174 249.26049805 183.23974609 C248.27365937 185.32043006 247.58101717 187.00375941 247.2878418 189.29052734 C247.98808292 191.34031744 247.98808292 191.34031744 249.1628418 193.29052734 C253.0660421 200.27807473 252.93389038 207.40193412 252.2878418 215.29052734 C251.48619249 218.08901221 250.50983227 220.58054018 249.26049805 223.20458984 C248.28490209 225.29683177 247.58225949 226.99859885 247.2878418 229.29052734 C247.98808292 231.34031744 247.98808292 231.34031744 249.1628418 233.29052734 C253.0660421 240.27807473 252.93389038 247.40193412 252.2878418 255.29052734 C251.48619249 258.08901221 250.50983227 260.58054018 249.26049805 263.20458984 C248.28490209 265.29683177 247.58225949 266.99859885 247.2878418 269.29052734 C247.98808292 271.34031744 247.98808292 271.34031744 249.1628418 273.29052734 C253.26535215 280.63488154 253.63784434 289.82661172 251.62768555 297.96240234 C251.39178711 298.71005859 251.15588867 299.45771484 250.9128418 300.22802734 C250.27947891 302.29918072 250.27947891 302.29918072 250.2878418 304.29052734 C251.51001083 306.30351164 252.95833743 307.77383602 254.6159668 309.44287109 C260.42521015 315.86289938 261.03016382 324.21180295 260.8112793 332.52099609 C259.86955055 339.30284867 257.10210672 345.67658336 252.0378418 350.38037109 C251.4603418 351.01072266 250.8828418 351.64107422 250.2878418 352.29052734 C250.69326795 354.38522916 251.12346406 356.47861597 251.6862793 358.53662109 C253.68959543 367.70764623 253.12619526 377.15137298 248.2878418 385.29052734 C245.62558923 388.9040256 242.92876354 392.26202103 239.1003418 394.66162109 C237.03217427 396.18530901 237.03217427 396.18530901 236.8190918 398.89208984 C236.8087793 399.88982422 236.7984668 400.88755859 236.7878418 401.91552734 C236.23889787 411.8203851 232.38359802 418.46309804 225.2878418 425.29052734 C220.54643666 429.35164392 215.91587281 432.21958819 209.4909668 432.34521484 C203.43123758 432.32269453 203.43123758 432.32269453 198.2019043 434.95458984 C197.05095246 436.34510631 195.93814393 437.76809144 194.8659668 439.22021484 C191.09967471 444.16114259 186.20036929 446.67543259 180.2878418 448.29052734 C171.91346135 448.99295359 164.97617488 448.62697378 157.2878418 445.29052734 C152.5736744 445.86224552 148.39578817 448.74070978 144.26049805 450.91552734 C137.7097206 453.94558472 131.2580367 453.79437076 124.2878418 452.29052734 C124.31402588 453.51046387 124.34020996 454.73040039 124.3671875 455.98730469 C124.45831652 460.55319571 124.51531721 465.11900787 124.5625 469.68554688 C124.58750226 471.65443481 124.62151579 473.62323127 124.66503906 475.59179688 C125.15050869 498.12901032 125.15050869 498.12901032 117.47265625 506.19824219 C111.20364713 512.12295998 105.17051194 512.74893162 96.73706055 512.59912109 C89.50625821 511.95219767 85.2657768 508.84951228 80.61206055 503.46240234 C76.21408009 496.24919546 75.86905046 489.73280344 75.91674805 481.48583984 C75.89936627 479.18766127 75.88178188 476.88948422 75.86401367 474.59130859 C75.85395365 471.00159884 75.85034348 467.41198888 75.85205078 463.82226562 C75.84846239 460.33482779 75.82105456 456.84814264 75.79174805 453.36083984 C75.79993057 452.30011261 75.8081131 451.23938538 75.81654358 450.14651489 C75.74813775 443.23131375 74.68826803 437.39381343 71.2878418 431.29052734 C69.11269676 429.35902388 69.11269676 429.35902388 66.5378418 428.60302734 C56.29680683 424.26564783 50.64565704 416.98182491 46.25268555 406.91943359 C42.71267826 396.89215715 43.18080523 386.48771788 47.11987305 376.69287109 C48.36819769 374.12524683 49.78031653 371.71379861 51.2878418 369.29052734 C50.38163086 369.13197266 49.47541992 368.97341797 48.54174805 368.81005859 C37.3850801 366.67317299 37.3850801 366.67317299 32.9128418 363.66552734 C28.24236448 360.71899269 23.41425022 360.66053039 18.04614258 360.56738281 C13.75422484 360.48413668 10.28824175 359.85211426 6.2878418 358.29052734 C5.9578418 359.61052734 5.6278418 360.93052734 5.2878418 362.29052734 C5.9890918 362.37302734 6.6903418 362.45552734 7.4128418 362.54052734 C15.53342967 364.65894157 21.08812128 371.29901729 25.2175293 378.25927734 C28.41218238 384.32212261 28.9406654 390.56540802 28.2878418 397.29052734 C27.73528451 398.77343689 27.17302531 400.25277351 26.6003418 401.72802734 C25.88525399 403.94767786 25.88525399 403.94767786 26.2878418 406.29052734 C28.73421088 409.37685569 31.46218734 411.88996916 34.3737793 414.52490234 C39.39944468 419.1218227 43.09966806 424.86038529 44.4128418 431.60302734 C44.2878418 435.29052734 44.2878418 435.29052734 42.8503418 438.29052734 C39.95837755 440.54767017 37.91378621 441.08784414 34.23706055 440.82958984 C30.72567956 439.85850653 29.12806917 437.21218703 27.2878418 434.29052734 C23.46073029 428.25960163 19.95373683 423.70992547 14.2878418 419.29052734 C13.2153418 419.92990234 12.1428418 420.56927734 11.0378418 421.22802734 C3.69016242 425.60837467 -6.22820439 425.60604228 -14.4152832 423.64208984 C-22.36383514 420.39040951 -29.70175588 413.92772828 -33.7121582 406.29052734 C-34.5246582 402.85302734 -34.5246582 402.85302734 -34.7121582 400.29052734 C-36.4137207 400.38333984 -36.4137207 400.38333984 -38.1496582 400.47802734 C-47.36594414 400.38084331 -52.96108612 396.87149641 -59.54418945 390.56396484 C-66.91196393 382.8377581 -68.00027506 375.46424499 -67.9387207 364.98974609 C-67.74361844 361.80419713 -67.28241918 359.30809124 -66.3371582 356.29052734 C-65.70402301 354.2509223 -65.70402301 354.2509223 -65.7121582 352.29052734 C-66.93063283 350.24779048 -68.36807023 348.75933172 -70.0402832 347.07177734 C-75.96565034 340.75876937 -76.3451402 333.28132768 -76.0949707 324.95068359 C-75.3591503 317.91533953 -73.32426987 312.749454 -68.3371582 307.72802734 C-66.12305635 305.40566457 -66.12305635 305.40566457 -65.7746582 302.35302734 C-66.16633782 300.87334877 -66.59084525 299.40213507 -67.0402832 297.93896484 C-69.16740299 289.55415546 -68.37801959 281.13351935 -64.68481445 273.37646484 C-63.7092185 271.28422291 -63.0065759 269.58245584 -62.7121582 267.29052734 C-63.41239933 265.24073724 -63.41239933 265.24073724 -64.5871582 263.29052734 C-68.4903585 256.30297995 -68.35820679 249.17912056 -67.7121582 241.29052734 C-66.91050889 238.49204248 -65.93414868 236.00051451 -64.68481445 233.37646484 C-63.7092185 231.28422291 -63.0065759 229.58245584 -62.7121582 227.29052734 C-63.41239933 225.24073724 -63.41239933 225.24073724 -64.5871582 223.29052734 C-68.49019578 216.30327127 -68.35888652 209.17891084 -67.7121582 201.29052734 C-66.90988652 198.52269004 -65.93723964 196.06426207 -64.68481445 193.47412109 C-63.59669351 191.03131143 -62.98864841 188.95334071 -62.7121582 186.29052734 C-63.39063671 184.37641662 -63.39063671 184.37641662 -64.5871582 182.72802734 C-69.01124685 176.03001901 -68.27396261 168.02737661 -67.7121582 160.29052734 C-65.70313439 151.91556061 -59.75445923 145.06149666 -52.6496582 140.41552734 C-49.45925604 138.56845241 -46.2784677 137.27126245 -42.7121582 136.29052734 C-43.0421582 135.21802734 -43.3721582 134.14552734 -43.7121582 133.04052734 C-45.83091485 124.42831508 -45.69801355 115.3242747 -41.7121582 107.29052734 C-40.82457728 106.04019596 -39.90809103 104.80981629 -38.9621582 103.60302734 C-37.09675766 101.14766579 -36.7121582 100.62683349 -36.7121582 97.41552734 C-37.7701125 94.10942017 -38.82768586 90.80647228 -39.9934082 87.53662109 C-43.75758079 75.77358176 -42.63808967 62.49235401 -37.7121582 51.29052734 C-35.13000915 46.52163953 -32.54124132 41.89097507 -28.4309082 38.29443359 C-27.58012695 37.3025 -27.58012695 37.3025 -26.7121582 36.29052734 C-26.87104965 33.851055 -26.87104965 33.851055 -27.7121582 31.29052734 C-28.50866509 22.60860229 -28.08092566 15.42737447 -22.7121582 8.29052734 C-15.79073801 1.57842429 -9.38760428 -0.00931048 0 0 Z M168.2878418 141.29052734 C169.03381143 148.75022364 170.65530308 155.98003952 172.2878418 163.29052734 C173.04452148 162.98373047 173.80120117 162.67693359 174.58081055 162.36083984 C177.45168854 161.22574523 180.35289881 160.24609018 183.2878418 159.29052734 C180.03862574 152.79209523 174.9312935 144.61225319 168.2878418 141.29052734 Z " fill="#020101" transform="translate(163.712158203125,-0.29052734375)"/>
<path d="M0 0 C0.89978073 -0.00554901 1.79956146 -0.01109802 2.72660828 -0.01681519 C5.69523695 -0.02860769 8.66233789 -0.00434019 11.63085938 0.02148438 C13.69681733 0.02319565 15.76277745 0.02312963 17.82873535 0.0213623 C22.15638023 0.02301533 26.48350697 0.04171049 30.81103516 0.07324219 C36.35618814 0.11291946 41.90066248 0.11728726 47.44593048 0.10977936 C51.71134652 0.10670872 55.97661021 0.11883359 60.24198914 0.13591003 C62.28650456 0.1429376 64.33103725 0.14606486 66.37556458 0.1452179 C69.23376629 0.14701712 72.09115734 0.16840986 74.94921875 0.1953125 C75.79300583 0.1923819 76.63679291 0.18945129 77.50614929 0.18643188 C82.13993419 0.25367163 85.22633048 0.59383252 88.97460938 3.61523438 C91.2740614 7.06441241 91.22511131 8.35396535 91.22998047 12.41601562 C91.23693939 13.60735107 91.24389832 14.79868652 91.25106812 16.02612305 C91.25007111 17.31365479 91.2490741 18.60118652 91.24804688 19.92773438 C91.25660503 21.26148449 91.26660458 22.59522606 91.27798462 23.92895508 C91.32424928 29.59224306 91.34887247 35.25547483 91.35546875 40.91894531 C91.36047909 44.38504804 91.3847004 47.85058619 91.42079544 51.3164978 C91.43537105 53.27905965 91.42794844 55.2417448 91.42025757 57.2043457 C91.43352081 58.39568115 91.44678406 59.5870166 91.46044922 60.81445312 C91.46329926 61.86463623 91.46614929 62.91481934 91.46908569 63.99682617 C91.74533903 66.72776463 91.74533903 66.72776463 93.81533813 68.48168945 C96.02026213 69.86082411 96.02026213 69.86082411 99.03710938 69.55273438 C102.49333518 68.44968359 103.18122335 67.70141297 104.97460938 64.61523438 C105.41108055 61.86742762 105.41108055 61.86742762 105.32763672 58.82446289 C105.33312027 57.07728722 105.33312027 57.07728722 105.3387146 55.29481506 C105.32941925 54.0405925 105.3201239 52.78636993 105.31054688 51.49414062 C105.31985586 49.52007488 105.3291934 47.54600877 105.3402195 45.57195187 C105.36264278 40.70802797 105.35267111 35.84414676 105.33496094 30.98022461 C105.32614812 28.24904815 105.33059699 25.51846724 105.3487854 22.78733826 C105.36470422 20.21646921 105.36000603 17.64537259 105.33261108 15.07460022 C105.37397065 10.22467824 105.42610621 6.66720325 107.68725586 2.33056641 C113.00899771 -0.44630387 118.25914293 -0.11697787 124.17382812 -0.08398438 C125.478022 -0.09113968 126.78221588 -0.09829498 128.12593079 -0.10566711 C130.89258742 -0.11754506 133.65844004 -0.11086359 136.42504883 -0.09155273 C139.91655499 -0.06894586 143.4056025 -0.09567865 146.89687157 -0.13584995 C170.46435029 -0.36966242 189.83095891 2.50600196 207.59179688 19.20898438 C221.08579663 32.83571199 227.39122902 48.91608422 227.3144989 68.03753662 C227.29918938 69.43323121 227.28354157 70.82892212 227.26757812 72.22460938 C227.26196715 73.68719035 227.25770417 75.14977704 227.25471497 76.61236572 C227.24338406 80.41984245 227.21402186 84.22696342 227.18060303 88.03430176 C227.14964507 91.93623038 227.13615527 95.83821775 227.12109375 99.74023438 C227.08913778 107.36539472 227.03808842 114.99026428 226.97460938 122.61523438 C225.94907959 122.59638184 224.9235498 122.5775293 223.86694336 122.55810547 C222.50570145 122.54285674 221.1444543 122.52806995 219.78320312 122.51367188 C219.10914429 122.50005615 218.43508545 122.48644043 217.74060059 122.47241211 C208.93471016 122.40263059 203.35398399 125.93858217 196.70117188 131.34570312 C194.97460938 132.61523438 194.97460938 132.61523438 191.97460938 133.61523438 C191.50152344 132.92558594 191.0284375 132.2359375 190.54101562 131.52539062 C171.39641615 104.31990716 143.67633124 99.01353409 113.2177124 91.55584717 C109.38454408 90.61549056 105.5536925 89.66579501 101.72265625 88.71679688 C96.72478435 87.47953542 91.72626528 86.2450087 86.72611046 85.01700401 C84.1419625 84.38194075 81.55844408 83.74432869 78.97485542 83.10699463 C76.84910335 82.58437873 74.72221675 82.0665269 72.59532166 81.54858398 C71.15579958 81.19512274 69.71630991 80.84152952 68.27685547 80.48779297 C67.61399505 80.32762884 66.95113462 80.16746471 66.26818752 80.00244713 C61.41570436 78.80410928 57.04980301 77.24059518 52.66210938 74.86523438 C52.00243164 74.52016846 51.34275391 74.17510254 50.66308594 73.81958008 C33.40331167 64.56126229 19.93481474 49.76216637 6.22558594 36.05151367 C3.82440829 33.6525566 1.4152884 31.26176003 -0.99414062 28.87109375 C-2.52848219 27.33968089 -4.06235409 25.80779728 -5.59570312 24.27539062 C-6.31331818 23.56496109 -7.03093323 22.85453156 -7.77029419 22.12257385 C-8.43213715 21.45765427 -9.0939801 20.79273468 -9.77587891 20.10766602 C-10.35701447 19.52795547 -10.93815002 18.94824493 -11.53689575 18.35096741 C-14.20647743 15.23796972 -15.03817068 13.31813731 -14.96289062 9.17773438 C-12.75917104 0.80359994 -7.64630591 -0.12019007 0 0 Z " fill="#825050" transform="translate(166.025390625,14.384765625)"/>
<path d="M0 0 C2.91355621 4.37033432 3.62643539 7.80953531 3 13 C1.51050778 17.26827609 -0.07096636 20.28702069 -3.6875 23.0625 C-6.29666544 24.87867641 -6.29666544 24.87867641 -6.91796875 28.26171875 C-7.022498 33.02526591 -5.79890575 34.2928842 -2.625 37.75 C0.91874223 41.67773907 2.78616746 43.81890805 3.3125 49.1875 C2.79734275 55.47241844 0.40219128 59.90275056 -4.25 64.125 C-7.2804897 66.73058544 -7.2804897 66.73058544 -7.4375 70.1875 C-7.06900376 73.07073971 -7.06900376 73.07073971 -6 76 C-5.401875 76.28875 -4.80375 76.5775 -4.1875 76.875 C-0.31920306 78.86440986 1.65012391 81.95037173 3 86 C3.59444047 92.06329276 2.11451688 95.95003335 -1 101 C-1.598125 101.680625 -2.19625 102.36125 -2.8125 103.0625 C-4.25420625 105.09572828 -4.25420625 105.09572828 -4.3125 108.3125 C-2.54976156 113.26495561 0.23224954 114.48719284 4.54296875 117.25 C8.16163278 119.82736325 9.37720136 121.86923982 11 126 C11.85590661 131.88435791 10.2456781 136.17363451 7 141 C4.5050783 143.36697699 2.34672283 144.83451865 -0.75 146.3125 C-3.27922765 147.89612217 -3.27922765 147.89612217 -4.1875 151.125 C-3.92029334 156.6472709 -1.24389816 159.69525947 2 164 C3.56428238 167.12856476 3.28007086 169.52712131 3 173 C0.6861456 179.75293376 -2.82047077 183.37906353 -9.1875 186.625 C-10.115625 187.07875 -11.04375 187.5325 -12 188 C-14.32483785 189.88375675 -14.32483785 189.88375675 -14.1875 193 C-14.20079609 195.92386603 -14.20079609 195.92386603 -13 198 C-12.46506177 204.82046242 -13.9631445 209.52274331 -18.3125 214.8125 C-23.2418928 218.82479646 -27.74756936 219.36779004 -34 219 C-34.33 218.67 -34.66 218.34 -35 218 C-39.59679664 217.46142258 -39.59679664 217.46142258 -43.60546875 219.26953125 C-45.07553231 221.09372776 -45.98261374 222.80232515 -46.9375 224.9375 C-49.13313401 229.45304919 -51.11553655 232.16246069 -55.8125 234.25 C-61.4309975 235.57199941 -65.22117896 235.74653262 -70.1875 232.6875 C-72.28256053 231.27202724 -74.19961431 229.82974073 -76.125 228.1875 C-79.06459204 226.32575837 -80.5972861 226.25140294 -84 227 C-85.5093368 228.67099574 -85.5093368 228.67099574 -86.875 230.75 C-89.98037408 235.21793618 -92.59638866 237.77043574 -98 239 C-101.42106779 239.08310286 -104.77696384 239.09567325 -108.18896484 238.85351562 C-113.40107841 238.58460152 -116.02912893 239.67031774 -120 243 C-123.196383 246.02123374 -124.2605167 248.21475181 -124.48242188 252.51147461 C-124.49662708 254.30838062 -124.49091052 256.10551824 -124.46875 257.90234375 C-124.47579956 258.85766495 -124.48284912 259.81298615 -124.4901123 260.79725647 C-124.51956395 264.87271103 -124.50297594 268.94768563 -124.49072266 273.02319336 C-124.48833894 276.00403284 -124.50927633 278.9841002 -124.53125 281.96484375 C-124.51993042 282.88063705 -124.50861084 283.79643036 -124.49694824 284.73997498 C-124.54198544 290.45786712 -125.23288918 293.6224452 -129 298 C-131.88861709 299.44430855 -133.79647701 299.37688506 -137 299 C-139.57285724 296.827365 -141.48996919 295.02006162 -143 292 C-143.08875839 290.31207348 -143.11473036 288.62067215 -143.11010742 286.93041992 C-143.11068649 285.87138962 -143.11126556 284.81235931 -143.11186218 283.72123718 C-143.10869743 281.99330681 -143.10869743 281.99330681 -143.10546875 280.23046875 C-143.11893796 277.78970477 -143.13396348 275.34894899 -143.15039062 272.90820312 C-143.17311374 269.06164425 -143.18759294 265.21600093 -143.17504883 261.36938477 C-142.60190364 243.16996276 -142.60190364 243.16996276 -148.6550293 226.43261719 C-151.01869574 222.15750874 -150.9067345 217.71191944 -150 213 C-147.62645691 208.16500481 -144.35937541 204.17613353 -139.13671875 202.34765625 C-136.76513369 201.75367608 -134.41862125 201.35923639 -132 201 C-130.9584375 200.81824219 -129.916875 200.63648438 -128.84375 200.44921875 C-123.06439974 199.67278735 -119.13744114 199.29803108 -114.25 202.75 C-113.63640625 203.28109375 -113.0228125 203.8121875 -112.390625 204.359375 C-105.16330671 209.31929932 -97.19558273 209.49488131 -88.6875 209.4375 C-87.61693359 209.45748047 -86.54636719 209.47746094 -85.44335938 209.49804688 C-84.41404297 209.49740234 -83.38472656 209.49675781 -82.32421875 209.49609375 C-81.39697998 209.49794678 -80.46974121 209.4997998 -79.5144043 209.50170898 C-76.23479072 208.84731478 -75.04032156 207.60118218 -73 205 C-72.5513946 201.85976223 -72.30017193 199.95908641 -74.20996094 197.34179688 C-76.59191633 195.55630494 -78.11877973 195.61697711 -81.078125 195.59375 C-82.57279297 195.56087891 -82.57279297 195.56087891 -84.09765625 195.52734375 C-85.13792969 195.51832031 -86.17820312 195.50929688 -87.25 195.5 C-94.23195223 195.43852369 -99.76006947 195.31386141 -106 192 C-105.42137365 188.09427217 -103.47900791 185.98939189 -101 183 C-100.59966553 182.13455566 -100.19933105 181.26911133 -99.78686523 180.37744141 C-98 178 -98 178 -94.96899414 177.38818359 C-93.75332764 177.39156738 -92.53766113 177.39495117 -91.28515625 177.3984375 C-90.63300644 177.39043121 -89.98085663 177.38242493 -89.3089447 177.37417603 C-87.22616406 177.35110373 -85.14533322 177.36056428 -83.0625 177.375 C-80.98360189 177.37885204 -78.9055684 177.37536741 -76.82676697 177.35440063 C-74.93806024 177.33678088 -73.04916902 177.3442732 -71.16040039 177.35302734 C-67.7665149 176.97391893 -66.39077787 176.38968552 -64 174 C-63.27491571 171.11679083 -63.66361924 169.02742688 -64 166 C-67.53564463 163.64290358 -69.22025255 163.69990265 -73.41796875 163.5859375 C-74.67158203 163.54726563 -75.92519531 163.50859375 -77.21679688 163.46875 C-78.52712891 163.4378125 -79.83746094 163.406875 -81.1875 163.375 C-82.5228116 163.33680662 -83.85809892 163.29775409 -85.19335938 163.2578125 C-88.46209888 163.16340847 -91.73083064 163.07782983 -95 163 C-95.06058594 162.27554688 -95.12117188 161.55109375 -95.18359375 160.8046875 C-95.26738281 159.83789062 -95.35117187 158.87109375 -95.4375 157.875 C-95.51871094 156.92367187 -95.59992188 155.97234375 -95.68359375 154.9921875 C-96.00347645 151.96712397 -96.47121577 148.99496277 -97 146 C-92.32276886 145.87539142 -87.64652636 145.78519377 -82.96801758 145.7253418 C-81.38028103 145.70036472 -79.79265748 145.66637019 -78.20532227 145.62280273 C-60.94879398 145.16139823 -60.94879398 145.16139823 -54 151 C-48.44341866 156.30316497 -44.96547052 161.97299644 -44.5 169.8125 C-44.75101246 177.32005448 -48.25770298 183.3085236 -53.3125 188.6875 C-55.74222165 191.33639757 -55.99107742 191.94051615 -56.5625 195.75 C-56.19353279 198.88645582 -56.19353279 198.88645582 -54.9375 201 C-51.6805923 202.68098462 -49.46192393 201.93882683 -46 201 C-37.859071 195.84961635 -33.63690272 186.95208887 -31.46875 177.7890625 C-29.64624648 166.94516657 -31.21504505 157.65689944 -37.5625 148.625 C-38.16191406 147.83351563 -38.76132812 147.04203125 -39.37890625 146.2265625 C-40.84873497 144.20776161 -41.96117117 142.26371655 -43 140 C-37.375 136.125 -37.375 136.125 -34 135 C-33.29325371 133.68747118 -32.63815344 132.34721283 -32 131 C-31.21625 130.01 -30.4325 129.02 -29.625 128 C-23.73482761 119.80269777 -21.75116122 109.91346244 -23 100 C-25.09676031 90.24820353 -29.59305295 80.77055795 -38 75 C-36.61439191 71.89267096 -34.97369275 69.7586276 -32.625 67.3125 C-28.95921025 63.21230273 -26.86123669 59.14412149 -25 54 C-24.5875 52.865625 -24.175 51.73125 -23.75 50.5625 C-21.35892974 39.20491629 -24.68315469 29.5198798 -29 19 C-28.13375 18.484375 -27.2675 17.96875 -26.375 17.4375 C-21.40114875 14.09808214 -17.47696264 9.98429769 -15.75 4.1875 C-14 1 -14 1 -11.73828125 0.08203125 C-7.65071094 -0.80708988 -3.99896086 -1.55079528 0 0 Z " fill="#F74354" transform="translate(398,198)"/>
<path d="M0 0 C4.50359715 2.52131887 7.08013918 4.94006353 8.64453125 10.0078125 C9.16171901 11.95936829 9.64894953 13.91918357 10.1015625 15.88671875 C10.64717478 18.46697081 10.64717478 18.46697081 12.8125 20.3125 C15.27192287 20.54243421 17.66101143 20.68657989 20.125 20.75 C25.28349313 20.90662418 28.64194243 21.16406477 32.8125 24.3125 C35.15765766 26.93684309 37.32319095 29.3643579 38.94140625 32.5 C40.83581878 34.72200164 40.83581878 34.72200164 44.61328125 34.59765625 C46.11803284 34.54320363 47.62215125 34.46820982 49.125 34.375 C54.87980929 34.04232336 58.78300528 34.04074352 63.8125 37.3125 C65.640625 39.1015625 65.640625 39.1015625 67.0625 40.9375 C69.0743607 43.55914441 69.0743607 43.55914441 71.8125 45.3125 C75.9023226 45.62180917 75.9023226 45.62180917 79.6875 44.3125 C84.32658215 42.12940252 88.82602162 42.99482052 93.5 44.5 C96.8125 46.3125 96.8125 46.3125 99.375 49 C101.61714211 51.54102041 101.61714211 51.54102041 104.6875 51.875 C107.97535403 51.48822347 107.97535403 51.48822347 110.9375 49.3125 C115.83076625 46.26101993 121.24658472 46.50517059 126.8125 47.3125 C130.1875 49.3125 130.1875 49.3125 132.8125 51.3125 C136.56266822 51.80839001 138.26891901 51.67274302 141.453125 49.5625 C142.31421875 48.82 143.1753125 48.0775 144.0625 47.3125 C148.7574038 43.68724004 151.72459667 42.4667993 157.62109375 42.8359375 C159.94652192 43.34164559 161.71018385 44.21808439 163.8125 45.3125 C166.76996492 45.89595476 166.76996492 45.89595476 169.8125 45.3125 C172.41666349 43.12581378 172.41666349 43.12581378 174.8125 40.3125 C179.86579154 35.78585423 179.86579154 35.78585423 182.8125 34.3125 C184.88685806 34.42924779 186.96113398 34.54822726 189.03442383 34.68261719 C196.63247616 35.28586046 196.63247616 35.28586046 203.3828125 32.453125 C205.06453731 30.14546674 206.45767896 27.82303101 207.8125 25.3125 C212.01828332 20.88535966 215.94728768 20.48866362 221.8125 20.3125 C222.905625 20.374375 223.99875 20.43625 225.125 20.5 C227.87804589 20.52326848 227.87804589 20.52326848 230.0625 18.875 C232.17930472 15.77539309 232.57166977 13.1306106 233.26953125 9.4921875 C234.40522351 4.93307755 237.32531343 2.45360927 241.125 0 C244.82810537 -1.93034216 247.61734258 -2.27629402 251.8125 -1.6875 C257.7026126 0.31716547 261.26366947 3.258105 264.8125 8.3125 C266.51358067 13.41574201 266.37771247 17.63123434 264.125 22.5 C261.64948495 27.02966583 258.75240878 29.66586374 253.8125 31.3125 C250.23034087 31.54499591 246.64932838 31.69395888 243.0625 31.8359375 C239.89090928 32.06126876 239.89090928 32.06126876 237.92578125 33.5859375 C236.60601305 35.6327359 236.3157161 37.15463858 236 39.5625 C235.01197084 44.65209557 232.71713955 47.9403113 228.8125 51.3125 C225.91235403 53.02534822 223.97565308 53.53229228 220.625 53.33203125 C219.84382812 53.30302734 219.06265625 53.27402344 218.2578125 53.24414062 C216.62699265 53.16468375 214.99670113 53.07352387 213.3671875 52.97070312 C211.08888077 52.89739127 209.05327448 52.8881514 206.8125 53.3125 C204.30302772 55.50732021 204.30302772 55.50732021 202.8125 58.3125 C199.25728289 63.11684745 196.57130328 65.52528519 190.8125 67.3125 C186.26519745 67.69786462 183.7886854 67.3005927 179.8125 65.3125 C176.35480809 64.72907647 176.35480809 64.72907647 172.8125 65.3125 C170.145992 67.47838845 170.145992 67.47838845 167.8125 70.3125 C162.93688944 74.6908468 159.89346342 76.70084449 153.32421875 76.6796875 C149.64281486 76.14150404 147.01482919 74.44738613 143.953125 72.40625 C141.360595 71.08159963 139.69085235 71.05251979 136.8125 71.3125 C135.8225 71.6425 134.8325 71.9725 133.8125 72.3125 C133.544375 72.93125 133.27625 73.55 133 74.1875 C131.16609887 77.46921782 129.34889319 78.07166028 125.8125 79.3125 C121.03973042 80.04845378 116.75215829 80.33716601 112.39453125 78.03515625 C109.63742918 75.98114032 107.24039466 73.74039466 104.8125 71.3125 C99.82536791 71.50807381 96.89065612 72.87003006 92.69921875 75.44140625 C89.13648148 77.08631394 85.62301687 76.99518858 81.8125 76.3125 C76.91537569 73.86393784 74.16080574 70.49788217 70.8125 66.3125 C67.78217558 64.79733779 65.16135038 65.14221947 61.8125 65.3125 C61.049375 65.663125 60.28625 66.01375 59.5 66.375 C55.1743718 67.88394007 51.20641511 67.48649919 46.8125 66.3125 C41.83268746 63.41704081 38.74364536 59.16016348 35.8125 54.3125 C35.4825 53.9825 35.1525 53.6525 34.8125 53.3125 C31.10027711 53.35421037 27.39769901 53.43978409 23.68945312 53.61523438 C18.18070981 53.73685013 15.20358504 52.95944697 10.8125 49.3125 C7.07759647 45.68134379 6.1152276 42.37229791 5.20703125 37.3984375 C4.82643951 35.13029838 4.82643951 35.13029838 3.8125 32.3125 C2.65492188 32.28671875 1.49734375 32.2609375 0.3046875 32.234375 C-1.23441128 32.17806651 -2.77347233 32.1207198 -4.3125 32.0625 C-5.07304687 32.04832031 -5.83359375 32.03414062 -6.6171875 32.01953125 C-11.8890652 31.79229514 -15.00947286 30.79418928 -19.1875 27.3125 C-22.38791229 23.76971803 -24.48417805 20.01177536 -24.6875 15.1875 C-23.7966876 8.28370389 -21.08417664 4.83801272 -15.90625 0.51171875 C-10.94568546 -2.94940242 -5.2686122 -2.43771609 0 0 Z " fill="#F84354" transform="translate(135.1875,152.6875)"/>
<path d="M0 0 C5.08854523 4.24624966 9.79020584 8.70569144 14.41015625 13.453125 C15.82700946 14.89238449 17.24434292 16.33117136 18.66210938 17.76953125 C20.85608291 20.00033525 23.04685987 22.23393163 25.22924805 24.47607422 C36.57284932 36.1144315 47.97778509 46.33176363 62.5 53.875 C63.13035156 54.225625 63.76070313 54.57625 64.41015625 54.9375 C74.69329466 60.37086081 86.80859876 62.52582787 98.02710724 65.29435921 C100.08147165 65.80140823 102.13502005 66.31165861 104.18841553 66.82261658 C108.54160818 67.90528183 112.89572842 68.98418341 117.25 70.0625 C122.31951 71.31798447 127.38860373 72.57510401 132.45671844 73.83621025 C134.46010417 74.33386451 136.46418633 74.82863663 138.46832275 75.32325745 C159.90163077 80.65292983 159.90163077 80.65292983 165 86 C167.38378976 90.19299253 168.64623983 94.0752312 169.60546875 98.7890625 C169.86650391 100.06007813 170.12753906 101.33109375 170.39648438 102.640625 C170.52627686 103.29482422 170.65606934 103.94902344 170.78979492 104.62304688 C171.1881703 106.62837415 171.59985612 108.63062045 172.01367188 110.6328125 C174 120.43003994 174 120.43003994 174 125 C173.21496094 125.17015625 172.42992187 125.3403125 171.62109375 125.515625 C165.40756532 126.94892972 160.33277914 128.48521375 155 132 C154.89042969 131.45472656 154.78085937 130.90945312 154.66796875 130.34765625 C152.31600444 117.89951847 152.31600444 117.89951847 144 109 C141.72790817 107.86395409 140.39938745 107.83448944 137.875 107.8125 C137.15054688 107.79832031 136.42609375 107.78414063 135.6796875 107.76953125 C132.82424679 107.93163054 132.82424679 107.93163054 129.4765625 108.984375 C104.8798749 115.4017753 76.32575273 107.4446641 54 97 C52.78787842 96.43321533 52.78787842 96.43321533 51.55126953 95.85498047 C39.68592788 90.19031288 29.12111558 83.38189337 19 75 C18.43667969 74.5344873 17.87335938 74.06897461 17.29296875 73.58935547 C4.65226075 62.97372509 -8.21244419 48.08400718 -10.2355957 31.01196289 C-10.98765719 19.56301239 -9.55071126 11.48434421 -2.1875 2.375 C-1.465625 1.59125 -0.74375 0.8075 0 0 Z " fill="#FDB1B5" transform="translate(148,47)"/>
<path d="M0 0 C3.64284372 0.33896416 6.77865673 0.79280822 10.234375 2.01171875 C12.10004098 4.3570017 12.94831787 6.54162152 14.0078125 9.3359375 C16.62672978 15.04918061 22.2256258 19.30998489 27.859375 21.94921875 C31.32879132 23.04144241 34.61942732 23.64284654 38.234375 24.01171875 C33.234375 29.01171875 33.234375 29.01171875 30.796875 31.26171875 C23.33220216 39.27258716 19.35041692 47.86944883 18.796875 58.88671875 C19.19492617 69.33556202 23.11035922 79.34925991 30.234375 87.01171875 C33.0984619 89.28748207 36.04142238 91.23061593 39.234375 93.01171875 C37.91491509 95.88311485 36.41251124 98.06098515 34.359375 100.44921875 C28.21062426 108.55713026 26.02066561 119.00236231 27.234375 129.01171875 C28.34300148 134.83887943 30.51436565 139.55780742 33.421875 144.69921875 C37.62469199 152.7511503 37.04273141 161.00612715 35.625 169.78515625 C34.94313275 173.03438099 34.94313275 173.03438099 36.546875 175.82421875 C39.9090448 178.56086858 42.49526328 178.70856996 46.69140625 179.359375 C51.44716717 180.57936282 54.85464536 183.77831023 57.40234375 187.90234375 C59.37488608 192.90315529 58.79492215 198.41858475 57.046875 203.38671875 C54.00105458 207.79790695 50.39705834 210.53666637 45.234375 212.01171875 C39.96463023 212.49078646 36.71328341 211.8353784 32.234375 209.01171875 C27.73092056 205.22472297 25.6014763 201.87362439 25.0390625 195.95703125 C24.97976562 195.25320313 24.92046875 194.549375 24.859375 193.82421875 C24.60312012 190.09466597 24.60312012 190.09466597 22.625 188.2421875 C18.45716248 186.09697701 14.25130219 187.39613423 9.7421875 187.98046875 C4.91442042 188.02347781 1.92712406 186.54122576 -1.62890625 183.328125 C-2.34626953 182.45994141 -2.34626953 182.45994141 -3.078125 181.57421875 C-3.56925781 180.99800781 -4.06039062 180.42179688 -4.56640625 179.828125 C-7.1636291 175.89422069 -7.22543558 171.60982457 -6.765625 167.01171875 C-5.35584942 164.15008474 -3.62216531 161.59962342 -1.765625 159.01171875 C0.50714566 156.15158719 0.50714566 156.15158719 0.421875 152.69921875 C-1.1283541 147.88534943 -3.32975652 146.9887892 -7.53515625 144.48828125 C-11.53090395 141.84311027 -13.25799617 138.53460523 -14.765625 134.01171875 C-15.40311878 128.59302161 -14.42152709 125.33702592 -11.47265625 120.91796875 C-9.51875776 118.73604092 -7.52242958 117.45250188 -5.015625 115.94921875 C-1.74744016 113.91276186 -0.91633353 113.35900363 0.671875 109.69921875 C0.1292535 105.12569469 -1.59060108 102.65849475 -4.3203125 99.02734375 C-7.1021499 95.14780835 -7.15296699 91.65982259 -6.765625 87.01171875 C-4.83555707 82.78041598 -2.93175935 80.05773911 0.484375 76.94921875 C2.66532749 74.84077874 3.20480983 74.11860822 4.046875 71.07421875 C2.99048956 67.09245823 0.96448301 65.5345156 -2.0078125 62.796875 C-5.52867203 59.22124654 -6.5818865 55.48162673 -7.203125 50.51171875 C-6.45042448 44.49011461 -3.47597391 40.72245618 0.484375 36.38671875 C2.51346716 34.10718449 3.18095426 33.34750625 3.671875 30.26171875 C3.25458425 27.85678119 3.25458425 27.85678119 2.234375 25.01171875 C1.63625 24.74359375 1.038125 24.47546875 0.421875 24.19921875 C-3.54779915 22.04425278 -5.37607726 18.18036196 -6.765625 14.01171875 C-7.16274783 8.74984128 -6.46587775 5.54814336 -3.765625 1.01171875 C-2.765625 0.01171875 -2.765625 0.01171875 0 0 Z " fill="#F84354" transform="translate(117.765625,196.98828125)"/>
<path d="M0 0 C0.99 0.33 1.98 0.66 3 1 C2.02440179 3.47854681 1.03024244 5.93333419 -0.0703125 8.359375 C-4.39740933 18.16746116 -3.58632444 25.97750402 0 36 C0.598125 36.94875 1.19625 37.8975 1.8125 38.875 C2.4003125 39.926875 2.4003125 39.926875 3 41 C2.14956703 43.5177843 1.06883314 45.85504845 -0.0703125 48.25390625 C-3.47783273 55.71258943 -4.47987796 62.90341095 -2.1640625 70.87890625 C-0.73930115 74.55864702 0.80756119 77.71134178 3 81 C2.69993055 83.77564238 1.98484761 86.03743532 0.9375 88.625 C-1.72661814 98.21582532 0.27631298 106.37760792 5 115 C5.98489506 116.01488015 6.98076043 117.01961707 8 118 C8 118.66 8 119.32 8 120 C8.99 120.33 9.98 120.66 11 121 C9.85350865 123.70988866 8.62596302 125.41340929 6.625 127.625 C1.27581611 133.95830674 -0.62963978 141.19897253 -0.33984375 149.3828125 C0.16365933 153.26036499 1.46248381 156.41246221 3 160 C3 160.99 3 161.98 3 163 C1.42578125 164.32421875 1.42578125 164.32421875 -0.6875 165.6875 C-6.71894761 169.98957679 -10.30141455 175.78101184 -12 183 C-12.43667974 186.66100106 -12.75129299 190.32175427 -13 194 C-14.03447266 194.03867187 -14.03447266 194.03867187 -15.08984375 194.078125 C-24.61668383 194.65313318 -32.84158821 197.490667 -40 204 C-41.54838368 205.9377701 -42.74791191 207.84640849 -44 210 C-50 208 -50 208 -52.6875 206.875 C-61.35582897 204.58525272 -70.05726069 205.62202187 -77.85546875 210.0546875 C-79.68592139 211.24600347 -81.45066597 212.45066597 -83 214 C-84.73888437 214.0951944 -86.47836881 214.18420249 -88.21899414 214.23901367 C-98.30033098 214.58263075 -107.78635933 215.96100721 -115.4375 223.15234375 C-118.49609809 226.76913599 -120.70701295 230.87546293 -123 235 C-123.66 235.99 -124.32 236.98 -125 238 C-125.15855469 237.24976563 -125.31710938 236.49953125 -125.48046875 235.7265625 C-126.6971041 230.38949912 -127.97855817 225.7166275 -130.6875 220.9375 C-133.49860483 215.64751183 -134.00306714 210.89766325 -133 205 C-130.62645691 200.16500481 -127.35937541 196.17613353 -122.13671875 194.34765625 C-119.76513369 193.75367608 -117.41862125 193.35923639 -115 193 C-113.9584375 192.81824219 -112.916875 192.63648438 -111.84375 192.44921875 C-106.06439974 191.67278735 -102.13744114 191.29803108 -97.25 194.75 C-96.63640625 195.28109375 -96.0228125 195.8121875 -95.390625 196.359375 C-88.16330671 201.31929932 -80.19558273 201.49488131 -71.6875 201.4375 C-70.61693359 201.45748047 -69.54636719 201.47746094 -68.44335938 201.49804688 C-67.41404297 201.49740234 -66.38472656 201.49675781 -65.32421875 201.49609375 C-64.39697998 201.49794678 -63.46974121 201.4997998 -62.5144043 201.50170898 C-59.23479072 200.84731478 -58.04032156 199.60118218 -56 197 C-55.5513946 193.85976223 -55.30017193 191.95908641 -57.20996094 189.34179688 C-59.59191633 187.55630494 -61.11877973 187.61697711 -64.078125 187.59375 C-65.57279297 187.56087891 -65.57279297 187.56087891 -67.09765625 187.52734375 C-68.13792969 187.51832031 -69.17820312 187.50929688 -70.25 187.5 C-77.23195223 187.43852369 -82.76006947 187.31386141 -89 184 C-88.42137365 180.09427217 -86.47900791 177.98939189 -84 175 C-83.59966553 174.13455566 -83.19933105 173.26911133 -82.78686523 172.37744141 C-81 170 -81 170 -77.96899414 169.38818359 C-76.75332764 169.39156738 -75.53766113 169.39495117 -74.28515625 169.3984375 C-73.63300644 169.39043121 -72.98085663 169.38242493 -72.3089447 169.37417603 C-70.22616406 169.35110373 -68.14533322 169.36056428 -66.0625 169.375 C-63.98360189 169.37885204 -61.9055684 169.37536741 -59.82676697 169.35440063 C-57.93806024 169.33678088 -56.04916902 169.3442732 -54.16040039 169.35302734 C-50.7665149 168.97391893 -49.39077787 168.38968552 -47 166 C-46.27491571 163.11679083 -46.66361924 161.02742688 -47 158 C-50.53564463 155.64290358 -52.22025255 155.69990265 -56.41796875 155.5859375 C-57.67158203 155.54726563 -58.92519531 155.50859375 -60.21679688 155.46875 C-61.52712891 155.4378125 -62.83746094 155.406875 -64.1875 155.375 C-65.5228116 155.33680662 -66.85809892 155.29775409 -68.19335938 155.2578125 C-71.46209888 155.16340847 -74.73083064 155.07782983 -78 155 C-78.06058594 154.27554688 -78.12117188 153.55109375 -78.18359375 152.8046875 C-78.26738281 151.83789062 -78.35117187 150.87109375 -78.4375 149.875 C-78.51871094 148.92367187 -78.59992188 147.97234375 -78.68359375 146.9921875 C-79.00347645 143.96712397 -79.47121577 140.99496277 -80 138 C-75.32276886 137.87539142 -70.64652636 137.78519377 -65.96801758 137.7253418 C-64.38028103 137.70036472 -62.79265748 137.66637019 -61.20532227 137.62280273 C-43.94879398 137.16139823 -43.94879398 137.16139823 -37 143 C-31.44341866 148.30316497 -27.96547052 153.97299644 -27.5 161.8125 C-27.75101246 169.32005448 -31.25770298 175.3085236 -36.3125 180.6875 C-38.74222165 183.33639757 -38.99107742 183.94051615 -39.5625 187.75 C-39.19353279 190.88645582 -39.19353279 190.88645582 -37.9375 193 C-34.6805923 194.68098462 -32.46192393 193.93882683 -29 193 C-20.859071 187.84961635 -16.63690272 178.95208887 -14.46875 169.7890625 C-12.64624648 158.94516657 -14.21504505 149.65689944 -20.5625 140.625 C-21.16191406 139.83351563 -21.76132812 139.04203125 -22.37890625 138.2265625 C-23.84873497 136.20776161 -24.96117117 134.26371655 -26 132 C-20.375 128.125 -20.375 128.125 -17 127 C-16.29325371 125.68747118 -15.63815344 124.34721283 -15 123 C-14.21625 122.01 -13.4325 121.02 -12.625 120 C-6.73482761 111.80269777 -4.75116122 101.91346244 -6 92 C-8.09676031 82.24820353 -12.59305295 72.77055795 -21 67 C-19.61439191 63.89267096 -17.97369275 61.7586276 -15.625 59.3125 C-11.95921025 55.21230273 -9.86123669 51.14412149 -8 46 C-7.5875 44.865625 -7.175 43.73125 -6.75 42.5625 C-4.35892974 31.20491629 -7.68315469 21.5198798 -12 11 C-11.13375 10.484375 -10.2675 9.96875 -9.375 9.4375 C-5.53798261 6.90689567 -2.83324118 3.57671582 0 0 Z " fill="#FC5D78" transform="translate(381,206)"/>
<path d="M0 0 C5.08854523 4.24624966 9.79020584 8.70569144 14.41015625 13.453125 C15.82700946 14.89238449 17.24434292 16.33117136 18.66210938 17.76953125 C20.85608291 20.00033525 23.04685987 22.23393163 25.22924805 24.47607422 C36.57284932 36.1144315 47.97778509 46.33176363 62.5 53.875 C63.13035156 54.225625 63.76070313 54.57625 64.41015625 54.9375 C74.69329466 60.37086081 86.80859876 62.52582787 98.02710724 65.29435921 C100.08147165 65.80140823 102.13502005 66.31165861 104.18841553 66.82261658 C108.54160818 67.90528183 112.89572842 68.98418341 117.25 70.0625 C122.31951 71.31798447 127.38860373 72.57510401 132.45671844 73.83621025 C134.46010417 74.33386451 136.46418633 74.82863663 138.46832275 75.32325745 C159.90163077 80.65292983 159.90163077 80.65292983 165 86 C167.38378976 90.19299253 168.64623983 94.0752312 169.60546875 98.7890625 C169.86650391 100.06007813 170.12753906 101.33109375 170.39648438 102.640625 C170.52627686 103.29482422 170.65606934 103.94902344 170.78979492 104.62304688 C171.1881703 106.62837415 171.59985612 108.63062045 172.01367188 110.6328125 C174 120.43003994 174 120.43003994 174 125 C173.18015625 125.19335938 172.3603125 125.38671875 171.515625 125.5859375 C170.43796875 125.84632813 169.3603125 126.10671875 168.25 126.375 C167.18265625 126.63023437 166.1153125 126.88546875 165.015625 127.1484375 C162.42473772 127.88006111 160.36659655 128.76311841 158 130 C157.87995605 129.44127197 157.75991211 128.88254395 157.63623047 128.30688477 C153.6167756 109.66243039 153.6167756 109.66243039 141 96 C134.36467966 92.22869961 127.79340205 90.49319494 120.3828125 88.79296875 C117.89320351 88.19997749 115.40362104 87.60687489 112.9140625 87.01367188 C109.03410236 86.10175923 105.15322996 85.19407638 101.27148438 84.28979492 C62.70480766 75.26706665 38.01422409 61.6707842 10.25 33.375 C7.79911723 30.88899464 5.34603083 28.40521672 2.89031982 25.92398071 C1.37574407 24.39247328 -0.13573201 22.85789278 -1.64373779 21.31991577 C-2.31914612 20.63474884 -2.99455444 19.94958191 -3.69042969 19.24365234 C-4.28329773 18.63951508 -4.87616577 18.03537781 -5.48699951 17.41293335 C-6.96377558 15.8999385 -6.96377558 15.8999385 -9 15 C-7.58399311 8.86397012 -3.9336625 4.73301638 0 0 Z " fill="#FC99A4" transform="translate(148,47)"/>
<path d="M0 0 C3.42024202 1.14008067 3.79913481 1.81052184 5.75 4.6875 C12.04692207 13.30920259 20.44590643 18.760969 31 21 C32.45850481 21.09566913 33.92049555 21.14508417 35.38208008 21.15771484 C36.2400972 21.16797699 37.09811432 21.17823914 37.98213196 21.18881226 C38.90197372 21.19611359 39.82181549 21.20341492 40.76953125 21.2109375 C42.72982603 21.23900805 44.69011238 21.26767253 46.65039062 21.296875 C49.73119858 21.3380931 52.81184943 21.37499443 55.89282227 21.40136719 C58.87288646 21.42906872 61.85224242 21.47493977 64.83203125 21.5234375 C66.20268486 21.5283168 66.20268486 21.5283168 67.60102844 21.53329468 C75.67636879 21.68751247 81.43220883 23.80139649 87.421875 29.359375 C92.32931155 34.46116547 93.2595809 38.00184863 93.4375 45 C93.17459287 53.01442704 91.3776536 58.37394272 85.91796875 64.359375 C80.63022094 68.8824994 74.45716653 71.12863488 67.5625 71.4375 C58.80348689 71.90113875 50.39601246 76.41974015 44.46875 82.85546875 C41.50540935 87.18226135 39.75149027 92.0845273 38 97 C34.52094954 95.84031651 34.18861128 95.16252073 32.375 92.125 C31.73691406 91.07699219 31.73691406 91.07699219 31.0859375 90.0078125 C27.71184255 83.76937796 27.92174802 75.31300793 29.61328125 68.546875 C32.27063362 62.60002477 37.40115395 57.69984255 43.26757812 54.92895508 C46.26528303 53.90981041 48.65634888 53.73052663 51.81640625 53.69140625 C52.91017578 53.66626953 54.00394531 53.64113281 55.13085938 53.61523438 C57.42246854 53.58001898 59.71414222 53.5487822 62.00585938 53.52148438 C63.64458008 53.4818457 63.64458008 53.4818457 65.31640625 53.44140625 C66.31099854 53.42795166 67.30559082 53.41449707 68.33032227 53.40063477 C71.38755408 52.94184031 72.77791532 52.11590115 75 50 C75.72508429 47.11679083 75.33638076 45.02742688 75 42 C71.65125178 39.76750119 70.58480394 39.75333055 66.67749023 39.76049805 C65.58883163 39.75676682 64.50017303 39.75303558 63.37852478 39.74919128 C62.20044754 39.75332535 61.0223703 39.75745941 59.80859375 39.76171875 C57.31184357 39.74629094 54.81509869 39.72998671 52.31835938 39.71289062 C48.38391451 39.69647771 44.44985693 39.68747769 40.51538086 39.69458008 C36.71684152 39.69721147 32.91947587 39.66898445 29.12109375 39.63671875 C27.95718613 39.64692551 26.7932785 39.65713226 25.59410095 39.66764832 C16.894095 39.56435243 10.27205241 37.61481358 3.5625 31.9375 C2.7890625 30.9784375 2.7890625 30.9784375 2 30 C1.46375 29.360625 0.9275 28.72125 0.375 28.0625 C-2.81068007 23.2839799 -3.29524578 19.27364756 -3.3125 13.5625 C-3.32925781 12.28503906 -3.34601563 11.00757813 -3.36328125 9.69140625 C-2.97967893 5.79351169 -1.96516708 3.35478391 0 0 Z " fill="#F9AEB2" transform="translate(195,314)"/>
<path d="M0 0 C4.2178118 3.76183214 5.06261373 8.24277382 6.2890625 13.57421875 C6.83467478 16.15447081 6.83467478 16.15447081 9 18 C11.45942287 18.22993421 13.84851143 18.37407989 16.3125 18.4375 C21.47099313 18.59412418 24.82944243 18.85156477 29 22 C31.34515766 24.62434309 33.51069095 27.0518579 35.12890625 30.1875 C37.02331878 32.40950164 37.02331878 32.40950164 40.80078125 32.28515625 C42.30553284 32.23070363 43.80965125 32.15570982 45.3125 32.0625 C51.06730929 31.72982336 54.97050528 31.72824352 60 35 C61.828125 36.7890625 61.828125 36.7890625 63.25 38.625 C65.2618607 41.24664441 65.2618607 41.24664441 68 43 C72.0898226 43.30930917 72.0898226 43.30930917 75.875 42 C80.51408215 39.81690252 85.01352162 40.68232052 89.6875 42.1875 C93 44 93 44 95.5625 46.6875 C97.80464211 49.22852041 97.80464211 49.22852041 100.875 49.5625 C104.16285403 49.17572347 104.16285403 49.17572347 107.125 47 C112.01826625 43.94851993 117.43408472 44.19267059 123 45 C126.375 47 126.375 47 129 49 C132.75016822 49.49589001 134.45641901 49.36024302 137.640625 47.25 C138.50171875 46.5075 139.3628125 45.765 140.25 45 C144.9449038 41.37474004 147.91209667 40.1542993 153.80859375 40.5234375 C156.13402192 41.02914559 157.89768385 41.90558439 160 43 C162.95746492 43.58345476 162.95746492 43.58345476 166 43 C168.60416349 40.81331378 168.60416349 40.81331378 171 38 C176.05329154 33.47335423 176.05329154 33.47335423 179 32 C181.07435806 32.11674779 183.14863398 32.23572726 185.22192383 32.37011719 C192.81997616 32.97336046 192.81997616 32.97336046 199.5703125 30.140625 C201.25203731 27.83296674 202.64517896 25.51053101 204 23 C208.20578332 18.57285966 212.13478768 18.17616362 218 18 C219.093125 18.061875 220.18625 18.12375 221.3125 18.1875 C224.06554589 18.21076848 224.06554589 18.21076848 226.25 16.5625 C228.36680472 13.46289309 228.75916977 10.8181106 229.45703125 7.1796875 C230.59272351 2.62057755 233.51281343 0.14110927 237.3125 -2.3125 C240.89384286 -4.24270427 243.93974736 -4.3314492 248 -4 C250.50842897 0.70330431 250.62731121 5.78778188 250 11 C247.35038443 13.64961557 245.69422822 13.3840623 242 13.75 C232.87323885 15.05094164 225.91348384 18.91557149 220.18359375 26.1875 C218.34586964 29.00170457 217.15800382 31.84765627 216 35 C215.17757812 35.02578125 214.35515625 35.0515625 213.5078125 35.078125 C203.01867309 35.61106049 194.65062438 37.54064123 187 45 C186.34 45.99 185.68 46.98 185 48 C181.875 48.1875 181.875 48.1875 178 48 C169.62301309 47.78997526 162.59022716 48.29100954 156.3125 54.25 C155.76851562 54.77207031 155.22453125 55.29414063 154.6640625 55.83203125 C153 57 153 57 149.1875 56.9375 C146 56 146 56 144 55 C135.38495873 54.30210157 128.54601454 54.69261831 121 59 C118.3125 60.5 118.3125 60.5 116 61 C113.125 59.25 113.125 59.25 110 57 C103.27698226 54.25591113 94.14937086 53.31087558 87.3515625 56.078125 C84.59618411 57.15830656 83.7059914 57.09831416 81 56 C78.4840763 54.57597058 76.06977528 53.02727044 73.6328125 51.47265625 C67.31092505 47.93652633 61.86745483 47.82887108 54.83398438 48.4296875 C52.77734375 48.515625 52.77734375 48.515625 49 48 C46.2890625 45.16015625 46.2890625 45.16015625 44 42 C41.75961544 40.32964834 41.75961544 40.32964834 39.4375 39.1875 C38.69371094 38.78917969 37.94992188 38.39085937 37.18359375 37.98046875 C33.92191874 36.51592416 31.61731079 35.97821256 28.01171875 36.10546875 C24.37431328 36.19522846 21.49381281 36.05157756 18 35 C15.68420528 32.19551095 14.3089813 29.36766574 12.73828125 26.09375 C9.42935656 20.20460762 4.01159368 17.0656968 -2.234375 14.85546875 C-6.6142401 13.8604579 -10.77469835 13.58789948 -15.25 13.4375 C-23.63825929 13.12058024 -23.63825929 13.12058024 -27 12 C-27.57107365 8.736722 -27.45148318 6.68870315 -25.6171875 3.890625 C-18.1413943 -4.97676606 -9.88064498 -6.51518512 0 0 Z " fill="#FB5D77" transform="translate(139,155)"/>
<path d="M0 0 C2.20275308 2.20275308 2.67173137 3.59517748 3.6875 6.5 C5.23575415 10.64455725 7.14597139 13.58091844 9.9375 17 C13.04470909 21.20464889 13.04470909 21.20464889 12.8515625 24.640625 C12.073626 27.21320708 11.1087509 29.55364569 10 32 C7.86618159 37.2035221 7.69749652 41.77775854 7.75 47.3125 C7.74226563 48.11623047 7.73453125 48.91996094 7.7265625 49.74804688 C7.75273886 57.88235163 9.33411767 65.02171736 12.5625 72.5 C13.21412109 74.03140625 13.21412109 74.03140625 13.87890625 75.59375 C14.78669476 77.90080403 14.78669476 77.90080403 16 79 C16.0950915 80.87435918 16.18407398 82.74927156 16.23876953 84.62524414 C16.59583696 95.82320985 18.45241017 103.78585724 26.12109375 112.30859375 C29.86179355 115.67600126 33.73530957 117.34695617 38.5 118.8125 C43.74146302 120.67738711 46.16882366 122.18700022 49 127 C49.8125 130.875 49.8125 130.875 50 134 C44.91336325 136.95949775 41.04440226 138.78353363 35 138 C30.32786546 136.22458887 27.20447692 133.82756965 24 130 C22.47713649 126.57355709 21.93593944 123.50321593 21.625 119.8125 C21.36874512 116.08294722 21.36874512 116.08294722 19.390625 114.23046875 C15.22278748 112.08525826 11.01692719 113.38441548 6.5078125 113.96875 C1.68004542 114.01175906 -1.30725094 112.52950701 -4.86328125 109.31640625 C-5.34152344 108.73761719 -5.81976563 108.15882813 -6.3125 107.5625 C-6.80363281 106.98628906 -7.29476562 106.41007812 -7.80078125 105.81640625 C-10.3980041 101.88250194 -10.45981058 97.59810582 -10 93 C-8.59022442 90.13836599 -6.85654031 87.58790467 -5 85 C-2.72722934 82.13986844 -2.72722934 82.13986844 -2.8125 78.6875 C-4.3627291 73.87363068 -6.56413152 72.97707045 -10.76953125 70.4765625 C-14.76527895 67.83139152 -16.49237117 64.52288648 -18 60 C-18.63749378 54.58130286 -17.65590209 51.32530717 -14.70703125 46.90625 C-12.75313276 44.72432217 -10.75680458 43.44078313 -8.25 41.9375 C-4.98181516 39.90104311 -4.15070853 39.34728488 -2.5625 35.6875 C-3.1051215 31.11397594 -4.82497608 28.646776 -7.5546875 25.015625 C-10.3365249 21.1360896 -10.38734199 17.64810384 -10 13 C-7.5224487 7.56844522 -4.34637059 4.05002714 0 0 Z " fill="#FC5D78" transform="translate(121,271)"/>
<path d="M0 0 C1.11375 0.309375 2.2275 0.61875 3.375 0.9375 C8.20509012 2.15800664 13.04290069 2.61399637 18 3 C18.01213028 4.04569656 18.01213028 4.04569656 18.02450562 5.11251831 C18.10237717 11.67545302 18.18964489 18.23818718 18.28752708 24.80085564 C18.33751898 28.17497504 18.38384837 31.54906269 18.421875 34.92333984 C18.46737328 38.80064629 18.52539279 42.67759052 18.5859375 46.5546875 C18.59748871 47.76929657 18.60903992 48.98390564 18.62094116 50.23532104 C18.64081085 51.35633209 18.66068054 52.47734314 18.68115234 53.63232422 C18.69447601 54.62271698 18.70779968 55.61310974 18.7215271 56.6335144 C18.77427446 59.18735695 18.77427446 59.18735695 21 61 C25.06095958 61.47213673 25.06095958 61.47213673 29 61 C31.90036767 57.9282103 32.38370541 55.75481669 32.43237305 51.58886719 C32.45216721 50.50804871 32.47196136 49.42723022 32.49235535 48.31365967 C32.49874527 47.15312073 32.50513519 45.99258179 32.51171875 44.796875 C32.52966995 43.60394836 32.54762115 42.41102173 32.56611633 41.1819458 C32.62030371 37.37133317 32.6541431 33.56084641 32.6875 29.75 C32.72066551 27.16664912 32.75515445 24.58331487 32.79101562 22 C32.87603522 15.66677953 32.94434958 9.33354294 33 3 C33.556875 3.13277344 34.11375 3.26554688 34.6875 3.40234375 C39.7858701 4.58220305 44.79787441 5.43249539 50 6 C50.10205147 13.2040588 50.17173735 20.40792876 50.21972656 27.61254883 C50.2397483 30.0595598 50.26697398 32.50652349 50.30175781 34.95336914 C50.35069163 38.48595907 50.37306416 42.01791229 50.390625 45.55078125 C50.41127014 46.63144363 50.43191528 47.71210602 50.45318604 48.82551575 C50.45579684 57.81482843 48.91370978 66.18487935 42.6875 73 C35.73154944 79.08098822 29.72076975 79.61700217 20.6015625 79.41015625 C15.60099629 78.84067745 12.63244546 77.41622847 9 74 C8.43796875 73.48050781 7.8759375 72.96101563 7.296875 72.42578125 C-0.37103041 64.44148169 -0.42654061 54.97716986 -0.29296875 44.43359375 C-0.28872391 43.15895767 -0.28447906 41.88432159 -0.28010559 40.57106018 C-0.26623423 37.21224507 -0.23936858 33.85406301 -0.20599365 30.49542236 C-0.17508729 27.05624812 -0.16155672 23.617008 -0.14648438 20.17773438 C-0.11352491 13.45165074 -0.06340767 6.72586184 0 0 Z " fill="#F6ADB1" transform="translate(207,241)"/>
<path d="M0 0 C3.45639069 2.69767078 6.42418929 5.39393027 9.25 8.75 C33.10551079 36.42652334 72.15445364 53.87199986 108 58 C112.67139729 58.25769136 117.32250184 58.28097681 122 58.25 C123.16789062 58.25773437 124.33578125 58.26546875 125.5390625 58.2734375 C133.55345868 58.25566722 141.10530095 57.38157233 149 56 C149.99 61.94 149.99 61.94 151 68 C149.494375 68.4125 147.98875 68.825 146.4375 69.25 C143.00968857 70.25078557 140.2229154 71.34169091 137.25 73.3125 C136.1775 73.869375 135.105 74.42625 134 75 C131.9997043 74.3342211 129.99976735 73.66736422 128 73 C124.99656819 72.70467904 122.01573879 72.7201412 119 72.75 C118.21882813 72.74226563 117.43765625 72.73453125 116.6328125 72.7265625 C112.95474574 72.73894656 110.26057983 72.90675638 106.7578125 74.16015625 C104 75 104 75 101.3671875 74.13671875 C100.54476562 73.65847656 99.72234375 73.18023437 98.875 72.6875 C92.99307306 69.34341381 89.55898325 68.96102414 82.75 69.3125 C76.69880232 69.47290718 73.25032893 68.62262706 68.734375 64.53125 C63.1119403 59.56729865 56.11368536 59.65246696 48.953125 59.6015625 C45.04618598 58.80570455 44.26960791 57.18213068 42 54 C37.12154067 50.22593343 32.36579092 47.93811195 26.3125 46.8125 C22.87060267 45.99414679 21.40153892 45.48992799 19.13671875 42.7265625 C18.02094723 40.82522391 16.93739429 38.90469725 15.8828125 36.96875 C13.75506947 33.61380249 11.4062641 31.49184522 8.375 28.9375 C2.48616429 23.80198165 -1.40034299 18.95368832 -2.359375 11.03125 C-2.54905063 3.82357595 -2.54905063 3.82357595 0 0 Z " fill="#FBDC75" transform="translate(137,113)"/>
<path d="M0 0 C6.04782374 -0.62998164 10.13376489 -0.09701387 15.1484375 3.44921875 C20.8708891 8.24207378 25.19933131 13.73337931 26.3515625 21.3125 C26.81264702 29.07813399 24.29319046 35.26444067 19.16796875 41.078125 C11.39451707 48.37627687 3.56568589 49.47142028 -6.734375 49.50390625 C-7.84878967 49.51389145 -8.96320435 49.52387665 -10.11138916 49.53416443 C-12.46126616 49.54929729 -14.81120713 49.55639173 -17.16113281 49.5559082 C-20.72571005 49.56245539 -24.28747882 49.61695445 -27.8515625 49.67382812 C-39.98248019 49.76224123 -48.61686349 49.6071374 -59 43 C-61.48693314 42.19667563 -63.62839373 41.9099572 -66.25 41.625 C-67.34828125 41.49351562 -68.4465625 41.36203125 -69.578125 41.2265625 C-70.37734375 41.15179688 -71.1765625 41.07703125 -72 41 C-71.67386719 40.3709375 -71.34773438 39.741875 -71.01171875 39.09375 C-68.31620768 33.8140469 -65.96750019 28.59184265 -64 23 C-63.19175781 23.42152344 -62.38351562 23.84304688 -61.55078125 24.27734375 C-60.48214844 24.82519531 -59.41351563 25.37304688 -58.3125 25.9375 C-57.25675781 26.48277344 -56.20101563 27.02804687 -55.11328125 27.58984375 C-50.62690669 29.62194063 -46.60067563 30.1236845 -41.70654297 30.17700195 C-40.6755246 30.18983719 -39.64450623 30.20267242 -38.58224487 30.21589661 C-37.48002594 30.22328354 -36.37780701 30.23067047 -35.2421875 30.23828125 C-33.53218063 30.25038887 -33.53218063 30.25038887 -31.78762817 30.26274109 C-29.38203439 30.27654859 -26.97642129 30.28728559 -24.57080078 30.29516602 C-20.88146579 30.31246967 -17.19300639 30.35639669 -13.50390625 30.40039062 C-11.16667325 30.41051021 -8.82943265 30.4190286 -6.4921875 30.42578125 C-4.83278641 30.45204338 -4.83278641 30.45204338 -3.13986206 30.47883606 C-2.11514801 30.47591049 -1.09043396 30.47298492 -0.03466797 30.4699707 C0.86736359 30.47583694 1.76939514 30.48170319 2.69876099 30.48774719 C5.14581441 30.18934342 5.14581441 30.18934342 6.818573 28.16203308 C8.25318451 25.96254303 8.25318451 25.96254303 7.9375 22.9375 C6.83658815 19.48797621 6.04988524 18.82678152 3 17 C0.42126391 16.43015552 0.42126391 16.43015552 -2.25 16.3125 C-3.14203125 16.24675781 -4.0340625 16.18101562 -4.953125 16.11328125 C-5.62859375 16.07589844 -6.3040625 16.03851563 -7 16 C-6.66226563 15.26394531 -6.32453125 14.52789062 -5.9765625 13.76953125 C-5.30753906 12.30580078 -5.30753906 12.30580078 -4.625 10.8125 C-3.96371094 9.36810547 -3.96371094 9.36810547 -3.2890625 7.89453125 C-2.12678149 5.28468208 -1.04075219 2.66024041 0 0 Z " fill="#F8AEB2" transform="translate(335,280)"/>
<path d="M0 0 C4.67723114 -0.12460858 9.35347364 -0.21480623 14.03198242 -0.2746582 C15.61971897 -0.29963528 17.20734252 -0.33362981 18.79467773 -0.37719727 C36.05120602 -0.83860177 36.05120602 -0.83860177 43 5 C48.55658134 10.30316497 52.03452948 15.97299644 52.5 23.8125 C52.25036488 31.2788594 48.77784624 37.26925074 43.75 42.625 C40.39813971 46.22610118 40.16986283 49.15890924 40 54 C35.1251182 55.99995151 30.22240538 57.0465331 25 56 C23 53.5625 23 53.5625 22 51 C20.35024238 49.35024238 18.3877126 49.83270335 16.1171875 49.7890625 C15.11429687 49.76070313 14.11140625 49.73234375 13.078125 49.703125 C10.96630994 49.65161732 8.85430883 49.60718245 6.7421875 49.5703125 C0.75481716 49.38702565 -3.68418378 48.81602729 -9 46 C-8.42137365 42.09427217 -6.47900791 39.98939189 -4 37 C-3.59966553 36.13455566 -3.19933105 35.26911133 -2.78686523 34.37744141 C-1 32 -1 32 2.03100586 31.38818359 C3.24667236 31.39156738 4.46233887 31.39495117 5.71484375 31.3984375 C6.36699356 31.39043121 7.01914337 31.38242493 7.6910553 31.37417603 C9.77383594 31.35110373 11.85466678 31.36056428 13.9375 31.375 C16.01639811 31.37885204 18.0944316 31.37536741 20.17323303 31.35440063 C22.06193976 31.33678088 23.95083098 31.3442732 25.83959961 31.35302734 C29.2334851 30.97391893 30.60922213 30.38968552 33 28 C33.72508429 25.11679083 33.33638076 23.02742688 33 20 C29.46435537 17.64290358 27.77974745 17.69990265 23.58203125 17.5859375 C22.32841797 17.54726563 21.07480469 17.50859375 19.78320312 17.46875 C18.47287109 17.4378125 17.16253906 17.406875 15.8125 17.375 C14.4771884 17.33680662 13.14190108 17.29775409 11.80664062 17.2578125 C8.53790112 17.16340847 5.26916936 17.07782983 2 17 C1.93941406 16.27554687 1.87882812 15.55109375 1.81640625 14.8046875 C1.73261719 13.83789062 1.64882813 12.87109375 1.5625 11.875 C1.48128906 10.92367188 1.40007812 9.97234375 1.31640625 8.9921875 C0.99652355 5.96712397 0.52878423 2.99496277 0 0 Z " fill="#F998A2" transform="translate(301,344)"/>
<path d="M0 0 C2.98887951 2.98887951 1.32401957 14.22501671 1.35009766 18.47045898 C1.366565 20.43249448 1.3937312 22.39447232 1.43212891 24.35620117 C1.86686856 46.68480792 1.86686856 46.68480792 -5.74121094 54.87426758 C-11.35974542 60.25016063 -16.77300186 62.1634522 -24.4375 62.4375 C-31.17933782 62.25194483 -35.77339435 61.04243866 -40.7109375 56.38671875 C-46.20021509 50.3485134 -48.46408617 44.8208147 -48.36328125 36.609375 C-48.36377975 35.82355042 -48.36427826 35.03772583 -48.36479187 34.22808838 C-48.36246272 32.57748874 -48.352803 30.92688478 -48.33618164 29.27636719 C-48.31244208 26.74382068 -48.31564725 24.21231812 -48.32226562 21.6796875 C-48.31669307 20.07291037 -48.30958585 18.46613767 -48.30078125 16.859375 C-48.30169266 16.10106384 -48.30260406 15.34275269 -48.30354309 14.5614624 C-48.2310858 9.2310858 -48.2310858 9.2310858 -46 7 C-42.36254226 7.35487393 -38.84818438 8.2543692 -35.28515625 9.046875 C-34.48086182 9.22573242 -33.67656738 9.40458984 -32.84790039 9.58886719 C-31.9331897 9.79237793 -31.9331897 9.79237793 -31 10 C-30.98018066 10.92337158 -30.96036133 11.84674316 -30.93994141 12.7980957 C-30.86182261 16.22561174 -30.77513003 19.65268798 -30.68261719 23.07983398 C-30.64434653 24.56282212 -30.60949022 26.04590248 -30.578125 27.52905273 C-30.532432 29.66163072 -30.47444662 31.79357491 -30.4140625 33.92578125 C-30.36693115 35.85031128 -30.36693115 35.85031128 -30.31884766 37.8137207 C-30.23620772 41.15387459 -30.23620772 41.15387459 -28 44 C-23.92789115 44.53073253 -23.92789115 44.53073253 -20 44 C-17.42285647 41.51267963 -17.01117034 40.13425127 -16.71044922 36.52001953 C-16.72976044 35.14072798 -16.76192215 33.76157616 -16.8046875 32.3828125 C-16.81165793 30.87370503 -16.81680948 29.36458826 -16.8203125 27.85546875 C-16.84093001 25.48887284 -16.87499843 23.12505604 -16.94140625 20.75927734 C-17.27116137 7.5828124 -17.27116137 7.5828124 -14.07910156 3.6081543 C-9.44614709 0.3991548 -5.57531842 -0.81306727 0 0 Z " fill="#FAAFB3" transform="translate(320,234)"/>
<path d="M0 0 C11.44444444 0 11.44444444 0 15 3 C17.30273769 6.45410654 17.24216649 7.71921316 17.22363281 11.78491211 C17.22413635 12.97301987 17.22463989 14.16112762 17.22515869 15.38523865 C17.21425201 17.31183067 17.21425201 17.31183067 17.203125 19.27734375 C17.21097176 21.29098326 17.21885347 23.30462337 17.22881699 25.31825352 C17.25145085 30.288359 17.2556163 35.25817722 17.22998047 40.22827148 C17.21649869 43.01678602 17.21878409 45.8044334 17.23846436 48.59291077 C17.25631975 51.22049275 17.25054282 53.84836084 17.21905518 56.47581482 C17.25523143 59.7624777 17.32139448 62.78365206 18 66 C20.8310046 68.65728409 20.8310046 68.65728409 24 70 C24.68115234 72.01464844 24.68115234 72.01464844 24.5859375 74.109375 C24.57095215 74.78967773 24.5559668 75.46998047 24.54052734 76.17089844 C24.48590332 77.02200195 24.4312793 77.87310547 24.375 78.75 C24.25125 81.4725 24.1275 84.195 24 87 C15.09 85.02 6.18 83.04 -3 81 C-1.515 80.505 -1.515 80.505 0 80 C0 53.6 0 27.2 0 0 Z " fill="#774444" transform="translate(240,15)"/>
<path d="M0 0 C2.99747039 0.45011519 5.9790618 0.72536925 9 1 C9 5.29 9 9.58 9 14 C7.75863281 14.01417969 6.51726562 14.02835938 5.23828125 14.04296875 C3.59631757 14.089882 1.95439163 14.13812932 0.3125 14.1875 C-0.50412109 14.19330078 -1.32074219 14.19910156 -2.16210938 14.20507812 C-6.54796969 14.3648868 -8.49311148 14.61373811 -12.0859375 17.3515625 C-14.32191748 19.88614378 -14.32191748 19.88614378 -13.9375 23.1875 C-13.20031442 26.09782797 -13.20031442 26.09782797 -11 28 C-8.77341846 28.37004294 -8.77341846 28.37004294 -6.2109375 28.4140625 C-4.79941406 28.47207031 -4.79941406 28.47207031 -3.359375 28.53125 C-2.37453125 28.5621875 -1.3896875 28.593125 -0.375 28.625 C1.11386719 28.68300781 1.11386719 28.68300781 2.6328125 28.7421875 C5.08835385 28.8366314 7.5438841 28.92219875 10 29 C10.02684312 31.81256281 10.04676188 34.62487241 10.0625 37.4375 C10.07087891 38.23994141 10.07925781 39.04238281 10.08789062 39.86914062 C10.0965143 41.91295221 10.0522815 43.95683902 10 46 C7.82869641 48.17130359 3.00418087 47.23192974 0 47.25 C-0.82628906 47.270625 -1.65257812 47.29125 -2.50390625 47.3125 C-11.43860962 47.36842929 -18.65994415 45.30723317 -25.203125 39.078125 C-30.13635688 33.37273509 -32.93041635 27.11974258 -32.4765625 19.51171875 C-30.8520075 10.94951494 -26.0271051 4.91757653 -19 0 C-12.80903812 -3.67779914 -6.47576441 -2.2934999 0 0 Z " fill="#F7ADB1" transform="translate(183,234)"/>
<path d="M0 0 C1.550573 4.44769622 0.1609684 7.23089295 -1.65234375 11.3984375 C-5.00811113 17.87652757 -8.60006419 21.80936353 -15.5625 24.25 C-16.50738281 24.5490625 -17.45226562 24.848125 -18.42578125 25.15625 C-25.19702876 27.37565738 -29.99082693 32.2726099 -34 38 C-35.58369016 41.26026538 -36.86495817 44.55962477 -38 48 C-41.47905046 46.84031651 -41.81138872 46.16252073 -43.625 43.125 C-44.05039063 42.42632812 -44.47578125 41.72765625 -44.9140625 41.0078125 C-48.28815745 34.76937796 -48.07825198 26.31300793 -46.38671875 19.546875 C-43.72845411 13.5979832 -38.59702644 8.70082051 -32.73022461 5.92675781 C-29.73619498 4.91045302 -27.37407131 4.74557665 -24.21875 4.7265625 C-23.12949219 4.7059375 -22.04023438 4.6853125 -20.91796875 4.6640625 C-18.6393988 4.6380217 -16.36072619 4.61979189 -14.08203125 4.609375 C-7.56305075 4.55211632 -7.56305075 4.55211632 -1.71875 1.9609375 C-1.1515625 1.31382812 -0.584375 0.66671875 0 0 Z " fill="#FBB0B4" transform="translate(271,363)"/>
<path d="M0 0 C6.04782374 -0.62998164 10.13376489 -0.09701387 15.1484375 3.44921875 C20.8708891 8.24207378 25.19933131 13.73337931 26.3515625 21.3125 C26.81264702 29.07813399 24.29319046 35.26444067 19.16796875 41.078125 C11.20283856 48.5562354 3.37611447 49.44174599 -7.15625 49.29296875 C-8.29912476 49.28872391 -9.44199951 49.28447906 -10.61950684 49.28010559 C-14.24658409 49.26339974 -17.8730925 49.22576156 -21.5 49.1875 C-23.96874194 49.17244275 -26.43749264 49.15875617 -28.90625 49.14648438 C-34.93769196 49.11352271 -40.96880532 49.06340403 -47 49 C-47 48.67 -47 48.34 -47 48 C-46.43703217 48.00523682 -45.87406433 48.01047363 -45.29403687 48.01586914 C-39.42080533 48.06264951 -33.5495284 48.0534876 -27.67626953 48.01220703 C-25.4861716 48.00410875 -23.29597297 48.01015365 -21.10595703 48.03076172 C-17.95211756 48.05796233 -14.80214068 48.03387672 -11.6484375 48 C-10.67321136 48.0194165 -9.69798523 48.03883301 -8.69320679 48.05883789 C-3.41965041 47.97195643 -3.41965041 47.97195643 0.9274292 45.27099609 C2.47697653 43.24188671 3.77325154 41.23680175 5 39 C5.61875 37.88625 6.2375 36.7725 6.875 35.625 C8.32505915 30.95258717 8.83595692 26.84363277 8 22 C6.31366812 18.73022394 6.31366812 18.73022394 3 17 C-0.33662398 16.32758112 -3.6006449 16.07260758 -7 16 C-6.66226563 15.26394531 -6.32453125 14.52789062 -5.9765625 13.76953125 C-5.30753906 12.30580078 -5.30753906 12.30580078 -4.625 10.8125 C-4.18414062 9.84957031 -3.74328125 8.88664062 -3.2890625 7.89453125 C-2.12678149 5.28468208 -1.04075219 2.66024041 0 0 Z " fill="#F3959F" transform="translate(335,280)"/>
<path d="M0 0 C5.287655 3.13954515 8.19357407 8.48299706 10 14.1875 C11.17587566 21.85007438 9.40884744 27.86037999 5 34.1875 C1.37956333 38.1364037 -2.66322946 41.95593757 -8 43.1875 C-10.33322525 43.20995885 -12.66679532 43.21200273 -15 43.1875 C-15.19863726 38.7403174 -15.3433135 34.29551816 -15.43945312 29.84521484 C-15.47954492 28.33368946 -15.53403905 26.8224717 -15.60351562 25.31201172 C-16.16788335 12.72163183 -16.16788335 12.72163183 -13.28027344 8.9284668 C-11.25055885 7.42887734 -9.24055448 6.33374755 -7 5.1875 C-5.50613552 3.75208079 -5.50613552 3.75208079 -4.25 2.25 C-2 0.1875 -2 0.1875 0 0 Z " fill="#FA98A3" transform="translate(351,220.8125)"/>
<path d="M0 0 C1.24523437 0.01804687 2.49046875 0.03609375 3.7734375 0.0546875 C5.18496094 0.08949219 5.18496094 0.08949219 6.625 0.125 C6.24988281 0.54910156 5.87476563 0.97320312 5.48828125 1.41015625 C-3.00127938 11.14000533 -7.94294671 18.99559637 -7.625 32.25 C-7.61984375 33.11753906 -7.6146875 33.98507812 -7.609375 34.87890625 C-7.55439864 39.39383975 -7.2777523 43.68404111 -6.375 48.125 C-12.09750004 47.20980228 -16.12011101 45.05890614 -20.375 41.125 C-24.54965685 35.20380303 -27.41720966 28.91075821 -26.88671875 21.56640625 C-25.28178239 13.90926715 -21.40539967 8.51441738 -15.53515625 3.5 C-10.50206158 0.29629417 -5.87121171 -0.11077758 0 0 Z " fill="#F8AEB2" transform="translate(185.375,295.875)"/>
<path d="M0 0 C3.6504085 0.33966806 6.77391601 0.78161709 10.234375 2.01171875 C12.24940858 4.45639702 13.20754624 6.64666927 14.30859375 9.60546875 C15.1315421 12.23033344 15.1315421 12.23033344 17.609375 14.38671875 C18.145625 14.92296875 18.681875 15.45921875 19.234375 16.01171875 C18.8590259 19.50025748 17.28556921 21.4023798 15.046875 24.01171875 C4.97936124 36.64789858 3.18083086 49.34538361 2.234375 65.01171875 C-1.91547736 63.19343962 -3.45514093 60.9156401 -5.765625 57.01171875 C-7.44123469 51.98488967 -7.38622974 48.34840588 -5.140625 43.51171875 C-3.5027567 40.88405953 -1.60090106 38.66965131 0.484375 36.38671875 C2.51346716 34.10718449 3.18095426 33.34750625 3.671875 30.26171875 C3.25458425 27.85678119 3.25458425 27.85678119 2.234375 25.01171875 C1.63625 24.74359375 1.038125 24.47546875 0.421875 24.19921875 C-3.54779915 22.04425278 -5.37607726 18.18036196 -6.765625 14.01171875 C-7.16274783 8.74984128 -6.46587775 5.54814336 -3.765625 1.01171875 C-2.765625 0.01171875 -2.765625 0.01171875 0 0 Z " fill="#F95C76" transform="translate(117.765625,196.98828125)"/>
<path d="M0 0 C7.5061715 -0.39506166 12.69115267 0.9784385 18.6875 5.75 C23.15192216 9.892662 25.70884318 13.19430697 26.34375 19.3125 C26.58427087 28.77298748 25.38160988 35.23209931 18.93359375 42.35546875 C14.22609919 46.35921665 8.06149252 49.28709759 1.8125 49.3125 C0.884375 49.209375 -0.04375 49.10625 -1 49 C-0.61328125 48.53851563 -0.2265625 48.07703125 0.171875 47.6015625 C6.90649642 39.16661587 9.82443161 31.44015154 9.52734375 20.54296875 C8.65371151 14.67345434 6.06742045 10.00788108 3 5 C2.43925781 4.06285156 1.87851562 3.12570312 1.30078125 2.16015625 C0.87152344 1.44730469 0.44226563 0.73445313 0 0 Z " fill="#FA98A3" transform="translate(262,336)"/>
<path d="M0 0 C-0.5316787 8.15240676 -4.04335634 16.12238981 -9.98608398 21.8293457 C-14.36969456 24.37746217 -19.55963583 23.43336489 -24.4375 23.0625 C-25.54416016 23.01287109 -26.65082031 22.96324219 -27.79101562 22.91210938 C-33.83866533 22.5614686 -38.62769819 21.83688455 -44 19 C-43.42137365 15.09427217 -41.47900791 12.98939189 -39 10 C-38.39841064 8.70074585 -38.39841064 8.70074585 -37.78466797 7.37524414 C-36 5 -36 5 -32.98486328 4.40405273 C-31.77556152 4.41380127 -30.56625977 4.4235498 -29.3203125 4.43359375 C-28.67053436 4.42795914 -28.02075623 4.42232452 -27.35128784 4.41651917 C-25.27512537 4.40006343 -23.20108839 4.4155983 -21.125 4.4375 C-19.05624668 4.45413295 -16.98891168 4.4631273 -14.9201355 4.44776917 C-13.03810366 4.43425981 -11.15593027 4.4496575 -9.27392578 4.46655273 C-5.71791384 3.95980114 -2.86714559 0 0 0 Z " fill="#FAAFB3" transform="translate(336,371)"/>
<path d="M0 0 C4.01957918 -0.26287913 8.03694194 -0.4216837 12.0625 -0.5625 C13.19623047 -0.63791016 14.32996094 -0.71332031 15.49804688 -0.79101562 C23.77416339 -1.0081732 23.77416339 -1.0081732 27.30029297 1.8918457 C30.9778425 6.52715995 33.45334896 11.29672429 35 17 C34.5625 19.23046875 34.5625 19.23046875 34 21 C33.47438477 20.5155542 32.94876953 20.0311084 32.40722656 19.53198242 C29.29508825 17.5513873 27.15799945 17.57177271 23.484375 17.48828125 C22.23398437 17.45283203 20.98359375 17.41738281 19.6953125 17.38085938 C18.39335937 17.35830078 17.09140625 17.33574219 15.75 17.3125 C14.43257813 17.27833984 13.11515625 17.24417969 11.7578125 17.20898438 C8.50529322 17.12649294 5.25304404 17.0573433 2 17 C1.93941406 16.27554687 1.87882812 15.55109375 1.81640625 14.8046875 C1.38516567 9.82883467 0.92952359 4.91319609 0 0 Z " fill="#F9AEB2" transform="translate(301,344)"/>
<path d="M0 0 C2.49481635 8.41227332 1.9827101 16.97505977 -1.875 24.8125 C-4.60363636 29.80181818 -4.60363636 29.80181818 -7 31 C-7.07408587 26.90666095 -7.1285704 22.81358067 -7.16479492 18.71972656 C-7.17989358 17.32675378 -7.20037444 15.93382862 -7.22631836 14.54101562 C-7.26265122 12.54057115 -7.27811192 10.53978173 -7.29296875 8.5390625 C-7.3086792 7.33459473 -7.32438965 6.13012695 -7.34057617 4.88916016 C-7.22818604 3.9357373 -7.1157959 2.98231445 -7 2 C-4 0 -4 0 0 0 Z " fill="#FEB1B5" transform="translate(343,230)"/>
<path d="M0 0 C4.78365388 4.78365388 7.75158049 8.10809442 8.1875 14.9375 C8.125625 15.618125 8.06375 16.29875 8 17 C7.38125 16.690625 6.7625 16.38125 6.125 16.0625 C1.76365941 14.5796442 -2.40959881 14.3672321 -7 14 C-4.69 9.38 -2.38 4.76 0 0 Z " fill="#FAAFB3" transform="translate(335,282)"/>
</svg>
