<?xml version="1.0" encoding="UTF-8"?>
<svg version="1.1" xmlns="http://www.w3.org/2000/svg" width="512" height="512">
<path d="M0 0 C18.51219852 -0.56846538 35.1025386 5.63986294 48.97265625 17.828125 C61.96150466 30.49861928 69.26057591 46.15502683 69.7121582 64.28613281 C69.78939357 72.96825368 69.58176747 80.98908564 66.36328125 89.16015625 C65.945625 90.40732422 65.945625 90.40732422 65.51953125 91.6796875 C63.16595568 98.2839017 59.63270796 103.63448031 55.36328125 109.16015625 C54.85152344 109.84980469 54.33976563 110.53945312 53.8125 111.25 C48.72277504 117.62794319 42.09259063 121.70033945 35.36328125 126.16015625 C34.02080629 127.1478499 32.68300708 128.14226553 31.36328125 129.16015625 C31.76160156 129.70542969 32.15992188 130.25070313 32.5703125 130.8125 C40.38722441 141.93876148 42.02703707 152.69980571 41.36328125 166.16015625 C40.9046073 168.68086873 40.27730451 170.76084519 39.36328125 173.16015625 C40.04648438 172.85722656 40.7296875 172.55429688 41.43359375 172.2421875 C56.76836175 165.86904223 77.19124349 158.9079772 93.40234375 165.2578125 C99.88977674 168.24306553 103.15193089 171.9293689 106.36328125 178.16015625 C107.55668039 181.74035366 107.53912467 185.02434657 107.56860352 188.75268555 C107.57850311 189.5236557 107.58840271 190.29462585 107.59860229 191.08895874 C107.63019081 193.63739958 107.65496425 196.18585907 107.6796875 198.734375 C107.70025931 200.50129175 107.72125585 202.26820361 107.74266052 204.03511047 C107.7978577 208.68588292 107.84727737 213.33669961 107.89550781 217.98754883 C107.94574001 222.73327574 108.00141711 227.47893839 108.05664062 232.22460938 C108.16419341 241.53640344 108.26564481 250.8482533 108.36328125 260.16015625 C112.65328125 259.17015625 116.94328125 258.18015625 121.36328125 257.16015625 C121.35884003 255.56544495 121.3543988 253.97073364 121.349823 252.32769775 C121.30932619 237.31847943 121.2792005 222.30928112 121.25965691 207.30002213 C121.24934177 199.58313046 121.23527692 191.86627956 121.21240234 184.14941406 C121.19247571 177.42385193 121.17956654 170.69831932 121.17510426 163.97272849 C121.17249564 160.41116669 121.16635936 156.84968935 121.15182114 153.2881546 C121.13572799 149.31350616 121.1353011 145.33894057 121.13623047 141.36425781 C121.12903992 140.18174438 121.12184937 138.99923096 121.11444092 137.78088379 C121.11719025 136.69837341 121.11993958 135.61586304 121.12277222 134.50054932 C121.12092863 133.56032047 121.11908504 132.62009163 121.11718559 131.651371 C121.37878234 129.00323945 121.93110885 127.39070023 123.36328125 125.16015625 C125.85101679 123.91628848 127.5330729 124.02654671 130.31616211 124.01489258 C131.34740707 124.00851273 132.37865204 124.00213287 133.44114685 123.99555969 C134.55884964 123.99444687 135.67655243 123.99333405 136.828125 123.9921875 C137.97237442 123.9888591 139.11662384 123.9855307 140.29554749 123.98210144 C142.71908159 123.97703157 145.1426227 123.97469313 147.56616211 123.97485352 C151.28185479 123.97266739 154.99725053 123.95451302 158.71289062 123.93554688 C161.06380106 123.93261296 163.41471292 123.93062815 165.765625 123.9296875 C166.88130356 123.92250198 167.99698212 123.91531647 169.14646912 123.90791321 C170.18086624 123.91098984 171.21526337 123.91406647 172.28100586 123.91723633 C173.19208603 123.91581131 174.1031662 123.91438629 175.04185486 123.91291809 C177.36328125 124.16015625 177.36328125 124.16015625 180.36328125 126.16015625 C181.37413466 129.19271648 181.48664155 131.20928809 181.48353577 134.3802948 C181.48559776 136.00199837 181.48559776 136.00199837 181.48770142 137.65646362 C181.48410614 138.84257233 181.48051086 140.02868103 181.47680664 141.25073242 C181.47695267 142.49962753 181.47709869 143.74852264 181.47724915 145.03526306 C181.47667138 148.46061958 181.4716521 151.88591601 181.46467519 155.31126189 C181.45842881 158.89071841 181.45783683 162.47017571 181.45664978 166.04963684 C181.45354026 172.82816081 181.44533197 179.60666867 181.43530029 186.38518554 C181.4241274 194.10215563 181.41862573 201.81912649 181.41360486 209.53610265 C181.40314905 225.41079677 181.38535577 241.2854738 181.36328125 257.16015625 C187.79828125 258.64515625 187.79828125 258.64515625 194.36328125 260.16015625 C194.36541878 258.7088884 194.36541878 258.7088884 194.36759949 257.228302 C194.38432202 248.07774775 194.42725536 238.92763522 194.49537182 229.77731514 C194.52955606 225.07381023 194.55473842 220.37062717 194.55883789 215.66699219 C194.5631393 211.12144661 194.59175358 206.57662602 194.63671303 202.03130722 C194.64962944 200.30355946 194.65401662 198.57572469 194.64943504 196.84793472 C194.6131709 179.00774004 194.6131709 179.00774004 200.36328125 171.16015625 C206.40648656 165.11695094 213.5390798 163.04289098 221.88671875 162.92578125 C228.5251891 162.98674057 234.58025023 164.26869018 240.98828125 165.91015625 C242.04273438 166.1628125 243.0971875 166.41546875 244.18359375 166.67578125 C250.82693515 168.32017269 257.08611241 170.43521085 263.36328125 173.16015625 C263.03328125 172.29390625 262.70328125 171.42765625 262.36328125 170.53515625 C258.71969907 157.58602244 262.1656042 144.79495083 268.1796875 133.25390625 C269.1650233 131.51086999 270.25262489 129.82614079 271.36328125 128.16015625 C270.61304688 127.75925781 269.8628125 127.35835938 269.08984375 126.9453125 C251.88921191 117.39181295 240.97947833 103.97662744 234.94140625 85.265625 C230.19728454 67.98804662 232.91952744 49.11719734 241.3515625 33.5546875 C250.42935048 18.23702196 265.02076601 6.69102358 282.3046875 1.9921875 C301.1103953 -2.11613636 319.2586719 0.40438781 335.92578125 10.22265625 C351.79496102 20.95632886 361.96563193 36.13945217 365.953125 54.94140625 C366.47445723 59.03262298 366.50867486 63.04064742 366.48828125 67.16015625 C366.49214844 67.94132812 366.49601562 68.7225 366.5 69.52734375 C366.49272266 73.85008456 366.222753 77.9037247 365.36328125 82.16015625 C366.62140625 82.36640625 367.87953125 82.57265625 369.17578125 82.78515625 C381.06028615 85.50055174 392.02042511 93.41780392 398.7265625 103.56640625 C404.75641974 113.44098284 407.93813401 122.83768776 407.80078125 134.47265625 C407.79248291 135.38837402 407.78418457 136.3040918 407.77563477 137.24755859 C407.38907869 152.84461482 401.15447806 165.34657042 389.89453125 176.0859375 C383.73173486 181.13600677 376.97049782 184.8272765 369.36328125 187.16015625 C369.77900391 188.77083984 369.77900391 188.77083984 370.203125 190.4140625 C370.56920221 191.85021154 370.93507683 193.28641224 371.30078125 194.72265625 C371.48318359 195.42712891 371.66558594 196.13160156 371.85351562 196.85742188 C375.88419144 212.7602701 375.56074022 225.57373163 368.36328125 240.16015625 C367.83347656 241.23523438 367.30367188 242.3103125 366.7578125 243.41796875 C363.16304668 250.09518222 358.92781962 254.93421187 353.20703125 259.90625 C352.59859375 260.65003906 351.99015625 261.39382813 351.36328125 262.16015625 C351.80104963 266.03723408 353.13808096 269.59792021 354.4375 273.26171875 C372.20846442 324.26665003 389.68721668 404.70198291 367.36328125 457.16015625 C363.29291317 465.02660884 357.99206256 470.84147367 349.4140625 473.65234375 C338.28084684 476.40914001 327.14620393 471.01133285 317.71606445 465.49926758 C314.11647369 463.32829668 310.65749923 460.9964338 307.21362305 458.58837891 C285.51225984 443.52811292 259.65973733 434.43693277 234.23828125 427.91015625 C226.82414021 426.00477616 220.48190156 423.95138993 214.36328125 419.16015625 C213.739375 418.72316406 213.11546875 418.28617187 212.47265625 417.8359375 C202.02273709 409.90762926 197.17025302 396.74802428 195.36328125 384.16015625 C195.25281572 381.85400582 195.18799652 379.54541559 195.15795898 377.23681641 C195.14805939 376.57269745 195.13815979 375.90857849 195.12796021 375.22433472 C195.09660538 373.04933118 195.07169183 370.87430586 195.046875 368.69921875 C195.02628294 367.1832119 195.0052859 365.66721049 194.98390198 364.1512146 C194.92891374 360.17617224 194.87940273 356.20108008 194.83105469 352.22595215 C194.78066906 348.16361093 194.72507237 344.10134133 194.66992188 340.0390625 C194.562625 332.07948779 194.46111777 324.11985284 194.36328125 316.16015625 C188.65711613 314.5578837 182.94636688 312.97360549 177.23071289 311.40551758 C175.28860732 310.87002659 173.34782403 310.32971496 171.40844727 309.78442383 C168.61421318 308.99968766 165.81562094 308.23263587 163.015625 307.46875 C162.15492905 307.22297714 161.29423309 306.97720428 160.40745544 306.72398376 C152.13811302 304.50318836 145.4501268 306.27403711 137.3671875 308.4453125 C136.53364243 308.665858 135.70009735 308.8864035 134.84129333 309.1136322 C132.2017854 309.81292072 129.56377958 310.51769678 126.92578125 311.22265625 C125.12704985 311.70023425 123.32822263 312.1774515 121.52929688 312.65429688 C117.13950558 313.81874672 112.75105215 314.9881174 108.36328125 316.16015625 C108.35741501 316.99794617 108.35154877 317.83573608 108.34550476 318.69891357 C108.28730386 326.64207521 108.21507332 334.58496381 108.12756634 342.52785873 C108.08307315 346.61018604 108.04377244 350.69241838 108.0168457 354.77490234 C107.99060036 358.72382555 107.95005311 362.67237902 107.90009499 366.62107086 C107.88356831 368.11829231 107.87196653 369.61557749 107.86566734 371.11287689 C107.81265634 382.56821238 106.8187225 393.28383492 101.42578125 403.59765625 C100.94238281 404.54511719 100.45898438 405.49257813 99.9609375 406.46875 C97.31176095 410.93154375 94.32310758 414.46464636 90.23828125 417.66015625 C89.21347656 418.48 89.21347656 418.48 88.16796875 419.31640625 C80.43303493 424.40120954 72.53206414 427.19451941 63.61328125 429.47265625 C36.74412138 436.72391519 11.14863774 446.98804011 -11.63671875 463.16015625 C-21.98032987 470.00671197 -33.49950065 475.70342147 -46.19921875 473.59765625 C-54.02765654 471.52462046 -59.16349634 466.39789267 -63.32421875 459.63671875 C-72.79770443 441.76115351 -71.87167984 420.13916985 -71.88671875 400.41015625 C-71.88739349 399.59844971 -71.88806824 398.78674316 -71.88876343 397.95043945 C-71.83179837 354.07775921 -65.72393142 310.70181992 -50.3894043 269.45825195 C-49.58748767 267.00984416 -48.9476694 264.72083218 -48.63671875 262.16015625 C-50.4547042 259.83966421 -50.4547042 259.83966421 -53.07421875 257.72265625 C-62.73255614 248.60540218 -70.55486661 234.80320365 -72.04296875 221.5390625 C-72.33230951 209.95337634 -70.44486832 198.71922981 -65.63671875 188.16015625 C-67.19519531 187.45052734 -67.19519531 187.45052734 -68.78515625 186.7265625 C-77.58636288 182.60228474 -84.93375132 178.37205268 -91.63671875 171.16015625 C-92.61898437 170.11408203 -92.61898437 170.11408203 -93.62109375 169.046875 C-104.63452903 156.17433419 -105.7601378 140.30538253 -104.63671875 124.16015625 C-102.32622363 111.22973476 -94.70204198 99.00099125 -84.1015625 91.32421875 C-70.35546875 82.16015625 -70.35546875 82.16015625 -62.63671875 82.16015625 C-62.87455078 80.93425781 -62.87455078 80.93425781 -63.1171875 79.68359375 C-65.99685294 60.15383262 -61.9124138 42.71694132 -50.7578125 26.4140625 C-40.03258849 12.17876517 -24.18013093 3.5630197 -6.76171875 0.47265625 C-4.5097373 0.26139252 -2.25777601 0.13713899 0 0 Z " fill="#010101" transform="translate(104.63671875,18.83984375)"/>
<path d="M0 0 C11.22 0 22.44 0 34 0 C34.02187378 5.79268433 34.02187378 5.79268433 34.04418945 11.70239258 C34.09444896 24.43899395 34.16087707 37.17546748 34.23571491 49.9119463 C34.28070722 57.63667755 34.32011385 65.36136235 34.34643555 73.08618164 C34.36938793 79.81804745 34.40275476 86.54976665 34.44870156 93.28151625 C34.47267132 96.84694365 34.49137536 100.41222553 34.49761391 103.9777317 C34.50476805 107.95512481 34.5351703 111.9321526 34.56762695 115.90942383 C34.56619186 117.09553253 34.56475677 118.28164124 34.5632782 119.50369263 C34.57581635 120.58482834 34.58835449 121.66596405 34.60127258 122.77986145 C34.60818603 124.19158741 34.60818603 124.19158741 34.61523914 125.63183308 C35.07266722 128.44725989 35.74811182 129.30352978 38 131 C40.68691335 132.05133476 40.68691335 132.05133476 43.76953125 132.82421875 C44.90583984 133.13037109 46.04214844 133.43652344 47.21289062 133.75195312 C48.40076172 134.06068359 49.58863281 134.36941406 50.8125 134.6875 C51.98876953 135.00783203 53.16503906 135.32816406 54.37695312 135.65820312 C63.22202209 138.44429427 63.22202209 138.44429427 72 137 C72.00364563 135.89832489 72.00729126 134.79664978 72.01104736 133.66159058 C72.04800645 123.27368511 72.10578927 112.88607583 72.18390274 102.49839592 C72.2233931 97.15809789 72.25557403 91.81796514 72.27099609 86.47753906 C72.28615226 81.32262785 72.32057969 76.16817099 72.36830902 71.01346207 C72.38313348 69.04795407 72.39104162 67.0823812 72.39188385 65.11681747 C72.39425203 62.36107836 72.42131959 59.60659636 72.45410156 56.85107422 C72.4490712 56.04043015 72.44404083 55.22978607 72.43885803 54.39457703 C72.5351825 49.15278968 73.5631661 46.17967574 77 42 C82.28224501 38.13304005 90.89285085 39.38333181 97.01953125 40.30322266 C101.04975893 41.04959735 105.02960202 41.98628137 109 43 C107.76467577 52.17824232 107.76467577 52.17824232 105 56 C101.45804083 58.26939899 97.75837564 60.12081218 94 62 C92.67254834 63.11258591 92.67254834 63.11258591 92.75 65.9375 C92.8325 66.948125 92.915 67.95875 93 69 C95.787058 71.30301383 95.787058 71.30301383 98.77734375 70.7890625 C104.90237633 69.28935755 110.13459669 67.06500665 115 63 C117.75539907 58.40974431 118.91077983 53.19217221 120 48 C125.19717697 48.56403471 129.11457535 50.26128675 133.6875 52.625 C134.74578003 53.1667688 134.74578003 53.1667688 135.82543945 53.71948242 C172.23995258 72.62151412 197.28365808 107.43017223 210 146 C210.37030469 147.99348578 210.71289764 149.99284197 211 152 C187.42847129 147.7429525 187.42847129 147.7429525 182.40625 141.078125 C180.1036528 137.23302822 178.52374115 133.20534032 177 129 C176.34 128.01 175.68 127.02 175 126 C174.73297466 120.83751011 175.1831986 116.06558377 176.07421875 110.98046875 C176.18453259 108.89992027 176.18453259 108.89992027 174.6875 107.25 C172.40499953 105.55925891 170.76950575 105.77544548 168 106 C165.35442492 111.80623094 165.35442492 111.80623094 164 118 C163.87753906 118.63808594 163.75507813 119.27617187 163.62890625 119.93359375 C162.65445241 128.82361111 167.79403559 135.90644221 172.17382812 143.25756836 C173 145 173 145 173 148 C156.66630615 158.75711816 156.66630615 158.75711816 149.4921875 157.80859375 C145.53758333 156.89153071 141.79511799 155.42529655 138 154 C134.34717413 153.3407333 130.71749975 153 127 153 C126.73067479 157.65052872 126.73067479 157.65052872 128 162 C131.63119535 163.4827832 135.43119533 164.50289806 139.1875 165.625 C140.22970703 165.94984375 141.27191406 166.2746875 142.34570312 166.609375 C143.86647461 167.06957031 143.86647461 167.06957031 145.41796875 167.5390625 C146.34375732 167.81959473 147.2695459 168.10012695 148.22338867 168.38916016 C154.00335447 169.66072214 157.47757874 169.15149581 162.5546875 166.12109375 C163.58207031 165.53005859 164.60945313 164.93902344 165.66796875 164.33007812 C167.80191419 163.0707644 169.93215556 161.80515235 172.05859375 160.53320312 C181.59738189 155.07138138 181.59738189 155.07138138 186.81054688 156.33618164 C187.89432617 156.66477173 187.89432617 156.66477173 189 157 C189.99064453 157.23517334 190.98128906 157.47034668 192.00195312 157.71264648 C195.4673484 158.55659407 198.88423387 159.51668409 202.3125 160.5 C204.08077148 160.95246094 204.08077148 160.95246094 205.88476562 161.4140625 C214.13229455 163.80957119 214.13229455 163.80957119 216.37060547 166.88037109 C217.20941515 169.26100814 217.63199236 171.50353498 218 174 C218.42336102 175.84721123 218.85063599 177.69352858 219.28125 179.5390625 C219.69602143 181.56598323 220.10190927 183.59473727 220.5 185.625 C220.71430664 186.71022949 220.92861328 187.79545898 221.14941406 188.91357422 C222.56773192 196.29075239 223.76953034 203.67720164 224.75 211.125 C224.86537109 211.99850098 224.98074219 212.87200195 225.09960938 213.77197266 C227.06713203 229.71188728 227.21558658 245.62109511 227.24023438 261.66064453 C227.2499782 265.49142871 227.28110517 269.32168389 227.3125 273.15234375 C227.47934263 311.89619325 227.47934263 311.89619325 216.875 322.625 C213.30041452 325.26248485 210.26110241 325.93646089 205.8515625 325.63671875 C197.03456719 323.6679924 189.39588099 318.3711143 182.0625 313.3125 C157.30576453 296.28792403 128.4177347 286.1882705 99.49926758 278.7578125 C95.72661517 277.61389211 92.45287665 275.88930986 89 274 C89 266.71907325 94.85216452 262.11257746 99.61425781 257.01293945 C107.26493231 249.8405966 113.52424563 248.4908613 123.61230469 248.61264038 C125.72255029 248.68653874 127.82320247 248.80950003 129.9296875 248.9543457 C138.42021514 249.71562733 138.42021514 249.71562733 145.61328125 245.8515625 C146.77308701 244.59555238 147.90486606 243.31278045 149 242 C149.96794303 241.05612357 150.94492939 240.12136799 151.93359375 239.19921875 C152.75988281 238.37035156 153.58617187 237.54148437 154.4375 236.6875 C155.28183594 235.84574219 156.12617188 235.00398437 156.99609375 234.13671875 C159.51383017 231.45211481 159.973806 230.64175304 160.125 226.9375 C160.33648017 224.11101184 160.33648017 224.11101184 159 223 C155.73442394 222.28837356 155.73442394 222.28837356 152 223 C150.14932506 224.62158653 148.7438102 226.40746843 147.21704102 228.33569336 C143.53426442 232.97778272 140.00584797 237.27289962 134.06298828 238.71044922 C127.34795231 239.31882711 120.67684166 238.84841921 114 238 C113.9906543 237.33468262 113.98130859 236.66936523 113.97167969 235.98388672 C113.91773981 232.94685981 113.83413938 229.91133421 113.75 226.875 C113.73582031 225.82828125 113.72164063 224.7815625 113.70703125 223.703125 C113.51380158 217.59706728 113.0865084 213.81906351 109 209 C108.30261719 208.02417969 107.60523438 207.04835938 106.88671875 206.04296875 C106.16097656 205.10066406 105.43523437 204.15835938 104.6875 203.1875 C103.61048828 201.75470703 103.61048828 201.75470703 102.51171875 200.29296875 C99.34149434 197.39884475 97.24292652 197.06466359 93 197 C90.74482777 198.86841955 90.74482777 198.86841955 90.53125 201.7890625 C91.06792219 205.46526698 92.20390773 206.51874223 94.91796875 208.92773438 C101.28542516 214.75277783 103.5545862 220.94615396 104 229.5 C104.09692694 238.03360953 101.62182708 243.54901696 95.89526367 249.70983887 C91.22907896 254.47278777 86.19848799 258.82856891 81 263 C78 262 78 262 76.4375 259 C72.601148 248.97822708 72.66012791 239.0555451 72.5859375 228.49609375 C72.56720116 226.80500876 72.54762596 225.11393288 72.5272522 223.42286682 C72.47618526 218.99906818 72.43642435 214.57523931 72.39910889 210.15130615 C72.35890867 205.62618693 72.30788985 201.10119067 72.2578125 196.57617188 C72.16135492 187.71753462 72.07685476 178.85882751 72 170 C70.87174301 169.73862244 69.74348602 169.47724487 68.58103943 169.20794678 C61.17070407 167.48331216 53.78271837 165.75726271 46.47265625 163.640625 C45.06981835 163.24293572 43.66681903 162.84581551 42.26367188 162.44921875 C40.14721871 161.84719445 38.03220155 161.24116971 35.91967773 160.62548828 C33.81554216 160.01443214 31.7072108 159.42016082 29.59765625 158.828125 C28.37570557 158.4765332 27.15375488 158.12494141 25.89477539 157.76269531 C16.88140501 155.99764992 9.33165007 157.33914787 0.59375 159.84375 C-0.976026 160.27657288 -0.976026 160.27657288 -2.57751465 160.71813965 C-5.88847557 161.63345818 -9.1942544 162.56604008 -12.5 163.5 C-15.83521889 164.43034548 -19.17140064 165.35712365 -22.50817871 166.28186035 C-24.57709604 166.85651058 -26.64492696 167.43508937 -28.71154785 168.01794434 C-29.64011597 168.27821411 -30.56868408 168.53848389 -31.52539062 168.80664062 C-32.3435022 169.03758423 -33.16161377 169.26852783 -34.0045166 169.50646973 C-36 170 -36 170 -38 170 C-38.00586624 170.92548645 -38.01173248 171.8509729 -38.01777649 172.80450439 C-38.07593587 181.5717541 -38.14814382 190.33875532 -38.23571491 199.10576248 C-38.28024043 203.6118309 -38.31953463 208.1178126 -38.34643555 212.62402344 C-38.37264782 216.98141163 -38.41317347 221.33846288 -38.46318626 225.69564056 C-38.47973481 227.34916712 -38.49132322 229.00275179 -38.49761391 230.65634918 C-38.54530104 242.05044579 -38.63891487 253.09310146 -45 263 C-54.14517604 258.83860658 -62.6706603 250.39518806 -68 242 C-70.70564223 234.24465683 -70.44684482 225.80563721 -68 218 C-65.81216475 213.80067894 -62.91898435 210.70597199 -59.40625 207.5859375 C-56.71662227 205.18660903 -56.71662227 205.18660903 -56.53125 201.7890625 C-56.74482777 198.86841955 -56.74482777 198.86841955 -59 197 C-63.24292652 197.06466359 -65.34149434 197.39884475 -68.51171875 200.29296875 C-69.22972656 201.24816406 -69.94773437 202.20335937 -70.6875 203.1875 C-71.41324219 204.12980469 -72.13898438 205.07210937 -72.88671875 206.04296875 C-73.58410156 207.01878906 -74.28148437 207.99460937 -75 209 C-76.10021484 210.29744141 -76.10021484 210.29744141 -77.22265625 211.62109375 C-79.84411287 216.60474205 -79.67477939 221.32235151 -79.75 226.875 C-79.79447266 228.47988281 -79.79447266 228.47988281 -79.83984375 230.1171875 C-79.910228 232.74486608 -79.96307994 235.37167364 -80 238 C-98.98692197 240.41264811 -98.98692197 240.41264811 -105.44873047 236.52783203 C-109.03900648 233.44111462 -111.91384897 229.98155274 -114.84375 226.28125 C-117.35458384 223.24415554 -117.66169805 223.04675718 -121.84375 222.46875 C-124.85523292 222.66192249 -124.85523292 222.66192249 -126 224 C-126.55775208 226.86312735 -126.7387297 228.24302452 -126 231 C-123.57090246 234.33830436 -120.63762401 237.06580076 -117.625 239.875 C-116.8309375 240.64585937 -116.036875 241.41671875 -115.21875 242.2109375 C-111.43335665 246.04662256 -111.43335665 246.04662256 -107 249 C-104.84526566 248.90264027 -102.69284788 248.75241996 -100.54296875 248.578125 C-76.86006975 247.24789655 -76.86006975 247.24789655 -68.20703125 254.73828125 C-62.91387691 259.63468273 -58.29267741 265.22008996 -54 271 C-55 274 -55 274 -58.36328125 275.99609375 C-63.45499177 278.37990411 -68.75716866 279.6788908 -74.1875 281.0625 C-101.12909854 288.30183379 -126.91797402 298.73870246 -150.02954102 314.44677734 C-158.75799419 320.35874195 -168.03857001 326.61418318 -179 325 C-186.91743619 320.21966117 -189.10951806 312.37035946 -191.38671875 303.80859375 C-193.02216751 296.31886346 -193.18853199 289.07139379 -193.23828125 281.421875 C-193.2480751 280.19430984 -193.25786896 278.96674469 -193.26795959 277.70198059 C-193.29316656 273.71797756 -193.30666167 269.73406849 -193.3125 265.75 C-193.31365059 265.07278271 -193.31480118 264.39556541 -193.31598663 263.69782639 C-193.35350429 231.97347267 -191.22792639 200.80270187 -183 170 C-182.658479 168.66521606 -182.658479 168.66521606 -182.31005859 167.3034668 C-180.39846276 163.94232132 -178.32313081 163.64142268 -174.671875 162.54296875 C-174.04524963 162.35027908 -173.41862427 162.15758942 -172.77301025 161.95906067 C-171.44770089 161.55579561 -170.11942411 161.16217359 -168.78857422 160.77758789 C-166.7646167 160.19173096 -164.75162156 159.57633038 -162.73828125 158.95507812 C-149.03370445 154.82864114 -149.03370445 154.82864114 -143.74584961 156.87036133 C-143.05499268 157.2702124 -142.36413574 157.67006348 -141.65234375 158.08203125 C-140.88212891 158.51966797 -140.11191406 158.95730469 -139.31835938 159.40820312 C-138.53267578 159.87162109 -137.74699219 160.33503906 -136.9375 160.8125 C-135.75317383 161.49022461 -135.75317383 161.49022461 -134.54492188 162.18164062 C-128.33232231 165.74880802 -128.33232231 165.74880802 -125.50390625 167.88671875 C-118.72234311 170.90192233 -110.10125703 167.04467482 -103.4375 164.9375 C-102.52419922 164.65583984 -101.61089844 164.37417969 -100.66992188 164.08398438 C-98.44427788 163.39648178 -96.22118518 162.70174718 -94 162 C-93.27743171 157.51866426 -93.27743171 157.51866426 -93 153 C-99.97865958 152.66918318 -105.28782888 154.09695751 -111.8203125 156.3984375 C-117.44735726 158.2333434 -120.37867886 157.80362302 -125.75878906 155.12402344 C-127.63799302 154.14731238 -129.47507816 153.11549149 -131.3125 152.0625 C-131.94478516 151.71509766 -132.57707031 151.36769531 -133.22851562 151.00976562 C-137.87898892 148.36303323 -137.87898892 148.36303323 -139 145 C-138.28735352 143.25756836 -138.28735352 143.25756836 -137.12890625 141.33984375 C-136.71866211 140.63359863 -136.30841797 139.92735352 -135.88574219 139.19970703 C-135.44907227 138.45317871 -135.01240234 137.70665039 -134.5625 136.9375 C-129.42770095 127.67033614 -128.84797866 122.2035719 -131.4375 111.9375 C-132.21693437 108.68699809 -132.21693437 108.68699809 -134 106 C-136.95804573 105.66659529 -136.95804573 105.66659529 -140 106 C-142.30300815 109.45451223 -141.92380986 110.47908281 -141.30786133 114.39526367 C-139.90381615 124.27925182 -142.0818407 131.89414458 -147.57421875 140.19921875 C-152.94551898 146.97724932 -160.90736751 148.38075062 -169 150 C-171.67281271 150.64388964 -174.33524972 151.32323803 -177 152 C-173.96687533 120.71092441 -146.39304108 86.27586585 -123 67 C-114.27443525 60.15378766 -98.57933868 48 -87 48 C-86.81308594 48.99 -86.62617188 49.98 -86.43359375 51 C-85.05945617 56.90849256 -83.74619816 62.15405953 -78.57421875 65.77734375 C-72.49485746 69.32915899 -67.20990908 71.45644127 -60 71 C-59.00441342 66.89820415 -59.00441342 66.89820415 -60 63 C-62.10394794 61.49423334 -64.05045398 60.27292781 -66.3125 59.0625 C-70.62193895 56.74576503 -73.74825392 55.0441622 -75.375 50.1875 C-76.10536817 47.10796256 -76.03378934 46.10136803 -75 43 C-66.40550722 39.62061206 -56.11414954 38.90372258 -47 40 C-42.78254532 41.85711783 -40.95513533 43.86200068 -39 48 C-38.70129141 50.98167898 -38.5623734 53.75679538 -38.56762695 56.73754883 C-38.55233948 58.0407457 -38.55233948 58.0407457 -38.53674316 59.37026978 C-38.50662778 62.23258933 -38.49734942 65.09457412 -38.48828125 67.95703125 C-38.47143349 69.94529837 -38.45328312 71.93355485 -38.43388367 73.92179871 C-38.38638815 79.1479459 -38.3565758 84.37404993 -38.33044434 89.6003418 C-38.30063664 94.93612187 -38.25410699 100.27175323 -38.20898438 105.60742188 C-38.12295629 116.07153679 -38.05560871 126.53568231 -38 137 C-31.19859504 140.40070248 -20.18569361 135.584076 -13.4375 133.5625 C-12.34630859 133.24990234 -11.25511719 132.93730469 -10.13085938 132.61523438 C-6.02350699 131.42968838 -6.02350699 131.42968838 -2 130 C-0.73879419 127.47758839 -0.86112655 125.724477 -0.84178162 122.90011597 C-0.8319928 121.82035492 -0.82220398 120.74059387 -0.81211853 119.62811279 C-0.80636307 118.43840881 -0.8006076 117.24870483 -0.79467773 116.02294922 C-0.78477814 114.77420013 -0.77487854 113.52545105 -0.76467896 112.23886108 C-0.73845517 108.80934188 -0.71660803 105.37984641 -0.69667697 101.9502883 C-0.67483406 98.36812915 -0.64743709 94.78601268 -0.62062073 91.20388794 C-0.57067088 84.41827854 -0.52574057 77.63264548 -0.48259836 70.84698975 C-0.43324555 63.12275751 -0.37832018 55.39856806 -0.32291877 47.6743772 C-0.20906354 31.78295614 -0.10296794 15.8914959 0 0 Z " fill="#F94F59" transform="translate(239,155)"/>
<path d="M0 0 C13.20410309 9.43754804 21.65848143 21.56864466 24.4375 37.7421875 C26.10811655 53.54144684 22.24406643 68.11251861 12.4375 80.7421875 C4.99048523 89.8620824 -5.08601774 94.91642557 -16.0078125 98.796875 C-18.46253033 99.5029606 -18.46253033 99.5029606 -19.5625 100.7421875 C-20.31663353 103.98575326 -20.31663353 103.98575326 -19.5625 107.7421875 C-17.74384669 109.70650964 -15.75842858 111.27236796 -13.6640625 112.9375 C-7.21430683 118.47613776 -4.44937158 126.70713456 -3.2421875 134.921875 C-2.71270997 144.55836609 -6.24253489 154.48105005 -12.46484375 161.7734375 C-15.52735748 164.64775206 -18.93967372 166.67258941 -22.5390625 168.8125 C-44.27741216 182.6868472 -59.35140231 203.78669957 -71.51611328 226.02490234 C-72.5625 227.7421875 -72.5625 227.7421875 -74.5625 229.7421875 C-83.08887383 222.84852355 -88.12999933 213.0396895 -91.5625 202.7421875 C-92.77371579 189.77967255 -92.27860945 177.22664825 -83.75 166.8046875 C-83.12480469 166.13566406 -82.49960938 165.46664062 -81.85546875 164.77734375 C-80.31002481 162.77350313 -80.31002481 162.77350313 -80.67578125 160.11328125 C-81.4219386 157.41336815 -81.4219386 157.41336815 -84.5625 155.7421875 C-86.90737363 155.27605505 -89.26379313 154.86690599 -91.625 154.4921875 C-98.59021831 153.24965699 -103.79743847 150.93393789 -109.5625 146.7421875 C-110.449375 146.1646875 -111.33625 145.5871875 -112.25 144.9921875 C-121.28332191 136.20300943 -125.66861891 125.70764748 -126.0625 113.1796875 C-125.67397172 100.50071466 -120.49225216 90.20241947 -111.375 81.4921875 C-102.9073884 74.38165555 -93.23978432 71.83011432 -82.5625 69.7421875 C-81.53187125 65.16919901 -81.73357468 62.10877597 -83 57.6171875 C-87.00150538 41.38988457 -82.85500547 27.81280421 -74.5625 13.7421875 C-57.61864766 -10.05654286 -24.20712448 -15.59497442 0 0 Z " fill="#DEDEDE" transform="translate(137.5625,40.2578125)"/>
<path d="M0 0 C13.04140976 8.46214452 22.0527006 20.43886203 26 35.625 C27.70255536 44.84171798 26.77434836 53.21281114 24.24609375 62.1796875 C23.63105227 65.4914493 23.95155759 67.92206015 24.6875 71.1875 C25.71488281 71.40664062 26.74226563 71.62578125 27.80078125 71.8515625 C40.24721276 74.64086443 51.74260946 78.54970972 59.6875 89.1875 C66.74040172 100.89304727 69.63388515 111.82330901 67.07421875 125.453125 C63.52920209 137.3843705 56.39937963 146.00825043 45.6875 152.1875 C40.40270616 155.02563003 35.34363704 155.83706463 29.45703125 156.5625 C26.49381965 157.23120784 24.94825161 158.20192341 22.6875 160.1875 C22.88778722 164.29338795 23.6734257 166.4020662 26.5 169.25 C33.95301624 177.51117463 34.57163629 189.24217232 34.13671875 199.875 C33.66273803 205.92920751 31.67189099 210.93340113 28.6875 216.1875 C28.21828125 217.01894531 27.7490625 217.85039062 27.265625 218.70703125 C24.09033854 223.85406817 20.33262956 227.37214281 15.6875 231.1875 C15.10484375 230.07375 14.5221875 228.96 13.921875 227.8125 C5.92220626 212.80960378 -3.54296597 199.49201285 -15.3125 187.1875 C-15.93125 186.5171875 -16.55 185.846875 -17.1875 185.15625 C-24.27176744 177.71776918 -32.61998445 171.44189204 -41.3125 166 C-49.65415744 160.47956125 -52.13552422 152.7219554 -54.3125 143.1875 C-55.63062629 134.9458821 -53.05229068 126.55038943 -48.6640625 119.5625 C-46.12569966 116.19279562 -43.80525781 113.54396309 -40.375 111.0625 C-37.88701445 109.22858217 -37.88701445 109.22858217 -38 105.4375 C-38.103125 104.365 -38.20625 103.2925 -38.3125 102.1875 C-39.06273437 101.89617187 -39.81296875 101.60484375 -40.5859375 101.3046875 C-55.33683958 95.39689548 -68.44955215 87.50510654 -76.3125 73.1875 C-78.23437343 68.58695324 -79.8581028 63.95936519 -81.3125 59.1875 C-81.51488281 58.54296875 -81.71726562 57.8984375 -81.92578125 57.234375 C-84.49514099 43.63493559 -81.63232129 29.08364667 -74.0625 17.55859375 C-56.51209665 -6.22063579 -26.49031388 -14.94839195 0 0 Z " fill="#DEDEDE" transform="translate(432.3125,38.8125)"/>
</svg>
