<?xml version="1.0" encoding="UTF-8"?>
<svg version="1.1" xmlns="http://www.w3.org/2000/svg" width="64" height="64">
<path d="M0 0 C5.57422691 4.63718015 9.50437375 9.19731188 10.27734375 16.6875 C10.44875194 21.9531597 9.98592907 26.51034115 8.5 31.5625 C6.45329606 38.73552782 6.81807129 45.78379045 6.9921875 53.16796875 C6.99605469 55.06482422 6.99605469 55.06482422 7 57 C6 58 6 58 3.77514648 58.11352539 C2.81680908 58.10828857 1.85847168 58.10305176 0.87109375 58.09765625 C-0.16337891 58.09443359 -1.19785156 58.09121094 -2.26367188 58.08789062 C-3.35228516 58.07951172 -4.44089844 58.07113281 -5.5625 58.0625 C-7.2012207 58.05573242 -7.2012207 58.05573242 -8.87304688 58.04882812 C-11.58208495 58.03699826 -14.29101599 58.02051543 -17 58 C-17 57.34 -17 56.68 -17 56 C-17.66 56 -18.32 56 -19 56 C-19 53.36 -19 50.72 -19 48 C-20.13888672 48.05220703 -20.13888672 48.05220703 -21.30078125 48.10546875 C-22.29464844 48.13253906 -23.28851563 48.15960938 -24.3125 48.1875 C-25.29863281 48.22230469 -26.28476562 48.25710937 -27.30078125 48.29296875 C-30 48 -30 48 -31.84375 46.75 C-33.89969134 43.638305 -33.17887839 40.63719401 -33 37 C-33.639375 36.690625 -34.27875 36.38125 -34.9375 36.0625 C-37 35 -37 35 -38 34 C-37.6703956 30.11066811 -37.25761948 26.75675722 -36 23.0625 C-35.11357419 20.34782097 -34.85511678 18.42659481 -34.6875 15.625 C-34.06073877 9.20610051 -30.82009845 4.42988919 -26.125 0.125 C-18.14792782 -5.29940908 -8.08614142 -5.39076095 0 0 Z " fill="#C56590" transform="translate(46,5)"/>
<path d="M0 0 C5.32158852 3.11693042 8.12895457 7.40607159 10.08984375 13.16015625 C11.1467043 17.97280224 10.03965719 22.48131562 8.81640625 27.17578125 C6.41971513 36.38412083 6.25734444 44.87528183 6.5625 54.3125 C3.2625 54.3125 -0.0375 54.3125 -3.4375 54.3125 C-3.63379336 51.45869655 -3.81976546 48.60482606 -4 45.75 C-4.05607422 44.95013672 -4.11214844 44.15027344 -4.16992188 43.32617188 C-4.46718013 38.47095373 -4.30528632 34.10139489 -3.4375 29.3125 C-2.7775 29.9725 -2.1175 30.6325 -1.4375 31.3125 C1.14604218 31.47937448 1.14604218 31.47937448 3.5625 31.3125 C6.60407942 26.08478537 8.06860724 22.38578688 7.5625 16.3125 C4.23049815 15.89478196 4.23049815 15.89478196 0.5625 16.3125 C-1.90958796 18.67082772 -1.90958796 18.67082772 -3.4375 21.3125 C-4.0975 20.6525 -4.7575 19.9925 -5.4375 19.3125 C-6.38625 19.065 -7.335 18.8175 -8.3125 18.5625 C-11.4375 17.3125 -11.4375 17.3125 -13.5 14.1875 C-14.139375 13.23875 -14.77875 12.29 -15.4375 11.3125 C-18.1079053 10.81008678 -18.1079053 10.81008678 -20.4375 11.3125 C-20.7675 13.9525 -21.0975 16.5925 -21.4375 19.3125 C-23.7475 19.3125 -26.0575 19.3125 -28.4375 19.3125 C-29.08607356 14.12391151 -28.96881256 10.35759807 -25.875 6 C-19.00796894 -2.00088968 -9.95911991 -4.55220966 0 0 Z " fill="#FBD5E3" transform="translate(42.4375,4.6875)"/>
<path d="M0 0 C5.57422691 4.63718015 9.50437375 9.19731188 10.27734375 16.6875 C10.44875194 21.9531597 9.98592907 26.51034115 8.5 31.5625 C6.45329606 38.73552782 6.81807129 45.78379045 6.9921875 53.16796875 C6.99605469 55.06482422 6.99605469 55.06482422 7 57 C6 58 6 58 3.77514648 58.11352539 C2.81680908 58.10828857 1.85847168 58.10305176 0.87109375 58.09765625 C-0.16337891 58.09443359 -1.19785156 58.09121094 -2.26367188 58.08789062 C-3.35228516 58.07951172 -4.44089844 58.07113281 -5.5625 58.0625 C-7.2012207 58.05573242 -7.2012207 58.05573242 -8.87304688 58.04882812 C-11.58208495 58.03699826 -14.29101599 58.02051543 -17 58 C-17 57.34 -17 56.68 -17 56 C-17.66 56 -18.32 56 -19 56 C-19 53.36 -19 50.72 -19 48 C-20.13888672 48.05220703 -20.13888672 48.05220703 -21.30078125 48.10546875 C-22.29464844 48.13253906 -23.28851563 48.15960938 -24.3125 48.1875 C-25.29863281 48.22230469 -26.28476562 48.25710937 -27.30078125 48.29296875 C-30 48 -30 48 -31.84375 46.75 C-33.89969134 43.638305 -33.17887839 40.63719401 -33 37 C-33.639375 36.690625 -34.27875 36.38125 -34.9375 36.0625 C-37 35 -37 35 -38 34 C-37.6703956 30.11066811 -37.25761948 26.75675722 -36 23.0625 C-35.11357419 20.34782097 -34.85511678 18.42659481 -34.6875 15.625 C-34.06073877 9.20610051 -30.82009845 4.42988919 -26.125 0.125 C-18.14792782 -5.29940908 -8.08614142 -5.39076095 0 0 Z M-30 6.25 C-32.7029687 10.3812933 -32.39607942 14.23824524 -32 19 C-32 23 -32 23 -34 32 C-27.73 32.33 -21.46 32.66 -15 33 C-15 33.33 -15 33.66 -15 34 C-20.94 33.67 -26.88 33.34 -33 33 C-32.87625 34.60875 -32.7525 36.2175 -32.625 37.875 C-32.55539063 38.77992187 -32.48578125 39.68484375 -32.4140625 40.6171875 C-32.20431868 43.17941903 -32.20431868 43.17941903 -30 45 C-27.33757179 45.46290221 -27.33757179 45.46290221 -24.375 45.625 C-23.37210938 45.69976562 -22.36921875 45.77453125 -21.3359375 45.8515625 C-20.56507812 45.90054688 -19.79421875 45.94953125 -19 46 C-18.67 48.64 -18.34 51.28 -18 54 C-16.35 54 -14.7 54 -13 54 C-13 50.04 -13 46.08 -13 42 C-12.67 45.96 -12.34 49.92 -12 54 C-11.01 54 -10.02 54 -9 54 C-9 50.37 -9 46.74 -9 43 C-8.34 43 -7.68 43 -7 43 C-7 46.63 -7 50.26 -7 54 C-3.7 54 -0.4 54 3 54 C2.95359375 52.97003906 2.9071875 51.94007812 2.859375 50.87890625 C2.61831977 42.90045091 3.00704801 35.73807021 5.0625 28 C7.18145122 19.88848996 8.00972892 14.15529691 3.8125 6.6875 C0.75447641 2.23785408 -2.87638139 -0.29212713 -8 -2 C-17.49424539 -3.07366264 -23.8243541 -1.15042484 -30 6.25 Z " fill="#7B658B" transform="translate(46,5)"/>
<path d="M0 0 C1.875 0.125 1.875 0.125 4 1 C4.433125 1.825 4.86625 2.65 5.3125 3.5 C6.1478125 4.7375 6.1478125 4.7375 7 6 C10.52513528 6.74176007 10.52513528 6.74176007 14 7 C14.66 7.66 15.32 8.32 16 9 C16.66 8.01 17.32 7.02 18 6 C20.9375 5.125 20.9375 5.125 24 5 C25.875 6.4375 25.875 6.4375 27 8 C26.67 8.99 26.34 9.98 26 11 C25.67 10.01 25.34 9.02 25 8 C23.35 8.33 21.7 8.66 20 9 C20.33 10.98 20.66 12.96 21 15 C20.34 15 19.68 15 19 15 C19 15.66 19 16.32 19 17 C19.66 16.67 20.32 16.34 21 16 C20.67 14.02 20.34 12.04 20 10 C21.32 9.67 22.64 9.34 24 9 C25.14947895 12.55293493 25.0868937 13.79976669 23.5625 17.3125 C22.7890625 18.6428125 22.7890625 18.6428125 22 20 C20.68 19.67 19.36 19.34 18 19 C18 17.68 18 16.36 18 15 C16.68 15 15.36 15 14 15 C14 16.32 14 17.64 14 19 C10 19 10 19 7.3125 16.8125 C5 14 5 14 4.5 11.3125 C4.335 10.549375 4.17 9.78625 4 9 C1.52363988 7.62533375 1.52363988 7.62533375 -1 7 C-1.04254356 5.00045254 -1.04080783 2.99958364 -1 1 C-0.67 0.67 -0.34 0.34 0 0 Z " fill="#E86E98" transform="translate(23,16)"/>
<path d="M0 0 C3.86783021 3.48104719 5.71731602 6.47052905 6.30078125 11.69140625 C6.32222407 16.94489658 5.99639638 21.51304872 4.5 26.5625 C2.45329606 33.73552782 2.81807129 40.78379045 2.9921875 48.16796875 C2.99605469 50.06482422 2.99605469 50.06482422 3 52 C2 53 2 53 -0.22485352 53.11352539 C-1.18319092 53.10828857 -2.14152832 53.10305176 -3.12890625 53.09765625 C-4.68061523 53.09282227 -4.68061523 53.09282227 -6.26367188 53.08789062 C-7.35228516 53.07951172 -8.44089844 53.07113281 -9.5625 53.0625 C-11.2012207 53.05573242 -11.2012207 53.05573242 -12.87304688 53.04882812 C-15.58208495 53.03699826 -18.29101599 53.02051543 -21 53 C-21 52.01 -21 51.02 -21 50 C-13.74 50 -6.48 50 1 50 C0.67 48.68 0.34 47.36 0 46 C-0.56371967 36.5685363 0.12426146 28.26499959 2.3203125 19.0625 C3.78451997 12.4651514 3.4213293 7.98732627 0 2 C0 1.34 0 0.68 0 0 Z " fill="#E2E3E5" transform="translate(50,10)"/>
<path d="M0 0 C2.64 0 5.28 0 8 0 C7.34 0.66 6.68 1.32 6 2 C5.83322718 5.58343976 5.83322718 5.58343976 6 9 C8.64 9.33 11.28 9.66 14 10 C14 9.01 14 8.02 14 7 C12.02 7 10.04 7 8 7 C8 6.34 8 5.68 8 5 C11.05093186 4.71217624 13.95539152 4.60053009 17 5 C19.0625 6.8125 19.0625 6.8125 20 10 C20.21720689 13.68217386 20.17415634 17.31691595 20 21 C18.35 21 16.7 21 15 21 C14.67 18.36 14.34 15.72 14 13 C13.22914062 12.95101562 12.45828125 12.90203125 11.6640625 12.8515625 C10.66117188 12.77679688 9.65828125 12.70203125 8.625 12.625 C7.12839844 12.52058594 7.12839844 12.52058594 5.6015625 12.4140625 C3 12 3 12 1 10 C0.5859375 7.6171875 0.5859375 7.6171875 0.375 4.875 C0.30023438 3.96492188 0.22546875 3.05484375 0.1484375 2.1171875 C0.09945313 1.41851562 0.05046875 0.71984375 0 0 Z " fill="#F6CFDF" transform="translate(13,38)"/>
<path d="M0 0 C2.31 0.33 4.62 0.66 7 1 C8.38065353 5.99159355 8.13272883 8.37462186 5.5625 12.9375 C4.72606467 14.30269009 3.87756515 15.6608781 3 17 C1.33388095 17.042721 -0.33382885 17.04063832 -2 17 C-2.33 16.67 -2.66 16.34 -3 16 C-3.33 17.65 -3.66 19.3 -4 21 C-4.66 21 -5.32 21 -6 21 C-6.66 19.02 -7.32 17.04 -8 15 C-7.34 15 -6.68 15 -6 15 C-6 13.68 -6 12.36 -6 11 C-4.68 11 -3.36 11 -2 11 C-1.67 12.32 -1.34 13.64 -1 15 C-0.01 15 0.98 15 2 15 C3.51953709 10.08417923 3.51953709 10.08417923 4 5 C3.01 5.33 2.02 5.66 1 6 C1.33 7.98 1.66 9.96 2 12 C1.01 12.33 0.02 12.66 -1 13 C-1 9.72724974 -0.70074844 7.153368 0 4 C2 4 4 4 6 4 C6 3.34 6 2.68 6 2 C3.69 2 1.38 2 -1 2 C-0.67 1.34 -0.34 0.68 0 0 Z " fill="#7C4C7A" transform="translate(43,20)"/>
<path d="M0 0 C0.33 0 0.66 0 1 0 C1.04254356 1.99954746 1.04080783 4.00041636 1 6 C0 7 0 7 -2.22485352 7.11352539 C-3.18319092 7.10828857 -4.14152832 7.10305176 -5.12890625 7.09765625 C-6.68061523 7.09282227 -6.68061523 7.09282227 -8.26367188 7.08789062 C-9.35228516 7.07951172 -10.44089844 7.07113281 -11.5625 7.0625 C-13.2012207 7.05573242 -13.2012207 7.05573242 -14.87304688 7.04882812 C-17.58208495 7.03699826 -20.29101599 7.02051543 -23 7 C-23 6.01 -23 5.02 -23 4 C-15.74 4 -8.48 4 -1 4 C-0.67 2.68 -0.34 1.36 0 0 Z " fill="#D9DADF" transform="translate(52,56)"/>
<path d="M0 0 C2.64 0 5.28 0 8 0 C7.34 0.66 6.68 1.32 6 2 C5.83322718 5.58343976 5.83322718 5.58343976 6 9 C8.31 9.33 10.62 9.66 13 10 C12.67 10.66 12.34 11.32 12 12 C10.54207116 12.05399736 9.08357288 12.09279177 7.625 12.125 C6.81289063 12.14820313 6.00078125 12.17140625 5.1640625 12.1953125 C3 12 3 12 1 10 C0.5859375 7.6171875 0.5859375 7.6171875 0.375 4.875 C0.30023438 3.96492188 0.22546875 3.05484375 0.1484375 2.1171875 C0.09945313 1.41851562 0.05046875 0.71984375 0 0 Z " fill="#E8C3D5" transform="translate(13,38)"/>
<path d="M0 0 C1.32 0 2.64 0 4 0 C4.06058594 0.63808594 4.12117187 1.27617188 4.18359375 1.93359375 C4.26738281 2.75988281 4.35117188 3.58617187 4.4375 4.4375 C4.51871094 5.26121094 4.59992187 6.08492187 4.68359375 6.93359375 C4.78930815 8.98662025 4.78930815 8.98662025 6 10 C7.84891946 10.23363881 9.70488031 10.41303635 11.5625 10.5625 C12.57441406 10.64628906 13.58632813 10.73007812 14.62890625 10.81640625 C15.41136719 10.87699219 16.19382812 10.93757813 17 11 C17 11.99 17 12.98 17 14 C15.22992286 14.08114106 13.45877902 14.13925505 11.6875 14.1875 C10.20830078 14.23970703 10.20830078 14.23970703 8.69921875 14.29296875 C6 14 6 14 4.15625 12.75 C2.10030866 9.638305 2.82112161 6.63719401 3 3 C2.01 2.67 1.02 2.34 0 2 C0 1.34 0 0.68 0 0 Z " fill="#9A93AC" transform="translate(10,39)"/>
<path d="M0 0 C1.32 0 2.64 0 4 0 C4.33 1.32 4.66 2.64 5 4 C5.99 4 6.98 4 8 4 C8.66 3.34 9.32 2.68 10 2 C9.67 3.32 9.34 4.64 9 6 C7.33388095 6.042721 5.66617115 6.04063832 4 6 C3.67 5.67 3.34 5.34 3 5 C2.67 6.65 2.34 8.3 2 10 C1.34 10 0.68 10 0 10 C-0.66 8.02 -1.32 6.04 -2 4 C-1.34 4 -0.68 4 0 4 C0 2.68 0 1.36 0 0 Z " fill="#875D87" transform="translate(37,31)"/>
<path d="M0 0 C0.33 0 0.66 0 1 0 C1 1.98 1 3.96 1 6 C1.66 6.33 2.32 6.66 3 7 C2.34 8.98 1.68 10.96 1 13 C-0.9078584 9.8250906 -1.1609041 7.89414789 -0.625 4.25 C-0.51414062 3.45078125 -0.40328125 2.6515625 -0.2890625 1.828125 C-0.19367187 1.22484375 -0.09828125 0.6215625 0 0 Z " fill="#E1BDD1" transform="translate(13,18)"/>
</svg>
