<?xml version="1.0" ?><svg viewBox="0 0 24 24" xmlns="http://www.w3.org/2000/svg"><defs><style>.cls-1{fill:#ffeabb;}.cls-2{fill:#eae2f9;}.cls-3{fill:#c0c3ee;}.cls-4{fill:#a2a5de;}.cls-5{fill:#f7bf75;}.cls-6{fill:#9293a5;}.cls-7{fill:#6f7188;}</style></defs><g id="Transaction"><rect class="cls-1" height="11.88" width="7.92" x="13.94" y="7.17"/><path class="cls-2" d="M3.61,3.48A1.75,1.75,0,0,0,1.86,5.23V20.52l1.51-1.35,1.51,1.35,1.51-1.35L7.9,20.52l1.52-1.35,1.5,1.35,1.51-1.35,1.51,1.35v-16A1.07,1.07,0,0,1,15,3.48ZM15,3.48l-.19.65H16a1.07,1.07,0,0,0-1-.65"/><path class="cls-3" d="M12.1,3.48v16l.33-.3,1.51,1.35v-16A1.07,1.07,0,0,1,15,3.48Zm2.92,0-.19.65H16a1.07,1.07,0,0,0-1-.65"/><path class="cls-4" d="M15,3.48A1.07,1.07,0,0,0,14,4.56V7h2.14V4.56A1.07,1.07,0,0,0,15,3.48"/><rect class="cls-5" height="11.88" width="1.84" x="20.02" y="7.17"/><rect class="cls-6" height="1.93" width="7.92" x="13.94" y="9.16"/><rect class="cls-7" height="1.93" width="1.84" x="20.02" y="9.16"/><path d="M21.86,6.67H16.59V4.55A1.57,1.57,0,0,0,15,3H3.61A2.25,2.25,0,0,0,1.36,5.23V20.52a.52.52,0,0,0,.3.46.53.53,0,0,0,.54-.09l1.17-1.05,1.18,1.05a.5.5,0,0,0,.67,0l1.17-1.05,1.18,1.05a.5.5,0,0,0,.67,0l1.18-1.05,1.17,1.05a.5.5,0,0,0,.67,0l1.17-1.05,1.18,1.05a.48.48,0,0,0,.33.13.78.78,0,0,0,.21,0,.51.51,0,0,0,.29-.46v-1h7.42a.5.5,0,0,0,.5-.5V7.17A.5.5,0,0,0,21.86,6.67ZM13.44,4.55V19.4l-.67-.6a.5.5,0,0,0-.67,0l-1.18,1.05L9.75,18.8a.5.5,0,0,0-.67,0L7.9,19.85,6.73,18.8a.5.5,0,0,0-.34-.13.46.46,0,0,0-.33.13L4.88,19.85,3.71,18.8a.5.5,0,0,0-.67,0l-.68.6V5.23A1.25,1.25,0,0,1,3.61,4h9.94A1.56,1.56,0,0,0,13.44,4.55Zm1,0A.58.58,0,0,1,15,4h0a.57.57,0,0,1,.57.57V6.67H14.44Zm6.92,14H14.44V11.59h6.92Zm0-7.95H14.44V9.66h6.92Zm0-1.93H14.44v-1h6.92Z"/><path d="M19.28,16.35a.24.24,0,0,1,.24.24.25.25,0,0,1-.41.18.16.16,0,0,1-.06-.08.5.5,0,1,0-.92.39,1.18,1.18,0,0,0,.27.4,1.19,1.19,0,0,0,.38.25v.12a.5.5,0,0,0,.5.5.51.51,0,0,0,.5-.5v-.12a1.24,1.24,0,0,0-.5-2.38A.25.25,0,0,1,19,15.1c0-.21.25-.39.47-.09a.5.5,0,0,0,.92-.39,1.31,1.31,0,0,0-.26-.4,1.19,1.19,0,0,0-.38-.25v-.12a.5.5,0,0,0-.5-.5.5.5,0,0,0-.5.5V14a1.24,1.24,0,0,0,.5,2.38Z"/><path d="M7.91,8.78a.3.3,0,0,1,0,.59.3.3,0,0,1-.21-.08.61.61,0,0,1-.07-.1.5.5,0,1,0-.92.39A1.2,1.2,0,0,0,7,10a1.42,1.42,0,0,0,.41.28v.14a.5.5,0,0,0,.5.5.5.5,0,0,0,.5-.5v-.14a1.29,1.29,0,0,0-.49-2.49.29.29,0,0,1-.3-.3.3.3,0,0,1,.5-.21.36.36,0,0,1,.07.1A.5.5,0,0,0,9.1,7a1.2,1.2,0,0,0-.28-.41,1.07,1.07,0,0,0-.42-.28V6.14a.5.5,0,0,0-.5-.5.51.51,0,0,0-.5.5v.15a1.3,1.3,0,0,0,.51,2.49Z"/><path d="M4.08,12.9H5.84a.5.5,0,0,0,.5-.5.5.5,0,0,0-.5-.5H4.08a.5.5,0,0,0-.5.5A.51.51,0,0,0,4.08,12.9Z"/><path d="M7.21,12.4a.5.5,0,0,0,.5.5h4a.5.5,0,0,0,.5-.5.5.5,0,0,0-.5-.5h-4A.5.5,0,0,0,7.21,12.4Z"/><path d="M11.7,13.93H9.94a.5.5,0,0,0-.5.5.51.51,0,0,0,.5.5H11.7a.5.5,0,0,0,.5-.5A.5.5,0,0,0,11.7,13.93Z"/><path d="M8.58,14.43a.5.5,0,0,0-.5-.5h-4a.5.5,0,0,0-.5.5.5.5,0,0,0,.5.5h4A.51.51,0,0,0,8.58,14.43Z"/><path d="M5.84,16H4.08a.5.5,0,0,0-.5.5.51.51,0,0,0,.5.5H5.84a.5.5,0,0,0,.5-.5A.5.5,0,0,0,5.84,16Z"/><path d="M11.7,16h-4a.5.5,0,0,0-.5.5.5.5,0,0,0,.5.5h4a.5.5,0,0,0,.5-.5A.5.5,0,0,0,11.7,16Z"/></g></svg>